M48
;DRILL file {KiCad (5.0.0-rc2-dev-444-g2974a2c10)} date 10/27/19 23:10:43
;FORMAT={-:-/ absolute / inch / decimal}
FMAT,2
INCH,TZ
T1C0.0130
T2C0.0200
T3C0.0295
T4C0.0354
T5C0.0394
T6C0.0400
T7C0.0709
T8C0.0984
T9C0.1299
T10C0.0984
%
G90
G05
M72
T1
X3.8902Y-1.6807
X3.8902Y-3.6807
X3.8902Y-5.7307
X5.1852Y-5.3857
X6.7902Y-1.6807
X6.7902Y-3.6807
X6.7902Y-5.7307
T2
X5.2102Y-3.9957
X5.8602Y-4.9075
X6.112Y-5.2175
T3
X4.1575Y-1.874
X4.2362Y-1.874
X4.315Y-1.874
X4.3937Y-1.874
T4
X6.5552Y-3.8507
X6.6552Y-3.8507
X4.0052Y-3.8507
X4.1052Y-3.8507
X5.2902Y-5.6807
X5.3902Y-5.6807
T5
X5.0399Y-3.2179
X5.0399Y-3.3163
X5.0399Y-3.4147
X5.6107Y-3.2179
X5.6107Y-3.4147
X3.8953Y-2.2224
X3.8953Y-2.3224
X3.8953Y-2.4224
X3.8953Y-2.5224
X3.8953Y-2.6224
X3.8953Y-2.7224
X3.8953Y-2.8224
X3.8953Y-2.9224
X3.8953Y-3.0224
X3.8953Y-3.1224
X3.8953Y-3.2224
X3.8953Y-3.3224
X4.6953Y-2.2224
X4.6953Y-2.3224
X4.6953Y-2.4224
X4.6953Y-2.5224
X4.6953Y-2.6224
X4.6953Y-2.7224
X4.6953Y-2.8224
X4.6953Y-2.9224
X4.6953Y-3.0224
X4.6953Y-3.1224
X4.6953Y-3.2224
X4.6953Y-3.3224
X4.6953Y-3.4224
X4.6953Y-3.5224
X4.6953Y-3.6224
X4.6953Y-3.7224
X5.0571Y-2.0173
X5.0571Y-2.8173
X5.1571Y-2.0173
X5.1571Y-2.8173
X5.2571Y-2.0173
X5.2571Y-2.8173
X5.3571Y-2.0173
X5.3571Y-2.8173
X5.4571Y-2.0173
X5.4571Y-2.8173
X5.5571Y-2.0173
X5.5571Y-2.8173
X5.6571Y-2.0173
X5.6571Y-2.8173
X5.7571Y-2.0173
X5.7571Y-2.8173
X5.8571Y-2.0173
X5.8571Y-2.8173
X5.9571Y-2.0173
X5.9571Y-2.8173
X6.0571Y-2.0173
X6.0571Y-2.8173
X6.1571Y-2.0173
X6.1571Y-2.8173
X6.2571Y-2.0173
X6.3571Y-2.0173
X6.4571Y-2.0173
X6.5571Y-2.0173
X5.0571Y-3.1236
X5.0571Y-3.9236
X5.1571Y-3.1236
X5.1571Y-3.9236
X5.2571Y-3.1236
X5.2571Y-3.9236
X5.3571Y-3.1236
X5.3571Y-3.9236
X5.4571Y-3.1236
X5.4571Y-3.9236
X5.5571Y-3.1236
X5.5571Y-3.9236
X5.6571Y-3.1236
X5.6571Y-3.9236
X5.7571Y-3.1236
X5.7571Y-3.9236
X5.8571Y-3.1236
X5.8571Y-3.9236
X5.9571Y-3.1236
X5.9571Y-3.9236
X6.0571Y-3.1236
X6.0571Y-3.9236
X6.1571Y-3.1236
X6.1571Y-3.9236
X6.2571Y-3.1236
X6.3571Y-3.1236
X6.4571Y-3.1236
X6.5571Y-3.1236
X4.9902Y-1.8707
X5.0902Y-1.8707
X5.1902Y-1.8707
X5.2902Y-1.8707
X5.3902Y-1.8707
X5.4902Y-1.8707
X5.5902Y-1.8707
X5.6902Y-1.8707
X3.9567Y-4.722
X3.9567Y-4.822
X3.9567Y-4.922
X3.9567Y-5.022
X3.9567Y-5.122
T6
X4.5902Y-4.8207
X4.5902Y-4.9207
X4.5902Y-5.0207
X4.5902Y-5.1207
X4.5902Y-5.2207
X4.5902Y-5.3207
X4.5902Y-5.4207
X4.5902Y-5.5207
X4.6902Y-4.8207
X4.6902Y-4.9207
X4.6902Y-5.0207
X4.6902Y-5.1207
X4.6902Y-5.2207
X4.6902Y-5.3207
X4.6902Y-5.4207
X4.6902Y-5.5207
T8
X3.9453Y-3.8724
X4.6453Y-3.8724
X6.7071Y-2.0673
X6.7071Y-2.7673
X6.7071Y-3.1736
X6.7071Y-3.8736
T9
X4.7702Y-1.8707
X4.7702Y-3.0307
X5.9102Y-1.8707
X5.9102Y-3.0307
T10
X3.9453Y-2.0724
X4.6453Y-2.0724
X4.9071Y-2.0673
X4.9071Y-2.7673
X4.9071Y-3.1736
X4.9071Y-3.8736
T5
X3.9106Y-4.122G85X3.9106Y-4.2402
G05
X4.0405Y-4.0906G85X4.1586Y-4.0906
G05
X4.0405Y-4.4094G85X4.1586Y-4.4094
G05
X5.1906Y-4.1215G85X5.1906Y-4.2396
G05
X5.3205Y-4.09G85X5.4386Y-4.09
G05
X5.3205Y-4.4089G85X5.4386Y-4.4089
G05
X6.4606Y-4.122G85X6.4606Y-4.2402
G05
X6.5905Y-4.0906G85X6.7086Y-4.0906
G05
X6.5905Y-4.4094G85X6.7086Y-4.4094
G05
X6.4606Y-5.3248G85X6.4606Y-5.4429
G05
X6.5905Y-5.2933G85X6.7086Y-5.2933
G05
X6.5905Y-5.6122G85X6.7086Y-5.6122
G05
X4.5506Y-4.1215G85X4.5506Y-4.2396
G05
X4.6805Y-4.09G85X4.7986Y-4.09
G05
X4.6805Y-4.4089G85X4.7986Y-4.4089
G05
X5.8256Y-4.122G85X5.8256Y-4.2402
G05
X5.9555Y-4.0906G85X6.0736Y-4.0906
G05
X5.9555Y-4.4094G85X6.0736Y-4.4094
G05
X6.4606Y-4.7224G85X6.4606Y-4.8406
G05
X6.5905Y-4.6909G85X6.7086Y-4.6909
G05
X6.5905Y-5.0098G85X6.7086Y-5.0098
G05
T7
X5.3194Y-3.0919G85X5.3509Y-3.0919
G05
X5.3194Y-3.5407G85X5.3509Y-3.5407
G05
T0
M30
