G04 #@! TF.GenerationSoftware,KiCad,Pcbnew,(5.0.0-rc2-dev-444-g2974a2c10)*
G04 #@! TF.CreationDate,2019-11-20T20:47:04-08:00*
G04 #@! TF.ProjectId,CG_Robot_Friend,43475F526F626F745F467269656E642E,v03*
G04 #@! TF.SameCoordinates,Original*
G04 #@! TF.FileFunction,Copper,L2,Bot,Signal*
G04 #@! TF.FilePolarity,Positive*
%FSLAX46Y46*%
G04 Gerber Fmt 4.6, Leading zero omitted, Abs format (unit mm)*
G04 Created by KiCad (PCBNEW (5.0.0-rc2-dev-444-g2974a2c10)) date 11/20/19 20:47:04*
%MOMM*%
%LPD*%
G01*
G04 APERTURE LIST*
%ADD10C,1.700000*%
%ADD11O,1.700000X1.700000*%
%ADD12R,1.700000X1.700000*%
%ADD13C,0.685800*%
%ADD14C,0.152400*%
%ADD15C,0.254000*%
G04 APERTURE END LIST*
D10*
X105250000Y-100076000D03*
X107790000Y-100076000D03*
X110330000Y-100076000D03*
X112870000Y-100076000D03*
X115410000Y-100076000D03*
X117950000Y-100076000D03*
X120490000Y-100076000D03*
X123030000Y-100076000D03*
X125570000Y-100076000D03*
X128110000Y-100076000D03*
X130650000Y-100076000D03*
X133190000Y-100076000D03*
X135730000Y-100076000D03*
X138270000Y-100076000D03*
X140810000Y-100076000D03*
X143350000Y-100076000D03*
X115410000Y-74676000D03*
X117950000Y-74676000D03*
X120490000Y-74676000D03*
X123030000Y-74676000D03*
X125570000Y-74676000D03*
X128110000Y-74676000D03*
X130650000Y-74676000D03*
X133190000Y-74676000D03*
X135730000Y-74676000D03*
X138270000Y-74676000D03*
X140810000Y-74676000D03*
X143350000Y-74676000D03*
X130657600Y-97536000D03*
X128117600Y-97536000D03*
X125577600Y-97536000D03*
X123037600Y-97536000D03*
X120497600Y-97536000D03*
X117957600Y-97536000D03*
X115417600Y-97536000D03*
X112877600Y-97536000D03*
X110337600Y-97536000D03*
X107797600Y-97536000D03*
X105257600Y-97536000D03*
X102717600Y-97536000D03*
X130657600Y-77216000D03*
X128117600Y-77216000D03*
X125577600Y-77216000D03*
X123037600Y-77216000D03*
X120497600Y-77216000D03*
X117957600Y-77216000D03*
X115417600Y-77216000D03*
X112877600Y-77216000D03*
X110337600Y-77216000D03*
X107797600Y-77216000D03*
X105257600Y-77216000D03*
X102717600Y-77216000D03*
X100177600Y-77216000D03*
X97637600Y-77216000D03*
X95097600Y-77216000D03*
X92557600Y-77216000D03*
D11*
X134620000Y-121920000D03*
X132080000Y-121920000D03*
X129540000Y-121920000D03*
X127000000Y-121920000D03*
X124460000Y-121920000D03*
X121920000Y-121920000D03*
X119380000Y-121920000D03*
X116840000Y-121920000D03*
X114300000Y-121920000D03*
X111760000Y-121920000D03*
X109220000Y-121920000D03*
X106680000Y-121920000D03*
X104140000Y-121920000D03*
X101600000Y-121920000D03*
X99060000Y-121920000D03*
X96520000Y-121920000D03*
X93980000Y-121920000D03*
D12*
X91440000Y-121920000D03*
D11*
X134620000Y-119380000D03*
X132080000Y-119380000D03*
X129540000Y-119380000D03*
X127000000Y-119380000D03*
X124460000Y-119380000D03*
X121920000Y-119380000D03*
X119380000Y-119380000D03*
X116840000Y-119380000D03*
X114300000Y-119380000D03*
X111760000Y-119380000D03*
X109220000Y-119380000D03*
X106680000Y-119380000D03*
X104140000Y-119380000D03*
X101600000Y-119380000D03*
X99060000Y-119380000D03*
X96520000Y-119380000D03*
X93980000Y-119380000D03*
D12*
X91440000Y-119380000D03*
D11*
X134620000Y-116840000D03*
X132080000Y-116840000D03*
X129540000Y-116840000D03*
X127000000Y-116840000D03*
X124460000Y-116840000D03*
X121920000Y-116840000D03*
X119380000Y-116840000D03*
X116840000Y-116840000D03*
X114300000Y-116840000D03*
X111760000Y-116840000D03*
X109220000Y-116840000D03*
X106680000Y-116840000D03*
X104140000Y-116840000D03*
X101600000Y-116840000D03*
X99060000Y-116840000D03*
X96520000Y-116840000D03*
X93980000Y-116840000D03*
D12*
X91440000Y-116840000D03*
D11*
X134620000Y-114300000D03*
X132080000Y-114300000D03*
X129540000Y-114300000D03*
X127000000Y-114300000D03*
X124460000Y-114300000D03*
X121920000Y-114300000D03*
X119380000Y-114300000D03*
X116840000Y-114300000D03*
X114300000Y-114300000D03*
X111760000Y-114300000D03*
X109220000Y-114300000D03*
X106680000Y-114300000D03*
X104140000Y-114300000D03*
X101600000Y-114300000D03*
X99060000Y-114300000D03*
X96520000Y-114300000D03*
X93980000Y-114300000D03*
D12*
X91440000Y-114300000D03*
D11*
X134620000Y-111760000D03*
X132080000Y-111760000D03*
X129540000Y-111760000D03*
X127000000Y-111760000D03*
X124460000Y-111760000D03*
X121920000Y-111760000D03*
X119380000Y-111760000D03*
X116840000Y-111760000D03*
X114300000Y-111760000D03*
X111760000Y-111760000D03*
X109220000Y-111760000D03*
X106680000Y-111760000D03*
X104140000Y-111760000D03*
X101600000Y-111760000D03*
X99060000Y-111760000D03*
X96520000Y-111760000D03*
X93980000Y-111760000D03*
D12*
X91440000Y-111760000D03*
D11*
X134620000Y-63500000D03*
X132080000Y-63500000D03*
X129540000Y-63500000D03*
X127000000Y-63500000D03*
X124460000Y-63500000D03*
X121920000Y-63500000D03*
X119380000Y-63500000D03*
X116840000Y-63500000D03*
X114300000Y-63500000D03*
X111760000Y-63500000D03*
X109220000Y-63500000D03*
X106680000Y-63500000D03*
X104140000Y-63500000D03*
X101600000Y-63500000D03*
X99060000Y-63500000D03*
X96520000Y-63500000D03*
X93980000Y-63500000D03*
D12*
X91440000Y-63500000D03*
D11*
X134620000Y-60960000D03*
X132080000Y-60960000D03*
X129540000Y-60960000D03*
X127000000Y-60960000D03*
X124460000Y-60960000D03*
X121920000Y-60960000D03*
X119380000Y-60960000D03*
X116840000Y-60960000D03*
X114300000Y-60960000D03*
X111760000Y-60960000D03*
X109220000Y-60960000D03*
X106680000Y-60960000D03*
X104140000Y-60960000D03*
X101600000Y-60960000D03*
X99060000Y-60960000D03*
X96520000Y-60960000D03*
X93980000Y-60960000D03*
D12*
X91440000Y-60960000D03*
D11*
X134620000Y-106680000D03*
X132080000Y-106680000D03*
X129540000Y-106680000D03*
X127000000Y-106680000D03*
X124460000Y-106680000D03*
X121920000Y-106680000D03*
X119380000Y-106680000D03*
X116840000Y-106680000D03*
X114300000Y-106680000D03*
X111760000Y-106680000D03*
X109220000Y-106680000D03*
X106680000Y-106680000D03*
D12*
X104140000Y-106680000D03*
D11*
X101600000Y-106680000D03*
X99060000Y-106680000D03*
X96520000Y-106680000D03*
X93980000Y-106680000D03*
D12*
X91440000Y-106680000D03*
D11*
X134620000Y-68580000D03*
X132080000Y-68580000D03*
X129540000Y-68580000D03*
X127000000Y-68580000D03*
X124460000Y-68580000D03*
X121920000Y-68580000D03*
X119380000Y-68580000D03*
X116840000Y-68580000D03*
X114300000Y-68580000D03*
X111760000Y-68580000D03*
X109220000Y-68580000D03*
X106680000Y-68580000D03*
D12*
X104140000Y-68580000D03*
X101600000Y-68580000D03*
D11*
X99060000Y-68580000D03*
X96520000Y-68580000D03*
X93980000Y-68580000D03*
D12*
X91440000Y-68580000D03*
X91440000Y-58420000D03*
D11*
X93980000Y-58420000D03*
X96520000Y-58420000D03*
X99060000Y-58420000D03*
X101600000Y-58420000D03*
X104140000Y-58420000D03*
X106680000Y-58420000D03*
X109220000Y-58420000D03*
X109220000Y-55880000D03*
X106680000Y-55880000D03*
X104140000Y-55880000D03*
X101600000Y-55880000D03*
X99060000Y-55880000D03*
X96520000Y-55880000D03*
X93980000Y-55880000D03*
D12*
X91440000Y-55880000D03*
X91440000Y-53340000D03*
D11*
X93980000Y-53340000D03*
X96520000Y-53340000D03*
X99060000Y-53340000D03*
X101600000Y-53340000D03*
X104140000Y-53340000D03*
X106680000Y-53340000D03*
X109220000Y-53340000D03*
D13*
X142240000Y-94234000D03*
X86360000Y-91694000D03*
X86360000Y-82804000D03*
X137414000Y-63500000D03*
X87884000Y-63500000D03*
X137414000Y-53340000D03*
X87884000Y-53340000D03*
X139700000Y-121920000D03*
X87884000Y-121920000D03*
X139700000Y-102235000D03*
X87884000Y-111760000D03*
X104140000Y-104394000D03*
X104120000Y-70880000D03*
X101600000Y-70790000D03*
X114300000Y-86995000D03*
D14*
X140810000Y-73473919D02*
X140810000Y-74676000D01*
X140810000Y-73068934D02*
X140810000Y-73473919D01*
X137591067Y-69850001D02*
X140810000Y-73068934D01*
X133350000Y-69850000D02*
X137591067Y-69850001D01*
X132080000Y-68580000D02*
X133350000Y-69850000D01*
X143350000Y-73473919D02*
X143350000Y-74676000D01*
X142774081Y-72898000D02*
X143350000Y-73473919D01*
X141070132Y-72898000D02*
X142774081Y-72898000D01*
X137717324Y-69545192D02*
X141070132Y-72898000D01*
X135585191Y-69545191D02*
X137717324Y-69545192D01*
X134620000Y-68580000D02*
X135585191Y-69545191D01*
X121920000Y-106680000D02*
X121920000Y-104648000D01*
X121920000Y-104648000D02*
X122580428Y-103987572D01*
X130650000Y-103284000D02*
X130650000Y-100076000D01*
X122580428Y-103987572D02*
X129737149Y-103987572D01*
X129737149Y-103987572D02*
X129737151Y-103987570D01*
X129737151Y-103987570D02*
X129946430Y-103987570D01*
X129946430Y-103987570D02*
X130650000Y-103284000D01*
X117957600Y-78841600D02*
X117957600Y-77216000D01*
X118618000Y-79502000D02*
X117957600Y-78841600D01*
X131920000Y-98806000D02*
X132334000Y-98806000D01*
X132334000Y-98806000D02*
X132842000Y-98298000D01*
X132842000Y-98298000D02*
X132842000Y-89991466D01*
X130650000Y-100076000D02*
X131920000Y-98806000D01*
X132842000Y-89991466D02*
X122352534Y-79502000D01*
X122352534Y-79502000D02*
X118618000Y-79502000D01*
X133190000Y-89908400D02*
X120497600Y-77216000D01*
X133190000Y-100076000D02*
X133190000Y-89908400D01*
X133190000Y-103690380D02*
X133190000Y-100076000D01*
X124460000Y-104648000D02*
X124815618Y-104292382D01*
X124460000Y-106680000D02*
X124460000Y-104648000D01*
X124815618Y-104292382D02*
X129863405Y-104292382D01*
X129863405Y-104292382D02*
X129863407Y-104292380D01*
X129863407Y-104292380D02*
X132588000Y-104292380D01*
X132588000Y-104292380D02*
X133190000Y-103690380D01*
X92557600Y-76013919D02*
X92456000Y-75912319D01*
X92557600Y-77216000D02*
X92557600Y-76013919D01*
X92456000Y-75912319D02*
X92456000Y-74168000D01*
X92456000Y-74168000D02*
X93218000Y-73406000D01*
X96520000Y-72898000D02*
X96520000Y-68580000D01*
X93218000Y-73406000D02*
X96012000Y-73406000D01*
X96012000Y-73406000D02*
X96520000Y-72898000D01*
D15*
X93980000Y-106680000D02*
X93980000Y-108458000D01*
X93980000Y-108458000D02*
X94488000Y-108966000D01*
X99060000Y-108204000D02*
X99060000Y-106680000D01*
X98298000Y-108966000D02*
X99060000Y-108204000D01*
X93980000Y-67377919D02*
X94742000Y-66615919D01*
X93980000Y-68580000D02*
X93980000Y-67377919D01*
X94742000Y-66615919D02*
X98365919Y-66615919D01*
X99060000Y-67310000D02*
X99060000Y-68580000D01*
X98365919Y-66615919D02*
X99060000Y-67310000D01*
X93980000Y-65853919D02*
X93980000Y-63500000D01*
X94742000Y-66615919D02*
X93980000Y-65853919D01*
X93980000Y-63500000D02*
X93980000Y-60960000D01*
X93980000Y-60960000D02*
X93980000Y-58420000D01*
X93980000Y-58420000D02*
X93980000Y-55880000D01*
X93980000Y-55880000D02*
X93980000Y-53340000D01*
X93980000Y-120717919D02*
X93980000Y-119380000D01*
X93980000Y-121920000D02*
X93980000Y-120717919D01*
X93980000Y-118177919D02*
X93980000Y-116840000D01*
X93980000Y-119380000D02*
X93980000Y-118177919D01*
X93980000Y-116840000D02*
X93980000Y-114300000D01*
X93980000Y-113097919D02*
X93980000Y-111760000D01*
X93980000Y-114300000D02*
X93980000Y-113097919D01*
X93980000Y-109728000D02*
X94742000Y-108966000D01*
X93980000Y-111760000D02*
X93980000Y-109728000D01*
X94488000Y-108966000D02*
X94742000Y-108966000D01*
X94742000Y-108966000D02*
X98298000Y-108966000D01*
X107790000Y-101621408D02*
X107790000Y-100076000D01*
X106541408Y-102870000D02*
X107790000Y-101621408D01*
X100076000Y-102870000D02*
X106541408Y-102870000D01*
X99060000Y-103886000D02*
X100076000Y-102870000D01*
X99060000Y-106680000D02*
X99060000Y-103886000D01*
X95732600Y-80264000D02*
X95097600Y-79629000D01*
X97536000Y-80264000D02*
X95732600Y-80264000D01*
X99060000Y-81788000D02*
X97536000Y-80264000D01*
X99060000Y-103886000D02*
X99060000Y-81788000D01*
X95097600Y-77216000D02*
X95097600Y-79629000D01*
D14*
X115410000Y-101506000D02*
X115410000Y-100076000D01*
X114808000Y-102108000D02*
X115410000Y-101506000D01*
X114276802Y-102108000D02*
X114808000Y-102108000D01*
X106680000Y-106680000D02*
X106680000Y-103886000D01*
X107696000Y-102870000D02*
X109550934Y-102870000D01*
X106680000Y-103886000D02*
X107696000Y-102870000D01*
X109550934Y-102870000D02*
X110058934Y-102362000D01*
X110058934Y-102362000D02*
X114022802Y-102362000D01*
X114022802Y-102362000D02*
X114276802Y-102108000D01*
X116713000Y-98773000D02*
X115410000Y-100076000D01*
X116713000Y-81915000D02*
X116713000Y-98773000D01*
X116128860Y-81330860D02*
X116713000Y-81915000D01*
X102717600Y-78418081D02*
X102743000Y-78443481D01*
X102717600Y-77216000D02*
X102717600Y-78418081D01*
X106045794Y-81330860D02*
X104978934Y-80264000D01*
X116128860Y-81330860D02*
X106045794Y-81330860D01*
X103632000Y-80264000D02*
X102743000Y-79375000D01*
X104978934Y-80264000D02*
X103632000Y-80264000D01*
X102743000Y-78443481D02*
X102743000Y-79375000D01*
X135730000Y-103995190D02*
X135730000Y-100076000D01*
X135128000Y-104597190D02*
X135730000Y-103995190D01*
X127304809Y-104597191D02*
X135128000Y-104597190D01*
X127000000Y-106680000D02*
X127000000Y-104902000D01*
X127000000Y-104902000D02*
X127304809Y-104597191D01*
X133494808Y-97272940D02*
X133494809Y-89782143D01*
X135730000Y-98873919D02*
X135662081Y-98806000D01*
X135730000Y-100076000D02*
X135730000Y-98873919D01*
X135204890Y-98348809D02*
X134570676Y-98348808D01*
X134570676Y-98348808D02*
X133494808Y-97272940D01*
X135730000Y-98873919D02*
X135204890Y-98348809D01*
X133494809Y-89782143D02*
X123037600Y-79324934D01*
X123037600Y-79324934D02*
X123037600Y-77216000D01*
X117950000Y-73246000D02*
X117950000Y-74676000D01*
X117348050Y-72644050D02*
X117950000Y-73246000D01*
X112081969Y-72644050D02*
X117348050Y-72644050D01*
X109220000Y-68580000D02*
X109220000Y-69782081D01*
X109220000Y-69782081D02*
X112081969Y-72644050D01*
X138270000Y-70960000D02*
X138270000Y-74676000D01*
X137464810Y-70154810D02*
X138270000Y-70960000D01*
X129540000Y-68580000D02*
X131114810Y-70154810D01*
X131114810Y-70154810D02*
X137464810Y-70154810D01*
X128879619Y-70459619D02*
X134975619Y-70459619D01*
X127000000Y-68580000D02*
X128879619Y-70459619D01*
X135730000Y-71214000D02*
X135730000Y-74676000D01*
X134975619Y-70459619D02*
X135730000Y-71214000D01*
X126644429Y-70764429D02*
X124460000Y-68580000D01*
X132486429Y-70764429D02*
X126644429Y-70764429D01*
X133190000Y-71468000D02*
X132486429Y-70764429D01*
X133190000Y-74676000D02*
X133190000Y-71468000D01*
X121920000Y-69782081D02*
X123257919Y-71120000D01*
X121920000Y-68580000D02*
X121920000Y-69782081D01*
X123257919Y-71120000D02*
X130048000Y-71120000D01*
X130650000Y-71722000D02*
X130650000Y-74676000D01*
X130048000Y-71120000D02*
X130650000Y-71722000D01*
X128110000Y-72230000D02*
X128110000Y-74676000D01*
X127304810Y-71424810D02*
X128110000Y-72230000D01*
X121022729Y-71424810D02*
X127304810Y-71424810D01*
X119380000Y-68580000D02*
X119380000Y-69782081D01*
X119380000Y-69782081D02*
X121022729Y-71424810D01*
X125570000Y-72484000D02*
X125570000Y-74676000D01*
X124815620Y-71729620D02*
X125570000Y-72484000D01*
X118787539Y-71729620D02*
X124815620Y-71729620D01*
X116840000Y-68580000D02*
X116840000Y-69782081D01*
X116840000Y-69782081D02*
X118787539Y-71729620D01*
X114300000Y-68580000D02*
X114300000Y-69850000D01*
X116484430Y-72034430D02*
X122072430Y-72034430D01*
X114300000Y-69850000D02*
X116484430Y-72034430D01*
X123030000Y-72992000D02*
X123030000Y-74676000D01*
X122072430Y-72034430D02*
X123030000Y-72992000D01*
X120490000Y-72992000D02*
X120490000Y-74676000D01*
X119837240Y-72339240D02*
X120490000Y-72992000D01*
X114317159Y-72339240D02*
X119837240Y-72339240D01*
X111760000Y-68580000D02*
X111760000Y-69782081D01*
X111760000Y-69782081D02*
X114317159Y-72339240D01*
X115410000Y-73473919D02*
X115410000Y-74676000D01*
X114884941Y-72948860D02*
X115410000Y-73473919D01*
X109846779Y-72948860D02*
X114884941Y-72948860D01*
X106680000Y-69782081D02*
X109846779Y-72948860D01*
X106680000Y-68580000D02*
X106680000Y-69782081D01*
X135469999Y-105830001D02*
X134620000Y-106680000D01*
X138798080Y-105830001D02*
X135469999Y-105830001D01*
X143350000Y-101278081D02*
X138798080Y-105830001D01*
X143350000Y-100076000D02*
X143350000Y-101278081D01*
X143350000Y-98138000D02*
X143350000Y-100076000D01*
X130657600Y-85651736D02*
X134409237Y-89403373D01*
X130657600Y-77216000D02*
X130657600Y-85651736D01*
X134409237Y-89403373D02*
X134409238Y-96817238D01*
X135026380Y-97434380D02*
X142646380Y-97434380D01*
X134409238Y-96817238D02*
X135026380Y-97434380D01*
X142646380Y-97434380D02*
X143350000Y-98138000D01*
X132080000Y-105477919D02*
X132334000Y-105223919D01*
X132080000Y-106680000D02*
X132080000Y-105477919D01*
X132334000Y-105223919D02*
X138870081Y-105223919D01*
X140810000Y-103284000D02*
X140810000Y-100076000D01*
X138870081Y-105223919D02*
X140810000Y-103284000D01*
X140810000Y-98392000D02*
X140810000Y-100076000D01*
X128117600Y-83542802D02*
X134104428Y-89529630D01*
X128117600Y-77216000D02*
X128117600Y-83542802D01*
X134104428Y-89529630D02*
X134104428Y-97020428D01*
X134104428Y-97020428D02*
X134823190Y-97739190D01*
X134823190Y-97739190D02*
X140157190Y-97739190D01*
X140157190Y-97739190D02*
X140810000Y-98392000D01*
X138270000Y-104300000D02*
X138270000Y-100076000D01*
X137668000Y-104902000D02*
X138270000Y-104300000D01*
X129794000Y-104902000D02*
X137668000Y-104902000D01*
X129540000Y-105156000D02*
X129794000Y-104902000D01*
X129540000Y-106680000D02*
X129540000Y-105156000D01*
X138270000Y-98646000D02*
X138270000Y-100076000D01*
X125577600Y-81433868D02*
X133799618Y-89655886D01*
X125577600Y-77216000D02*
X125577600Y-81433868D01*
X133799618Y-89655886D02*
X133799618Y-97146684D01*
X133799618Y-97146684D02*
X134696933Y-98043999D01*
X134696933Y-98043999D02*
X137668000Y-98044000D01*
X137668000Y-98044000D02*
X138270000Y-98646000D01*
X128110000Y-103030000D02*
X128110000Y-100076000D01*
X127457238Y-103682762D02*
X128110000Y-103030000D01*
X120091238Y-103682762D02*
X127457238Y-103682762D01*
X119380000Y-106680000D02*
X119380000Y-104394000D01*
X119380000Y-104394000D02*
X120091238Y-103682762D01*
X129413000Y-98773000D02*
X128110000Y-100076000D01*
X129413000Y-86993532D02*
X129413000Y-98773000D01*
X122226278Y-79806810D02*
X129413000Y-86993532D01*
X116281190Y-79806810D02*
X122226278Y-79806810D01*
X115417600Y-77216000D02*
X115417600Y-78943220D01*
X115417600Y-78943220D02*
X116281190Y-79806810D01*
X125570000Y-102776000D02*
X125570000Y-100076000D01*
X124968048Y-103377952D02*
X125570000Y-102776000D01*
X117602048Y-103377952D02*
X124968048Y-103377952D01*
X116840000Y-106680000D02*
X116840000Y-104140000D01*
X116840000Y-104140000D02*
X117602048Y-103377952D01*
X112877600Y-77216000D02*
X112877600Y-79095600D01*
X113893620Y-80111620D02*
X122100022Y-80111620D01*
X112877600Y-79095600D02*
X113893620Y-80111620D01*
X122100022Y-80111620D02*
X126873000Y-84884598D01*
X126873000Y-98773000D02*
X125570000Y-100076000D01*
X126873000Y-84884598D02*
X126873000Y-98773000D01*
X123030000Y-102471142D02*
X123030000Y-100076000D01*
X122428000Y-103073142D02*
X123030000Y-102471142D01*
X122428000Y-103073142D02*
X114604858Y-103073142D01*
X114300000Y-103378000D02*
X114300000Y-106680000D01*
X114604858Y-103073142D02*
X114300000Y-103378000D01*
X124206000Y-98900000D02*
X123030000Y-100076000D01*
X110337600Y-79324934D02*
X111429096Y-80416430D01*
X111429096Y-80416430D02*
X121945430Y-80416430D01*
X121945430Y-80416430D02*
X124333000Y-82804000D01*
X124333000Y-82804000D02*
X124333000Y-98773000D01*
X110337600Y-77216000D02*
X110337600Y-79324934D01*
X124333000Y-98773000D02*
X124206000Y-98900000D01*
X120490000Y-102268000D02*
X120490000Y-100076000D01*
X111760000Y-106680000D02*
X111760000Y-103378000D01*
X111760000Y-103378000D02*
X112014000Y-103124000D01*
X112014000Y-103124000D02*
X114122934Y-103124000D01*
X114122934Y-103124000D02*
X114478602Y-102768332D01*
X114478602Y-102768332D02*
X119989668Y-102768332D01*
X119989668Y-102768332D02*
X120490000Y-102268000D01*
X107797600Y-77216000D02*
X107797600Y-79603600D01*
X108915239Y-80721239D02*
X111302840Y-80721240D01*
X107797600Y-79603600D02*
X108915239Y-80721239D01*
X111302840Y-80721240D02*
X121107240Y-80721240D01*
X121107240Y-80721240D02*
X121793000Y-81407000D01*
X121793000Y-98773000D02*
X120490000Y-100076000D01*
X121793000Y-81407000D02*
X121793000Y-98773000D01*
X109220000Y-103632000D02*
X110032809Y-102819191D01*
X117950000Y-102014000D02*
X117950000Y-100076000D01*
X109220000Y-106680000D02*
X109220000Y-103632000D01*
X110032809Y-102819191D02*
X113996678Y-102819190D01*
X113996678Y-102819190D02*
X114352346Y-102463522D01*
X114352346Y-102463522D02*
X117500478Y-102463522D01*
X117500478Y-102463522D02*
X117950000Y-102014000D01*
X119253000Y-98773000D02*
X117950000Y-100076000D01*
X119253000Y-81661000D02*
X119253000Y-98773000D01*
X118618050Y-81026050D02*
X119253000Y-81661000D01*
X111176584Y-81026050D02*
X118618050Y-81026050D01*
X105257600Y-78418081D02*
X105283000Y-78443481D01*
X105257600Y-77216000D02*
X105257600Y-78418081D01*
X105283000Y-78443481D02*
X105283000Y-80137000D01*
X105283000Y-80137000D02*
X106172048Y-81026048D01*
X106172048Y-81026048D02*
X111176582Y-81026048D01*
X111176582Y-81026048D02*
X111176584Y-81026050D01*
X110330000Y-101278081D02*
X110330000Y-100076000D01*
X110330000Y-101659868D02*
X110330000Y-101278081D01*
X101600000Y-106680000D02*
X101600000Y-104140000D01*
X101600000Y-104140000D02*
X102362000Y-103378000D01*
X102362000Y-103378000D02*
X106680000Y-103378000D01*
X106680000Y-103378000D02*
X107492810Y-102565190D01*
X107492810Y-102565190D02*
X109424678Y-102565190D01*
X109424678Y-102565190D02*
X110330000Y-101659868D01*
X97895118Y-78675599D02*
X97637600Y-78418081D01*
X97637600Y-78418081D02*
X97637600Y-77216000D01*
X98487599Y-78675599D02*
X97895118Y-78675599D01*
X100380810Y-80568810D02*
X98487599Y-78675599D01*
X110330000Y-100076000D02*
X111416201Y-98989799D01*
X111416201Y-98989799D02*
X111416201Y-82333201D01*
X111416201Y-82333201D02*
X110718670Y-81635670D01*
X110718670Y-81635670D02*
X105919537Y-81635669D01*
X105919537Y-81635669D02*
X104852678Y-80568810D01*
X104852678Y-80568810D02*
X100380810Y-80568810D01*
D15*
X91440000Y-120816000D02*
X91440000Y-119380000D01*
X91440000Y-121920000D02*
X91440000Y-120816000D01*
X91440000Y-119380000D02*
X91440000Y-116840000D01*
X91440000Y-115736000D02*
X91440000Y-114300000D01*
X91440000Y-116840000D02*
X91440000Y-115736000D01*
X91440000Y-113196000D02*
X91440000Y-111760000D01*
X91440000Y-114300000D02*
X91440000Y-113196000D01*
X91440000Y-110656000D02*
X91440000Y-106680000D01*
X91440000Y-111760000D02*
X91440000Y-110656000D01*
X91440000Y-111760000D02*
X87884000Y-111760000D01*
X90336000Y-121920000D02*
X87884000Y-121920000D01*
X91440000Y-121920000D02*
X90336000Y-121920000D01*
X91440000Y-67476000D02*
X91440000Y-63500000D01*
X91440000Y-68580000D02*
X91440000Y-67476000D01*
X91440000Y-62396000D02*
X91440000Y-60960000D01*
X91440000Y-63500000D02*
X91440000Y-62396000D01*
X91440000Y-59856000D02*
X91440000Y-58420000D01*
X91440000Y-60960000D02*
X91440000Y-59856000D01*
X91440000Y-58420000D02*
X91440000Y-55880000D01*
X91440000Y-54776000D02*
X91440000Y-53340000D01*
X91440000Y-55880000D02*
X91440000Y-54776000D01*
X91440000Y-53340000D02*
X87884000Y-53340000D01*
X90336000Y-63500000D02*
X87884000Y-63500000D01*
X91440000Y-63500000D02*
X90336000Y-63500000D01*
X101027599Y-76366001D02*
X101052999Y-76366001D01*
X100177600Y-77216000D02*
X101027599Y-76366001D01*
X104140000Y-71247000D02*
X104140000Y-70762067D01*
X104140000Y-106680000D02*
X104140000Y-104394000D01*
X101600000Y-70790000D02*
X101600000Y-68580000D01*
X104120000Y-68600000D02*
X104140000Y-68580000D01*
X104120000Y-70880000D02*
X104120000Y-68600000D01*
X99060000Y-74060000D02*
X99060000Y-68580000D01*
X95097600Y-77216000D02*
X95097600Y-76013919D01*
X95097600Y-76013919D02*
X95090000Y-76006319D01*
X95090000Y-76006319D02*
X95090000Y-75420000D01*
X95090000Y-75420000D02*
X95780000Y-74730000D01*
X95780000Y-74730000D02*
X98390000Y-74730000D01*
X98390000Y-74730000D02*
X99060000Y-74060000D01*
G36*
X111410470Y-45071468D02*
X111789778Y-45243929D01*
X112105438Y-45515919D01*
X112332073Y-45865575D01*
X112455730Y-46279054D01*
X112472000Y-46497995D01*
X112472001Y-51866165D01*
X92443265Y-51866165D01*
X92416310Y-51855000D01*
X91725750Y-51855000D01*
X91714585Y-51866165D01*
X91165415Y-51866165D01*
X91154250Y-51855000D01*
X90463690Y-51855000D01*
X90436735Y-51866165D01*
X89830893Y-51866165D01*
X89782292Y-51875832D01*
X89741090Y-51903362D01*
X89713560Y-51944564D01*
X89703893Y-51993165D01*
X89703893Y-69977000D01*
X89713560Y-70025601D01*
X89741090Y-70066803D01*
X89782292Y-70094333D01*
X89830893Y-70104000D01*
X96062801Y-70104000D01*
X96062800Y-72708622D01*
X95822622Y-72948800D01*
X93263030Y-72948800D01*
X93218000Y-72939843D01*
X93172970Y-72948800D01*
X93039609Y-72975327D01*
X92888377Y-73076377D01*
X92862870Y-73114551D01*
X92164552Y-73812870D01*
X92126378Y-73838377D01*
X92100871Y-73876551D01*
X92100870Y-73876552D01*
X92025327Y-73989610D01*
X91989843Y-74168000D01*
X91998801Y-74213035D01*
X91998800Y-75867289D01*
X91989843Y-75912319D01*
X92004300Y-75985000D01*
X92025327Y-76090709D01*
X92032308Y-76101158D01*
X91860294Y-76172408D01*
X91514008Y-76518694D01*
X91326600Y-76971139D01*
X91326600Y-77460861D01*
X91514008Y-77913306D01*
X91860294Y-78259592D01*
X92312739Y-78447000D01*
X92802461Y-78447000D01*
X93254906Y-78259592D01*
X93601192Y-77913306D01*
X93788600Y-77460861D01*
X93788600Y-76971139D01*
X93601192Y-76518694D01*
X93254906Y-76172408D01*
X93014800Y-76072953D01*
X93014800Y-76058948D01*
X93023757Y-76013918D01*
X92988273Y-75835529D01*
X92988273Y-75835528D01*
X92913200Y-75723173D01*
X92913200Y-74357378D01*
X93407379Y-73863200D01*
X95966970Y-73863200D01*
X96012000Y-73872157D01*
X96057030Y-73863200D01*
X96190391Y-73836673D01*
X96341623Y-73735623D01*
X96367132Y-73697446D01*
X96811446Y-73253132D01*
X96849623Y-73227623D01*
X96950673Y-73076391D01*
X96977200Y-72943030D01*
X96977200Y-72943026D01*
X96986156Y-72898001D01*
X96977200Y-72852976D01*
X96977200Y-70104000D01*
X98552001Y-70104000D01*
X98552000Y-73849579D01*
X98179580Y-74222000D01*
X95830027Y-74222000D01*
X95779999Y-74212049D01*
X95729971Y-74222000D01*
X95729968Y-74222000D01*
X95581788Y-74251475D01*
X95413753Y-74363753D01*
X95385412Y-74406168D01*
X94766166Y-75025414D01*
X94723754Y-75053753D01*
X94695415Y-75096165D01*
X94695412Y-75096168D01*
X94611475Y-75221789D01*
X94572049Y-75420000D01*
X94582001Y-75470032D01*
X94582000Y-75956290D01*
X94572049Y-76006319D01*
X94582000Y-76056347D01*
X94582000Y-76056350D01*
X94589497Y-76094038D01*
X94400294Y-76172408D01*
X94054008Y-76518694D01*
X93866600Y-76971139D01*
X93866600Y-77460861D01*
X94054008Y-77913306D01*
X94400294Y-78259592D01*
X94589600Y-78338005D01*
X94589601Y-79578967D01*
X94579649Y-79629000D01*
X94619075Y-79827211D01*
X94703012Y-79952832D01*
X94703015Y-79952835D01*
X94731354Y-79995247D01*
X94773766Y-80023586D01*
X95338014Y-80587835D01*
X95366353Y-80630247D01*
X95408765Y-80658586D01*
X95408767Y-80658588D01*
X95462773Y-80694673D01*
X95534388Y-80742525D01*
X95682568Y-80772000D01*
X95682572Y-80772000D01*
X95732600Y-80781951D01*
X95782628Y-80772000D01*
X97325580Y-80772000D01*
X98552001Y-81998421D01*
X98552000Y-103835972D01*
X98542049Y-103886000D01*
X98552000Y-103936028D01*
X98552000Y-103936031D01*
X98552001Y-103936036D01*
X98552001Y-105029000D01*
X89916000Y-105029000D01*
X89867399Y-105038667D01*
X89826197Y-105066197D01*
X89798667Y-105107399D01*
X89789000Y-105156000D01*
X89789000Y-123139835D01*
X89798667Y-123188436D01*
X89826197Y-123229638D01*
X89867399Y-123257168D01*
X89916000Y-123266835D01*
X90188809Y-123266835D01*
X90230301Y-123308327D01*
X90463690Y-123405000D01*
X91154250Y-123405000D01*
X91292415Y-123266835D01*
X91587585Y-123266835D01*
X91725750Y-123405000D01*
X92416310Y-123405000D01*
X92649699Y-123308327D01*
X92691191Y-123266835D01*
X107440978Y-123266835D01*
X107081854Y-123415589D01*
X106524589Y-123972854D01*
X106223000Y-124700955D01*
X106223000Y-125489045D01*
X106524589Y-126217146D01*
X107081854Y-126774411D01*
X107809955Y-127076000D01*
X108598045Y-127076000D01*
X109326146Y-126774411D01*
X109883411Y-126217146D01*
X109959084Y-126034455D01*
X134353500Y-126034455D01*
X134353500Y-126822545D01*
X134655089Y-127550646D01*
X135212354Y-128107911D01*
X135940455Y-128409500D01*
X136728545Y-128409500D01*
X137456646Y-128107911D01*
X138013911Y-127550646D01*
X138315500Y-126822545D01*
X138315500Y-126034455D01*
X138013911Y-125306354D01*
X137456646Y-124749089D01*
X137340441Y-124700955D01*
X138481000Y-124700955D01*
X138481000Y-125489045D01*
X138782589Y-126217146D01*
X139339854Y-126774411D01*
X140067955Y-127076000D01*
X140856045Y-127076000D01*
X141584146Y-126774411D01*
X142141411Y-126217146D01*
X142443000Y-125489045D01*
X142443000Y-124700955D01*
X142141411Y-123972854D01*
X141584146Y-123415589D01*
X140856045Y-123114000D01*
X140067955Y-123114000D01*
X139339854Y-123415589D01*
X138782589Y-123972854D01*
X138481000Y-124700955D01*
X137340441Y-124700955D01*
X136728545Y-124447500D01*
X135940455Y-124447500D01*
X135212354Y-124749089D01*
X134655089Y-125306354D01*
X134353500Y-126034455D01*
X109959084Y-126034455D01*
X110185000Y-125489045D01*
X110185000Y-124700955D01*
X109883411Y-123972854D01*
X109326146Y-123415589D01*
X108967022Y-123266835D01*
X135890000Y-123266835D01*
X135938601Y-123257168D01*
X135979803Y-123229638D01*
X136007333Y-123188436D01*
X136017000Y-123139835D01*
X136017000Y-108063955D01*
X138227000Y-108063955D01*
X138227000Y-108852045D01*
X138528589Y-109580146D01*
X139085854Y-110137411D01*
X139813955Y-110439000D01*
X140602045Y-110439000D01*
X141330146Y-110137411D01*
X141887411Y-109580146D01*
X142189000Y-108852045D01*
X142189000Y-108063955D01*
X141887411Y-107335854D01*
X141330146Y-106778589D01*
X140602045Y-106477000D01*
X139813955Y-106477000D01*
X139085854Y-106778589D01*
X138528589Y-107335854D01*
X138227000Y-108063955D01*
X136017000Y-108063955D01*
X136017000Y-106287201D01*
X138753050Y-106287201D01*
X138798080Y-106296158D01*
X138843110Y-106287201D01*
X138976471Y-106260674D01*
X139127703Y-106159624D01*
X139153212Y-106121447D01*
X143641449Y-101633211D01*
X143679623Y-101607704D01*
X143780673Y-101456472D01*
X143807200Y-101323111D01*
X143807200Y-101323110D01*
X143816157Y-101278081D01*
X143807200Y-101233051D01*
X143807200Y-101219047D01*
X144047306Y-101119592D01*
X144393592Y-100773306D01*
X144581000Y-100320861D01*
X144581000Y-99831139D01*
X144393592Y-99378694D01*
X144047306Y-99032408D01*
X143807200Y-98932953D01*
X143807200Y-98183030D01*
X143816157Y-98138000D01*
X143780673Y-97959609D01*
X143741202Y-97900537D01*
X143679623Y-97808377D01*
X143641449Y-97782870D01*
X143001512Y-97142934D01*
X142976003Y-97104757D01*
X142824771Y-97003707D01*
X142691410Y-96977180D01*
X142646380Y-96968223D01*
X142601350Y-96977180D01*
X135215758Y-96977180D01*
X134866438Y-96627860D01*
X134866436Y-89448408D01*
X134875394Y-89403373D01*
X134839910Y-89224982D01*
X134764367Y-89111924D01*
X134764364Y-89111921D01*
X134738859Y-89073750D01*
X134700688Y-89048245D01*
X131114800Y-85462358D01*
X131114800Y-78359047D01*
X131354906Y-78259592D01*
X131701192Y-77913306D01*
X131888600Y-77460861D01*
X131888600Y-76971139D01*
X131701192Y-76518694D01*
X131354906Y-76172408D01*
X130902461Y-75985000D01*
X130412739Y-75985000D01*
X129960294Y-76172408D01*
X129614008Y-76518694D01*
X129426600Y-76971139D01*
X129426600Y-77460861D01*
X129614008Y-77913306D01*
X129960294Y-78259592D01*
X130200400Y-78359047D01*
X130200401Y-84979025D01*
X128574800Y-83353424D01*
X128574800Y-78359047D01*
X128814906Y-78259592D01*
X129161192Y-77913306D01*
X129348600Y-77460861D01*
X129348600Y-76971139D01*
X129161192Y-76518694D01*
X128814906Y-76172408D01*
X128362461Y-75985000D01*
X127872739Y-75985000D01*
X127420294Y-76172408D01*
X127074008Y-76518694D01*
X126886600Y-76971139D01*
X126886600Y-77460861D01*
X127074008Y-77913306D01*
X127420294Y-78259592D01*
X127660400Y-78359047D01*
X127660401Y-82870091D01*
X126034800Y-81244490D01*
X126034800Y-78359047D01*
X126274906Y-78259592D01*
X126621192Y-77913306D01*
X126808600Y-77460861D01*
X126808600Y-76971139D01*
X126621192Y-76518694D01*
X126274906Y-76172408D01*
X125822461Y-75985000D01*
X125332739Y-75985000D01*
X124880294Y-76172408D01*
X124534008Y-76518694D01*
X124346600Y-76971139D01*
X124346600Y-77460861D01*
X124534008Y-77913306D01*
X124880294Y-78259592D01*
X125120400Y-78359047D01*
X125120401Y-80761157D01*
X123494800Y-79135556D01*
X123494800Y-78359047D01*
X123734906Y-78259592D01*
X124081192Y-77913306D01*
X124268600Y-77460861D01*
X124268600Y-76971139D01*
X124081192Y-76518694D01*
X123734906Y-76172408D01*
X123282461Y-75985000D01*
X122792739Y-75985000D01*
X122340294Y-76172408D01*
X121994008Y-76518694D01*
X121806600Y-76971139D01*
X121806600Y-77460861D01*
X121994008Y-77913306D01*
X122340294Y-78259592D01*
X122580400Y-78359047D01*
X122580400Y-78652222D01*
X121629145Y-77700967D01*
X121728600Y-77460861D01*
X121728600Y-76971139D01*
X121541192Y-76518694D01*
X121194906Y-76172408D01*
X120742461Y-75985000D01*
X120252739Y-75985000D01*
X119800294Y-76172408D01*
X119454008Y-76518694D01*
X119266600Y-76971139D01*
X119266600Y-77460861D01*
X119454008Y-77913306D01*
X119800294Y-78259592D01*
X120252739Y-78447000D01*
X120742461Y-78447000D01*
X120982567Y-78347545D01*
X121679822Y-79044800D01*
X118807378Y-79044800D01*
X118414800Y-78652222D01*
X118414800Y-78359047D01*
X118654906Y-78259592D01*
X119001192Y-77913306D01*
X119188600Y-77460861D01*
X119188600Y-76971139D01*
X119001192Y-76518694D01*
X118654906Y-76172408D01*
X118202461Y-75985000D01*
X117712739Y-75985000D01*
X117260294Y-76172408D01*
X116914008Y-76518694D01*
X116726600Y-76971139D01*
X116726600Y-77460861D01*
X116914008Y-77913306D01*
X117260294Y-78259592D01*
X117500400Y-78359047D01*
X117500400Y-78796570D01*
X117491443Y-78841600D01*
X117511877Y-78944327D01*
X117526927Y-79019990D01*
X117627977Y-79171223D01*
X117666154Y-79196732D01*
X117819032Y-79349610D01*
X116470568Y-79349610D01*
X115874800Y-78753842D01*
X115874800Y-78359047D01*
X116114906Y-78259592D01*
X116461192Y-77913306D01*
X116648600Y-77460861D01*
X116648600Y-76971139D01*
X116461192Y-76518694D01*
X116114906Y-76172408D01*
X115662461Y-75985000D01*
X115172739Y-75985000D01*
X114720294Y-76172408D01*
X114374008Y-76518694D01*
X114186600Y-76971139D01*
X114186600Y-77460861D01*
X114374008Y-77913306D01*
X114720294Y-78259592D01*
X114960401Y-78359047D01*
X114960401Y-78898185D01*
X114951443Y-78943220D01*
X114986927Y-79121610D01*
X115046356Y-79210552D01*
X115087978Y-79272843D01*
X115126152Y-79298350D01*
X115482222Y-79654420D01*
X114082999Y-79654420D01*
X113334800Y-78906222D01*
X113334800Y-78359047D01*
X113574906Y-78259592D01*
X113921192Y-77913306D01*
X114108600Y-77460861D01*
X114108600Y-76971139D01*
X113921192Y-76518694D01*
X113574906Y-76172408D01*
X113122461Y-75985000D01*
X112632739Y-75985000D01*
X112180294Y-76172408D01*
X111834008Y-76518694D01*
X111646600Y-76971139D01*
X111646600Y-77460861D01*
X111834008Y-77913306D01*
X112180294Y-78259592D01*
X112420401Y-78359047D01*
X112420401Y-79050565D01*
X112411443Y-79095600D01*
X112446927Y-79273990D01*
X112522470Y-79387048D01*
X112547978Y-79425223D01*
X112586152Y-79450730D01*
X113094651Y-79959230D01*
X111618474Y-79959230D01*
X110794800Y-79135556D01*
X110794800Y-78359047D01*
X111034906Y-78259592D01*
X111381192Y-77913306D01*
X111568600Y-77460861D01*
X111568600Y-76971139D01*
X111381192Y-76518694D01*
X111034906Y-76172408D01*
X110582461Y-75985000D01*
X110092739Y-75985000D01*
X109640294Y-76172408D01*
X109294008Y-76518694D01*
X109106600Y-76971139D01*
X109106600Y-77460861D01*
X109294008Y-77913306D01*
X109640294Y-78259592D01*
X109880401Y-78359047D01*
X109880401Y-79279899D01*
X109871443Y-79324934D01*
X109906927Y-79503324D01*
X109982470Y-79616382D01*
X110007978Y-79654557D01*
X110046152Y-79680064D01*
X110630128Y-80264040D01*
X109104618Y-80264039D01*
X108254800Y-79414222D01*
X108254800Y-78359047D01*
X108494906Y-78259592D01*
X108841192Y-77913306D01*
X109028600Y-77460861D01*
X109028600Y-76971139D01*
X108841192Y-76518694D01*
X108494906Y-76172408D01*
X108042461Y-75985000D01*
X107552739Y-75985000D01*
X107100294Y-76172408D01*
X106754008Y-76518694D01*
X106566600Y-76971139D01*
X106566600Y-77460861D01*
X106754008Y-77913306D01*
X107100294Y-78259592D01*
X107340400Y-78359047D01*
X107340401Y-79558565D01*
X107331443Y-79603600D01*
X107366927Y-79781990D01*
X107406461Y-79841157D01*
X107467978Y-79933223D01*
X107506152Y-79958730D01*
X108116269Y-80568848D01*
X106361427Y-80568848D01*
X105740200Y-79947622D01*
X105740200Y-78488510D01*
X105749157Y-78443480D01*
X105731025Y-78352326D01*
X105954906Y-78259592D01*
X106301192Y-77913306D01*
X106488600Y-77460861D01*
X106488600Y-76971139D01*
X106301192Y-76518694D01*
X105954906Y-76172408D01*
X105502461Y-75985000D01*
X105012739Y-75985000D01*
X104560294Y-76172408D01*
X104214008Y-76518694D01*
X104026600Y-76971139D01*
X104026600Y-77460861D01*
X104214008Y-77913306D01*
X104560294Y-78259592D01*
X104800401Y-78359047D01*
X104800401Y-78373046D01*
X104791443Y-78418081D01*
X104825800Y-78590806D01*
X104825801Y-79806800D01*
X103821379Y-79806800D01*
X103200200Y-79185622D01*
X103200200Y-78488510D01*
X103209157Y-78443480D01*
X103191025Y-78352326D01*
X103414906Y-78259592D01*
X103761192Y-77913306D01*
X103948600Y-77460861D01*
X103948600Y-76971139D01*
X103761192Y-76518694D01*
X103414906Y-76172408D01*
X102962461Y-75985000D01*
X102472739Y-75985000D01*
X102020294Y-76172408D01*
X101674008Y-76518694D01*
X101591405Y-76718116D01*
X101472859Y-76431920D01*
X101221558Y-76351647D01*
X100357205Y-77216000D01*
X101221558Y-78080353D01*
X101472859Y-78000080D01*
X101583554Y-77694929D01*
X101674008Y-77913306D01*
X102020294Y-78259592D01*
X102260401Y-78359047D01*
X102260401Y-78373046D01*
X102251443Y-78418081D01*
X102285800Y-78590806D01*
X102285801Y-79329966D01*
X102276843Y-79375000D01*
X102312327Y-79553390D01*
X102379833Y-79654420D01*
X102413378Y-79704623D01*
X102451552Y-79730130D01*
X102833032Y-80111610D01*
X100570188Y-80111610D01*
X98842731Y-78384153D01*
X98817222Y-78345976D01*
X98688487Y-78259958D01*
X99313247Y-78259958D01*
X99393520Y-78511259D01*
X99948879Y-78712718D01*
X100539058Y-78686315D01*
X100961680Y-78511259D01*
X101041953Y-78259958D01*
X100177600Y-77395605D01*
X99313247Y-78259958D01*
X98688487Y-78259958D01*
X98665990Y-78244926D01*
X98532629Y-78218399D01*
X98487599Y-78209442D01*
X98442569Y-78218399D01*
X98376099Y-78218399D01*
X98681192Y-77913306D01*
X98763795Y-77713884D01*
X98882341Y-78000080D01*
X99133642Y-78080353D01*
X99997995Y-77216000D01*
X99133642Y-76351647D01*
X98882341Y-76431920D01*
X98771646Y-76737071D01*
X98681192Y-76518694D01*
X98334906Y-76172408D01*
X98334023Y-76172042D01*
X99313247Y-76172042D01*
X100177600Y-77036395D01*
X101041953Y-76172042D01*
X100961680Y-75920741D01*
X100406321Y-75719282D01*
X99816142Y-75745685D01*
X99393520Y-75920741D01*
X99313247Y-76172042D01*
X98334023Y-76172042D01*
X97882461Y-75985000D01*
X97392739Y-75985000D01*
X96940294Y-76172408D01*
X96594008Y-76518694D01*
X96406600Y-76971139D01*
X96406600Y-77460861D01*
X96594008Y-77913306D01*
X96940294Y-78259592D01*
X97180400Y-78359047D01*
X97180400Y-78373051D01*
X97171443Y-78418081D01*
X97205260Y-78588090D01*
X97206927Y-78596471D01*
X97307977Y-78747704D01*
X97346155Y-78773214D01*
X97539984Y-78967042D01*
X97565495Y-79005222D01*
X97716727Y-79106272D01*
X97850088Y-79132799D01*
X97895117Y-79141756D01*
X97940146Y-79132799D01*
X98298221Y-79132799D01*
X100025678Y-80860256D01*
X100051187Y-80898433D01*
X100154869Y-80967711D01*
X100202419Y-80999483D01*
X100380810Y-81034967D01*
X100425840Y-81026010D01*
X104663300Y-81026010D01*
X105564407Y-81927117D01*
X105589914Y-81965291D01*
X105628088Y-81990798D01*
X105741146Y-82066341D01*
X105919536Y-82101825D01*
X105964566Y-82092868D01*
X110529292Y-82092870D01*
X110959002Y-82522581D01*
X110959001Y-96460967D01*
X110582461Y-96305000D01*
X110092739Y-96305000D01*
X109640294Y-96492408D01*
X109294008Y-96838694D01*
X109106600Y-97291139D01*
X109106600Y-97780861D01*
X109294008Y-98233306D01*
X109640294Y-98579592D01*
X110092739Y-98767000D01*
X110582461Y-98767000D01*
X110959001Y-98611033D01*
X110959001Y-98800420D01*
X110814967Y-98944455D01*
X110574861Y-98845000D01*
X110085139Y-98845000D01*
X109632694Y-99032408D01*
X109286408Y-99378694D01*
X109099000Y-99831139D01*
X109099000Y-100320861D01*
X109286408Y-100773306D01*
X109632694Y-101119592D01*
X109872800Y-101219047D01*
X109872800Y-101470490D01*
X109235300Y-102107990D01*
X108021839Y-102107990D01*
X108113836Y-102015993D01*
X108156247Y-101987655D01*
X108184586Y-101945243D01*
X108184588Y-101945241D01*
X108268525Y-101819620D01*
X108272935Y-101797448D01*
X108298000Y-101671440D01*
X108298000Y-101671436D01*
X108307951Y-101621408D01*
X108298000Y-101571380D01*
X108298000Y-101198005D01*
X108487306Y-101119592D01*
X108833592Y-100773306D01*
X109021000Y-100320861D01*
X109021000Y-99831139D01*
X108833592Y-99378694D01*
X108487306Y-99032408D01*
X108034861Y-98845000D01*
X107545139Y-98845000D01*
X107092694Y-99032408D01*
X106746408Y-99378694D01*
X106559000Y-99831139D01*
X106559000Y-100320861D01*
X106746408Y-100773306D01*
X107092694Y-101119592D01*
X107282000Y-101198005D01*
X107282000Y-101410987D01*
X106330988Y-102362000D01*
X100126028Y-102362000D01*
X100076000Y-102352049D01*
X100025972Y-102362000D01*
X100025968Y-102362000D01*
X99901296Y-102386799D01*
X99877788Y-102391475D01*
X99752167Y-102475412D01*
X99752165Y-102475414D01*
X99709753Y-102503753D01*
X99681414Y-102546165D01*
X99568000Y-102659579D01*
X99568000Y-99831139D01*
X104019000Y-99831139D01*
X104019000Y-100320861D01*
X104206408Y-100773306D01*
X104552694Y-101119592D01*
X105005139Y-101307000D01*
X105494861Y-101307000D01*
X105947306Y-101119592D01*
X106293592Y-100773306D01*
X106481000Y-100320861D01*
X106481000Y-99831139D01*
X106293592Y-99378694D01*
X105947306Y-99032408D01*
X105494861Y-98845000D01*
X105005139Y-98845000D01*
X104552694Y-99032408D01*
X104206408Y-99378694D01*
X104019000Y-99831139D01*
X99568000Y-99831139D01*
X99568000Y-97291139D01*
X101486600Y-97291139D01*
X101486600Y-97780861D01*
X101674008Y-98233306D01*
X102020294Y-98579592D01*
X102472739Y-98767000D01*
X102962461Y-98767000D01*
X103414906Y-98579592D01*
X103761192Y-98233306D01*
X103948600Y-97780861D01*
X103948600Y-97291139D01*
X104026600Y-97291139D01*
X104026600Y-97780861D01*
X104214008Y-98233306D01*
X104560294Y-98579592D01*
X105012739Y-98767000D01*
X105502461Y-98767000D01*
X105954906Y-98579592D01*
X106301192Y-98233306D01*
X106488600Y-97780861D01*
X106488600Y-97291139D01*
X106566600Y-97291139D01*
X106566600Y-97780861D01*
X106754008Y-98233306D01*
X107100294Y-98579592D01*
X107552739Y-98767000D01*
X108042461Y-98767000D01*
X108494906Y-98579592D01*
X108841192Y-98233306D01*
X109028600Y-97780861D01*
X109028600Y-97291139D01*
X108841192Y-96838694D01*
X108494906Y-96492408D01*
X108042461Y-96305000D01*
X107552739Y-96305000D01*
X107100294Y-96492408D01*
X106754008Y-96838694D01*
X106566600Y-97291139D01*
X106488600Y-97291139D01*
X106301192Y-96838694D01*
X105954906Y-96492408D01*
X105502461Y-96305000D01*
X105012739Y-96305000D01*
X104560294Y-96492408D01*
X104214008Y-96838694D01*
X104026600Y-97291139D01*
X103948600Y-97291139D01*
X103761192Y-96838694D01*
X103414906Y-96492408D01*
X102962461Y-96305000D01*
X102472739Y-96305000D01*
X102020294Y-96492408D01*
X101674008Y-96838694D01*
X101486600Y-97291139D01*
X99568000Y-97291139D01*
X99568000Y-81838026D01*
X99577951Y-81787999D01*
X99568000Y-81737972D01*
X99568000Y-81737968D01*
X99538525Y-81589788D01*
X99426247Y-81421753D01*
X99383832Y-81393412D01*
X97930587Y-79940167D01*
X97902247Y-79897753D01*
X97734212Y-79785475D01*
X97586032Y-79756000D01*
X97586028Y-79756000D01*
X97536000Y-79746049D01*
X97485972Y-79756000D01*
X95943021Y-79756000D01*
X95605600Y-79418580D01*
X95605600Y-78338005D01*
X95794906Y-78259592D01*
X96141192Y-77913306D01*
X96328600Y-77460861D01*
X96328600Y-76971139D01*
X96141192Y-76518694D01*
X95794906Y-76172408D01*
X95605600Y-76093995D01*
X95605600Y-76063946D01*
X95615551Y-76013918D01*
X95605600Y-75963890D01*
X95605600Y-75963887D01*
X95598000Y-75925679D01*
X95598000Y-75630420D01*
X95990420Y-75238000D01*
X98339972Y-75238000D01*
X98390000Y-75247951D01*
X98440028Y-75238000D01*
X98440032Y-75238000D01*
X98588212Y-75208525D01*
X98756247Y-75096247D01*
X98784588Y-75053832D01*
X99383835Y-74454586D01*
X99426247Y-74426247D01*
X99454586Y-74383835D01*
X99454588Y-74383833D01*
X99538525Y-74258212D01*
X99565426Y-74122970D01*
X99568000Y-74110032D01*
X99568000Y-74110029D01*
X99577951Y-74060001D01*
X99568000Y-74009973D01*
X99568000Y-70104000D01*
X106345230Y-70104000D01*
X106350378Y-70111704D01*
X106388552Y-70137211D01*
X109491648Y-73240308D01*
X109517156Y-73278483D01*
X109631971Y-73355200D01*
X109668388Y-73379533D01*
X109846779Y-73415017D01*
X109891809Y-73406060D01*
X114695563Y-73406060D01*
X114860633Y-73571130D01*
X114712694Y-73632408D01*
X114366408Y-73978694D01*
X114179000Y-74431139D01*
X114179000Y-74920861D01*
X114366408Y-75373306D01*
X114712694Y-75719592D01*
X115165139Y-75907000D01*
X115654861Y-75907000D01*
X116107306Y-75719592D01*
X116453592Y-75373306D01*
X116641000Y-74920861D01*
X116641000Y-74431139D01*
X116453592Y-73978694D01*
X116107306Y-73632408D01*
X115867200Y-73532953D01*
X115867200Y-73518949D01*
X115876157Y-73473919D01*
X115840673Y-73295528D01*
X115829283Y-73278482D01*
X115739623Y-73144296D01*
X115701446Y-73118787D01*
X115683909Y-73101250D01*
X117158672Y-73101250D01*
X117492800Y-73435379D01*
X117492800Y-73532953D01*
X117252694Y-73632408D01*
X116906408Y-73978694D01*
X116719000Y-74431139D01*
X116719000Y-74920861D01*
X116906408Y-75373306D01*
X117252694Y-75719592D01*
X117705139Y-75907000D01*
X118194861Y-75907000D01*
X118647306Y-75719592D01*
X118993592Y-75373306D01*
X119181000Y-74920861D01*
X119181000Y-74431139D01*
X118993592Y-73978694D01*
X118647306Y-73632408D01*
X118407200Y-73532953D01*
X118407200Y-73291030D01*
X118416157Y-73246000D01*
X118380673Y-73067609D01*
X118351470Y-73023904D01*
X118279623Y-72916377D01*
X118241449Y-72890870D01*
X118147019Y-72796440D01*
X119647862Y-72796440D01*
X120032800Y-73181379D01*
X120032800Y-73532953D01*
X119792694Y-73632408D01*
X119446408Y-73978694D01*
X119259000Y-74431139D01*
X119259000Y-74920861D01*
X119446408Y-75373306D01*
X119792694Y-75719592D01*
X120245139Y-75907000D01*
X120734861Y-75907000D01*
X121187306Y-75719592D01*
X121533592Y-75373306D01*
X121721000Y-74920861D01*
X121721000Y-74431139D01*
X121533592Y-73978694D01*
X121187306Y-73632408D01*
X120947200Y-73532953D01*
X120947200Y-73037029D01*
X120956157Y-72991999D01*
X120920673Y-72813609D01*
X120871029Y-72739311D01*
X120819623Y-72662377D01*
X120781449Y-72636870D01*
X120636209Y-72491630D01*
X121883052Y-72491630D01*
X122572800Y-73181378D01*
X122572800Y-73532953D01*
X122332694Y-73632408D01*
X121986408Y-73978694D01*
X121799000Y-74431139D01*
X121799000Y-74920861D01*
X121986408Y-75373306D01*
X122332694Y-75719592D01*
X122785139Y-75907000D01*
X123274861Y-75907000D01*
X123727306Y-75719592D01*
X124073592Y-75373306D01*
X124261000Y-74920861D01*
X124261000Y-74431139D01*
X124073592Y-73978694D01*
X123727306Y-73632408D01*
X123487200Y-73532953D01*
X123487200Y-73037024D01*
X123496156Y-72991999D01*
X123487200Y-72946974D01*
X123487200Y-72946970D01*
X123460673Y-72813609D01*
X123359623Y-72662377D01*
X123321446Y-72636868D01*
X122871398Y-72186820D01*
X124626242Y-72186820D01*
X125112800Y-72673378D01*
X125112800Y-73532953D01*
X124872694Y-73632408D01*
X124526408Y-73978694D01*
X124339000Y-74431139D01*
X124339000Y-74920861D01*
X124526408Y-75373306D01*
X124872694Y-75719592D01*
X125325139Y-75907000D01*
X125814861Y-75907000D01*
X126267306Y-75719592D01*
X126613592Y-75373306D01*
X126801000Y-74920861D01*
X126801000Y-74431139D01*
X126613592Y-73978694D01*
X126267306Y-73632408D01*
X126027200Y-73532953D01*
X126027200Y-72529028D01*
X126036157Y-72483999D01*
X126027200Y-72438970D01*
X126000673Y-72305609D01*
X125899623Y-72154377D01*
X125861446Y-72128868D01*
X125614588Y-71882010D01*
X127115432Y-71882010D01*
X127652800Y-72419378D01*
X127652801Y-73532953D01*
X127412694Y-73632408D01*
X127066408Y-73978694D01*
X126879000Y-74431139D01*
X126879000Y-74920861D01*
X127066408Y-75373306D01*
X127412694Y-75719592D01*
X127865139Y-75907000D01*
X128354861Y-75907000D01*
X128807306Y-75719592D01*
X129153592Y-75373306D01*
X129341000Y-74920861D01*
X129341000Y-74431139D01*
X129153592Y-73978694D01*
X128807306Y-73632408D01*
X128567200Y-73532953D01*
X128567200Y-72275030D01*
X128576157Y-72230000D01*
X128540673Y-72051609D01*
X128518111Y-72017843D01*
X128439623Y-71900377D01*
X128401446Y-71874868D01*
X128103778Y-71577200D01*
X129858622Y-71577200D01*
X130192800Y-71911378D01*
X130192801Y-73532953D01*
X129952694Y-73632408D01*
X129606408Y-73978694D01*
X129419000Y-74431139D01*
X129419000Y-74920861D01*
X129606408Y-75373306D01*
X129952694Y-75719592D01*
X130405139Y-75907000D01*
X130894861Y-75907000D01*
X131347306Y-75719592D01*
X131693592Y-75373306D01*
X131881000Y-74920861D01*
X131881000Y-74431139D01*
X131693592Y-73978694D01*
X131347306Y-73632408D01*
X131107200Y-73532953D01*
X131107200Y-71767030D01*
X131116157Y-71722000D01*
X131080673Y-71543609D01*
X130979623Y-71392377D01*
X130941446Y-71366868D01*
X130796207Y-71221629D01*
X132297051Y-71221629D01*
X132732801Y-71657379D01*
X132732800Y-73532953D01*
X132492694Y-73632408D01*
X132146408Y-73978694D01*
X131959000Y-74431139D01*
X131959000Y-74920861D01*
X132146408Y-75373306D01*
X132492694Y-75719592D01*
X132945139Y-75907000D01*
X133434861Y-75907000D01*
X133887306Y-75719592D01*
X134233592Y-75373306D01*
X134421000Y-74920861D01*
X134421000Y-74431139D01*
X134233592Y-73978694D01*
X133887306Y-73632408D01*
X133647200Y-73532953D01*
X133647200Y-71513030D01*
X133656157Y-71468000D01*
X133620673Y-71289609D01*
X133609188Y-71272420D01*
X133519623Y-71138377D01*
X133481446Y-71112868D01*
X133285397Y-70916819D01*
X134786241Y-70916819D01*
X135272800Y-71403379D01*
X135272801Y-73532953D01*
X135032694Y-73632408D01*
X134686408Y-73978694D01*
X134499000Y-74431139D01*
X134499000Y-74920861D01*
X134686408Y-75373306D01*
X135032694Y-75719592D01*
X135485139Y-75907000D01*
X135974861Y-75907000D01*
X136427306Y-75719592D01*
X136773592Y-75373306D01*
X136961000Y-74920861D01*
X136961000Y-74431139D01*
X136773592Y-73978694D01*
X136427306Y-73632408D01*
X136187200Y-73532953D01*
X136187200Y-71259030D01*
X136196157Y-71214000D01*
X136160673Y-71035609D01*
X136117026Y-70970286D01*
X136059623Y-70884377D01*
X136021449Y-70858870D01*
X135774589Y-70612010D01*
X137275432Y-70612010D01*
X137812800Y-71149378D01*
X137812801Y-73532953D01*
X137572694Y-73632408D01*
X137226408Y-73978694D01*
X137039000Y-74431139D01*
X137039000Y-74920861D01*
X137226408Y-75373306D01*
X137572694Y-75719592D01*
X138025139Y-75907000D01*
X138514861Y-75907000D01*
X138967306Y-75719592D01*
X139313592Y-75373306D01*
X139501000Y-74920861D01*
X139501000Y-74431139D01*
X139313592Y-73978694D01*
X138967306Y-73632408D01*
X138727200Y-73532953D01*
X138727200Y-71632712D01*
X140352800Y-73258312D01*
X140352800Y-73532953D01*
X140112694Y-73632408D01*
X139766408Y-73978694D01*
X139579000Y-74431139D01*
X139579000Y-74920861D01*
X139766408Y-75373306D01*
X140112694Y-75719592D01*
X140565139Y-75907000D01*
X141054861Y-75907000D01*
X141507306Y-75719592D01*
X141853592Y-75373306D01*
X142041000Y-74920861D01*
X142041000Y-74431139D01*
X141853592Y-73978694D01*
X141507306Y-73632408D01*
X141267200Y-73532953D01*
X141267200Y-73355200D01*
X142584703Y-73355200D01*
X142800633Y-73571130D01*
X142652694Y-73632408D01*
X142306408Y-73978694D01*
X142119000Y-74431139D01*
X142119000Y-74920861D01*
X142306408Y-75373306D01*
X142652694Y-75719592D01*
X143105139Y-75907000D01*
X143594861Y-75907000D01*
X144047306Y-75719592D01*
X144393592Y-75373306D01*
X144581000Y-74920861D01*
X144581000Y-74431139D01*
X144393592Y-73978694D01*
X144047306Y-73632408D01*
X143807200Y-73532953D01*
X143807200Y-73518943D01*
X143816156Y-73473918D01*
X143807200Y-73428893D01*
X143807200Y-73428889D01*
X143780673Y-73295528D01*
X143679623Y-73144296D01*
X143641446Y-73118787D01*
X143129213Y-72606554D01*
X143103704Y-72568377D01*
X142952472Y-72467327D01*
X142819111Y-72440800D01*
X142774081Y-72431843D01*
X142729051Y-72440800D01*
X141259510Y-72440800D01*
X138072454Y-69253744D01*
X138046947Y-69215570D01*
X137895715Y-69114520D01*
X137895716Y-69114520D01*
X137895714Y-69114519D01*
X137717324Y-69079035D01*
X137672290Y-69087993D01*
X135931893Y-69087991D01*
X135931893Y-66153955D01*
X138227000Y-66153955D01*
X138227000Y-66942045D01*
X138528589Y-67670146D01*
X139085854Y-68227411D01*
X139813955Y-68529000D01*
X140602045Y-68529000D01*
X141330146Y-68227411D01*
X141887411Y-67670146D01*
X142189000Y-66942045D01*
X142189000Y-66153955D01*
X141887411Y-65425854D01*
X141330146Y-64868589D01*
X140602045Y-64567000D01*
X139813955Y-64567000D01*
X139085854Y-64868589D01*
X138528589Y-65425854D01*
X138227000Y-66153955D01*
X135931893Y-66153955D01*
X135931893Y-51993165D01*
X135922226Y-51944564D01*
X135894696Y-51903362D01*
X135853494Y-51875832D01*
X135804893Y-51866165D01*
X133908000Y-51866165D01*
X133908000Y-47929455D01*
X134353500Y-47929455D01*
X134353500Y-48717545D01*
X134655089Y-49445646D01*
X135212354Y-50002911D01*
X135940455Y-50304500D01*
X136728545Y-50304500D01*
X137456646Y-50002911D01*
X138013911Y-49445646D01*
X138089584Y-49262955D01*
X138481000Y-49262955D01*
X138481000Y-50051045D01*
X138782589Y-50779146D01*
X139339854Y-51336411D01*
X140067955Y-51638000D01*
X140856045Y-51638000D01*
X141584146Y-51336411D01*
X142141411Y-50779146D01*
X142443000Y-50051045D01*
X142443000Y-49262955D01*
X142141411Y-48534854D01*
X141584146Y-47977589D01*
X140856045Y-47676000D01*
X140067955Y-47676000D01*
X139339854Y-47977589D01*
X138782589Y-48534854D01*
X138481000Y-49262955D01*
X138089584Y-49262955D01*
X138315500Y-48717545D01*
X138315500Y-47929455D01*
X138013911Y-47201354D01*
X137456646Y-46644089D01*
X136728545Y-46342500D01*
X135940455Y-46342500D01*
X135212354Y-46644089D01*
X134655089Y-47201354D01*
X134353500Y-47929455D01*
X133908000Y-47929455D01*
X133908000Y-46512705D01*
X133971468Y-46069530D01*
X134143929Y-45690222D01*
X134415919Y-45374562D01*
X134765575Y-45147927D01*
X135179054Y-45024270D01*
X135397995Y-45008000D01*
X141320295Y-45008000D01*
X141763470Y-45071468D01*
X142142778Y-45243929D01*
X142458438Y-45515919D01*
X142685073Y-45865575D01*
X142808730Y-46279054D01*
X142825001Y-46498008D01*
X142825000Y-57620294D01*
X142768155Y-57942679D01*
X142616990Y-58204505D01*
X142478908Y-58335243D01*
X142474781Y-58337973D01*
X139691776Y-61095680D01*
X139667561Y-61109340D01*
X139631401Y-61155505D01*
X139620482Y-61166325D01*
X139605275Y-61188860D01*
X139561832Y-61244324D01*
X139557600Y-61259510D01*
X139548780Y-61272581D01*
X139534717Y-61341630D01*
X139515807Y-61409493D01*
X139517709Y-61425143D01*
X139514562Y-61440594D01*
X139527993Y-61509764D01*
X139536492Y-61579701D01*
X139544239Y-61593432D01*
X139547244Y-61608911D01*
X139586123Y-61667677D01*
X139599476Y-61691346D01*
X139609493Y-61703001D01*
X139641852Y-61751911D01*
X139664899Y-61767463D01*
X142255418Y-64781433D01*
X142567722Y-65337698D01*
X142762362Y-65962186D01*
X142825001Y-66594700D01*
X142825000Y-69892444D01*
X142828690Y-69910994D01*
X142845934Y-70108096D01*
X142860508Y-70162487D01*
X142870287Y-70217944D01*
X143021139Y-70632406D01*
X143021140Y-70632411D01*
X143095983Y-70762042D01*
X143379495Y-71099918D01*
X143494160Y-71196134D01*
X143494167Y-71196136D01*
X143876129Y-71416663D01*
X143876134Y-71416668D01*
X143991194Y-71458545D01*
X144016791Y-71467862D01*
X144016792Y-71467862D01*
X144451158Y-71544452D01*
X144810681Y-71607845D01*
X145061023Y-71752381D01*
X145246838Y-71973826D01*
X145352291Y-72263556D01*
X145365001Y-72408829D01*
X145365000Y-102324294D01*
X145308155Y-102646679D01*
X145163619Y-102897024D01*
X144942176Y-103082837D01*
X144652444Y-103188291D01*
X144488436Y-103202640D01*
X144267903Y-103221934D01*
X144213517Y-103236507D01*
X144158056Y-103246286D01*
X143743594Y-103397139D01*
X143743589Y-103397140D01*
X143613958Y-103471983D01*
X143276082Y-103755495D01*
X143181032Y-103868771D01*
X143179867Y-103870159D01*
X142959337Y-104252129D01*
X142959332Y-104252134D01*
X142932880Y-104324813D01*
X142908137Y-104392791D01*
X142908137Y-104392798D01*
X142832350Y-104822607D01*
X142825001Y-104859555D01*
X142825000Y-108674143D01*
X142690040Y-109298586D01*
X142424543Y-109889465D01*
X142041993Y-110412235D01*
X141544434Y-110857172D01*
X141494905Y-110891859D01*
X141469374Y-110907631D01*
X137786444Y-114336567D01*
X137749694Y-114359246D01*
X137724311Y-114394415D01*
X137724244Y-114394477D01*
X137700792Y-114427000D01*
X137649347Y-114498278D01*
X137649324Y-114498373D01*
X137649269Y-114498450D01*
X137629935Y-114580270D01*
X137609844Y-114665127D01*
X137609860Y-114665224D01*
X137609838Y-114665316D01*
X137623394Y-114748969D01*
X137637199Y-114834392D01*
X137637250Y-114834474D01*
X137637265Y-114834569D01*
X137682308Y-114907487D01*
X137704519Y-114943478D01*
X137704583Y-114943546D01*
X137727375Y-114980444D01*
X137762401Y-115005701D01*
X142753649Y-120371294D01*
X142822687Y-120611817D01*
X142825001Y-120660304D01*
X142825000Y-128366294D01*
X142761532Y-128809468D01*
X142589071Y-129188778D01*
X142317080Y-129504439D01*
X141967426Y-129731073D01*
X141553946Y-129854730D01*
X141335005Y-129871000D01*
X135687526Y-129871000D01*
X134065778Y-128249253D01*
X134041733Y-128213267D01*
X133899168Y-128118008D01*
X133773445Y-128093000D01*
X133773441Y-128093000D01*
X133731000Y-128084558D01*
X133688559Y-128093000D01*
X115358445Y-128093000D01*
X115316000Y-128084557D01*
X115273555Y-128093000D01*
X115147832Y-128118008D01*
X115005267Y-128213267D01*
X114981224Y-128249250D01*
X113359475Y-129871000D01*
X87787705Y-129871000D01*
X87344532Y-129807532D01*
X86965222Y-129635071D01*
X86649561Y-129363080D01*
X86422927Y-129013426D01*
X86299270Y-128599946D01*
X86283000Y-128381005D01*
X86283000Y-125038024D01*
X87193499Y-125038024D01*
X87211559Y-125865699D01*
X87460817Y-126432184D01*
X88326872Y-127669039D01*
X88773941Y-128097015D01*
X89545525Y-128397068D01*
X90373201Y-128379009D01*
X91130963Y-128045586D01*
X91703448Y-127447560D01*
X92003501Y-126675976D01*
X91985442Y-125848300D01*
X91736183Y-125281817D01*
X90870128Y-124044961D01*
X90423059Y-123616985D01*
X89651475Y-123316932D01*
X88823800Y-123334992D01*
X88066038Y-123668415D01*
X87493552Y-124266440D01*
X87193499Y-125038024D01*
X86283000Y-125038024D01*
X86283000Y-106976440D01*
X86291442Y-106933999D01*
X86283000Y-106891558D01*
X86283000Y-106891555D01*
X86257992Y-106765832D01*
X86200641Y-106680000D01*
X86186776Y-106659249D01*
X86186774Y-106659247D01*
X86162733Y-106623267D01*
X86126753Y-106599226D01*
X83997000Y-104469475D01*
X83997000Y-103110955D01*
X84633000Y-103110955D01*
X84633000Y-103899045D01*
X84934589Y-104627146D01*
X85491854Y-105184411D01*
X86219955Y-105486000D01*
X87008045Y-105486000D01*
X87736146Y-105184411D01*
X88293411Y-104627146D01*
X88595000Y-103899045D01*
X88595000Y-103110955D01*
X88293411Y-102382854D01*
X87736146Y-101825589D01*
X87008045Y-101524000D01*
X86219955Y-101524000D01*
X85491854Y-101825589D01*
X84934589Y-102382854D01*
X84633000Y-103110955D01*
X83997000Y-103110955D01*
X83997000Y-91618525D01*
X85110752Y-90504774D01*
X85146733Y-90480733D01*
X85170774Y-90444753D01*
X85170776Y-90444751D01*
X85241992Y-90338168D01*
X85245389Y-90321088D01*
X85267000Y-90212445D01*
X85267000Y-90212442D01*
X85275442Y-90170001D01*
X85267000Y-90127560D01*
X85267000Y-84370440D01*
X85275442Y-84327999D01*
X85267000Y-84285556D01*
X85267000Y-84285555D01*
X85241992Y-84159832D01*
X85170776Y-84053249D01*
X85170774Y-84053247D01*
X85146733Y-84017267D01*
X85110753Y-83993226D01*
X83997000Y-82879475D01*
X83997000Y-70852955D01*
X84633000Y-70852955D01*
X84633000Y-71641045D01*
X84934589Y-72369146D01*
X85491854Y-72926411D01*
X86219955Y-73228000D01*
X87008045Y-73228000D01*
X87736146Y-72926411D01*
X88293411Y-72369146D01*
X88595000Y-71641045D01*
X88595000Y-70852955D01*
X88293411Y-70124854D01*
X87736146Y-69567589D01*
X87008045Y-69266000D01*
X86219955Y-69266000D01*
X85491854Y-69567589D01*
X84934589Y-70124854D01*
X84633000Y-70852955D01*
X83997000Y-70852955D01*
X83997000Y-70028525D01*
X86126753Y-67898774D01*
X86162733Y-67874733D01*
X86186774Y-67838753D01*
X86186776Y-67838751D01*
X86257992Y-67732168D01*
X86270329Y-67670146D01*
X86283000Y-67606445D01*
X86283000Y-67606442D01*
X86291442Y-67564001D01*
X86283000Y-67521560D01*
X86283000Y-49818431D01*
X87228320Y-49818431D01*
X87528372Y-50590015D01*
X88100857Y-51188041D01*
X88858619Y-51521465D01*
X89686294Y-51539525D01*
X90457878Y-51239473D01*
X90904948Y-50811497D01*
X91828361Y-49492728D01*
X91929463Y-49262955D01*
X106223000Y-49262955D01*
X106223000Y-50051045D01*
X106524589Y-50779146D01*
X107081854Y-51336411D01*
X107809955Y-51638000D01*
X108598045Y-51638000D01*
X109326146Y-51336411D01*
X109883411Y-50779146D01*
X110185000Y-50051045D01*
X110185000Y-49262955D01*
X109883411Y-48534854D01*
X109326146Y-47977589D01*
X108598045Y-47676000D01*
X107809955Y-47676000D01*
X107081854Y-47977589D01*
X106524589Y-48534854D01*
X106223000Y-49262955D01*
X91929463Y-49262955D01*
X92077620Y-48926245D01*
X92095680Y-48098569D01*
X91795628Y-47326984D01*
X91223143Y-46728958D01*
X90465381Y-46395535D01*
X89637705Y-46377475D01*
X88866122Y-46677527D01*
X88419052Y-47105503D01*
X87495639Y-48424272D01*
X87246380Y-48990756D01*
X87228320Y-49818431D01*
X86283000Y-49818431D01*
X86283000Y-46512705D01*
X86346468Y-46069530D01*
X86518929Y-45690222D01*
X86790919Y-45374562D01*
X87140575Y-45147927D01*
X87554054Y-45024270D01*
X87772995Y-45008000D01*
X110967295Y-45008000D01*
X111410470Y-45071468D01*
X111410470Y-45071468D01*
G37*
X111410470Y-45071468D02*
X111789778Y-45243929D01*
X112105438Y-45515919D01*
X112332073Y-45865575D01*
X112455730Y-46279054D01*
X112472000Y-46497995D01*
X112472001Y-51866165D01*
X92443265Y-51866165D01*
X92416310Y-51855000D01*
X91725750Y-51855000D01*
X91714585Y-51866165D01*
X91165415Y-51866165D01*
X91154250Y-51855000D01*
X90463690Y-51855000D01*
X90436735Y-51866165D01*
X89830893Y-51866165D01*
X89782292Y-51875832D01*
X89741090Y-51903362D01*
X89713560Y-51944564D01*
X89703893Y-51993165D01*
X89703893Y-69977000D01*
X89713560Y-70025601D01*
X89741090Y-70066803D01*
X89782292Y-70094333D01*
X89830893Y-70104000D01*
X96062801Y-70104000D01*
X96062800Y-72708622D01*
X95822622Y-72948800D01*
X93263030Y-72948800D01*
X93218000Y-72939843D01*
X93172970Y-72948800D01*
X93039609Y-72975327D01*
X92888377Y-73076377D01*
X92862870Y-73114551D01*
X92164552Y-73812870D01*
X92126378Y-73838377D01*
X92100871Y-73876551D01*
X92100870Y-73876552D01*
X92025327Y-73989610D01*
X91989843Y-74168000D01*
X91998801Y-74213035D01*
X91998800Y-75867289D01*
X91989843Y-75912319D01*
X92004300Y-75985000D01*
X92025327Y-76090709D01*
X92032308Y-76101158D01*
X91860294Y-76172408D01*
X91514008Y-76518694D01*
X91326600Y-76971139D01*
X91326600Y-77460861D01*
X91514008Y-77913306D01*
X91860294Y-78259592D01*
X92312739Y-78447000D01*
X92802461Y-78447000D01*
X93254906Y-78259592D01*
X93601192Y-77913306D01*
X93788600Y-77460861D01*
X93788600Y-76971139D01*
X93601192Y-76518694D01*
X93254906Y-76172408D01*
X93014800Y-76072953D01*
X93014800Y-76058948D01*
X93023757Y-76013918D01*
X92988273Y-75835529D01*
X92988273Y-75835528D01*
X92913200Y-75723173D01*
X92913200Y-74357378D01*
X93407379Y-73863200D01*
X95966970Y-73863200D01*
X96012000Y-73872157D01*
X96057030Y-73863200D01*
X96190391Y-73836673D01*
X96341623Y-73735623D01*
X96367132Y-73697446D01*
X96811446Y-73253132D01*
X96849623Y-73227623D01*
X96950673Y-73076391D01*
X96977200Y-72943030D01*
X96977200Y-72943026D01*
X96986156Y-72898001D01*
X96977200Y-72852976D01*
X96977200Y-70104000D01*
X98552001Y-70104000D01*
X98552000Y-73849579D01*
X98179580Y-74222000D01*
X95830027Y-74222000D01*
X95779999Y-74212049D01*
X95729971Y-74222000D01*
X95729968Y-74222000D01*
X95581788Y-74251475D01*
X95413753Y-74363753D01*
X95385412Y-74406168D01*
X94766166Y-75025414D01*
X94723754Y-75053753D01*
X94695415Y-75096165D01*
X94695412Y-75096168D01*
X94611475Y-75221789D01*
X94572049Y-75420000D01*
X94582001Y-75470032D01*
X94582000Y-75956290D01*
X94572049Y-76006319D01*
X94582000Y-76056347D01*
X94582000Y-76056350D01*
X94589497Y-76094038D01*
X94400294Y-76172408D01*
X94054008Y-76518694D01*
X93866600Y-76971139D01*
X93866600Y-77460861D01*
X94054008Y-77913306D01*
X94400294Y-78259592D01*
X94589600Y-78338005D01*
X94589601Y-79578967D01*
X94579649Y-79629000D01*
X94619075Y-79827211D01*
X94703012Y-79952832D01*
X94703015Y-79952835D01*
X94731354Y-79995247D01*
X94773766Y-80023586D01*
X95338014Y-80587835D01*
X95366353Y-80630247D01*
X95408765Y-80658586D01*
X95408767Y-80658588D01*
X95462773Y-80694673D01*
X95534388Y-80742525D01*
X95682568Y-80772000D01*
X95682572Y-80772000D01*
X95732600Y-80781951D01*
X95782628Y-80772000D01*
X97325580Y-80772000D01*
X98552001Y-81998421D01*
X98552000Y-103835972D01*
X98542049Y-103886000D01*
X98552000Y-103936028D01*
X98552000Y-103936031D01*
X98552001Y-103936036D01*
X98552001Y-105029000D01*
X89916000Y-105029000D01*
X89867399Y-105038667D01*
X89826197Y-105066197D01*
X89798667Y-105107399D01*
X89789000Y-105156000D01*
X89789000Y-123139835D01*
X89798667Y-123188436D01*
X89826197Y-123229638D01*
X89867399Y-123257168D01*
X89916000Y-123266835D01*
X90188809Y-123266835D01*
X90230301Y-123308327D01*
X90463690Y-123405000D01*
X91154250Y-123405000D01*
X91292415Y-123266835D01*
X91587585Y-123266835D01*
X91725750Y-123405000D01*
X92416310Y-123405000D01*
X92649699Y-123308327D01*
X92691191Y-123266835D01*
X107440978Y-123266835D01*
X107081854Y-123415589D01*
X106524589Y-123972854D01*
X106223000Y-124700955D01*
X106223000Y-125489045D01*
X106524589Y-126217146D01*
X107081854Y-126774411D01*
X107809955Y-127076000D01*
X108598045Y-127076000D01*
X109326146Y-126774411D01*
X109883411Y-126217146D01*
X109959084Y-126034455D01*
X134353500Y-126034455D01*
X134353500Y-126822545D01*
X134655089Y-127550646D01*
X135212354Y-128107911D01*
X135940455Y-128409500D01*
X136728545Y-128409500D01*
X137456646Y-128107911D01*
X138013911Y-127550646D01*
X138315500Y-126822545D01*
X138315500Y-126034455D01*
X138013911Y-125306354D01*
X137456646Y-124749089D01*
X137340441Y-124700955D01*
X138481000Y-124700955D01*
X138481000Y-125489045D01*
X138782589Y-126217146D01*
X139339854Y-126774411D01*
X140067955Y-127076000D01*
X140856045Y-127076000D01*
X141584146Y-126774411D01*
X142141411Y-126217146D01*
X142443000Y-125489045D01*
X142443000Y-124700955D01*
X142141411Y-123972854D01*
X141584146Y-123415589D01*
X140856045Y-123114000D01*
X140067955Y-123114000D01*
X139339854Y-123415589D01*
X138782589Y-123972854D01*
X138481000Y-124700955D01*
X137340441Y-124700955D01*
X136728545Y-124447500D01*
X135940455Y-124447500D01*
X135212354Y-124749089D01*
X134655089Y-125306354D01*
X134353500Y-126034455D01*
X109959084Y-126034455D01*
X110185000Y-125489045D01*
X110185000Y-124700955D01*
X109883411Y-123972854D01*
X109326146Y-123415589D01*
X108967022Y-123266835D01*
X135890000Y-123266835D01*
X135938601Y-123257168D01*
X135979803Y-123229638D01*
X136007333Y-123188436D01*
X136017000Y-123139835D01*
X136017000Y-108063955D01*
X138227000Y-108063955D01*
X138227000Y-108852045D01*
X138528589Y-109580146D01*
X139085854Y-110137411D01*
X139813955Y-110439000D01*
X140602045Y-110439000D01*
X141330146Y-110137411D01*
X141887411Y-109580146D01*
X142189000Y-108852045D01*
X142189000Y-108063955D01*
X141887411Y-107335854D01*
X141330146Y-106778589D01*
X140602045Y-106477000D01*
X139813955Y-106477000D01*
X139085854Y-106778589D01*
X138528589Y-107335854D01*
X138227000Y-108063955D01*
X136017000Y-108063955D01*
X136017000Y-106287201D01*
X138753050Y-106287201D01*
X138798080Y-106296158D01*
X138843110Y-106287201D01*
X138976471Y-106260674D01*
X139127703Y-106159624D01*
X139153212Y-106121447D01*
X143641449Y-101633211D01*
X143679623Y-101607704D01*
X143780673Y-101456472D01*
X143807200Y-101323111D01*
X143807200Y-101323110D01*
X143816157Y-101278081D01*
X143807200Y-101233051D01*
X143807200Y-101219047D01*
X144047306Y-101119592D01*
X144393592Y-100773306D01*
X144581000Y-100320861D01*
X144581000Y-99831139D01*
X144393592Y-99378694D01*
X144047306Y-99032408D01*
X143807200Y-98932953D01*
X143807200Y-98183030D01*
X143816157Y-98138000D01*
X143780673Y-97959609D01*
X143741202Y-97900537D01*
X143679623Y-97808377D01*
X143641449Y-97782870D01*
X143001512Y-97142934D01*
X142976003Y-97104757D01*
X142824771Y-97003707D01*
X142691410Y-96977180D01*
X142646380Y-96968223D01*
X142601350Y-96977180D01*
X135215758Y-96977180D01*
X134866438Y-96627860D01*
X134866436Y-89448408D01*
X134875394Y-89403373D01*
X134839910Y-89224982D01*
X134764367Y-89111924D01*
X134764364Y-89111921D01*
X134738859Y-89073750D01*
X134700688Y-89048245D01*
X131114800Y-85462358D01*
X131114800Y-78359047D01*
X131354906Y-78259592D01*
X131701192Y-77913306D01*
X131888600Y-77460861D01*
X131888600Y-76971139D01*
X131701192Y-76518694D01*
X131354906Y-76172408D01*
X130902461Y-75985000D01*
X130412739Y-75985000D01*
X129960294Y-76172408D01*
X129614008Y-76518694D01*
X129426600Y-76971139D01*
X129426600Y-77460861D01*
X129614008Y-77913306D01*
X129960294Y-78259592D01*
X130200400Y-78359047D01*
X130200401Y-84979025D01*
X128574800Y-83353424D01*
X128574800Y-78359047D01*
X128814906Y-78259592D01*
X129161192Y-77913306D01*
X129348600Y-77460861D01*
X129348600Y-76971139D01*
X129161192Y-76518694D01*
X128814906Y-76172408D01*
X128362461Y-75985000D01*
X127872739Y-75985000D01*
X127420294Y-76172408D01*
X127074008Y-76518694D01*
X126886600Y-76971139D01*
X126886600Y-77460861D01*
X127074008Y-77913306D01*
X127420294Y-78259592D01*
X127660400Y-78359047D01*
X127660401Y-82870091D01*
X126034800Y-81244490D01*
X126034800Y-78359047D01*
X126274906Y-78259592D01*
X126621192Y-77913306D01*
X126808600Y-77460861D01*
X126808600Y-76971139D01*
X126621192Y-76518694D01*
X126274906Y-76172408D01*
X125822461Y-75985000D01*
X125332739Y-75985000D01*
X124880294Y-76172408D01*
X124534008Y-76518694D01*
X124346600Y-76971139D01*
X124346600Y-77460861D01*
X124534008Y-77913306D01*
X124880294Y-78259592D01*
X125120400Y-78359047D01*
X125120401Y-80761157D01*
X123494800Y-79135556D01*
X123494800Y-78359047D01*
X123734906Y-78259592D01*
X124081192Y-77913306D01*
X124268600Y-77460861D01*
X124268600Y-76971139D01*
X124081192Y-76518694D01*
X123734906Y-76172408D01*
X123282461Y-75985000D01*
X122792739Y-75985000D01*
X122340294Y-76172408D01*
X121994008Y-76518694D01*
X121806600Y-76971139D01*
X121806600Y-77460861D01*
X121994008Y-77913306D01*
X122340294Y-78259592D01*
X122580400Y-78359047D01*
X122580400Y-78652222D01*
X121629145Y-77700967D01*
X121728600Y-77460861D01*
X121728600Y-76971139D01*
X121541192Y-76518694D01*
X121194906Y-76172408D01*
X120742461Y-75985000D01*
X120252739Y-75985000D01*
X119800294Y-76172408D01*
X119454008Y-76518694D01*
X119266600Y-76971139D01*
X119266600Y-77460861D01*
X119454008Y-77913306D01*
X119800294Y-78259592D01*
X120252739Y-78447000D01*
X120742461Y-78447000D01*
X120982567Y-78347545D01*
X121679822Y-79044800D01*
X118807378Y-79044800D01*
X118414800Y-78652222D01*
X118414800Y-78359047D01*
X118654906Y-78259592D01*
X119001192Y-77913306D01*
X119188600Y-77460861D01*
X119188600Y-76971139D01*
X119001192Y-76518694D01*
X118654906Y-76172408D01*
X118202461Y-75985000D01*
X117712739Y-75985000D01*
X117260294Y-76172408D01*
X116914008Y-76518694D01*
X116726600Y-76971139D01*
X116726600Y-77460861D01*
X116914008Y-77913306D01*
X117260294Y-78259592D01*
X117500400Y-78359047D01*
X117500400Y-78796570D01*
X117491443Y-78841600D01*
X117511877Y-78944327D01*
X117526927Y-79019990D01*
X117627977Y-79171223D01*
X117666154Y-79196732D01*
X117819032Y-79349610D01*
X116470568Y-79349610D01*
X115874800Y-78753842D01*
X115874800Y-78359047D01*
X116114906Y-78259592D01*
X116461192Y-77913306D01*
X116648600Y-77460861D01*
X116648600Y-76971139D01*
X116461192Y-76518694D01*
X116114906Y-76172408D01*
X115662461Y-75985000D01*
X115172739Y-75985000D01*
X114720294Y-76172408D01*
X114374008Y-76518694D01*
X114186600Y-76971139D01*
X114186600Y-77460861D01*
X114374008Y-77913306D01*
X114720294Y-78259592D01*
X114960401Y-78359047D01*
X114960401Y-78898185D01*
X114951443Y-78943220D01*
X114986927Y-79121610D01*
X115046356Y-79210552D01*
X115087978Y-79272843D01*
X115126152Y-79298350D01*
X115482222Y-79654420D01*
X114082999Y-79654420D01*
X113334800Y-78906222D01*
X113334800Y-78359047D01*
X113574906Y-78259592D01*
X113921192Y-77913306D01*
X114108600Y-77460861D01*
X114108600Y-76971139D01*
X113921192Y-76518694D01*
X113574906Y-76172408D01*
X113122461Y-75985000D01*
X112632739Y-75985000D01*
X112180294Y-76172408D01*
X111834008Y-76518694D01*
X111646600Y-76971139D01*
X111646600Y-77460861D01*
X111834008Y-77913306D01*
X112180294Y-78259592D01*
X112420401Y-78359047D01*
X112420401Y-79050565D01*
X112411443Y-79095600D01*
X112446927Y-79273990D01*
X112522470Y-79387048D01*
X112547978Y-79425223D01*
X112586152Y-79450730D01*
X113094651Y-79959230D01*
X111618474Y-79959230D01*
X110794800Y-79135556D01*
X110794800Y-78359047D01*
X111034906Y-78259592D01*
X111381192Y-77913306D01*
X111568600Y-77460861D01*
X111568600Y-76971139D01*
X111381192Y-76518694D01*
X111034906Y-76172408D01*
X110582461Y-75985000D01*
X110092739Y-75985000D01*
X109640294Y-76172408D01*
X109294008Y-76518694D01*
X109106600Y-76971139D01*
X109106600Y-77460861D01*
X109294008Y-77913306D01*
X109640294Y-78259592D01*
X109880401Y-78359047D01*
X109880401Y-79279899D01*
X109871443Y-79324934D01*
X109906927Y-79503324D01*
X109982470Y-79616382D01*
X110007978Y-79654557D01*
X110046152Y-79680064D01*
X110630128Y-80264040D01*
X109104618Y-80264039D01*
X108254800Y-79414222D01*
X108254800Y-78359047D01*
X108494906Y-78259592D01*
X108841192Y-77913306D01*
X109028600Y-77460861D01*
X109028600Y-76971139D01*
X108841192Y-76518694D01*
X108494906Y-76172408D01*
X108042461Y-75985000D01*
X107552739Y-75985000D01*
X107100294Y-76172408D01*
X106754008Y-76518694D01*
X106566600Y-76971139D01*
X106566600Y-77460861D01*
X106754008Y-77913306D01*
X107100294Y-78259592D01*
X107340400Y-78359047D01*
X107340401Y-79558565D01*
X107331443Y-79603600D01*
X107366927Y-79781990D01*
X107406461Y-79841157D01*
X107467978Y-79933223D01*
X107506152Y-79958730D01*
X108116269Y-80568848D01*
X106361427Y-80568848D01*
X105740200Y-79947622D01*
X105740200Y-78488510D01*
X105749157Y-78443480D01*
X105731025Y-78352326D01*
X105954906Y-78259592D01*
X106301192Y-77913306D01*
X106488600Y-77460861D01*
X106488600Y-76971139D01*
X106301192Y-76518694D01*
X105954906Y-76172408D01*
X105502461Y-75985000D01*
X105012739Y-75985000D01*
X104560294Y-76172408D01*
X104214008Y-76518694D01*
X104026600Y-76971139D01*
X104026600Y-77460861D01*
X104214008Y-77913306D01*
X104560294Y-78259592D01*
X104800401Y-78359047D01*
X104800401Y-78373046D01*
X104791443Y-78418081D01*
X104825800Y-78590806D01*
X104825801Y-79806800D01*
X103821379Y-79806800D01*
X103200200Y-79185622D01*
X103200200Y-78488510D01*
X103209157Y-78443480D01*
X103191025Y-78352326D01*
X103414906Y-78259592D01*
X103761192Y-77913306D01*
X103948600Y-77460861D01*
X103948600Y-76971139D01*
X103761192Y-76518694D01*
X103414906Y-76172408D01*
X102962461Y-75985000D01*
X102472739Y-75985000D01*
X102020294Y-76172408D01*
X101674008Y-76518694D01*
X101591405Y-76718116D01*
X101472859Y-76431920D01*
X101221558Y-76351647D01*
X100357205Y-77216000D01*
X101221558Y-78080353D01*
X101472859Y-78000080D01*
X101583554Y-77694929D01*
X101674008Y-77913306D01*
X102020294Y-78259592D01*
X102260401Y-78359047D01*
X102260401Y-78373046D01*
X102251443Y-78418081D01*
X102285800Y-78590806D01*
X102285801Y-79329966D01*
X102276843Y-79375000D01*
X102312327Y-79553390D01*
X102379833Y-79654420D01*
X102413378Y-79704623D01*
X102451552Y-79730130D01*
X102833032Y-80111610D01*
X100570188Y-80111610D01*
X98842731Y-78384153D01*
X98817222Y-78345976D01*
X98688487Y-78259958D01*
X99313247Y-78259958D01*
X99393520Y-78511259D01*
X99948879Y-78712718D01*
X100539058Y-78686315D01*
X100961680Y-78511259D01*
X101041953Y-78259958D01*
X100177600Y-77395605D01*
X99313247Y-78259958D01*
X98688487Y-78259958D01*
X98665990Y-78244926D01*
X98532629Y-78218399D01*
X98487599Y-78209442D01*
X98442569Y-78218399D01*
X98376099Y-78218399D01*
X98681192Y-77913306D01*
X98763795Y-77713884D01*
X98882341Y-78000080D01*
X99133642Y-78080353D01*
X99997995Y-77216000D01*
X99133642Y-76351647D01*
X98882341Y-76431920D01*
X98771646Y-76737071D01*
X98681192Y-76518694D01*
X98334906Y-76172408D01*
X98334023Y-76172042D01*
X99313247Y-76172042D01*
X100177600Y-77036395D01*
X101041953Y-76172042D01*
X100961680Y-75920741D01*
X100406321Y-75719282D01*
X99816142Y-75745685D01*
X99393520Y-75920741D01*
X99313247Y-76172042D01*
X98334023Y-76172042D01*
X97882461Y-75985000D01*
X97392739Y-75985000D01*
X96940294Y-76172408D01*
X96594008Y-76518694D01*
X96406600Y-76971139D01*
X96406600Y-77460861D01*
X96594008Y-77913306D01*
X96940294Y-78259592D01*
X97180400Y-78359047D01*
X97180400Y-78373051D01*
X97171443Y-78418081D01*
X97205260Y-78588090D01*
X97206927Y-78596471D01*
X97307977Y-78747704D01*
X97346155Y-78773214D01*
X97539984Y-78967042D01*
X97565495Y-79005222D01*
X97716727Y-79106272D01*
X97850088Y-79132799D01*
X97895117Y-79141756D01*
X97940146Y-79132799D01*
X98298221Y-79132799D01*
X100025678Y-80860256D01*
X100051187Y-80898433D01*
X100154869Y-80967711D01*
X100202419Y-80999483D01*
X100380810Y-81034967D01*
X100425840Y-81026010D01*
X104663300Y-81026010D01*
X105564407Y-81927117D01*
X105589914Y-81965291D01*
X105628088Y-81990798D01*
X105741146Y-82066341D01*
X105919536Y-82101825D01*
X105964566Y-82092868D01*
X110529292Y-82092870D01*
X110959002Y-82522581D01*
X110959001Y-96460967D01*
X110582461Y-96305000D01*
X110092739Y-96305000D01*
X109640294Y-96492408D01*
X109294008Y-96838694D01*
X109106600Y-97291139D01*
X109106600Y-97780861D01*
X109294008Y-98233306D01*
X109640294Y-98579592D01*
X110092739Y-98767000D01*
X110582461Y-98767000D01*
X110959001Y-98611033D01*
X110959001Y-98800420D01*
X110814967Y-98944455D01*
X110574861Y-98845000D01*
X110085139Y-98845000D01*
X109632694Y-99032408D01*
X109286408Y-99378694D01*
X109099000Y-99831139D01*
X109099000Y-100320861D01*
X109286408Y-100773306D01*
X109632694Y-101119592D01*
X109872800Y-101219047D01*
X109872800Y-101470490D01*
X109235300Y-102107990D01*
X108021839Y-102107990D01*
X108113836Y-102015993D01*
X108156247Y-101987655D01*
X108184586Y-101945243D01*
X108184588Y-101945241D01*
X108268525Y-101819620D01*
X108272935Y-101797448D01*
X108298000Y-101671440D01*
X108298000Y-101671436D01*
X108307951Y-101621408D01*
X108298000Y-101571380D01*
X108298000Y-101198005D01*
X108487306Y-101119592D01*
X108833592Y-100773306D01*
X109021000Y-100320861D01*
X109021000Y-99831139D01*
X108833592Y-99378694D01*
X108487306Y-99032408D01*
X108034861Y-98845000D01*
X107545139Y-98845000D01*
X107092694Y-99032408D01*
X106746408Y-99378694D01*
X106559000Y-99831139D01*
X106559000Y-100320861D01*
X106746408Y-100773306D01*
X107092694Y-101119592D01*
X107282000Y-101198005D01*
X107282000Y-101410987D01*
X106330988Y-102362000D01*
X100126028Y-102362000D01*
X100076000Y-102352049D01*
X100025972Y-102362000D01*
X100025968Y-102362000D01*
X99901296Y-102386799D01*
X99877788Y-102391475D01*
X99752167Y-102475412D01*
X99752165Y-102475414D01*
X99709753Y-102503753D01*
X99681414Y-102546165D01*
X99568000Y-102659579D01*
X99568000Y-99831139D01*
X104019000Y-99831139D01*
X104019000Y-100320861D01*
X104206408Y-100773306D01*
X104552694Y-101119592D01*
X105005139Y-101307000D01*
X105494861Y-101307000D01*
X105947306Y-101119592D01*
X106293592Y-100773306D01*
X106481000Y-100320861D01*
X106481000Y-99831139D01*
X106293592Y-99378694D01*
X105947306Y-99032408D01*
X105494861Y-98845000D01*
X105005139Y-98845000D01*
X104552694Y-99032408D01*
X104206408Y-99378694D01*
X104019000Y-99831139D01*
X99568000Y-99831139D01*
X99568000Y-97291139D01*
X101486600Y-97291139D01*
X101486600Y-97780861D01*
X101674008Y-98233306D01*
X102020294Y-98579592D01*
X102472739Y-98767000D01*
X102962461Y-98767000D01*
X103414906Y-98579592D01*
X103761192Y-98233306D01*
X103948600Y-97780861D01*
X103948600Y-97291139D01*
X104026600Y-97291139D01*
X104026600Y-97780861D01*
X104214008Y-98233306D01*
X104560294Y-98579592D01*
X105012739Y-98767000D01*
X105502461Y-98767000D01*
X105954906Y-98579592D01*
X106301192Y-98233306D01*
X106488600Y-97780861D01*
X106488600Y-97291139D01*
X106566600Y-97291139D01*
X106566600Y-97780861D01*
X106754008Y-98233306D01*
X107100294Y-98579592D01*
X107552739Y-98767000D01*
X108042461Y-98767000D01*
X108494906Y-98579592D01*
X108841192Y-98233306D01*
X109028600Y-97780861D01*
X109028600Y-97291139D01*
X108841192Y-96838694D01*
X108494906Y-96492408D01*
X108042461Y-96305000D01*
X107552739Y-96305000D01*
X107100294Y-96492408D01*
X106754008Y-96838694D01*
X106566600Y-97291139D01*
X106488600Y-97291139D01*
X106301192Y-96838694D01*
X105954906Y-96492408D01*
X105502461Y-96305000D01*
X105012739Y-96305000D01*
X104560294Y-96492408D01*
X104214008Y-96838694D01*
X104026600Y-97291139D01*
X103948600Y-97291139D01*
X103761192Y-96838694D01*
X103414906Y-96492408D01*
X102962461Y-96305000D01*
X102472739Y-96305000D01*
X102020294Y-96492408D01*
X101674008Y-96838694D01*
X101486600Y-97291139D01*
X99568000Y-97291139D01*
X99568000Y-81838026D01*
X99577951Y-81787999D01*
X99568000Y-81737972D01*
X99568000Y-81737968D01*
X99538525Y-81589788D01*
X99426247Y-81421753D01*
X99383832Y-81393412D01*
X97930587Y-79940167D01*
X97902247Y-79897753D01*
X97734212Y-79785475D01*
X97586032Y-79756000D01*
X97586028Y-79756000D01*
X97536000Y-79746049D01*
X97485972Y-79756000D01*
X95943021Y-79756000D01*
X95605600Y-79418580D01*
X95605600Y-78338005D01*
X95794906Y-78259592D01*
X96141192Y-77913306D01*
X96328600Y-77460861D01*
X96328600Y-76971139D01*
X96141192Y-76518694D01*
X95794906Y-76172408D01*
X95605600Y-76093995D01*
X95605600Y-76063946D01*
X95615551Y-76013918D01*
X95605600Y-75963890D01*
X95605600Y-75963887D01*
X95598000Y-75925679D01*
X95598000Y-75630420D01*
X95990420Y-75238000D01*
X98339972Y-75238000D01*
X98390000Y-75247951D01*
X98440028Y-75238000D01*
X98440032Y-75238000D01*
X98588212Y-75208525D01*
X98756247Y-75096247D01*
X98784588Y-75053832D01*
X99383835Y-74454586D01*
X99426247Y-74426247D01*
X99454586Y-74383835D01*
X99454588Y-74383833D01*
X99538525Y-74258212D01*
X99565426Y-74122970D01*
X99568000Y-74110032D01*
X99568000Y-74110029D01*
X99577951Y-74060001D01*
X99568000Y-74009973D01*
X99568000Y-70104000D01*
X106345230Y-70104000D01*
X106350378Y-70111704D01*
X106388552Y-70137211D01*
X109491648Y-73240308D01*
X109517156Y-73278483D01*
X109631971Y-73355200D01*
X109668388Y-73379533D01*
X109846779Y-73415017D01*
X109891809Y-73406060D01*
X114695563Y-73406060D01*
X114860633Y-73571130D01*
X114712694Y-73632408D01*
X114366408Y-73978694D01*
X114179000Y-74431139D01*
X114179000Y-74920861D01*
X114366408Y-75373306D01*
X114712694Y-75719592D01*
X115165139Y-75907000D01*
X115654861Y-75907000D01*
X116107306Y-75719592D01*
X116453592Y-75373306D01*
X116641000Y-74920861D01*
X116641000Y-74431139D01*
X116453592Y-73978694D01*
X116107306Y-73632408D01*
X115867200Y-73532953D01*
X115867200Y-73518949D01*
X115876157Y-73473919D01*
X115840673Y-73295528D01*
X115829283Y-73278482D01*
X115739623Y-73144296D01*
X115701446Y-73118787D01*
X115683909Y-73101250D01*
X117158672Y-73101250D01*
X117492800Y-73435379D01*
X117492800Y-73532953D01*
X117252694Y-73632408D01*
X116906408Y-73978694D01*
X116719000Y-74431139D01*
X116719000Y-74920861D01*
X116906408Y-75373306D01*
X117252694Y-75719592D01*
X117705139Y-75907000D01*
X118194861Y-75907000D01*
X118647306Y-75719592D01*
X118993592Y-75373306D01*
X119181000Y-74920861D01*
X119181000Y-74431139D01*
X118993592Y-73978694D01*
X118647306Y-73632408D01*
X118407200Y-73532953D01*
X118407200Y-73291030D01*
X118416157Y-73246000D01*
X118380673Y-73067609D01*
X118351470Y-73023904D01*
X118279623Y-72916377D01*
X118241449Y-72890870D01*
X118147019Y-72796440D01*
X119647862Y-72796440D01*
X120032800Y-73181379D01*
X120032800Y-73532953D01*
X119792694Y-73632408D01*
X119446408Y-73978694D01*
X119259000Y-74431139D01*
X119259000Y-74920861D01*
X119446408Y-75373306D01*
X119792694Y-75719592D01*
X120245139Y-75907000D01*
X120734861Y-75907000D01*
X121187306Y-75719592D01*
X121533592Y-75373306D01*
X121721000Y-74920861D01*
X121721000Y-74431139D01*
X121533592Y-73978694D01*
X121187306Y-73632408D01*
X120947200Y-73532953D01*
X120947200Y-73037029D01*
X120956157Y-72991999D01*
X120920673Y-72813609D01*
X120871029Y-72739311D01*
X120819623Y-72662377D01*
X120781449Y-72636870D01*
X120636209Y-72491630D01*
X121883052Y-72491630D01*
X122572800Y-73181378D01*
X122572800Y-73532953D01*
X122332694Y-73632408D01*
X121986408Y-73978694D01*
X121799000Y-74431139D01*
X121799000Y-74920861D01*
X121986408Y-75373306D01*
X122332694Y-75719592D01*
X122785139Y-75907000D01*
X123274861Y-75907000D01*
X123727306Y-75719592D01*
X124073592Y-75373306D01*
X124261000Y-74920861D01*
X124261000Y-74431139D01*
X124073592Y-73978694D01*
X123727306Y-73632408D01*
X123487200Y-73532953D01*
X123487200Y-73037024D01*
X123496156Y-72991999D01*
X123487200Y-72946974D01*
X123487200Y-72946970D01*
X123460673Y-72813609D01*
X123359623Y-72662377D01*
X123321446Y-72636868D01*
X122871398Y-72186820D01*
X124626242Y-72186820D01*
X125112800Y-72673378D01*
X125112800Y-73532953D01*
X124872694Y-73632408D01*
X124526408Y-73978694D01*
X124339000Y-74431139D01*
X124339000Y-74920861D01*
X124526408Y-75373306D01*
X124872694Y-75719592D01*
X125325139Y-75907000D01*
X125814861Y-75907000D01*
X126267306Y-75719592D01*
X126613592Y-75373306D01*
X126801000Y-74920861D01*
X126801000Y-74431139D01*
X126613592Y-73978694D01*
X126267306Y-73632408D01*
X126027200Y-73532953D01*
X126027200Y-72529028D01*
X126036157Y-72483999D01*
X126027200Y-72438970D01*
X126000673Y-72305609D01*
X125899623Y-72154377D01*
X125861446Y-72128868D01*
X125614588Y-71882010D01*
X127115432Y-71882010D01*
X127652800Y-72419378D01*
X127652801Y-73532953D01*
X127412694Y-73632408D01*
X127066408Y-73978694D01*
X126879000Y-74431139D01*
X126879000Y-74920861D01*
X127066408Y-75373306D01*
X127412694Y-75719592D01*
X127865139Y-75907000D01*
X128354861Y-75907000D01*
X128807306Y-75719592D01*
X129153592Y-75373306D01*
X129341000Y-74920861D01*
X129341000Y-74431139D01*
X129153592Y-73978694D01*
X128807306Y-73632408D01*
X128567200Y-73532953D01*
X128567200Y-72275030D01*
X128576157Y-72230000D01*
X128540673Y-72051609D01*
X128518111Y-72017843D01*
X128439623Y-71900377D01*
X128401446Y-71874868D01*
X128103778Y-71577200D01*
X129858622Y-71577200D01*
X130192800Y-71911378D01*
X130192801Y-73532953D01*
X129952694Y-73632408D01*
X129606408Y-73978694D01*
X129419000Y-74431139D01*
X129419000Y-74920861D01*
X129606408Y-75373306D01*
X129952694Y-75719592D01*
X130405139Y-75907000D01*
X130894861Y-75907000D01*
X131347306Y-75719592D01*
X131693592Y-75373306D01*
X131881000Y-74920861D01*
X131881000Y-74431139D01*
X131693592Y-73978694D01*
X131347306Y-73632408D01*
X131107200Y-73532953D01*
X131107200Y-71767030D01*
X131116157Y-71722000D01*
X131080673Y-71543609D01*
X130979623Y-71392377D01*
X130941446Y-71366868D01*
X130796207Y-71221629D01*
X132297051Y-71221629D01*
X132732801Y-71657379D01*
X132732800Y-73532953D01*
X132492694Y-73632408D01*
X132146408Y-73978694D01*
X131959000Y-74431139D01*
X131959000Y-74920861D01*
X132146408Y-75373306D01*
X132492694Y-75719592D01*
X132945139Y-75907000D01*
X133434861Y-75907000D01*
X133887306Y-75719592D01*
X134233592Y-75373306D01*
X134421000Y-74920861D01*
X134421000Y-74431139D01*
X134233592Y-73978694D01*
X133887306Y-73632408D01*
X133647200Y-73532953D01*
X133647200Y-71513030D01*
X133656157Y-71468000D01*
X133620673Y-71289609D01*
X133609188Y-71272420D01*
X133519623Y-71138377D01*
X133481446Y-71112868D01*
X133285397Y-70916819D01*
X134786241Y-70916819D01*
X135272800Y-71403379D01*
X135272801Y-73532953D01*
X135032694Y-73632408D01*
X134686408Y-73978694D01*
X134499000Y-74431139D01*
X134499000Y-74920861D01*
X134686408Y-75373306D01*
X135032694Y-75719592D01*
X135485139Y-75907000D01*
X135974861Y-75907000D01*
X136427306Y-75719592D01*
X136773592Y-75373306D01*
X136961000Y-74920861D01*
X136961000Y-74431139D01*
X136773592Y-73978694D01*
X136427306Y-73632408D01*
X136187200Y-73532953D01*
X136187200Y-71259030D01*
X136196157Y-71214000D01*
X136160673Y-71035609D01*
X136117026Y-70970286D01*
X136059623Y-70884377D01*
X136021449Y-70858870D01*
X135774589Y-70612010D01*
X137275432Y-70612010D01*
X137812800Y-71149378D01*
X137812801Y-73532953D01*
X137572694Y-73632408D01*
X137226408Y-73978694D01*
X137039000Y-74431139D01*
X137039000Y-74920861D01*
X137226408Y-75373306D01*
X137572694Y-75719592D01*
X138025139Y-75907000D01*
X138514861Y-75907000D01*
X138967306Y-75719592D01*
X139313592Y-75373306D01*
X139501000Y-74920861D01*
X139501000Y-74431139D01*
X139313592Y-73978694D01*
X138967306Y-73632408D01*
X138727200Y-73532953D01*
X138727200Y-71632712D01*
X140352800Y-73258312D01*
X140352800Y-73532953D01*
X140112694Y-73632408D01*
X139766408Y-73978694D01*
X139579000Y-74431139D01*
X139579000Y-74920861D01*
X139766408Y-75373306D01*
X140112694Y-75719592D01*
X140565139Y-75907000D01*
X141054861Y-75907000D01*
X141507306Y-75719592D01*
X141853592Y-75373306D01*
X142041000Y-74920861D01*
X142041000Y-74431139D01*
X141853592Y-73978694D01*
X141507306Y-73632408D01*
X141267200Y-73532953D01*
X141267200Y-73355200D01*
X142584703Y-73355200D01*
X142800633Y-73571130D01*
X142652694Y-73632408D01*
X142306408Y-73978694D01*
X142119000Y-74431139D01*
X142119000Y-74920861D01*
X142306408Y-75373306D01*
X142652694Y-75719592D01*
X143105139Y-75907000D01*
X143594861Y-75907000D01*
X144047306Y-75719592D01*
X144393592Y-75373306D01*
X144581000Y-74920861D01*
X144581000Y-74431139D01*
X144393592Y-73978694D01*
X144047306Y-73632408D01*
X143807200Y-73532953D01*
X143807200Y-73518943D01*
X143816156Y-73473918D01*
X143807200Y-73428893D01*
X143807200Y-73428889D01*
X143780673Y-73295528D01*
X143679623Y-73144296D01*
X143641446Y-73118787D01*
X143129213Y-72606554D01*
X143103704Y-72568377D01*
X142952472Y-72467327D01*
X142819111Y-72440800D01*
X142774081Y-72431843D01*
X142729051Y-72440800D01*
X141259510Y-72440800D01*
X138072454Y-69253744D01*
X138046947Y-69215570D01*
X137895715Y-69114520D01*
X137895716Y-69114520D01*
X137895714Y-69114519D01*
X137717324Y-69079035D01*
X137672290Y-69087993D01*
X135931893Y-69087991D01*
X135931893Y-66153955D01*
X138227000Y-66153955D01*
X138227000Y-66942045D01*
X138528589Y-67670146D01*
X139085854Y-68227411D01*
X139813955Y-68529000D01*
X140602045Y-68529000D01*
X141330146Y-68227411D01*
X141887411Y-67670146D01*
X142189000Y-66942045D01*
X142189000Y-66153955D01*
X141887411Y-65425854D01*
X141330146Y-64868589D01*
X140602045Y-64567000D01*
X139813955Y-64567000D01*
X139085854Y-64868589D01*
X138528589Y-65425854D01*
X138227000Y-66153955D01*
X135931893Y-66153955D01*
X135931893Y-51993165D01*
X135922226Y-51944564D01*
X135894696Y-51903362D01*
X135853494Y-51875832D01*
X135804893Y-51866165D01*
X133908000Y-51866165D01*
X133908000Y-47929455D01*
X134353500Y-47929455D01*
X134353500Y-48717545D01*
X134655089Y-49445646D01*
X135212354Y-50002911D01*
X135940455Y-50304500D01*
X136728545Y-50304500D01*
X137456646Y-50002911D01*
X138013911Y-49445646D01*
X138089584Y-49262955D01*
X138481000Y-49262955D01*
X138481000Y-50051045D01*
X138782589Y-50779146D01*
X139339854Y-51336411D01*
X140067955Y-51638000D01*
X140856045Y-51638000D01*
X141584146Y-51336411D01*
X142141411Y-50779146D01*
X142443000Y-50051045D01*
X142443000Y-49262955D01*
X142141411Y-48534854D01*
X141584146Y-47977589D01*
X140856045Y-47676000D01*
X140067955Y-47676000D01*
X139339854Y-47977589D01*
X138782589Y-48534854D01*
X138481000Y-49262955D01*
X138089584Y-49262955D01*
X138315500Y-48717545D01*
X138315500Y-47929455D01*
X138013911Y-47201354D01*
X137456646Y-46644089D01*
X136728545Y-46342500D01*
X135940455Y-46342500D01*
X135212354Y-46644089D01*
X134655089Y-47201354D01*
X134353500Y-47929455D01*
X133908000Y-47929455D01*
X133908000Y-46512705D01*
X133971468Y-46069530D01*
X134143929Y-45690222D01*
X134415919Y-45374562D01*
X134765575Y-45147927D01*
X135179054Y-45024270D01*
X135397995Y-45008000D01*
X141320295Y-45008000D01*
X141763470Y-45071468D01*
X142142778Y-45243929D01*
X142458438Y-45515919D01*
X142685073Y-45865575D01*
X142808730Y-46279054D01*
X142825001Y-46498008D01*
X142825000Y-57620294D01*
X142768155Y-57942679D01*
X142616990Y-58204505D01*
X142478908Y-58335243D01*
X142474781Y-58337973D01*
X139691776Y-61095680D01*
X139667561Y-61109340D01*
X139631401Y-61155505D01*
X139620482Y-61166325D01*
X139605275Y-61188860D01*
X139561832Y-61244324D01*
X139557600Y-61259510D01*
X139548780Y-61272581D01*
X139534717Y-61341630D01*
X139515807Y-61409493D01*
X139517709Y-61425143D01*
X139514562Y-61440594D01*
X139527993Y-61509764D01*
X139536492Y-61579701D01*
X139544239Y-61593432D01*
X139547244Y-61608911D01*
X139586123Y-61667677D01*
X139599476Y-61691346D01*
X139609493Y-61703001D01*
X139641852Y-61751911D01*
X139664899Y-61767463D01*
X142255418Y-64781433D01*
X142567722Y-65337698D01*
X142762362Y-65962186D01*
X142825001Y-66594700D01*
X142825000Y-69892444D01*
X142828690Y-69910994D01*
X142845934Y-70108096D01*
X142860508Y-70162487D01*
X142870287Y-70217944D01*
X143021139Y-70632406D01*
X143021140Y-70632411D01*
X143095983Y-70762042D01*
X143379495Y-71099918D01*
X143494160Y-71196134D01*
X143494167Y-71196136D01*
X143876129Y-71416663D01*
X143876134Y-71416668D01*
X143991194Y-71458545D01*
X144016791Y-71467862D01*
X144016792Y-71467862D01*
X144451158Y-71544452D01*
X144810681Y-71607845D01*
X145061023Y-71752381D01*
X145246838Y-71973826D01*
X145352291Y-72263556D01*
X145365001Y-72408829D01*
X145365000Y-102324294D01*
X145308155Y-102646679D01*
X145163619Y-102897024D01*
X144942176Y-103082837D01*
X144652444Y-103188291D01*
X144488436Y-103202640D01*
X144267903Y-103221934D01*
X144213517Y-103236507D01*
X144158056Y-103246286D01*
X143743594Y-103397139D01*
X143743589Y-103397140D01*
X143613958Y-103471983D01*
X143276082Y-103755495D01*
X143181032Y-103868771D01*
X143179867Y-103870159D01*
X142959337Y-104252129D01*
X142959332Y-104252134D01*
X142932880Y-104324813D01*
X142908137Y-104392791D01*
X142908137Y-104392798D01*
X142832350Y-104822607D01*
X142825001Y-104859555D01*
X142825000Y-108674143D01*
X142690040Y-109298586D01*
X142424543Y-109889465D01*
X142041993Y-110412235D01*
X141544434Y-110857172D01*
X141494905Y-110891859D01*
X141469374Y-110907631D01*
X137786444Y-114336567D01*
X137749694Y-114359246D01*
X137724311Y-114394415D01*
X137724244Y-114394477D01*
X137700792Y-114427000D01*
X137649347Y-114498278D01*
X137649324Y-114498373D01*
X137649269Y-114498450D01*
X137629935Y-114580270D01*
X137609844Y-114665127D01*
X137609860Y-114665224D01*
X137609838Y-114665316D01*
X137623394Y-114748969D01*
X137637199Y-114834392D01*
X137637250Y-114834474D01*
X137637265Y-114834569D01*
X137682308Y-114907487D01*
X137704519Y-114943478D01*
X137704583Y-114943546D01*
X137727375Y-114980444D01*
X137762401Y-115005701D01*
X142753649Y-120371294D01*
X142822687Y-120611817D01*
X142825001Y-120660304D01*
X142825000Y-128366294D01*
X142761532Y-128809468D01*
X142589071Y-129188778D01*
X142317080Y-129504439D01*
X141967426Y-129731073D01*
X141553946Y-129854730D01*
X141335005Y-129871000D01*
X135687526Y-129871000D01*
X134065778Y-128249253D01*
X134041733Y-128213267D01*
X133899168Y-128118008D01*
X133773445Y-128093000D01*
X133773441Y-128093000D01*
X133731000Y-128084558D01*
X133688559Y-128093000D01*
X115358445Y-128093000D01*
X115316000Y-128084557D01*
X115273555Y-128093000D01*
X115147832Y-128118008D01*
X115005267Y-128213267D01*
X114981224Y-128249250D01*
X113359475Y-129871000D01*
X87787705Y-129871000D01*
X87344532Y-129807532D01*
X86965222Y-129635071D01*
X86649561Y-129363080D01*
X86422927Y-129013426D01*
X86299270Y-128599946D01*
X86283000Y-128381005D01*
X86283000Y-125038024D01*
X87193499Y-125038024D01*
X87211559Y-125865699D01*
X87460817Y-126432184D01*
X88326872Y-127669039D01*
X88773941Y-128097015D01*
X89545525Y-128397068D01*
X90373201Y-128379009D01*
X91130963Y-128045586D01*
X91703448Y-127447560D01*
X92003501Y-126675976D01*
X91985442Y-125848300D01*
X91736183Y-125281817D01*
X90870128Y-124044961D01*
X90423059Y-123616985D01*
X89651475Y-123316932D01*
X88823800Y-123334992D01*
X88066038Y-123668415D01*
X87493552Y-124266440D01*
X87193499Y-125038024D01*
X86283000Y-125038024D01*
X86283000Y-106976440D01*
X86291442Y-106933999D01*
X86283000Y-106891558D01*
X86283000Y-106891555D01*
X86257992Y-106765832D01*
X86200641Y-106680000D01*
X86186776Y-106659249D01*
X86186774Y-106659247D01*
X86162733Y-106623267D01*
X86126753Y-106599226D01*
X83997000Y-104469475D01*
X83997000Y-103110955D01*
X84633000Y-103110955D01*
X84633000Y-103899045D01*
X84934589Y-104627146D01*
X85491854Y-105184411D01*
X86219955Y-105486000D01*
X87008045Y-105486000D01*
X87736146Y-105184411D01*
X88293411Y-104627146D01*
X88595000Y-103899045D01*
X88595000Y-103110955D01*
X88293411Y-102382854D01*
X87736146Y-101825589D01*
X87008045Y-101524000D01*
X86219955Y-101524000D01*
X85491854Y-101825589D01*
X84934589Y-102382854D01*
X84633000Y-103110955D01*
X83997000Y-103110955D01*
X83997000Y-91618525D01*
X85110752Y-90504774D01*
X85146733Y-90480733D01*
X85170774Y-90444753D01*
X85170776Y-90444751D01*
X85241992Y-90338168D01*
X85245389Y-90321088D01*
X85267000Y-90212445D01*
X85267000Y-90212442D01*
X85275442Y-90170001D01*
X85267000Y-90127560D01*
X85267000Y-84370440D01*
X85275442Y-84327999D01*
X85267000Y-84285556D01*
X85267000Y-84285555D01*
X85241992Y-84159832D01*
X85170776Y-84053249D01*
X85170774Y-84053247D01*
X85146733Y-84017267D01*
X85110753Y-83993226D01*
X83997000Y-82879475D01*
X83997000Y-70852955D01*
X84633000Y-70852955D01*
X84633000Y-71641045D01*
X84934589Y-72369146D01*
X85491854Y-72926411D01*
X86219955Y-73228000D01*
X87008045Y-73228000D01*
X87736146Y-72926411D01*
X88293411Y-72369146D01*
X88595000Y-71641045D01*
X88595000Y-70852955D01*
X88293411Y-70124854D01*
X87736146Y-69567589D01*
X87008045Y-69266000D01*
X86219955Y-69266000D01*
X85491854Y-69567589D01*
X84934589Y-70124854D01*
X84633000Y-70852955D01*
X83997000Y-70852955D01*
X83997000Y-70028525D01*
X86126753Y-67898774D01*
X86162733Y-67874733D01*
X86186774Y-67838753D01*
X86186776Y-67838751D01*
X86257992Y-67732168D01*
X86270329Y-67670146D01*
X86283000Y-67606445D01*
X86283000Y-67606442D01*
X86291442Y-67564001D01*
X86283000Y-67521560D01*
X86283000Y-49818431D01*
X87228320Y-49818431D01*
X87528372Y-50590015D01*
X88100857Y-51188041D01*
X88858619Y-51521465D01*
X89686294Y-51539525D01*
X90457878Y-51239473D01*
X90904948Y-50811497D01*
X91828361Y-49492728D01*
X91929463Y-49262955D01*
X106223000Y-49262955D01*
X106223000Y-50051045D01*
X106524589Y-50779146D01*
X107081854Y-51336411D01*
X107809955Y-51638000D01*
X108598045Y-51638000D01*
X109326146Y-51336411D01*
X109883411Y-50779146D01*
X110185000Y-50051045D01*
X110185000Y-49262955D01*
X109883411Y-48534854D01*
X109326146Y-47977589D01*
X108598045Y-47676000D01*
X107809955Y-47676000D01*
X107081854Y-47977589D01*
X106524589Y-48534854D01*
X106223000Y-49262955D01*
X91929463Y-49262955D01*
X92077620Y-48926245D01*
X92095680Y-48098569D01*
X91795628Y-47326984D01*
X91223143Y-46728958D01*
X90465381Y-46395535D01*
X89637705Y-46377475D01*
X88866122Y-46677527D01*
X88419052Y-47105503D01*
X87495639Y-48424272D01*
X87246380Y-48990756D01*
X87228320Y-49818431D01*
X86283000Y-49818431D01*
X86283000Y-46512705D01*
X86346468Y-46069530D01*
X86518929Y-45690222D01*
X86790919Y-45374562D01*
X87140575Y-45147927D01*
X87554054Y-45024270D01*
X87772995Y-45008000D01*
X110967295Y-45008000D01*
X111410470Y-45071468D01*
G36*
X106213843Y-103886000D02*
X106222801Y-103931035D01*
X106222801Y-105029000D01*
X102057200Y-105029000D01*
X102057200Y-104329378D01*
X102551379Y-103835200D01*
X106223948Y-103835200D01*
X106213843Y-103886000D01*
X106213843Y-103886000D01*
G37*
X106213843Y-103886000D02*
X106222801Y-103931035D01*
X106222801Y-105029000D01*
X102057200Y-105029000D01*
X102057200Y-104329378D01*
X102551379Y-103835200D01*
X106223948Y-103835200D01*
X106213843Y-103886000D01*
G36*
X140352800Y-98581379D02*
X140352800Y-98932953D01*
X140112694Y-99032408D01*
X139766408Y-99378694D01*
X139579000Y-99831139D01*
X139579000Y-100320861D01*
X139766408Y-100773306D01*
X140112694Y-101119592D01*
X140352801Y-101219047D01*
X140352800Y-103094621D01*
X138680703Y-104766719D01*
X138449859Y-104766719D01*
X138561446Y-104655132D01*
X138599623Y-104629623D01*
X138700673Y-104478391D01*
X138727200Y-104345030D01*
X138727200Y-104345029D01*
X138736157Y-104300000D01*
X138727200Y-104254970D01*
X138727200Y-101219047D01*
X138967306Y-101119592D01*
X139313592Y-100773306D01*
X139501000Y-100320861D01*
X139501000Y-99831139D01*
X139313592Y-99378694D01*
X138967306Y-99032408D01*
X138727200Y-98932953D01*
X138727200Y-98691030D01*
X138736157Y-98646000D01*
X138700673Y-98467609D01*
X138667438Y-98417870D01*
X138599623Y-98316377D01*
X138561446Y-98290868D01*
X138466968Y-98196390D01*
X139967812Y-98196390D01*
X140352800Y-98581379D01*
X140352800Y-98581379D01*
G37*
X140352800Y-98581379D02*
X140352800Y-98932953D01*
X140112694Y-99032408D01*
X139766408Y-99378694D01*
X139579000Y-99831139D01*
X139579000Y-100320861D01*
X139766408Y-100773306D01*
X140112694Y-101119592D01*
X140352801Y-101219047D01*
X140352800Y-103094621D01*
X138680703Y-104766719D01*
X138449859Y-104766719D01*
X138561446Y-104655132D01*
X138599623Y-104629623D01*
X138700673Y-104478391D01*
X138727200Y-104345030D01*
X138727200Y-104345029D01*
X138736157Y-104300000D01*
X138727200Y-104254970D01*
X138727200Y-101219047D01*
X138967306Y-101119592D01*
X139313592Y-100773306D01*
X139501000Y-100320861D01*
X139501000Y-99831139D01*
X139313592Y-99378694D01*
X138967306Y-99032408D01*
X138727200Y-98932953D01*
X138727200Y-98691030D01*
X138736157Y-98646000D01*
X138700673Y-98467609D01*
X138667438Y-98417870D01*
X138599623Y-98316377D01*
X138561446Y-98290868D01*
X138466968Y-98196390D01*
X139967812Y-98196390D01*
X140352800Y-98581379D01*
G36*
X116255800Y-82104378D02*
X116255801Y-96633303D01*
X116114906Y-96492408D01*
X115662461Y-96305000D01*
X115172739Y-96305000D01*
X114720294Y-96492408D01*
X114374008Y-96838694D01*
X114186600Y-97291139D01*
X114186600Y-97780861D01*
X114374008Y-98233306D01*
X114720294Y-98579592D01*
X115172739Y-98767000D01*
X115662461Y-98767000D01*
X116114906Y-98579592D01*
X116255801Y-98438697D01*
X116255801Y-98583620D01*
X115894967Y-98944455D01*
X115654861Y-98845000D01*
X115165139Y-98845000D01*
X114712694Y-99032408D01*
X114366408Y-99378694D01*
X114283805Y-99578116D01*
X114165259Y-99291920D01*
X113913958Y-99211647D01*
X113049605Y-100076000D01*
X113913958Y-100940353D01*
X114165259Y-100860080D01*
X114275954Y-100554929D01*
X114366408Y-100773306D01*
X114712694Y-101119592D01*
X114952800Y-101219047D01*
X114952800Y-101316622D01*
X114618622Y-101650800D01*
X114321831Y-101650800D01*
X114276801Y-101641843D01*
X114128012Y-101671439D01*
X114098411Y-101677327D01*
X113947179Y-101778377D01*
X113921670Y-101816554D01*
X113833424Y-101904800D01*
X110716212Y-101904800D01*
X110760673Y-101838259D01*
X110787200Y-101704898D01*
X110787200Y-101704897D01*
X110796157Y-101659868D01*
X110787200Y-101614838D01*
X110787200Y-101219047D01*
X111026422Y-101119958D01*
X112005647Y-101119958D01*
X112085920Y-101371259D01*
X112641279Y-101572718D01*
X113231458Y-101546315D01*
X113654080Y-101371259D01*
X113734353Y-101119958D01*
X112870000Y-100255605D01*
X112005647Y-101119958D01*
X111026422Y-101119958D01*
X111027306Y-101119592D01*
X111373592Y-100773306D01*
X111456195Y-100573884D01*
X111574741Y-100860080D01*
X111826042Y-100940353D01*
X112690395Y-100076000D01*
X112676253Y-100061858D01*
X112855858Y-99882253D01*
X112870000Y-99896395D01*
X113734353Y-99032042D01*
X113654080Y-98780741D01*
X113352981Y-98671516D01*
X113574906Y-98579592D01*
X113921192Y-98233306D01*
X114108600Y-97780861D01*
X114108600Y-97291139D01*
X113921192Y-96838694D01*
X113574906Y-96492408D01*
X113122461Y-96305000D01*
X112632739Y-96305000D01*
X112180294Y-96492408D01*
X111873401Y-96799301D01*
X111873401Y-82378231D01*
X111882358Y-82333201D01*
X111846874Y-82154810D01*
X111771331Y-82041752D01*
X111745824Y-82003578D01*
X111707650Y-81978071D01*
X111517639Y-81788060D01*
X115939482Y-81788060D01*
X116255800Y-82104378D01*
X116255800Y-82104378D01*
G37*
X116255800Y-82104378D02*
X116255801Y-96633303D01*
X116114906Y-96492408D01*
X115662461Y-96305000D01*
X115172739Y-96305000D01*
X114720294Y-96492408D01*
X114374008Y-96838694D01*
X114186600Y-97291139D01*
X114186600Y-97780861D01*
X114374008Y-98233306D01*
X114720294Y-98579592D01*
X115172739Y-98767000D01*
X115662461Y-98767000D01*
X116114906Y-98579592D01*
X116255801Y-98438697D01*
X116255801Y-98583620D01*
X115894967Y-98944455D01*
X115654861Y-98845000D01*
X115165139Y-98845000D01*
X114712694Y-99032408D01*
X114366408Y-99378694D01*
X114283805Y-99578116D01*
X114165259Y-99291920D01*
X113913958Y-99211647D01*
X113049605Y-100076000D01*
X113913958Y-100940353D01*
X114165259Y-100860080D01*
X114275954Y-100554929D01*
X114366408Y-100773306D01*
X114712694Y-101119592D01*
X114952800Y-101219047D01*
X114952800Y-101316622D01*
X114618622Y-101650800D01*
X114321831Y-101650800D01*
X114276801Y-101641843D01*
X114128012Y-101671439D01*
X114098411Y-101677327D01*
X113947179Y-101778377D01*
X113921670Y-101816554D01*
X113833424Y-101904800D01*
X110716212Y-101904800D01*
X110760673Y-101838259D01*
X110787200Y-101704898D01*
X110787200Y-101704897D01*
X110796157Y-101659868D01*
X110787200Y-101614838D01*
X110787200Y-101219047D01*
X111026422Y-101119958D01*
X112005647Y-101119958D01*
X112085920Y-101371259D01*
X112641279Y-101572718D01*
X113231458Y-101546315D01*
X113654080Y-101371259D01*
X113734353Y-101119958D01*
X112870000Y-100255605D01*
X112005647Y-101119958D01*
X111026422Y-101119958D01*
X111027306Y-101119592D01*
X111373592Y-100773306D01*
X111456195Y-100573884D01*
X111574741Y-100860080D01*
X111826042Y-100940353D01*
X112690395Y-100076000D01*
X112676253Y-100061858D01*
X112855858Y-99882253D01*
X112870000Y-99896395D01*
X113734353Y-99032042D01*
X113654080Y-98780741D01*
X113352981Y-98671516D01*
X113574906Y-98579592D01*
X113921192Y-98233306D01*
X114108600Y-97780861D01*
X114108600Y-97291139D01*
X113921192Y-96838694D01*
X113574906Y-96492408D01*
X113122461Y-96305000D01*
X112632739Y-96305000D01*
X112180294Y-96492408D01*
X111873401Y-96799301D01*
X111873401Y-82378231D01*
X111882358Y-82333201D01*
X111846874Y-82154810D01*
X111771331Y-82041752D01*
X111745824Y-82003578D01*
X111707650Y-81978071D01*
X111517639Y-81788060D01*
X115939482Y-81788060D01*
X116255800Y-82104378D01*
M02*
