G04 #@! TF.GenerationSoftware,KiCad,Pcbnew,(5.0.0-rc2-dev-444-g2974a2c10)*
G04 #@! TF.CreationDate,2019-12-09T23:14:09-08:00*
G04 #@! TF.ProjectId,CG_Robot_Friend,43475F526F626F745F467269656E642E,v04*
G04 #@! TF.SameCoordinates,Original*
G04 #@! TF.FileFunction,Profile,NP*
%FSLAX46Y46*%
G04 Gerber Fmt 4.6, Leading zero omitted, Abs format (unit mm)*
G04 Created by KiCad (PCBNEW (5.0.0-rc2-dev-444-g2974a2c10)) date 12/09/19 23:14:09*
%MOMM*%
%LPD*%
G01*
G04 APERTURE LIST*
%ADD10C,0.100000*%
G04 APERTURE END LIST*
D10*
X136400000Y-52000000D02*
X133475000Y-49750000D01*
X136400000Y-52000000D02*
X136400000Y-56900000D01*
X139954000Y-61442600D02*
X142748000Y-58674000D01*
X135509000Y-130302000D02*
X141351000Y-130302000D01*
X135509000Y-130302000D02*
X133731000Y-128524000D01*
X115316000Y-128524000D02*
X113538000Y-130302000D01*
X115316000Y-128524000D02*
X133731000Y-128524000D01*
X138049000Y-114681000D02*
X141732000Y-111252000D01*
X142595600Y-64516000D02*
X139954000Y-61442600D01*
X135382000Y-44577000D02*
X141351000Y-44577000D01*
X114808000Y-58801000D02*
X134500000Y-58800000D01*
X133477000Y-46482000D02*
X133475000Y-49750000D01*
X112903000Y-46482000D02*
X112903000Y-56896000D01*
X136400000Y-56896000D02*
G75*
G02X134495000Y-58801000I-1905000J0D01*
G01*
X114808000Y-58801000D02*
G75*
G02X112903000Y-56896000I0J1905000D01*
G01*
X133477000Y-46482000D02*
G75*
G02X135382000Y-44577000I1905000J0D01*
G01*
X110998000Y-44577000D02*
G75*
G02X112903000Y-46482000I0J-1905000D01*
G01*
X142601783Y-64517971D02*
G75*
G02X143256000Y-66573400I-2901783J-2055429D01*
G01*
X143256000Y-57658000D02*
G75*
G02X142748000Y-58674000I-1270000J0D01*
G01*
X143256000Y-128397000D02*
X143256000Y-120650000D01*
X138049000Y-114681000D02*
X143129000Y-120142000D01*
X143257728Y-108712187D02*
G75*
G02X141732000Y-111252000I-3511366J381187D01*
G01*
X143135330Y-120138835D02*
G75*
G02X143256000Y-120650000I-1022330J-511165D01*
G01*
X143256000Y-69850000D02*
X143256000Y-66573400D01*
X143256000Y-128397000D02*
G75*
G02X141351000Y-130302000I-1905000J0D01*
G01*
X141351000Y-44577000D02*
G75*
G02X143256000Y-46482000I0J-1905000D01*
G01*
X85852000Y-46482000D02*
G75*
G02X87757000Y-44577000I1905000J0D01*
G01*
X87757000Y-130302000D02*
G75*
G02X85852000Y-128397000I0J1905000D01*
G01*
X145796000Y-102362000D02*
X145796000Y-72390000D01*
X143256000Y-108712000D02*
X143256000Y-104902000D01*
X143256000Y-57658000D02*
X143256000Y-46482000D01*
X85852000Y-67564000D02*
X85852000Y-46482000D01*
X83566000Y-69850000D02*
X83566000Y-83058000D01*
X84836000Y-90170000D02*
X83566000Y-91440000D01*
X84836000Y-84328000D02*
X84836000Y-90170000D01*
X83566000Y-83058000D02*
X84836000Y-84328000D01*
X83566000Y-91440000D02*
X83566000Y-104648000D01*
X83566000Y-69850000D02*
X85852000Y-67564000D01*
X85852000Y-106934000D02*
X83566000Y-104648000D01*
X85852000Y-128397000D02*
X85852000Y-106934000D01*
X110998000Y-44577000D02*
X87757000Y-44577000D01*
X113538000Y-130302000D02*
X87757000Y-130302000D01*
X145796000Y-102362000D02*
G75*
G02X144526000Y-103632000I-1270000J0D01*
G01*
X143256000Y-104902000D02*
G75*
G02X144526000Y-103632000I1270000J0D01*
G01*
X144526000Y-71120000D02*
G75*
G02X143256000Y-69850000I0J1270000D01*
G01*
X144526000Y-71120000D02*
G75*
G02X145796000Y-72390000I0J-1270000D01*
G01*
M02*
