G04 #@! TF.GenerationSoftware,KiCad,Pcbnew,(5.0.0-rc2-dev-444-g2974a2c10)*
G04 #@! TF.CreationDate,2019-11-11T00:06:30-08:00*
G04 #@! TF.ProjectId,CG_Robot_Friend,43475F526F626F745F467269656E642E,v01*
G04 #@! TF.SameCoordinates,Original*
G04 #@! TF.FileFunction,Copper,L1,Top,Signal*
G04 #@! TF.FilePolarity,Positive*
%FSLAX46Y46*%
G04 Gerber Fmt 4.6, Leading zero omitted, Abs format (unit mm)*
G04 Created by KiCad (PCBNEW (5.0.0-rc2-dev-444-g2974a2c10)) date 11/11/19 00:06:30*
%MOMM*%
%LPD*%
G01*
G04 APERTURE LIST*
%ADD10C,1.700000*%
%ADD11O,1.700000X1.700000*%
%ADD12R,1.700000X1.700000*%
%ADD13C,0.685800*%
%ADD14C,0.152400*%
%ADD15C,0.254000*%
G04 APERTURE END LIST*
D10*
X105250000Y-100076000D03*
X107790000Y-100076000D03*
X110330000Y-100076000D03*
X112870000Y-100076000D03*
X115410000Y-100076000D03*
X117950000Y-100076000D03*
X120490000Y-100076000D03*
X123030000Y-100076000D03*
X125570000Y-100076000D03*
X128110000Y-100076000D03*
X130650000Y-100076000D03*
X133190000Y-100076000D03*
X135730000Y-100076000D03*
X138270000Y-100076000D03*
X140810000Y-100076000D03*
X143350000Y-100076000D03*
X115410000Y-74676000D03*
X117950000Y-74676000D03*
X120490000Y-74676000D03*
X123030000Y-74676000D03*
X125570000Y-74676000D03*
X128110000Y-74676000D03*
X130650000Y-74676000D03*
X133190000Y-74676000D03*
X135730000Y-74676000D03*
X138270000Y-74676000D03*
X140810000Y-74676000D03*
X143350000Y-74676000D03*
X130657600Y-97536000D03*
X128117600Y-97536000D03*
X125577600Y-97536000D03*
X123037600Y-97536000D03*
X120497600Y-97536000D03*
X117957600Y-97536000D03*
X115417600Y-97536000D03*
X112877600Y-97536000D03*
X110337600Y-97536000D03*
X107797600Y-97536000D03*
X105257600Y-97536000D03*
X102717600Y-97536000D03*
X130657600Y-77216000D03*
X128117600Y-77216000D03*
X125577600Y-77216000D03*
X123037600Y-77216000D03*
X120497600Y-77216000D03*
X117957600Y-77216000D03*
X115417600Y-77216000D03*
X112877600Y-77216000D03*
X110337600Y-77216000D03*
X107797600Y-77216000D03*
X105257600Y-77216000D03*
X102717600Y-77216000D03*
X100177600Y-77216000D03*
X97637600Y-77216000D03*
X95097600Y-77216000D03*
X92557600Y-77216000D03*
D11*
X134620000Y-121920000D03*
X132080000Y-121920000D03*
X129540000Y-121920000D03*
X127000000Y-121920000D03*
X124460000Y-121920000D03*
X121920000Y-121920000D03*
X119380000Y-121920000D03*
X116840000Y-121920000D03*
X114300000Y-121920000D03*
X111760000Y-121920000D03*
X109220000Y-121920000D03*
X106680000Y-121920000D03*
X104140000Y-121920000D03*
X101600000Y-121920000D03*
X99060000Y-121920000D03*
X96520000Y-121920000D03*
X93980000Y-121920000D03*
D12*
X91440000Y-121920000D03*
D11*
X134620000Y-119380000D03*
X132080000Y-119380000D03*
X129540000Y-119380000D03*
X127000000Y-119380000D03*
X124460000Y-119380000D03*
X121920000Y-119380000D03*
X119380000Y-119380000D03*
X116840000Y-119380000D03*
X114300000Y-119380000D03*
X111760000Y-119380000D03*
X109220000Y-119380000D03*
X106680000Y-119380000D03*
X104140000Y-119380000D03*
X101600000Y-119380000D03*
X99060000Y-119380000D03*
X96520000Y-119380000D03*
X93980000Y-119380000D03*
D12*
X91440000Y-119380000D03*
D11*
X134620000Y-116840000D03*
X132080000Y-116840000D03*
X129540000Y-116840000D03*
X127000000Y-116840000D03*
X124460000Y-116840000D03*
X121920000Y-116840000D03*
X119380000Y-116840000D03*
X116840000Y-116840000D03*
X114300000Y-116840000D03*
X111760000Y-116840000D03*
X109220000Y-116840000D03*
X106680000Y-116840000D03*
X104140000Y-116840000D03*
X101600000Y-116840000D03*
X99060000Y-116840000D03*
X96520000Y-116840000D03*
X93980000Y-116840000D03*
D12*
X91440000Y-116840000D03*
D11*
X134620000Y-114300000D03*
X132080000Y-114300000D03*
X129540000Y-114300000D03*
X127000000Y-114300000D03*
X124460000Y-114300000D03*
X121920000Y-114300000D03*
X119380000Y-114300000D03*
X116840000Y-114300000D03*
X114300000Y-114300000D03*
X111760000Y-114300000D03*
X109220000Y-114300000D03*
X106680000Y-114300000D03*
X104140000Y-114300000D03*
X101600000Y-114300000D03*
X99060000Y-114300000D03*
X96520000Y-114300000D03*
X93980000Y-114300000D03*
D12*
X91440000Y-114300000D03*
D11*
X134620000Y-111760000D03*
X132080000Y-111760000D03*
X129540000Y-111760000D03*
X127000000Y-111760000D03*
X124460000Y-111760000D03*
X121920000Y-111760000D03*
X119380000Y-111760000D03*
X116840000Y-111760000D03*
X114300000Y-111760000D03*
X111760000Y-111760000D03*
X109220000Y-111760000D03*
X106680000Y-111760000D03*
X104140000Y-111760000D03*
X101600000Y-111760000D03*
X99060000Y-111760000D03*
X96520000Y-111760000D03*
X93980000Y-111760000D03*
D12*
X91440000Y-111760000D03*
D11*
X134620000Y-63500000D03*
X132080000Y-63500000D03*
X129540000Y-63500000D03*
X127000000Y-63500000D03*
X124460000Y-63500000D03*
X121920000Y-63500000D03*
X119380000Y-63500000D03*
X116840000Y-63500000D03*
X114300000Y-63500000D03*
X111760000Y-63500000D03*
X109220000Y-63500000D03*
X106680000Y-63500000D03*
X104140000Y-63500000D03*
X101600000Y-63500000D03*
X99060000Y-63500000D03*
X96520000Y-63500000D03*
X93980000Y-63500000D03*
D12*
X91440000Y-63500000D03*
D11*
X134620000Y-60960000D03*
X132080000Y-60960000D03*
X129540000Y-60960000D03*
X127000000Y-60960000D03*
X124460000Y-60960000D03*
X121920000Y-60960000D03*
X119380000Y-60960000D03*
X116840000Y-60960000D03*
X114300000Y-60960000D03*
X111760000Y-60960000D03*
X109220000Y-60960000D03*
X106680000Y-60960000D03*
X104140000Y-60960000D03*
X101600000Y-60960000D03*
X99060000Y-60960000D03*
X96520000Y-60960000D03*
X93980000Y-60960000D03*
D12*
X91440000Y-60960000D03*
D11*
X134620000Y-58420000D03*
X132080000Y-58420000D03*
X129540000Y-58420000D03*
X127000000Y-58420000D03*
X124460000Y-58420000D03*
X121920000Y-58420000D03*
X119380000Y-58420000D03*
X116840000Y-58420000D03*
X114300000Y-58420000D03*
X111760000Y-58420000D03*
X109220000Y-58420000D03*
X106680000Y-58420000D03*
X104140000Y-58420000D03*
X101600000Y-58420000D03*
X99060000Y-58420000D03*
X96520000Y-58420000D03*
X93980000Y-58420000D03*
D12*
X91440000Y-58420000D03*
D11*
X134620000Y-106680000D03*
X132080000Y-106680000D03*
X129540000Y-106680000D03*
X127000000Y-106680000D03*
X124460000Y-106680000D03*
X121920000Y-106680000D03*
X119380000Y-106680000D03*
X116840000Y-106680000D03*
X114300000Y-106680000D03*
X111760000Y-106680000D03*
X109220000Y-106680000D03*
X106680000Y-106680000D03*
D12*
X104140000Y-106680000D03*
D11*
X101600000Y-106680000D03*
X99060000Y-106680000D03*
X96520000Y-106680000D03*
X93980000Y-106680000D03*
D12*
X91440000Y-106680000D03*
D11*
X134620000Y-68580000D03*
X132080000Y-68580000D03*
X129540000Y-68580000D03*
X127000000Y-68580000D03*
X124460000Y-68580000D03*
X121920000Y-68580000D03*
X119380000Y-68580000D03*
X116840000Y-68580000D03*
X114300000Y-68580000D03*
X111760000Y-68580000D03*
X109220000Y-68580000D03*
X106680000Y-68580000D03*
D12*
X104140000Y-68580000D03*
X101600000Y-68580000D03*
D11*
X99060000Y-68580000D03*
X96520000Y-68580000D03*
X93980000Y-68580000D03*
D12*
X91440000Y-68580000D03*
D11*
X134620000Y-55880000D03*
X132080000Y-55880000D03*
X129540000Y-55880000D03*
X127000000Y-55880000D03*
X124460000Y-55880000D03*
X121920000Y-55880000D03*
X119380000Y-55880000D03*
X116840000Y-55880000D03*
X114300000Y-55880000D03*
X111760000Y-55880000D03*
X109220000Y-55880000D03*
X106680000Y-55880000D03*
X104140000Y-55880000D03*
X101600000Y-55880000D03*
X99060000Y-55880000D03*
X96520000Y-55880000D03*
X93980000Y-55880000D03*
D12*
X91440000Y-55880000D03*
D11*
X134620000Y-53340000D03*
X132080000Y-53340000D03*
X129540000Y-53340000D03*
X127000000Y-53340000D03*
X124460000Y-53340000D03*
X121920000Y-53340000D03*
X119380000Y-53340000D03*
X116840000Y-53340000D03*
X114300000Y-53340000D03*
X111760000Y-53340000D03*
X109220000Y-53340000D03*
X106680000Y-53340000D03*
X104140000Y-53340000D03*
X101600000Y-53340000D03*
X99060000Y-53340000D03*
X96520000Y-53340000D03*
X93980000Y-53340000D03*
D12*
X91440000Y-53340000D03*
D13*
X142240000Y-94234000D03*
X86360000Y-91694000D03*
X86360000Y-82804000D03*
X139700000Y-63500000D03*
X87884000Y-63500000D03*
X139700000Y-53340000D03*
X87884000Y-53340000D03*
X139700000Y-121920000D03*
X87884000Y-121920000D03*
X139700000Y-111760000D03*
X87884000Y-111760000D03*
X104140000Y-104394000D03*
X104120000Y-70880000D03*
X101600000Y-70790000D03*
D14*
X128117600Y-97536000D02*
X128117600Y-95783400D01*
X128701810Y-95199190D02*
X136906744Y-95199190D01*
X128117600Y-95783400D02*
X128701810Y-95199190D01*
X140810000Y-91295934D02*
X140810000Y-74676000D01*
X136906744Y-95199190D02*
X140810000Y-91295934D01*
X143350000Y-89187000D02*
X143350000Y-74676000D01*
X137033000Y-95504000D02*
X143350000Y-89187000D01*
X131191000Y-95504000D02*
X137033000Y-95504000D01*
X130657600Y-97536000D02*
X130657600Y-96037400D01*
X130657600Y-96037400D02*
X131191000Y-95504000D01*
X105250000Y-101506000D02*
X105250000Y-100076000D01*
X104343210Y-102412790D02*
X105250000Y-101506000D01*
X97231210Y-102412790D02*
X104343210Y-102412790D01*
X96520000Y-106680000D02*
X96520000Y-103124000D01*
X96520000Y-103124000D02*
X97231210Y-102412790D01*
X96520000Y-103124000D02*
X96520000Y-82550000D01*
X96520000Y-82550000D02*
X95504000Y-81534000D01*
X95504000Y-81534000D02*
X93345000Y-81534000D01*
X92557600Y-80746600D02*
X92557600Y-77216000D01*
X93345000Y-81534000D02*
X92557600Y-80746600D01*
X119253000Y-75979000D02*
X117950000Y-74676000D01*
X119253000Y-91694000D02*
X119253000Y-75979000D01*
X118567240Y-92379760D02*
X119253000Y-91694000D01*
X113718042Y-92379760D02*
X118567240Y-92379760D01*
X105283000Y-96308519D02*
X105283000Y-93853000D01*
X105283000Y-93853000D02*
X106426000Y-92710000D01*
X105257600Y-97536000D02*
X105257600Y-96333919D01*
X106426000Y-92710000D02*
X113387802Y-92710000D01*
X105257600Y-96333919D02*
X105283000Y-96308519D01*
X113387802Y-92710000D02*
X113718042Y-92379760D01*
X138270000Y-93378000D02*
X138270000Y-74676000D01*
X136753620Y-94894380D02*
X138270000Y-93378000D01*
X126847620Y-94894380D02*
X136753620Y-94894380D01*
X125577600Y-97536000D02*
X125577600Y-96164400D01*
X125577600Y-96164400D02*
X126847620Y-94894380D01*
X123037600Y-96333919D02*
X123063000Y-96308519D01*
X123037600Y-97536000D02*
X123037600Y-96333919D01*
X135730000Y-93759000D02*
X135730000Y-74676000D01*
X123063000Y-96308519D02*
X123063000Y-95504000D01*
X123063000Y-95504000D02*
X123977430Y-94589570D01*
X123977430Y-94589570D02*
X134899430Y-94589570D01*
X134899430Y-94589570D02*
X135730000Y-93759000D01*
X120497600Y-97536000D02*
X120497600Y-95148400D01*
X133190000Y-93251000D02*
X133190000Y-74676000D01*
X132156240Y-94284760D02*
X133190000Y-93251000D01*
X121361240Y-94284760D02*
X120497600Y-95148400D01*
X132156240Y-94284760D02*
X121361240Y-94284760D01*
X131953000Y-75946000D02*
X131920000Y-75946000D01*
X131953000Y-93599000D02*
X131953000Y-75946000D01*
X117957600Y-97536000D02*
X117957600Y-96333919D01*
X131920000Y-75946000D02*
X130650000Y-74676000D01*
X117957600Y-96333919D02*
X117983000Y-96308519D01*
X117983000Y-96308519D02*
X117983000Y-94869000D01*
X117983000Y-94869000D02*
X118872049Y-93979951D01*
X118872049Y-93979951D02*
X131572050Y-93979950D01*
X131572050Y-93979950D02*
X131953000Y-93599000D01*
X129413000Y-75979000D02*
X128110000Y-74676000D01*
X129413000Y-92964000D02*
X129413000Y-75979000D01*
X128778000Y-93599000D02*
X129413000Y-92964000D01*
X116713000Y-93599000D02*
X128778000Y-93599000D01*
X115417600Y-97536000D02*
X115417600Y-94894400D01*
X115417600Y-94894400D02*
X116713000Y-93599000D01*
X126840000Y-75946000D02*
X125570000Y-74676000D01*
X112877600Y-94513400D02*
X114096810Y-93294190D01*
X112877600Y-97536000D02*
X112877600Y-94513400D01*
X114096810Y-93294190D02*
X126161810Y-93294190D01*
X126161810Y-93294190D02*
X126873000Y-92583000D01*
X126873000Y-92583000D02*
X126873000Y-75946000D01*
X126873000Y-75946000D02*
X126840000Y-75946000D01*
X124300000Y-75946000D02*
X123030000Y-74676000D01*
X124333000Y-92456000D02*
X124333000Y-75946000D01*
X110337600Y-94132400D02*
X111125000Y-93345000D01*
X110337600Y-97536000D02*
X110337600Y-94132400D01*
X111125000Y-93345000D02*
X113614934Y-93345000D01*
X124333000Y-75946000D02*
X124300000Y-75946000D01*
X113614934Y-93345000D02*
X113970554Y-92989380D01*
X113970554Y-92989380D02*
X123799620Y-92989380D01*
X123799620Y-92989380D02*
X124333000Y-92456000D01*
X121793000Y-75979000D02*
X120490000Y-74676000D01*
X121793000Y-92075000D02*
X121793000Y-75979000D01*
X107797600Y-97536000D02*
X107797600Y-94005400D01*
X108762810Y-93040190D02*
X113488678Y-93040190D01*
X107797600Y-94005400D02*
X108762810Y-93040190D01*
X113844298Y-92684570D02*
X121183430Y-92684570D01*
X113488678Y-93040190D02*
X113844298Y-92684570D01*
X121183430Y-92684570D02*
X121793000Y-92075000D01*
X116713000Y-75979000D02*
X115410000Y-74676000D01*
X116713000Y-91313000D02*
X116713000Y-75979000D01*
X115951050Y-92074950D02*
X116713000Y-91313000D01*
X113591786Y-92074950D02*
X115951050Y-92074950D01*
X102717600Y-93878400D02*
X103632000Y-92964000D01*
X102717600Y-97536000D02*
X102717600Y-93878400D01*
X103632000Y-92964000D02*
X105740934Y-92964000D01*
X105740934Y-92964000D02*
X106299744Y-92405190D01*
X106299744Y-92405190D02*
X113261546Y-92405190D01*
X113261546Y-92405190D02*
X113591786Y-92074950D01*
D15*
G36*
X142494000Y-46534606D02*
X142494000Y-71120000D01*
X142503667Y-71168601D01*
X142531197Y-71209803D01*
X142564204Y-71233592D01*
X145034000Y-72468490D01*
X145034000Y-102283510D01*
X142564204Y-103518408D01*
X142525057Y-103548789D01*
X142500517Y-103591839D01*
X142494000Y-103632000D01*
X142494000Y-128344394D01*
X141298394Y-129540000D01*
X87809606Y-129540000D01*
X86614000Y-128344394D01*
X86614000Y-125038024D01*
X87193499Y-125038024D01*
X87211559Y-125865699D01*
X87460817Y-126432184D01*
X88326872Y-127669039D01*
X88773941Y-128097015D01*
X89545525Y-128397068D01*
X90373201Y-128379009D01*
X91130963Y-128045586D01*
X91703448Y-127447560D01*
X92003501Y-126675976D01*
X91985442Y-125848300D01*
X91736183Y-125281817D01*
X90870128Y-124044961D01*
X90423059Y-123616985D01*
X89651475Y-123316932D01*
X88823800Y-123334992D01*
X88066038Y-123668415D01*
X87493552Y-124266440D01*
X87193499Y-125038024D01*
X86614000Y-125038024D01*
X86614000Y-106680000D01*
X86604333Y-106631399D01*
X86576803Y-106590197D01*
X84328000Y-104341394D01*
X84328000Y-103110955D01*
X84633000Y-103110955D01*
X84633000Y-103899045D01*
X84934589Y-104627146D01*
X85491854Y-105184411D01*
X86219955Y-105486000D01*
X87008045Y-105486000D01*
X87736146Y-105184411D01*
X87764557Y-105156000D01*
X89789000Y-105156000D01*
X89789000Y-123139835D01*
X89798667Y-123188436D01*
X89826197Y-123229638D01*
X89867399Y-123257168D01*
X89916000Y-123266835D01*
X90188809Y-123266835D01*
X90230301Y-123308327D01*
X90463690Y-123405000D01*
X91154250Y-123405000D01*
X91292415Y-123266835D01*
X91587585Y-123266835D01*
X91725750Y-123405000D01*
X92416310Y-123405000D01*
X92649699Y-123308327D01*
X92691191Y-123266835D01*
X107440978Y-123266835D01*
X107081854Y-123415589D01*
X106524589Y-123972854D01*
X106223000Y-124700955D01*
X106223000Y-125489045D01*
X106524589Y-126217146D01*
X107081854Y-126774411D01*
X107809955Y-127076000D01*
X108598045Y-127076000D01*
X109326146Y-126774411D01*
X109883411Y-126217146D01*
X109959084Y-126034455D01*
X134353500Y-126034455D01*
X134353500Y-126822545D01*
X134655089Y-127550646D01*
X135212354Y-128107911D01*
X135940455Y-128409500D01*
X136728545Y-128409500D01*
X137456646Y-128107911D01*
X138013911Y-127550646D01*
X138315500Y-126822545D01*
X138315500Y-126034455D01*
X138013911Y-125306354D01*
X137456646Y-124749089D01*
X137340441Y-124700955D01*
X138481000Y-124700955D01*
X138481000Y-125489045D01*
X138782589Y-126217146D01*
X139339854Y-126774411D01*
X140067955Y-127076000D01*
X140856045Y-127076000D01*
X141584146Y-126774411D01*
X142141411Y-126217146D01*
X142443000Y-125489045D01*
X142443000Y-124700955D01*
X142141411Y-123972854D01*
X141584146Y-123415589D01*
X140856045Y-123114000D01*
X140067955Y-123114000D01*
X139339854Y-123415589D01*
X138782589Y-123972854D01*
X138481000Y-124700955D01*
X137340441Y-124700955D01*
X136728545Y-124447500D01*
X135940455Y-124447500D01*
X135212354Y-124749089D01*
X134655089Y-125306354D01*
X134353500Y-126034455D01*
X109959084Y-126034455D01*
X110185000Y-125489045D01*
X110185000Y-124700955D01*
X109883411Y-123972854D01*
X109326146Y-123415589D01*
X108967022Y-123266835D01*
X135890000Y-123266835D01*
X135938601Y-123257168D01*
X135979803Y-123229638D01*
X136007333Y-123188436D01*
X136017000Y-123139835D01*
X136017000Y-108063955D01*
X138227000Y-108063955D01*
X138227000Y-108852045D01*
X138528589Y-109580146D01*
X139085854Y-110137411D01*
X139813955Y-110439000D01*
X140602045Y-110439000D01*
X141330146Y-110137411D01*
X141887411Y-109580146D01*
X142189000Y-108852045D01*
X142189000Y-108063955D01*
X141887411Y-107335854D01*
X141330146Y-106778589D01*
X140602045Y-106477000D01*
X139813955Y-106477000D01*
X139085854Y-106778589D01*
X138528589Y-107335854D01*
X138227000Y-108063955D01*
X136017000Y-108063955D01*
X136017000Y-105156000D01*
X136007333Y-105107399D01*
X135979803Y-105066197D01*
X135938601Y-105038667D01*
X135890000Y-105029000D01*
X96977200Y-105029000D01*
X96977200Y-103313378D01*
X97420589Y-102869990D01*
X104298180Y-102869990D01*
X104343210Y-102878947D01*
X104388240Y-102869990D01*
X104521601Y-102843463D01*
X104672833Y-102742413D01*
X104698342Y-102704236D01*
X105541449Y-101861130D01*
X105579623Y-101835623D01*
X105680673Y-101684391D01*
X105707200Y-101551030D01*
X105707200Y-101551029D01*
X105716157Y-101506000D01*
X105707200Y-101460970D01*
X105707200Y-101219047D01*
X105947306Y-101119592D01*
X106293592Y-100773306D01*
X106481000Y-100320861D01*
X106481000Y-99831139D01*
X106559000Y-99831139D01*
X106559000Y-100320861D01*
X106746408Y-100773306D01*
X107092694Y-101119592D01*
X107545139Y-101307000D01*
X108034861Y-101307000D01*
X108487306Y-101119592D01*
X108833592Y-100773306D01*
X109021000Y-100320861D01*
X109021000Y-99831139D01*
X109099000Y-99831139D01*
X109099000Y-100320861D01*
X109286408Y-100773306D01*
X109632694Y-101119592D01*
X110085139Y-101307000D01*
X110574861Y-101307000D01*
X111026422Y-101119958D01*
X112005647Y-101119958D01*
X112085920Y-101371259D01*
X112641279Y-101572718D01*
X113231458Y-101546315D01*
X113654080Y-101371259D01*
X113734353Y-101119958D01*
X112870000Y-100255605D01*
X112005647Y-101119958D01*
X111026422Y-101119958D01*
X111027306Y-101119592D01*
X111373592Y-100773306D01*
X111456195Y-100573884D01*
X111574741Y-100860080D01*
X111826042Y-100940353D01*
X112690395Y-100076000D01*
X113049605Y-100076000D01*
X113913958Y-100940353D01*
X114165259Y-100860080D01*
X114275954Y-100554929D01*
X114366408Y-100773306D01*
X114712694Y-101119592D01*
X115165139Y-101307000D01*
X115654861Y-101307000D01*
X116107306Y-101119592D01*
X116453592Y-100773306D01*
X116641000Y-100320861D01*
X116641000Y-99831139D01*
X116719000Y-99831139D01*
X116719000Y-100320861D01*
X116906408Y-100773306D01*
X117252694Y-101119592D01*
X117705139Y-101307000D01*
X118194861Y-101307000D01*
X118647306Y-101119592D01*
X118993592Y-100773306D01*
X119181000Y-100320861D01*
X119181000Y-99831139D01*
X119259000Y-99831139D01*
X119259000Y-100320861D01*
X119446408Y-100773306D01*
X119792694Y-101119592D01*
X120245139Y-101307000D01*
X120734861Y-101307000D01*
X121187306Y-101119592D01*
X121533592Y-100773306D01*
X121721000Y-100320861D01*
X121721000Y-99831139D01*
X121799000Y-99831139D01*
X121799000Y-100320861D01*
X121986408Y-100773306D01*
X122332694Y-101119592D01*
X122785139Y-101307000D01*
X123274861Y-101307000D01*
X123727306Y-101119592D01*
X124073592Y-100773306D01*
X124261000Y-100320861D01*
X124261000Y-99831139D01*
X124339000Y-99831139D01*
X124339000Y-100320861D01*
X124526408Y-100773306D01*
X124872694Y-101119592D01*
X125325139Y-101307000D01*
X125814861Y-101307000D01*
X126267306Y-101119592D01*
X126613592Y-100773306D01*
X126801000Y-100320861D01*
X126801000Y-99831139D01*
X126879000Y-99831139D01*
X126879000Y-100320861D01*
X127066408Y-100773306D01*
X127412694Y-101119592D01*
X127865139Y-101307000D01*
X128354861Y-101307000D01*
X128807306Y-101119592D01*
X129153592Y-100773306D01*
X129341000Y-100320861D01*
X129341000Y-99831139D01*
X129419000Y-99831139D01*
X129419000Y-100320861D01*
X129606408Y-100773306D01*
X129952694Y-101119592D01*
X130405139Y-101307000D01*
X130894861Y-101307000D01*
X131347306Y-101119592D01*
X131693592Y-100773306D01*
X131881000Y-100320861D01*
X131881000Y-99831139D01*
X131959000Y-99831139D01*
X131959000Y-100320861D01*
X132146408Y-100773306D01*
X132492694Y-101119592D01*
X132945139Y-101307000D01*
X133434861Y-101307000D01*
X133887306Y-101119592D01*
X134233592Y-100773306D01*
X134421000Y-100320861D01*
X134421000Y-99831139D01*
X134499000Y-99831139D01*
X134499000Y-100320861D01*
X134686408Y-100773306D01*
X135032694Y-101119592D01*
X135485139Y-101307000D01*
X135974861Y-101307000D01*
X136427306Y-101119592D01*
X136773592Y-100773306D01*
X136961000Y-100320861D01*
X136961000Y-99831139D01*
X137039000Y-99831139D01*
X137039000Y-100320861D01*
X137226408Y-100773306D01*
X137572694Y-101119592D01*
X138025139Y-101307000D01*
X138514861Y-101307000D01*
X138967306Y-101119592D01*
X139313592Y-100773306D01*
X139501000Y-100320861D01*
X139501000Y-99831139D01*
X139579000Y-99831139D01*
X139579000Y-100320861D01*
X139766408Y-100773306D01*
X140112694Y-101119592D01*
X140565139Y-101307000D01*
X141054861Y-101307000D01*
X141507306Y-101119592D01*
X141853592Y-100773306D01*
X142041000Y-100320861D01*
X142041000Y-99831139D01*
X142119000Y-99831139D01*
X142119000Y-100320861D01*
X142306408Y-100773306D01*
X142652694Y-101119592D01*
X143105139Y-101307000D01*
X143594861Y-101307000D01*
X144047306Y-101119592D01*
X144393592Y-100773306D01*
X144581000Y-100320861D01*
X144581000Y-99831139D01*
X144393592Y-99378694D01*
X144047306Y-99032408D01*
X143594861Y-98845000D01*
X143105139Y-98845000D01*
X142652694Y-99032408D01*
X142306408Y-99378694D01*
X142119000Y-99831139D01*
X142041000Y-99831139D01*
X141853592Y-99378694D01*
X141507306Y-99032408D01*
X141054861Y-98845000D01*
X140565139Y-98845000D01*
X140112694Y-99032408D01*
X139766408Y-99378694D01*
X139579000Y-99831139D01*
X139501000Y-99831139D01*
X139313592Y-99378694D01*
X138967306Y-99032408D01*
X138514861Y-98845000D01*
X138025139Y-98845000D01*
X137572694Y-99032408D01*
X137226408Y-99378694D01*
X137039000Y-99831139D01*
X136961000Y-99831139D01*
X136773592Y-99378694D01*
X136427306Y-99032408D01*
X135974861Y-98845000D01*
X135485139Y-98845000D01*
X135032694Y-99032408D01*
X134686408Y-99378694D01*
X134499000Y-99831139D01*
X134421000Y-99831139D01*
X134233592Y-99378694D01*
X133887306Y-99032408D01*
X133434861Y-98845000D01*
X132945139Y-98845000D01*
X132492694Y-99032408D01*
X132146408Y-99378694D01*
X131959000Y-99831139D01*
X131881000Y-99831139D01*
X131693592Y-99378694D01*
X131347306Y-99032408D01*
X130894861Y-98845000D01*
X130405139Y-98845000D01*
X129952694Y-99032408D01*
X129606408Y-99378694D01*
X129419000Y-99831139D01*
X129341000Y-99831139D01*
X129153592Y-99378694D01*
X128807306Y-99032408D01*
X128354861Y-98845000D01*
X127865139Y-98845000D01*
X127412694Y-99032408D01*
X127066408Y-99378694D01*
X126879000Y-99831139D01*
X126801000Y-99831139D01*
X126613592Y-99378694D01*
X126267306Y-99032408D01*
X125814861Y-98845000D01*
X125325139Y-98845000D01*
X124872694Y-99032408D01*
X124526408Y-99378694D01*
X124339000Y-99831139D01*
X124261000Y-99831139D01*
X124073592Y-99378694D01*
X123727306Y-99032408D01*
X123274861Y-98845000D01*
X122785139Y-98845000D01*
X122332694Y-99032408D01*
X121986408Y-99378694D01*
X121799000Y-99831139D01*
X121721000Y-99831139D01*
X121533592Y-99378694D01*
X121187306Y-99032408D01*
X120734861Y-98845000D01*
X120245139Y-98845000D01*
X119792694Y-99032408D01*
X119446408Y-99378694D01*
X119259000Y-99831139D01*
X119181000Y-99831139D01*
X118993592Y-99378694D01*
X118647306Y-99032408D01*
X118194861Y-98845000D01*
X117705139Y-98845000D01*
X117252694Y-99032408D01*
X116906408Y-99378694D01*
X116719000Y-99831139D01*
X116641000Y-99831139D01*
X116453592Y-99378694D01*
X116107306Y-99032408D01*
X115654861Y-98845000D01*
X115165139Y-98845000D01*
X114712694Y-99032408D01*
X114366408Y-99378694D01*
X114283805Y-99578116D01*
X114165259Y-99291920D01*
X113913958Y-99211647D01*
X113049605Y-100076000D01*
X112690395Y-100076000D01*
X111826042Y-99211647D01*
X111574741Y-99291920D01*
X111464046Y-99597071D01*
X111373592Y-99378694D01*
X111027306Y-99032408D01*
X110574861Y-98845000D01*
X110085139Y-98845000D01*
X109632694Y-99032408D01*
X109286408Y-99378694D01*
X109099000Y-99831139D01*
X109021000Y-99831139D01*
X108833592Y-99378694D01*
X108487306Y-99032408D01*
X108034861Y-98845000D01*
X107545139Y-98845000D01*
X107092694Y-99032408D01*
X106746408Y-99378694D01*
X106559000Y-99831139D01*
X106481000Y-99831139D01*
X106293592Y-99378694D01*
X105947306Y-99032408D01*
X105494861Y-98845000D01*
X105005139Y-98845000D01*
X104552694Y-99032408D01*
X104206408Y-99378694D01*
X104019000Y-99831139D01*
X104019000Y-100320861D01*
X104206408Y-100773306D01*
X104552694Y-101119592D01*
X104792800Y-101219047D01*
X104792800Y-101316621D01*
X104153832Y-101955590D01*
X97276240Y-101955590D01*
X97231210Y-101946633D01*
X97186180Y-101955590D01*
X97052819Y-101982117D01*
X96977200Y-102032644D01*
X96977200Y-97291139D01*
X101486600Y-97291139D01*
X101486600Y-97780861D01*
X101674008Y-98233306D01*
X102020294Y-98579592D01*
X102472739Y-98767000D01*
X102962461Y-98767000D01*
X103414906Y-98579592D01*
X103761192Y-98233306D01*
X103948600Y-97780861D01*
X103948600Y-97291139D01*
X103761192Y-96838694D01*
X103414906Y-96492408D01*
X103174800Y-96392953D01*
X103174800Y-94067778D01*
X103821379Y-93421200D01*
X105068222Y-93421200D01*
X104991552Y-93497870D01*
X104953378Y-93523377D01*
X104927871Y-93561551D01*
X104927870Y-93561552D01*
X104852327Y-93674610D01*
X104816843Y-93853000D01*
X104825801Y-93898035D01*
X104825800Y-96161194D01*
X104791443Y-96333919D01*
X104800401Y-96378954D01*
X104800401Y-96392953D01*
X104560294Y-96492408D01*
X104214008Y-96838694D01*
X104026600Y-97291139D01*
X104026600Y-97780861D01*
X104214008Y-98233306D01*
X104560294Y-98579592D01*
X105012739Y-98767000D01*
X105502461Y-98767000D01*
X105954906Y-98579592D01*
X106301192Y-98233306D01*
X106488600Y-97780861D01*
X106488600Y-97291139D01*
X106301192Y-96838694D01*
X105954906Y-96492408D01*
X105731025Y-96399674D01*
X105740200Y-96353549D01*
X105740200Y-96353548D01*
X105749157Y-96308520D01*
X105740200Y-96263490D01*
X105740200Y-94042378D01*
X106615379Y-93167200D01*
X107989221Y-93167200D01*
X107506152Y-93650270D01*
X107467978Y-93675777D01*
X107442471Y-93713951D01*
X107442470Y-93713952D01*
X107366927Y-93827010D01*
X107331443Y-94005400D01*
X107340401Y-94050435D01*
X107340400Y-96392953D01*
X107100294Y-96492408D01*
X106754008Y-96838694D01*
X106566600Y-97291139D01*
X106566600Y-97780861D01*
X106754008Y-98233306D01*
X107100294Y-98579592D01*
X107552739Y-98767000D01*
X108042461Y-98767000D01*
X108494906Y-98579592D01*
X108841192Y-98233306D01*
X109028600Y-97780861D01*
X109028600Y-97291139D01*
X108841192Y-96838694D01*
X108494906Y-96492408D01*
X108254800Y-96392953D01*
X108254800Y-94194778D01*
X108952189Y-93497390D01*
X110326032Y-93497390D01*
X110046152Y-93777270D01*
X110007978Y-93802777D01*
X109982471Y-93840951D01*
X109982470Y-93840952D01*
X109906927Y-93954010D01*
X109871443Y-94132400D01*
X109880401Y-94177435D01*
X109880400Y-96392953D01*
X109640294Y-96492408D01*
X109294008Y-96838694D01*
X109106600Y-97291139D01*
X109106600Y-97780861D01*
X109294008Y-98233306D01*
X109640294Y-98579592D01*
X110092739Y-98767000D01*
X110582461Y-98767000D01*
X111034906Y-98579592D01*
X111381192Y-98233306D01*
X111568600Y-97780861D01*
X111568600Y-97291139D01*
X111381192Y-96838694D01*
X111034906Y-96492408D01*
X110794800Y-96392953D01*
X110794800Y-94321778D01*
X111314379Y-93802200D01*
X112942222Y-93802200D01*
X112586152Y-94158270D01*
X112547978Y-94183777D01*
X112522471Y-94221951D01*
X112522470Y-94221952D01*
X112446927Y-94335010D01*
X112411443Y-94513400D01*
X112420401Y-94558435D01*
X112420400Y-96392953D01*
X112180294Y-96492408D01*
X111834008Y-96838694D01*
X111646600Y-97291139D01*
X111646600Y-97780861D01*
X111834008Y-98233306D01*
X112180294Y-98579592D01*
X112375916Y-98660621D01*
X112085920Y-98780741D01*
X112005647Y-99032042D01*
X112870000Y-99896395D01*
X113734353Y-99032042D01*
X113654080Y-98780741D01*
X113352981Y-98671516D01*
X113574906Y-98579592D01*
X113921192Y-98233306D01*
X114108600Y-97780861D01*
X114108600Y-97291139D01*
X113921192Y-96838694D01*
X113574906Y-96492408D01*
X113334800Y-96392953D01*
X113334800Y-94702778D01*
X114286189Y-93751390D01*
X115914031Y-93751390D01*
X115126152Y-94539270D01*
X115087978Y-94564777D01*
X115062471Y-94602951D01*
X115062470Y-94602952D01*
X114986927Y-94716010D01*
X114951443Y-94894400D01*
X114960401Y-94939435D01*
X114960400Y-96392953D01*
X114720294Y-96492408D01*
X114374008Y-96838694D01*
X114186600Y-97291139D01*
X114186600Y-97780861D01*
X114374008Y-98233306D01*
X114720294Y-98579592D01*
X115172739Y-98767000D01*
X115662461Y-98767000D01*
X116114906Y-98579592D01*
X116461192Y-98233306D01*
X116648600Y-97780861D01*
X116648600Y-97291139D01*
X116461192Y-96838694D01*
X116114906Y-96492408D01*
X115874800Y-96392953D01*
X115874800Y-95083778D01*
X116902379Y-94056200D01*
X118149221Y-94056200D01*
X117691552Y-94513870D01*
X117653378Y-94539377D01*
X117627871Y-94577551D01*
X117627870Y-94577552D01*
X117552327Y-94690610D01*
X117516843Y-94869000D01*
X117525801Y-94914035D01*
X117525800Y-96161194D01*
X117491443Y-96333919D01*
X117500401Y-96378954D01*
X117500401Y-96392953D01*
X117260294Y-96492408D01*
X116914008Y-96838694D01*
X116726600Y-97291139D01*
X116726600Y-97780861D01*
X116914008Y-98233306D01*
X117260294Y-98579592D01*
X117712739Y-98767000D01*
X118202461Y-98767000D01*
X118654906Y-98579592D01*
X119001192Y-98233306D01*
X119188600Y-97780861D01*
X119188600Y-97291139D01*
X119001192Y-96838694D01*
X118654906Y-96492408D01*
X118431025Y-96399674D01*
X118440200Y-96353549D01*
X118440200Y-96353548D01*
X118449157Y-96308520D01*
X118440200Y-96263490D01*
X118440200Y-95058378D01*
X119061428Y-94437151D01*
X120562271Y-94437151D01*
X120206152Y-94793270D01*
X120167978Y-94818777D01*
X120142471Y-94856951D01*
X120142470Y-94856952D01*
X120066927Y-94970010D01*
X120031443Y-95148400D01*
X120040401Y-95193435D01*
X120040400Y-96392953D01*
X119800294Y-96492408D01*
X119454008Y-96838694D01*
X119266600Y-97291139D01*
X119266600Y-97780861D01*
X119454008Y-98233306D01*
X119800294Y-98579592D01*
X120252739Y-98767000D01*
X120742461Y-98767000D01*
X121194906Y-98579592D01*
X121541192Y-98233306D01*
X121728600Y-97780861D01*
X121728600Y-97291139D01*
X121541192Y-96838694D01*
X121194906Y-96492408D01*
X120954800Y-96392953D01*
X120954800Y-95337778D01*
X121550618Y-94741960D01*
X123178462Y-94741960D01*
X122771552Y-95148870D01*
X122733378Y-95174377D01*
X122707871Y-95212551D01*
X122707870Y-95212552D01*
X122632327Y-95325610D01*
X122596843Y-95504000D01*
X122605801Y-95549034D01*
X122605800Y-96161194D01*
X122571443Y-96333919D01*
X122580401Y-96378954D01*
X122580401Y-96392953D01*
X122340294Y-96492408D01*
X121994008Y-96838694D01*
X121806600Y-97291139D01*
X121806600Y-97780861D01*
X121994008Y-98233306D01*
X122340294Y-98579592D01*
X122792739Y-98767000D01*
X123282461Y-98767000D01*
X123734906Y-98579592D01*
X124081192Y-98233306D01*
X124268600Y-97780861D01*
X124268600Y-97291139D01*
X124081192Y-96838694D01*
X123734906Y-96492408D01*
X123511025Y-96399674D01*
X123520200Y-96353549D01*
X123520200Y-96353548D01*
X123529157Y-96308520D01*
X123520200Y-96263490D01*
X123520200Y-95693378D01*
X124166809Y-95046770D01*
X126048652Y-95046770D01*
X125286152Y-95809270D01*
X125247978Y-95834777D01*
X125222471Y-95872951D01*
X125222470Y-95872952D01*
X125146927Y-95986010D01*
X125111443Y-96164400D01*
X125120401Y-96209435D01*
X125120401Y-96392953D01*
X124880294Y-96492408D01*
X124534008Y-96838694D01*
X124346600Y-97291139D01*
X124346600Y-97780861D01*
X124534008Y-98233306D01*
X124880294Y-98579592D01*
X125332739Y-98767000D01*
X125822461Y-98767000D01*
X126274906Y-98579592D01*
X126621192Y-98233306D01*
X126808600Y-97780861D01*
X126808600Y-97291139D01*
X126621192Y-96838694D01*
X126274906Y-96492408D01*
X126034800Y-96392953D01*
X126034800Y-96353778D01*
X127036998Y-95351580D01*
X127902842Y-95351580D01*
X127826152Y-95428270D01*
X127787978Y-95453777D01*
X127762471Y-95491951D01*
X127762470Y-95491952D01*
X127686927Y-95605010D01*
X127651443Y-95783400D01*
X127660401Y-95828435D01*
X127660401Y-96392953D01*
X127420294Y-96492408D01*
X127074008Y-96838694D01*
X126886600Y-97291139D01*
X126886600Y-97780861D01*
X127074008Y-98233306D01*
X127420294Y-98579592D01*
X127872739Y-98767000D01*
X128362461Y-98767000D01*
X128814906Y-98579592D01*
X129161192Y-98233306D01*
X129348600Y-97780861D01*
X129348600Y-97291139D01*
X129161192Y-96838694D01*
X128814906Y-96492408D01*
X128574800Y-96392953D01*
X128574800Y-95972778D01*
X128891188Y-95656390D01*
X130392032Y-95656390D01*
X130366152Y-95682270D01*
X130327978Y-95707777D01*
X130302471Y-95745951D01*
X130302470Y-95745952D01*
X130226927Y-95859010D01*
X130191443Y-96037400D01*
X130200401Y-96082435D01*
X130200401Y-96392953D01*
X129960294Y-96492408D01*
X129614008Y-96838694D01*
X129426600Y-97291139D01*
X129426600Y-97780861D01*
X129614008Y-98233306D01*
X129960294Y-98579592D01*
X130412739Y-98767000D01*
X130902461Y-98767000D01*
X131354906Y-98579592D01*
X131701192Y-98233306D01*
X131888600Y-97780861D01*
X131888600Y-97291139D01*
X131701192Y-96838694D01*
X131354906Y-96492408D01*
X131114800Y-96392953D01*
X131114800Y-96226778D01*
X131380378Y-95961200D01*
X136987970Y-95961200D01*
X137033000Y-95970157D01*
X137078030Y-95961200D01*
X137211391Y-95934673D01*
X137362623Y-95833623D01*
X137388132Y-95795446D01*
X143641449Y-89542130D01*
X143679623Y-89516623D01*
X143780673Y-89365391D01*
X143807200Y-89232030D01*
X143807200Y-89232029D01*
X143816157Y-89187001D01*
X143807200Y-89141971D01*
X143807200Y-75819047D01*
X144047306Y-75719592D01*
X144393592Y-75373306D01*
X144581000Y-74920861D01*
X144581000Y-74431139D01*
X144393592Y-73978694D01*
X144047306Y-73632408D01*
X143594861Y-73445000D01*
X143105139Y-73445000D01*
X142652694Y-73632408D01*
X142306408Y-73978694D01*
X142119000Y-74431139D01*
X142119000Y-74920861D01*
X142306408Y-75373306D01*
X142652694Y-75719592D01*
X142892801Y-75819047D01*
X142892800Y-88997621D01*
X141267200Y-90623221D01*
X141267200Y-75819047D01*
X141507306Y-75719592D01*
X141853592Y-75373306D01*
X142041000Y-74920861D01*
X142041000Y-74431139D01*
X141853592Y-73978694D01*
X141507306Y-73632408D01*
X141054861Y-73445000D01*
X140565139Y-73445000D01*
X140112694Y-73632408D01*
X139766408Y-73978694D01*
X139579000Y-74431139D01*
X139579000Y-74920861D01*
X139766408Y-75373306D01*
X140112694Y-75719592D01*
X140352801Y-75819047D01*
X140352800Y-91106556D01*
X138727200Y-92732156D01*
X138727200Y-75819047D01*
X138967306Y-75719592D01*
X139313592Y-75373306D01*
X139501000Y-74920861D01*
X139501000Y-74431139D01*
X139313592Y-73978694D01*
X138967306Y-73632408D01*
X138514861Y-73445000D01*
X138025139Y-73445000D01*
X137572694Y-73632408D01*
X137226408Y-73978694D01*
X137039000Y-74431139D01*
X137039000Y-74920861D01*
X137226408Y-75373306D01*
X137572694Y-75719592D01*
X137812801Y-75819047D01*
X137812800Y-93188621D01*
X136564242Y-94437180D01*
X135698398Y-94437180D01*
X136021446Y-94114132D01*
X136059623Y-94088623D01*
X136160673Y-93937391D01*
X136170010Y-93890449D01*
X136196157Y-93759001D01*
X136187200Y-93713971D01*
X136187200Y-75819047D01*
X136427306Y-75719592D01*
X136773592Y-75373306D01*
X136961000Y-74920861D01*
X136961000Y-74431139D01*
X136773592Y-73978694D01*
X136427306Y-73632408D01*
X135974861Y-73445000D01*
X135485139Y-73445000D01*
X135032694Y-73632408D01*
X134686408Y-73978694D01*
X134499000Y-74431139D01*
X134499000Y-74920861D01*
X134686408Y-75373306D01*
X135032694Y-75719592D01*
X135272801Y-75819047D01*
X135272800Y-93569622D01*
X134710052Y-94132370D01*
X132955208Y-94132370D01*
X133481446Y-93606132D01*
X133519623Y-93580623D01*
X133620673Y-93429391D01*
X133647200Y-93296030D01*
X133647200Y-93296029D01*
X133656157Y-93251001D01*
X133647200Y-93205972D01*
X133647200Y-75819047D01*
X133887306Y-75719592D01*
X134233592Y-75373306D01*
X134421000Y-74920861D01*
X134421000Y-74431139D01*
X134233592Y-73978694D01*
X133887306Y-73632408D01*
X133434861Y-73445000D01*
X132945139Y-73445000D01*
X132492694Y-73632408D01*
X132146408Y-73978694D01*
X131959000Y-74431139D01*
X131959000Y-74920861D01*
X132146408Y-75373306D01*
X132492694Y-75719592D01*
X132732801Y-75819047D01*
X132732800Y-93061622D01*
X132410200Y-93384222D01*
X132410200Y-75991030D01*
X132419157Y-75946000D01*
X132383673Y-75767609D01*
X132282623Y-75616377D01*
X132144997Y-75524419D01*
X131781545Y-75160967D01*
X131881000Y-74920861D01*
X131881000Y-74431139D01*
X131693592Y-73978694D01*
X131347306Y-73632408D01*
X130894861Y-73445000D01*
X130405139Y-73445000D01*
X129952694Y-73632408D01*
X129606408Y-73978694D01*
X129419000Y-74431139D01*
X129419000Y-74920861D01*
X129606408Y-75373306D01*
X129952694Y-75719592D01*
X130405139Y-75907000D01*
X130894861Y-75907000D01*
X131134967Y-75807545D01*
X131495801Y-76168380D01*
X131495801Y-76313303D01*
X131354906Y-76172408D01*
X130902461Y-75985000D01*
X130412739Y-75985000D01*
X129960294Y-76172408D01*
X129870200Y-76262502D01*
X129870200Y-76024029D01*
X129879157Y-75978999D01*
X129843673Y-75800609D01*
X129768130Y-75687551D01*
X129742623Y-75649377D01*
X129704449Y-75623870D01*
X129241545Y-75160967D01*
X129341000Y-74920861D01*
X129341000Y-74431139D01*
X129153592Y-73978694D01*
X128807306Y-73632408D01*
X128354861Y-73445000D01*
X127865139Y-73445000D01*
X127412694Y-73632408D01*
X127066408Y-73978694D01*
X126879000Y-74431139D01*
X126879000Y-74920861D01*
X127066408Y-75373306D01*
X127412694Y-75719592D01*
X127865139Y-75907000D01*
X128354861Y-75907000D01*
X128594967Y-75807545D01*
X128955801Y-76168380D01*
X128955801Y-76313303D01*
X128814906Y-76172408D01*
X128362461Y-75985000D01*
X127872739Y-75985000D01*
X127420294Y-76172408D01*
X127330200Y-76262502D01*
X127330200Y-75991030D01*
X127339157Y-75946000D01*
X127303673Y-75767609D01*
X127202623Y-75616377D01*
X127064997Y-75524419D01*
X126701545Y-75160967D01*
X126801000Y-74920861D01*
X126801000Y-74431139D01*
X126613592Y-73978694D01*
X126267306Y-73632408D01*
X125814861Y-73445000D01*
X125325139Y-73445000D01*
X124872694Y-73632408D01*
X124526408Y-73978694D01*
X124339000Y-74431139D01*
X124339000Y-74920861D01*
X124526408Y-75373306D01*
X124872694Y-75719592D01*
X125325139Y-75907000D01*
X125814861Y-75907000D01*
X126054967Y-75807545D01*
X126415801Y-76168380D01*
X126415801Y-76313303D01*
X126274906Y-76172408D01*
X125822461Y-75985000D01*
X125332739Y-75985000D01*
X124880294Y-76172408D01*
X124790200Y-76262502D01*
X124790200Y-75991030D01*
X124799157Y-75946000D01*
X124763673Y-75767609D01*
X124662623Y-75616377D01*
X124524997Y-75524419D01*
X124161545Y-75160967D01*
X124261000Y-74920861D01*
X124261000Y-74431139D01*
X124073592Y-73978694D01*
X123727306Y-73632408D01*
X123274861Y-73445000D01*
X122785139Y-73445000D01*
X122332694Y-73632408D01*
X121986408Y-73978694D01*
X121799000Y-74431139D01*
X121799000Y-74920861D01*
X121986408Y-75373306D01*
X122332694Y-75719592D01*
X122785139Y-75907000D01*
X123274861Y-75907000D01*
X123514967Y-75807545D01*
X123875801Y-76168380D01*
X123875801Y-76313303D01*
X123734906Y-76172408D01*
X123282461Y-75985000D01*
X122792739Y-75985000D01*
X122340294Y-76172408D01*
X122250200Y-76262502D01*
X122250200Y-76024029D01*
X122259157Y-75978999D01*
X122223673Y-75800609D01*
X122148130Y-75687551D01*
X122122623Y-75649377D01*
X122084449Y-75623870D01*
X121621545Y-75160967D01*
X121721000Y-74920861D01*
X121721000Y-74431139D01*
X121533592Y-73978694D01*
X121187306Y-73632408D01*
X120734861Y-73445000D01*
X120245139Y-73445000D01*
X119792694Y-73632408D01*
X119446408Y-73978694D01*
X119259000Y-74431139D01*
X119259000Y-74920861D01*
X119446408Y-75373306D01*
X119792694Y-75719592D01*
X120245139Y-75907000D01*
X120734861Y-75907000D01*
X120974967Y-75807545D01*
X121335801Y-76168380D01*
X121335801Y-76313303D01*
X121194906Y-76172408D01*
X120742461Y-75985000D01*
X120252739Y-75985000D01*
X119800294Y-76172408D01*
X119710200Y-76262502D01*
X119710200Y-76024029D01*
X119719157Y-75978999D01*
X119683673Y-75800609D01*
X119608130Y-75687551D01*
X119582623Y-75649377D01*
X119544449Y-75623870D01*
X119081545Y-75160967D01*
X119181000Y-74920861D01*
X119181000Y-74431139D01*
X118993592Y-73978694D01*
X118647306Y-73632408D01*
X118194861Y-73445000D01*
X117705139Y-73445000D01*
X117252694Y-73632408D01*
X116906408Y-73978694D01*
X116719000Y-74431139D01*
X116719000Y-74920861D01*
X116906408Y-75373306D01*
X117252694Y-75719592D01*
X117705139Y-75907000D01*
X118194861Y-75907000D01*
X118434967Y-75807545D01*
X118795801Y-76168380D01*
X118795801Y-76313303D01*
X118654906Y-76172408D01*
X118202461Y-75985000D01*
X117712739Y-75985000D01*
X117260294Y-76172408D01*
X117170200Y-76262502D01*
X117170200Y-76024029D01*
X117179157Y-75978999D01*
X117143673Y-75800609D01*
X117068130Y-75687551D01*
X117042623Y-75649377D01*
X117004449Y-75623870D01*
X116541545Y-75160967D01*
X116641000Y-74920861D01*
X116641000Y-74431139D01*
X116453592Y-73978694D01*
X116107306Y-73632408D01*
X115654861Y-73445000D01*
X115165139Y-73445000D01*
X114712694Y-73632408D01*
X114366408Y-73978694D01*
X114179000Y-74431139D01*
X114179000Y-74920861D01*
X114366408Y-75373306D01*
X114712694Y-75719592D01*
X115165139Y-75907000D01*
X115654861Y-75907000D01*
X115894967Y-75807545D01*
X116255801Y-76168380D01*
X116255801Y-76313303D01*
X116114906Y-76172408D01*
X115662461Y-75985000D01*
X115172739Y-75985000D01*
X114720294Y-76172408D01*
X114374008Y-76518694D01*
X114186600Y-76971139D01*
X114186600Y-77460861D01*
X114374008Y-77913306D01*
X114720294Y-78259592D01*
X115172739Y-78447000D01*
X115662461Y-78447000D01*
X116114906Y-78259592D01*
X116255801Y-78118697D01*
X116255800Y-91123621D01*
X115761672Y-91617750D01*
X113636816Y-91617750D01*
X113591786Y-91608793D01*
X113546756Y-91617750D01*
X113413395Y-91644277D01*
X113262163Y-91745327D01*
X113236656Y-91783502D01*
X113072168Y-91947990D01*
X106344774Y-91947990D01*
X106299744Y-91939033D01*
X106254714Y-91947990D01*
X106121353Y-91974517D01*
X105970121Y-92075567D01*
X105944612Y-92113744D01*
X105551556Y-92506800D01*
X103677030Y-92506800D01*
X103632000Y-92497843D01*
X103462246Y-92531609D01*
X103453609Y-92533327D01*
X103302377Y-92634377D01*
X103276870Y-92672551D01*
X102426152Y-93523270D01*
X102387978Y-93548777D01*
X102362471Y-93586951D01*
X102362470Y-93586952D01*
X102286927Y-93700010D01*
X102251443Y-93878400D01*
X102260401Y-93923435D01*
X102260400Y-96392953D01*
X102020294Y-96492408D01*
X101674008Y-96838694D01*
X101486600Y-97291139D01*
X96977200Y-97291139D01*
X96977200Y-82595030D01*
X96986157Y-82550000D01*
X96950673Y-82371609D01*
X96875130Y-82258551D01*
X96849623Y-82220377D01*
X96811449Y-82194870D01*
X95859132Y-81242554D01*
X95833623Y-81204377D01*
X95682391Y-81103327D01*
X95549030Y-81076800D01*
X95504000Y-81067843D01*
X95458970Y-81076800D01*
X93534379Y-81076800D01*
X93014800Y-80557222D01*
X93014800Y-78359047D01*
X93254906Y-78259592D01*
X93601192Y-77913306D01*
X93788600Y-77460861D01*
X93788600Y-76971139D01*
X93866600Y-76971139D01*
X93866600Y-77460861D01*
X94054008Y-77913306D01*
X94400294Y-78259592D01*
X94852739Y-78447000D01*
X95342461Y-78447000D01*
X95794906Y-78259592D01*
X96141192Y-77913306D01*
X96328600Y-77460861D01*
X96328600Y-76971139D01*
X96406600Y-76971139D01*
X96406600Y-77460861D01*
X96594008Y-77913306D01*
X96940294Y-78259592D01*
X97392739Y-78447000D01*
X97882461Y-78447000D01*
X98334022Y-78259958D01*
X99313247Y-78259958D01*
X99393520Y-78511259D01*
X99948879Y-78712718D01*
X100539058Y-78686315D01*
X100961680Y-78511259D01*
X101041953Y-78259958D01*
X100177600Y-77395605D01*
X99313247Y-78259958D01*
X98334022Y-78259958D01*
X98334906Y-78259592D01*
X98681192Y-77913306D01*
X98763795Y-77713884D01*
X98882341Y-78000080D01*
X99133642Y-78080353D01*
X99997995Y-77216000D01*
X100357205Y-77216000D01*
X101221558Y-78080353D01*
X101472859Y-78000080D01*
X101583554Y-77694929D01*
X101674008Y-77913306D01*
X102020294Y-78259592D01*
X102472739Y-78447000D01*
X102962461Y-78447000D01*
X103414906Y-78259592D01*
X103761192Y-77913306D01*
X103948600Y-77460861D01*
X103948600Y-76971139D01*
X104026600Y-76971139D01*
X104026600Y-77460861D01*
X104214008Y-77913306D01*
X104560294Y-78259592D01*
X105012739Y-78447000D01*
X105502461Y-78447000D01*
X105954906Y-78259592D01*
X106301192Y-77913306D01*
X106488600Y-77460861D01*
X106488600Y-76971139D01*
X106566600Y-76971139D01*
X106566600Y-77460861D01*
X106754008Y-77913306D01*
X107100294Y-78259592D01*
X107552739Y-78447000D01*
X108042461Y-78447000D01*
X108494906Y-78259592D01*
X108841192Y-77913306D01*
X109028600Y-77460861D01*
X109028600Y-76971139D01*
X109106600Y-76971139D01*
X109106600Y-77460861D01*
X109294008Y-77913306D01*
X109640294Y-78259592D01*
X110092739Y-78447000D01*
X110582461Y-78447000D01*
X111034906Y-78259592D01*
X111381192Y-77913306D01*
X111568600Y-77460861D01*
X111568600Y-76971139D01*
X111646600Y-76971139D01*
X111646600Y-77460861D01*
X111834008Y-77913306D01*
X112180294Y-78259592D01*
X112632739Y-78447000D01*
X113122461Y-78447000D01*
X113574906Y-78259592D01*
X113921192Y-77913306D01*
X114108600Y-77460861D01*
X114108600Y-76971139D01*
X113921192Y-76518694D01*
X113574906Y-76172408D01*
X113122461Y-75985000D01*
X112632739Y-75985000D01*
X112180294Y-76172408D01*
X111834008Y-76518694D01*
X111646600Y-76971139D01*
X111568600Y-76971139D01*
X111381192Y-76518694D01*
X111034906Y-76172408D01*
X110582461Y-75985000D01*
X110092739Y-75985000D01*
X109640294Y-76172408D01*
X109294008Y-76518694D01*
X109106600Y-76971139D01*
X109028600Y-76971139D01*
X108841192Y-76518694D01*
X108494906Y-76172408D01*
X108042461Y-75985000D01*
X107552739Y-75985000D01*
X107100294Y-76172408D01*
X106754008Y-76518694D01*
X106566600Y-76971139D01*
X106488600Y-76971139D01*
X106301192Y-76518694D01*
X105954906Y-76172408D01*
X105502461Y-75985000D01*
X105012739Y-75985000D01*
X104560294Y-76172408D01*
X104214008Y-76518694D01*
X104026600Y-76971139D01*
X103948600Y-76971139D01*
X103761192Y-76518694D01*
X103414906Y-76172408D01*
X102962461Y-75985000D01*
X102472739Y-75985000D01*
X102020294Y-76172408D01*
X101674008Y-76518694D01*
X101591405Y-76718116D01*
X101472859Y-76431920D01*
X101221558Y-76351647D01*
X100357205Y-77216000D01*
X99997995Y-77216000D01*
X99133642Y-76351647D01*
X98882341Y-76431920D01*
X98771646Y-76737071D01*
X98681192Y-76518694D01*
X98334906Y-76172408D01*
X98334023Y-76172042D01*
X99313247Y-76172042D01*
X100177600Y-77036395D01*
X101041953Y-76172042D01*
X100961680Y-75920741D01*
X100406321Y-75719282D01*
X99816142Y-75745685D01*
X99393520Y-75920741D01*
X99313247Y-76172042D01*
X98334023Y-76172042D01*
X97882461Y-75985000D01*
X97392739Y-75985000D01*
X96940294Y-76172408D01*
X96594008Y-76518694D01*
X96406600Y-76971139D01*
X96328600Y-76971139D01*
X96141192Y-76518694D01*
X95794906Y-76172408D01*
X95342461Y-75985000D01*
X94852739Y-75985000D01*
X94400294Y-76172408D01*
X94054008Y-76518694D01*
X93866600Y-76971139D01*
X93788600Y-76971139D01*
X93601192Y-76518694D01*
X93254906Y-76172408D01*
X92802461Y-75985000D01*
X92312739Y-75985000D01*
X91860294Y-76172408D01*
X91514008Y-76518694D01*
X91326600Y-76971139D01*
X91326600Y-77460861D01*
X91514008Y-77913306D01*
X91860294Y-78259592D01*
X92100401Y-78359047D01*
X92100400Y-80701570D01*
X92091443Y-80746600D01*
X92100400Y-80791629D01*
X92126927Y-80924990D01*
X92227977Y-81076223D01*
X92266154Y-81101732D01*
X92989869Y-81825448D01*
X93015377Y-81863623D01*
X93053551Y-81889130D01*
X93166609Y-81964673D01*
X93345000Y-82000157D01*
X93390030Y-81991200D01*
X95314622Y-81991200D01*
X96062801Y-82739380D01*
X96062800Y-103078970D01*
X96053843Y-103124000D01*
X96062801Y-103169035D01*
X96062800Y-105029000D01*
X89916000Y-105029000D01*
X89867399Y-105038667D01*
X89826197Y-105066197D01*
X89798667Y-105107399D01*
X89789000Y-105156000D01*
X87764557Y-105156000D01*
X88293411Y-104627146D01*
X88595000Y-103899045D01*
X88595000Y-103110955D01*
X88293411Y-102382854D01*
X87736146Y-101825589D01*
X87008045Y-101524000D01*
X86219955Y-101524000D01*
X85491854Y-101825589D01*
X84934589Y-102382854D01*
X84633000Y-103110955D01*
X84328000Y-103110955D01*
X84328000Y-91746606D01*
X85560803Y-90513803D01*
X85588333Y-90472601D01*
X85598000Y-90424000D01*
X85598000Y-84074000D01*
X85588333Y-84025399D01*
X85560803Y-83984197D01*
X84328000Y-82751394D01*
X84328000Y-70852955D01*
X84633000Y-70852955D01*
X84633000Y-71641045D01*
X84934589Y-72369146D01*
X85491854Y-72926411D01*
X86219955Y-73228000D01*
X87008045Y-73228000D01*
X87736146Y-72926411D01*
X88293411Y-72369146D01*
X88595000Y-71641045D01*
X88595000Y-70852955D01*
X88293411Y-70124854D01*
X87736146Y-69567589D01*
X87008045Y-69266000D01*
X86219955Y-69266000D01*
X85491854Y-69567589D01*
X84934589Y-70124854D01*
X84633000Y-70852955D01*
X84328000Y-70852955D01*
X84328000Y-70283606D01*
X86576803Y-68034803D01*
X86604333Y-67993601D01*
X86614000Y-67945000D01*
X86614000Y-51993165D01*
X89703893Y-51993165D01*
X89703893Y-69977000D01*
X89713560Y-70025601D01*
X89741090Y-70066803D01*
X89782292Y-70094333D01*
X89830893Y-70104000D01*
X135804893Y-70104000D01*
X135853494Y-70094333D01*
X135894696Y-70066803D01*
X135922226Y-70025601D01*
X135931893Y-69977000D01*
X135931893Y-66153955D01*
X138227000Y-66153955D01*
X138227000Y-66942045D01*
X138528589Y-67670146D01*
X139085854Y-68227411D01*
X139813955Y-68529000D01*
X140602045Y-68529000D01*
X141330146Y-68227411D01*
X141887411Y-67670146D01*
X142189000Y-66942045D01*
X142189000Y-66153955D01*
X141887411Y-65425854D01*
X141330146Y-64868589D01*
X140602045Y-64567000D01*
X139813955Y-64567000D01*
X139085854Y-64868589D01*
X138528589Y-65425854D01*
X138227000Y-66153955D01*
X135931893Y-66153955D01*
X135931893Y-51993165D01*
X135922226Y-51944564D01*
X135894696Y-51903362D01*
X135853494Y-51875832D01*
X135804893Y-51866165D01*
X92443265Y-51866165D01*
X92416310Y-51855000D01*
X91725750Y-51855000D01*
X91714585Y-51866165D01*
X91165415Y-51866165D01*
X91154250Y-51855000D01*
X90463690Y-51855000D01*
X90436735Y-51866165D01*
X89830893Y-51866165D01*
X89782292Y-51875832D01*
X89741090Y-51903362D01*
X89713560Y-51944564D01*
X89703893Y-51993165D01*
X86614000Y-51993165D01*
X86614000Y-49818431D01*
X87228320Y-49818431D01*
X87528372Y-50590015D01*
X88100857Y-51188041D01*
X88858619Y-51521465D01*
X89686294Y-51539525D01*
X90457878Y-51239473D01*
X90904948Y-50811497D01*
X91828361Y-49492728D01*
X91929463Y-49262955D01*
X106223000Y-49262955D01*
X106223000Y-50051045D01*
X106524589Y-50779146D01*
X107081854Y-51336411D01*
X107809955Y-51638000D01*
X108598045Y-51638000D01*
X109326146Y-51336411D01*
X109883411Y-50779146D01*
X110185000Y-50051045D01*
X110185000Y-49262955D01*
X109883411Y-48534854D01*
X109326146Y-47977589D01*
X109209941Y-47929455D01*
X134353500Y-47929455D01*
X134353500Y-48717545D01*
X134655089Y-49445646D01*
X135212354Y-50002911D01*
X135940455Y-50304500D01*
X136728545Y-50304500D01*
X137456646Y-50002911D01*
X138013911Y-49445646D01*
X138089584Y-49262955D01*
X138481000Y-49262955D01*
X138481000Y-50051045D01*
X138782589Y-50779146D01*
X139339854Y-51336411D01*
X140067955Y-51638000D01*
X140856045Y-51638000D01*
X141584146Y-51336411D01*
X142141411Y-50779146D01*
X142443000Y-50051045D01*
X142443000Y-49262955D01*
X142141411Y-48534854D01*
X141584146Y-47977589D01*
X140856045Y-47676000D01*
X140067955Y-47676000D01*
X139339854Y-47977589D01*
X138782589Y-48534854D01*
X138481000Y-49262955D01*
X138089584Y-49262955D01*
X138315500Y-48717545D01*
X138315500Y-47929455D01*
X138013911Y-47201354D01*
X137456646Y-46644089D01*
X136728545Y-46342500D01*
X135940455Y-46342500D01*
X135212354Y-46644089D01*
X134655089Y-47201354D01*
X134353500Y-47929455D01*
X109209941Y-47929455D01*
X108598045Y-47676000D01*
X107809955Y-47676000D01*
X107081854Y-47977589D01*
X106524589Y-48534854D01*
X106223000Y-49262955D01*
X91929463Y-49262955D01*
X92077620Y-48926245D01*
X92095680Y-48098569D01*
X91795628Y-47326984D01*
X91223143Y-46728958D01*
X90465381Y-46395535D01*
X89637705Y-46377475D01*
X88866122Y-46677527D01*
X88419052Y-47105503D01*
X87495639Y-48424272D01*
X87246380Y-48990756D01*
X87228320Y-49818431D01*
X86614000Y-49818431D01*
X86614000Y-46534606D01*
X87809606Y-45339000D01*
X141298394Y-45339000D01*
X142494000Y-46534606D01*
X142494000Y-46534606D01*
G37*
X142494000Y-46534606D02*
X142494000Y-71120000D01*
X142503667Y-71168601D01*
X142531197Y-71209803D01*
X142564204Y-71233592D01*
X145034000Y-72468490D01*
X145034000Y-102283510D01*
X142564204Y-103518408D01*
X142525057Y-103548789D01*
X142500517Y-103591839D01*
X142494000Y-103632000D01*
X142494000Y-128344394D01*
X141298394Y-129540000D01*
X87809606Y-129540000D01*
X86614000Y-128344394D01*
X86614000Y-125038024D01*
X87193499Y-125038024D01*
X87211559Y-125865699D01*
X87460817Y-126432184D01*
X88326872Y-127669039D01*
X88773941Y-128097015D01*
X89545525Y-128397068D01*
X90373201Y-128379009D01*
X91130963Y-128045586D01*
X91703448Y-127447560D01*
X92003501Y-126675976D01*
X91985442Y-125848300D01*
X91736183Y-125281817D01*
X90870128Y-124044961D01*
X90423059Y-123616985D01*
X89651475Y-123316932D01*
X88823800Y-123334992D01*
X88066038Y-123668415D01*
X87493552Y-124266440D01*
X87193499Y-125038024D01*
X86614000Y-125038024D01*
X86614000Y-106680000D01*
X86604333Y-106631399D01*
X86576803Y-106590197D01*
X84328000Y-104341394D01*
X84328000Y-103110955D01*
X84633000Y-103110955D01*
X84633000Y-103899045D01*
X84934589Y-104627146D01*
X85491854Y-105184411D01*
X86219955Y-105486000D01*
X87008045Y-105486000D01*
X87736146Y-105184411D01*
X87764557Y-105156000D01*
X89789000Y-105156000D01*
X89789000Y-123139835D01*
X89798667Y-123188436D01*
X89826197Y-123229638D01*
X89867399Y-123257168D01*
X89916000Y-123266835D01*
X90188809Y-123266835D01*
X90230301Y-123308327D01*
X90463690Y-123405000D01*
X91154250Y-123405000D01*
X91292415Y-123266835D01*
X91587585Y-123266835D01*
X91725750Y-123405000D01*
X92416310Y-123405000D01*
X92649699Y-123308327D01*
X92691191Y-123266835D01*
X107440978Y-123266835D01*
X107081854Y-123415589D01*
X106524589Y-123972854D01*
X106223000Y-124700955D01*
X106223000Y-125489045D01*
X106524589Y-126217146D01*
X107081854Y-126774411D01*
X107809955Y-127076000D01*
X108598045Y-127076000D01*
X109326146Y-126774411D01*
X109883411Y-126217146D01*
X109959084Y-126034455D01*
X134353500Y-126034455D01*
X134353500Y-126822545D01*
X134655089Y-127550646D01*
X135212354Y-128107911D01*
X135940455Y-128409500D01*
X136728545Y-128409500D01*
X137456646Y-128107911D01*
X138013911Y-127550646D01*
X138315500Y-126822545D01*
X138315500Y-126034455D01*
X138013911Y-125306354D01*
X137456646Y-124749089D01*
X137340441Y-124700955D01*
X138481000Y-124700955D01*
X138481000Y-125489045D01*
X138782589Y-126217146D01*
X139339854Y-126774411D01*
X140067955Y-127076000D01*
X140856045Y-127076000D01*
X141584146Y-126774411D01*
X142141411Y-126217146D01*
X142443000Y-125489045D01*
X142443000Y-124700955D01*
X142141411Y-123972854D01*
X141584146Y-123415589D01*
X140856045Y-123114000D01*
X140067955Y-123114000D01*
X139339854Y-123415589D01*
X138782589Y-123972854D01*
X138481000Y-124700955D01*
X137340441Y-124700955D01*
X136728545Y-124447500D01*
X135940455Y-124447500D01*
X135212354Y-124749089D01*
X134655089Y-125306354D01*
X134353500Y-126034455D01*
X109959084Y-126034455D01*
X110185000Y-125489045D01*
X110185000Y-124700955D01*
X109883411Y-123972854D01*
X109326146Y-123415589D01*
X108967022Y-123266835D01*
X135890000Y-123266835D01*
X135938601Y-123257168D01*
X135979803Y-123229638D01*
X136007333Y-123188436D01*
X136017000Y-123139835D01*
X136017000Y-108063955D01*
X138227000Y-108063955D01*
X138227000Y-108852045D01*
X138528589Y-109580146D01*
X139085854Y-110137411D01*
X139813955Y-110439000D01*
X140602045Y-110439000D01*
X141330146Y-110137411D01*
X141887411Y-109580146D01*
X142189000Y-108852045D01*
X142189000Y-108063955D01*
X141887411Y-107335854D01*
X141330146Y-106778589D01*
X140602045Y-106477000D01*
X139813955Y-106477000D01*
X139085854Y-106778589D01*
X138528589Y-107335854D01*
X138227000Y-108063955D01*
X136017000Y-108063955D01*
X136017000Y-105156000D01*
X136007333Y-105107399D01*
X135979803Y-105066197D01*
X135938601Y-105038667D01*
X135890000Y-105029000D01*
X96977200Y-105029000D01*
X96977200Y-103313378D01*
X97420589Y-102869990D01*
X104298180Y-102869990D01*
X104343210Y-102878947D01*
X104388240Y-102869990D01*
X104521601Y-102843463D01*
X104672833Y-102742413D01*
X104698342Y-102704236D01*
X105541449Y-101861130D01*
X105579623Y-101835623D01*
X105680673Y-101684391D01*
X105707200Y-101551030D01*
X105707200Y-101551029D01*
X105716157Y-101506000D01*
X105707200Y-101460970D01*
X105707200Y-101219047D01*
X105947306Y-101119592D01*
X106293592Y-100773306D01*
X106481000Y-100320861D01*
X106481000Y-99831139D01*
X106559000Y-99831139D01*
X106559000Y-100320861D01*
X106746408Y-100773306D01*
X107092694Y-101119592D01*
X107545139Y-101307000D01*
X108034861Y-101307000D01*
X108487306Y-101119592D01*
X108833592Y-100773306D01*
X109021000Y-100320861D01*
X109021000Y-99831139D01*
X109099000Y-99831139D01*
X109099000Y-100320861D01*
X109286408Y-100773306D01*
X109632694Y-101119592D01*
X110085139Y-101307000D01*
X110574861Y-101307000D01*
X111026422Y-101119958D01*
X112005647Y-101119958D01*
X112085920Y-101371259D01*
X112641279Y-101572718D01*
X113231458Y-101546315D01*
X113654080Y-101371259D01*
X113734353Y-101119958D01*
X112870000Y-100255605D01*
X112005647Y-101119958D01*
X111026422Y-101119958D01*
X111027306Y-101119592D01*
X111373592Y-100773306D01*
X111456195Y-100573884D01*
X111574741Y-100860080D01*
X111826042Y-100940353D01*
X112690395Y-100076000D01*
X113049605Y-100076000D01*
X113913958Y-100940353D01*
X114165259Y-100860080D01*
X114275954Y-100554929D01*
X114366408Y-100773306D01*
X114712694Y-101119592D01*
X115165139Y-101307000D01*
X115654861Y-101307000D01*
X116107306Y-101119592D01*
X116453592Y-100773306D01*
X116641000Y-100320861D01*
X116641000Y-99831139D01*
X116719000Y-99831139D01*
X116719000Y-100320861D01*
X116906408Y-100773306D01*
X117252694Y-101119592D01*
X117705139Y-101307000D01*
X118194861Y-101307000D01*
X118647306Y-101119592D01*
X118993592Y-100773306D01*
X119181000Y-100320861D01*
X119181000Y-99831139D01*
X119259000Y-99831139D01*
X119259000Y-100320861D01*
X119446408Y-100773306D01*
X119792694Y-101119592D01*
X120245139Y-101307000D01*
X120734861Y-101307000D01*
X121187306Y-101119592D01*
X121533592Y-100773306D01*
X121721000Y-100320861D01*
X121721000Y-99831139D01*
X121799000Y-99831139D01*
X121799000Y-100320861D01*
X121986408Y-100773306D01*
X122332694Y-101119592D01*
X122785139Y-101307000D01*
X123274861Y-101307000D01*
X123727306Y-101119592D01*
X124073592Y-100773306D01*
X124261000Y-100320861D01*
X124261000Y-99831139D01*
X124339000Y-99831139D01*
X124339000Y-100320861D01*
X124526408Y-100773306D01*
X124872694Y-101119592D01*
X125325139Y-101307000D01*
X125814861Y-101307000D01*
X126267306Y-101119592D01*
X126613592Y-100773306D01*
X126801000Y-100320861D01*
X126801000Y-99831139D01*
X126879000Y-99831139D01*
X126879000Y-100320861D01*
X127066408Y-100773306D01*
X127412694Y-101119592D01*
X127865139Y-101307000D01*
X128354861Y-101307000D01*
X128807306Y-101119592D01*
X129153592Y-100773306D01*
X129341000Y-100320861D01*
X129341000Y-99831139D01*
X129419000Y-99831139D01*
X129419000Y-100320861D01*
X129606408Y-100773306D01*
X129952694Y-101119592D01*
X130405139Y-101307000D01*
X130894861Y-101307000D01*
X131347306Y-101119592D01*
X131693592Y-100773306D01*
X131881000Y-100320861D01*
X131881000Y-99831139D01*
X131959000Y-99831139D01*
X131959000Y-100320861D01*
X132146408Y-100773306D01*
X132492694Y-101119592D01*
X132945139Y-101307000D01*
X133434861Y-101307000D01*
X133887306Y-101119592D01*
X134233592Y-100773306D01*
X134421000Y-100320861D01*
X134421000Y-99831139D01*
X134499000Y-99831139D01*
X134499000Y-100320861D01*
X134686408Y-100773306D01*
X135032694Y-101119592D01*
X135485139Y-101307000D01*
X135974861Y-101307000D01*
X136427306Y-101119592D01*
X136773592Y-100773306D01*
X136961000Y-100320861D01*
X136961000Y-99831139D01*
X137039000Y-99831139D01*
X137039000Y-100320861D01*
X137226408Y-100773306D01*
X137572694Y-101119592D01*
X138025139Y-101307000D01*
X138514861Y-101307000D01*
X138967306Y-101119592D01*
X139313592Y-100773306D01*
X139501000Y-100320861D01*
X139501000Y-99831139D01*
X139579000Y-99831139D01*
X139579000Y-100320861D01*
X139766408Y-100773306D01*
X140112694Y-101119592D01*
X140565139Y-101307000D01*
X141054861Y-101307000D01*
X141507306Y-101119592D01*
X141853592Y-100773306D01*
X142041000Y-100320861D01*
X142041000Y-99831139D01*
X142119000Y-99831139D01*
X142119000Y-100320861D01*
X142306408Y-100773306D01*
X142652694Y-101119592D01*
X143105139Y-101307000D01*
X143594861Y-101307000D01*
X144047306Y-101119592D01*
X144393592Y-100773306D01*
X144581000Y-100320861D01*
X144581000Y-99831139D01*
X144393592Y-99378694D01*
X144047306Y-99032408D01*
X143594861Y-98845000D01*
X143105139Y-98845000D01*
X142652694Y-99032408D01*
X142306408Y-99378694D01*
X142119000Y-99831139D01*
X142041000Y-99831139D01*
X141853592Y-99378694D01*
X141507306Y-99032408D01*
X141054861Y-98845000D01*
X140565139Y-98845000D01*
X140112694Y-99032408D01*
X139766408Y-99378694D01*
X139579000Y-99831139D01*
X139501000Y-99831139D01*
X139313592Y-99378694D01*
X138967306Y-99032408D01*
X138514861Y-98845000D01*
X138025139Y-98845000D01*
X137572694Y-99032408D01*
X137226408Y-99378694D01*
X137039000Y-99831139D01*
X136961000Y-99831139D01*
X136773592Y-99378694D01*
X136427306Y-99032408D01*
X135974861Y-98845000D01*
X135485139Y-98845000D01*
X135032694Y-99032408D01*
X134686408Y-99378694D01*
X134499000Y-99831139D01*
X134421000Y-99831139D01*
X134233592Y-99378694D01*
X133887306Y-99032408D01*
X133434861Y-98845000D01*
X132945139Y-98845000D01*
X132492694Y-99032408D01*
X132146408Y-99378694D01*
X131959000Y-99831139D01*
X131881000Y-99831139D01*
X131693592Y-99378694D01*
X131347306Y-99032408D01*
X130894861Y-98845000D01*
X130405139Y-98845000D01*
X129952694Y-99032408D01*
X129606408Y-99378694D01*
X129419000Y-99831139D01*
X129341000Y-99831139D01*
X129153592Y-99378694D01*
X128807306Y-99032408D01*
X128354861Y-98845000D01*
X127865139Y-98845000D01*
X127412694Y-99032408D01*
X127066408Y-99378694D01*
X126879000Y-99831139D01*
X126801000Y-99831139D01*
X126613592Y-99378694D01*
X126267306Y-99032408D01*
X125814861Y-98845000D01*
X125325139Y-98845000D01*
X124872694Y-99032408D01*
X124526408Y-99378694D01*
X124339000Y-99831139D01*
X124261000Y-99831139D01*
X124073592Y-99378694D01*
X123727306Y-99032408D01*
X123274861Y-98845000D01*
X122785139Y-98845000D01*
X122332694Y-99032408D01*
X121986408Y-99378694D01*
X121799000Y-99831139D01*
X121721000Y-99831139D01*
X121533592Y-99378694D01*
X121187306Y-99032408D01*
X120734861Y-98845000D01*
X120245139Y-98845000D01*
X119792694Y-99032408D01*
X119446408Y-99378694D01*
X119259000Y-99831139D01*
X119181000Y-99831139D01*
X118993592Y-99378694D01*
X118647306Y-99032408D01*
X118194861Y-98845000D01*
X117705139Y-98845000D01*
X117252694Y-99032408D01*
X116906408Y-99378694D01*
X116719000Y-99831139D01*
X116641000Y-99831139D01*
X116453592Y-99378694D01*
X116107306Y-99032408D01*
X115654861Y-98845000D01*
X115165139Y-98845000D01*
X114712694Y-99032408D01*
X114366408Y-99378694D01*
X114283805Y-99578116D01*
X114165259Y-99291920D01*
X113913958Y-99211647D01*
X113049605Y-100076000D01*
X112690395Y-100076000D01*
X111826042Y-99211647D01*
X111574741Y-99291920D01*
X111464046Y-99597071D01*
X111373592Y-99378694D01*
X111027306Y-99032408D01*
X110574861Y-98845000D01*
X110085139Y-98845000D01*
X109632694Y-99032408D01*
X109286408Y-99378694D01*
X109099000Y-99831139D01*
X109021000Y-99831139D01*
X108833592Y-99378694D01*
X108487306Y-99032408D01*
X108034861Y-98845000D01*
X107545139Y-98845000D01*
X107092694Y-99032408D01*
X106746408Y-99378694D01*
X106559000Y-99831139D01*
X106481000Y-99831139D01*
X106293592Y-99378694D01*
X105947306Y-99032408D01*
X105494861Y-98845000D01*
X105005139Y-98845000D01*
X104552694Y-99032408D01*
X104206408Y-99378694D01*
X104019000Y-99831139D01*
X104019000Y-100320861D01*
X104206408Y-100773306D01*
X104552694Y-101119592D01*
X104792800Y-101219047D01*
X104792800Y-101316621D01*
X104153832Y-101955590D01*
X97276240Y-101955590D01*
X97231210Y-101946633D01*
X97186180Y-101955590D01*
X97052819Y-101982117D01*
X96977200Y-102032644D01*
X96977200Y-97291139D01*
X101486600Y-97291139D01*
X101486600Y-97780861D01*
X101674008Y-98233306D01*
X102020294Y-98579592D01*
X102472739Y-98767000D01*
X102962461Y-98767000D01*
X103414906Y-98579592D01*
X103761192Y-98233306D01*
X103948600Y-97780861D01*
X103948600Y-97291139D01*
X103761192Y-96838694D01*
X103414906Y-96492408D01*
X103174800Y-96392953D01*
X103174800Y-94067778D01*
X103821379Y-93421200D01*
X105068222Y-93421200D01*
X104991552Y-93497870D01*
X104953378Y-93523377D01*
X104927871Y-93561551D01*
X104927870Y-93561552D01*
X104852327Y-93674610D01*
X104816843Y-93853000D01*
X104825801Y-93898035D01*
X104825800Y-96161194D01*
X104791443Y-96333919D01*
X104800401Y-96378954D01*
X104800401Y-96392953D01*
X104560294Y-96492408D01*
X104214008Y-96838694D01*
X104026600Y-97291139D01*
X104026600Y-97780861D01*
X104214008Y-98233306D01*
X104560294Y-98579592D01*
X105012739Y-98767000D01*
X105502461Y-98767000D01*
X105954906Y-98579592D01*
X106301192Y-98233306D01*
X106488600Y-97780861D01*
X106488600Y-97291139D01*
X106301192Y-96838694D01*
X105954906Y-96492408D01*
X105731025Y-96399674D01*
X105740200Y-96353549D01*
X105740200Y-96353548D01*
X105749157Y-96308520D01*
X105740200Y-96263490D01*
X105740200Y-94042378D01*
X106615379Y-93167200D01*
X107989221Y-93167200D01*
X107506152Y-93650270D01*
X107467978Y-93675777D01*
X107442471Y-93713951D01*
X107442470Y-93713952D01*
X107366927Y-93827010D01*
X107331443Y-94005400D01*
X107340401Y-94050435D01*
X107340400Y-96392953D01*
X107100294Y-96492408D01*
X106754008Y-96838694D01*
X106566600Y-97291139D01*
X106566600Y-97780861D01*
X106754008Y-98233306D01*
X107100294Y-98579592D01*
X107552739Y-98767000D01*
X108042461Y-98767000D01*
X108494906Y-98579592D01*
X108841192Y-98233306D01*
X109028600Y-97780861D01*
X109028600Y-97291139D01*
X108841192Y-96838694D01*
X108494906Y-96492408D01*
X108254800Y-96392953D01*
X108254800Y-94194778D01*
X108952189Y-93497390D01*
X110326032Y-93497390D01*
X110046152Y-93777270D01*
X110007978Y-93802777D01*
X109982471Y-93840951D01*
X109982470Y-93840952D01*
X109906927Y-93954010D01*
X109871443Y-94132400D01*
X109880401Y-94177435D01*
X109880400Y-96392953D01*
X109640294Y-96492408D01*
X109294008Y-96838694D01*
X109106600Y-97291139D01*
X109106600Y-97780861D01*
X109294008Y-98233306D01*
X109640294Y-98579592D01*
X110092739Y-98767000D01*
X110582461Y-98767000D01*
X111034906Y-98579592D01*
X111381192Y-98233306D01*
X111568600Y-97780861D01*
X111568600Y-97291139D01*
X111381192Y-96838694D01*
X111034906Y-96492408D01*
X110794800Y-96392953D01*
X110794800Y-94321778D01*
X111314379Y-93802200D01*
X112942222Y-93802200D01*
X112586152Y-94158270D01*
X112547978Y-94183777D01*
X112522471Y-94221951D01*
X112522470Y-94221952D01*
X112446927Y-94335010D01*
X112411443Y-94513400D01*
X112420401Y-94558435D01*
X112420400Y-96392953D01*
X112180294Y-96492408D01*
X111834008Y-96838694D01*
X111646600Y-97291139D01*
X111646600Y-97780861D01*
X111834008Y-98233306D01*
X112180294Y-98579592D01*
X112375916Y-98660621D01*
X112085920Y-98780741D01*
X112005647Y-99032042D01*
X112870000Y-99896395D01*
X113734353Y-99032042D01*
X113654080Y-98780741D01*
X113352981Y-98671516D01*
X113574906Y-98579592D01*
X113921192Y-98233306D01*
X114108600Y-97780861D01*
X114108600Y-97291139D01*
X113921192Y-96838694D01*
X113574906Y-96492408D01*
X113334800Y-96392953D01*
X113334800Y-94702778D01*
X114286189Y-93751390D01*
X115914031Y-93751390D01*
X115126152Y-94539270D01*
X115087978Y-94564777D01*
X115062471Y-94602951D01*
X115062470Y-94602952D01*
X114986927Y-94716010D01*
X114951443Y-94894400D01*
X114960401Y-94939435D01*
X114960400Y-96392953D01*
X114720294Y-96492408D01*
X114374008Y-96838694D01*
X114186600Y-97291139D01*
X114186600Y-97780861D01*
X114374008Y-98233306D01*
X114720294Y-98579592D01*
X115172739Y-98767000D01*
X115662461Y-98767000D01*
X116114906Y-98579592D01*
X116461192Y-98233306D01*
X116648600Y-97780861D01*
X116648600Y-97291139D01*
X116461192Y-96838694D01*
X116114906Y-96492408D01*
X115874800Y-96392953D01*
X115874800Y-95083778D01*
X116902379Y-94056200D01*
X118149221Y-94056200D01*
X117691552Y-94513870D01*
X117653378Y-94539377D01*
X117627871Y-94577551D01*
X117627870Y-94577552D01*
X117552327Y-94690610D01*
X117516843Y-94869000D01*
X117525801Y-94914035D01*
X117525800Y-96161194D01*
X117491443Y-96333919D01*
X117500401Y-96378954D01*
X117500401Y-96392953D01*
X117260294Y-96492408D01*
X116914008Y-96838694D01*
X116726600Y-97291139D01*
X116726600Y-97780861D01*
X116914008Y-98233306D01*
X117260294Y-98579592D01*
X117712739Y-98767000D01*
X118202461Y-98767000D01*
X118654906Y-98579592D01*
X119001192Y-98233306D01*
X119188600Y-97780861D01*
X119188600Y-97291139D01*
X119001192Y-96838694D01*
X118654906Y-96492408D01*
X118431025Y-96399674D01*
X118440200Y-96353549D01*
X118440200Y-96353548D01*
X118449157Y-96308520D01*
X118440200Y-96263490D01*
X118440200Y-95058378D01*
X119061428Y-94437151D01*
X120562271Y-94437151D01*
X120206152Y-94793270D01*
X120167978Y-94818777D01*
X120142471Y-94856951D01*
X120142470Y-94856952D01*
X120066927Y-94970010D01*
X120031443Y-95148400D01*
X120040401Y-95193435D01*
X120040400Y-96392953D01*
X119800294Y-96492408D01*
X119454008Y-96838694D01*
X119266600Y-97291139D01*
X119266600Y-97780861D01*
X119454008Y-98233306D01*
X119800294Y-98579592D01*
X120252739Y-98767000D01*
X120742461Y-98767000D01*
X121194906Y-98579592D01*
X121541192Y-98233306D01*
X121728600Y-97780861D01*
X121728600Y-97291139D01*
X121541192Y-96838694D01*
X121194906Y-96492408D01*
X120954800Y-96392953D01*
X120954800Y-95337778D01*
X121550618Y-94741960D01*
X123178462Y-94741960D01*
X122771552Y-95148870D01*
X122733378Y-95174377D01*
X122707871Y-95212551D01*
X122707870Y-95212552D01*
X122632327Y-95325610D01*
X122596843Y-95504000D01*
X122605801Y-95549034D01*
X122605800Y-96161194D01*
X122571443Y-96333919D01*
X122580401Y-96378954D01*
X122580401Y-96392953D01*
X122340294Y-96492408D01*
X121994008Y-96838694D01*
X121806600Y-97291139D01*
X121806600Y-97780861D01*
X121994008Y-98233306D01*
X122340294Y-98579592D01*
X122792739Y-98767000D01*
X123282461Y-98767000D01*
X123734906Y-98579592D01*
X124081192Y-98233306D01*
X124268600Y-97780861D01*
X124268600Y-97291139D01*
X124081192Y-96838694D01*
X123734906Y-96492408D01*
X123511025Y-96399674D01*
X123520200Y-96353549D01*
X123520200Y-96353548D01*
X123529157Y-96308520D01*
X123520200Y-96263490D01*
X123520200Y-95693378D01*
X124166809Y-95046770D01*
X126048652Y-95046770D01*
X125286152Y-95809270D01*
X125247978Y-95834777D01*
X125222471Y-95872951D01*
X125222470Y-95872952D01*
X125146927Y-95986010D01*
X125111443Y-96164400D01*
X125120401Y-96209435D01*
X125120401Y-96392953D01*
X124880294Y-96492408D01*
X124534008Y-96838694D01*
X124346600Y-97291139D01*
X124346600Y-97780861D01*
X124534008Y-98233306D01*
X124880294Y-98579592D01*
X125332739Y-98767000D01*
X125822461Y-98767000D01*
X126274906Y-98579592D01*
X126621192Y-98233306D01*
X126808600Y-97780861D01*
X126808600Y-97291139D01*
X126621192Y-96838694D01*
X126274906Y-96492408D01*
X126034800Y-96392953D01*
X126034800Y-96353778D01*
X127036998Y-95351580D01*
X127902842Y-95351580D01*
X127826152Y-95428270D01*
X127787978Y-95453777D01*
X127762471Y-95491951D01*
X127762470Y-95491952D01*
X127686927Y-95605010D01*
X127651443Y-95783400D01*
X127660401Y-95828435D01*
X127660401Y-96392953D01*
X127420294Y-96492408D01*
X127074008Y-96838694D01*
X126886600Y-97291139D01*
X126886600Y-97780861D01*
X127074008Y-98233306D01*
X127420294Y-98579592D01*
X127872739Y-98767000D01*
X128362461Y-98767000D01*
X128814906Y-98579592D01*
X129161192Y-98233306D01*
X129348600Y-97780861D01*
X129348600Y-97291139D01*
X129161192Y-96838694D01*
X128814906Y-96492408D01*
X128574800Y-96392953D01*
X128574800Y-95972778D01*
X128891188Y-95656390D01*
X130392032Y-95656390D01*
X130366152Y-95682270D01*
X130327978Y-95707777D01*
X130302471Y-95745951D01*
X130302470Y-95745952D01*
X130226927Y-95859010D01*
X130191443Y-96037400D01*
X130200401Y-96082435D01*
X130200401Y-96392953D01*
X129960294Y-96492408D01*
X129614008Y-96838694D01*
X129426600Y-97291139D01*
X129426600Y-97780861D01*
X129614008Y-98233306D01*
X129960294Y-98579592D01*
X130412739Y-98767000D01*
X130902461Y-98767000D01*
X131354906Y-98579592D01*
X131701192Y-98233306D01*
X131888600Y-97780861D01*
X131888600Y-97291139D01*
X131701192Y-96838694D01*
X131354906Y-96492408D01*
X131114800Y-96392953D01*
X131114800Y-96226778D01*
X131380378Y-95961200D01*
X136987970Y-95961200D01*
X137033000Y-95970157D01*
X137078030Y-95961200D01*
X137211391Y-95934673D01*
X137362623Y-95833623D01*
X137388132Y-95795446D01*
X143641449Y-89542130D01*
X143679623Y-89516623D01*
X143780673Y-89365391D01*
X143807200Y-89232030D01*
X143807200Y-89232029D01*
X143816157Y-89187001D01*
X143807200Y-89141971D01*
X143807200Y-75819047D01*
X144047306Y-75719592D01*
X144393592Y-75373306D01*
X144581000Y-74920861D01*
X144581000Y-74431139D01*
X144393592Y-73978694D01*
X144047306Y-73632408D01*
X143594861Y-73445000D01*
X143105139Y-73445000D01*
X142652694Y-73632408D01*
X142306408Y-73978694D01*
X142119000Y-74431139D01*
X142119000Y-74920861D01*
X142306408Y-75373306D01*
X142652694Y-75719592D01*
X142892801Y-75819047D01*
X142892800Y-88997621D01*
X141267200Y-90623221D01*
X141267200Y-75819047D01*
X141507306Y-75719592D01*
X141853592Y-75373306D01*
X142041000Y-74920861D01*
X142041000Y-74431139D01*
X141853592Y-73978694D01*
X141507306Y-73632408D01*
X141054861Y-73445000D01*
X140565139Y-73445000D01*
X140112694Y-73632408D01*
X139766408Y-73978694D01*
X139579000Y-74431139D01*
X139579000Y-74920861D01*
X139766408Y-75373306D01*
X140112694Y-75719592D01*
X140352801Y-75819047D01*
X140352800Y-91106556D01*
X138727200Y-92732156D01*
X138727200Y-75819047D01*
X138967306Y-75719592D01*
X139313592Y-75373306D01*
X139501000Y-74920861D01*
X139501000Y-74431139D01*
X139313592Y-73978694D01*
X138967306Y-73632408D01*
X138514861Y-73445000D01*
X138025139Y-73445000D01*
X137572694Y-73632408D01*
X137226408Y-73978694D01*
X137039000Y-74431139D01*
X137039000Y-74920861D01*
X137226408Y-75373306D01*
X137572694Y-75719592D01*
X137812801Y-75819047D01*
X137812800Y-93188621D01*
X136564242Y-94437180D01*
X135698398Y-94437180D01*
X136021446Y-94114132D01*
X136059623Y-94088623D01*
X136160673Y-93937391D01*
X136170010Y-93890449D01*
X136196157Y-93759001D01*
X136187200Y-93713971D01*
X136187200Y-75819047D01*
X136427306Y-75719592D01*
X136773592Y-75373306D01*
X136961000Y-74920861D01*
X136961000Y-74431139D01*
X136773592Y-73978694D01*
X136427306Y-73632408D01*
X135974861Y-73445000D01*
X135485139Y-73445000D01*
X135032694Y-73632408D01*
X134686408Y-73978694D01*
X134499000Y-74431139D01*
X134499000Y-74920861D01*
X134686408Y-75373306D01*
X135032694Y-75719592D01*
X135272801Y-75819047D01*
X135272800Y-93569622D01*
X134710052Y-94132370D01*
X132955208Y-94132370D01*
X133481446Y-93606132D01*
X133519623Y-93580623D01*
X133620673Y-93429391D01*
X133647200Y-93296030D01*
X133647200Y-93296029D01*
X133656157Y-93251001D01*
X133647200Y-93205972D01*
X133647200Y-75819047D01*
X133887306Y-75719592D01*
X134233592Y-75373306D01*
X134421000Y-74920861D01*
X134421000Y-74431139D01*
X134233592Y-73978694D01*
X133887306Y-73632408D01*
X133434861Y-73445000D01*
X132945139Y-73445000D01*
X132492694Y-73632408D01*
X132146408Y-73978694D01*
X131959000Y-74431139D01*
X131959000Y-74920861D01*
X132146408Y-75373306D01*
X132492694Y-75719592D01*
X132732801Y-75819047D01*
X132732800Y-93061622D01*
X132410200Y-93384222D01*
X132410200Y-75991030D01*
X132419157Y-75946000D01*
X132383673Y-75767609D01*
X132282623Y-75616377D01*
X132144997Y-75524419D01*
X131781545Y-75160967D01*
X131881000Y-74920861D01*
X131881000Y-74431139D01*
X131693592Y-73978694D01*
X131347306Y-73632408D01*
X130894861Y-73445000D01*
X130405139Y-73445000D01*
X129952694Y-73632408D01*
X129606408Y-73978694D01*
X129419000Y-74431139D01*
X129419000Y-74920861D01*
X129606408Y-75373306D01*
X129952694Y-75719592D01*
X130405139Y-75907000D01*
X130894861Y-75907000D01*
X131134967Y-75807545D01*
X131495801Y-76168380D01*
X131495801Y-76313303D01*
X131354906Y-76172408D01*
X130902461Y-75985000D01*
X130412739Y-75985000D01*
X129960294Y-76172408D01*
X129870200Y-76262502D01*
X129870200Y-76024029D01*
X129879157Y-75978999D01*
X129843673Y-75800609D01*
X129768130Y-75687551D01*
X129742623Y-75649377D01*
X129704449Y-75623870D01*
X129241545Y-75160967D01*
X129341000Y-74920861D01*
X129341000Y-74431139D01*
X129153592Y-73978694D01*
X128807306Y-73632408D01*
X128354861Y-73445000D01*
X127865139Y-73445000D01*
X127412694Y-73632408D01*
X127066408Y-73978694D01*
X126879000Y-74431139D01*
X126879000Y-74920861D01*
X127066408Y-75373306D01*
X127412694Y-75719592D01*
X127865139Y-75907000D01*
X128354861Y-75907000D01*
X128594967Y-75807545D01*
X128955801Y-76168380D01*
X128955801Y-76313303D01*
X128814906Y-76172408D01*
X128362461Y-75985000D01*
X127872739Y-75985000D01*
X127420294Y-76172408D01*
X127330200Y-76262502D01*
X127330200Y-75991030D01*
X127339157Y-75946000D01*
X127303673Y-75767609D01*
X127202623Y-75616377D01*
X127064997Y-75524419D01*
X126701545Y-75160967D01*
X126801000Y-74920861D01*
X126801000Y-74431139D01*
X126613592Y-73978694D01*
X126267306Y-73632408D01*
X125814861Y-73445000D01*
X125325139Y-73445000D01*
X124872694Y-73632408D01*
X124526408Y-73978694D01*
X124339000Y-74431139D01*
X124339000Y-74920861D01*
X124526408Y-75373306D01*
X124872694Y-75719592D01*
X125325139Y-75907000D01*
X125814861Y-75907000D01*
X126054967Y-75807545D01*
X126415801Y-76168380D01*
X126415801Y-76313303D01*
X126274906Y-76172408D01*
X125822461Y-75985000D01*
X125332739Y-75985000D01*
X124880294Y-76172408D01*
X124790200Y-76262502D01*
X124790200Y-75991030D01*
X124799157Y-75946000D01*
X124763673Y-75767609D01*
X124662623Y-75616377D01*
X124524997Y-75524419D01*
X124161545Y-75160967D01*
X124261000Y-74920861D01*
X124261000Y-74431139D01*
X124073592Y-73978694D01*
X123727306Y-73632408D01*
X123274861Y-73445000D01*
X122785139Y-73445000D01*
X122332694Y-73632408D01*
X121986408Y-73978694D01*
X121799000Y-74431139D01*
X121799000Y-74920861D01*
X121986408Y-75373306D01*
X122332694Y-75719592D01*
X122785139Y-75907000D01*
X123274861Y-75907000D01*
X123514967Y-75807545D01*
X123875801Y-76168380D01*
X123875801Y-76313303D01*
X123734906Y-76172408D01*
X123282461Y-75985000D01*
X122792739Y-75985000D01*
X122340294Y-76172408D01*
X122250200Y-76262502D01*
X122250200Y-76024029D01*
X122259157Y-75978999D01*
X122223673Y-75800609D01*
X122148130Y-75687551D01*
X122122623Y-75649377D01*
X122084449Y-75623870D01*
X121621545Y-75160967D01*
X121721000Y-74920861D01*
X121721000Y-74431139D01*
X121533592Y-73978694D01*
X121187306Y-73632408D01*
X120734861Y-73445000D01*
X120245139Y-73445000D01*
X119792694Y-73632408D01*
X119446408Y-73978694D01*
X119259000Y-74431139D01*
X119259000Y-74920861D01*
X119446408Y-75373306D01*
X119792694Y-75719592D01*
X120245139Y-75907000D01*
X120734861Y-75907000D01*
X120974967Y-75807545D01*
X121335801Y-76168380D01*
X121335801Y-76313303D01*
X121194906Y-76172408D01*
X120742461Y-75985000D01*
X120252739Y-75985000D01*
X119800294Y-76172408D01*
X119710200Y-76262502D01*
X119710200Y-76024029D01*
X119719157Y-75978999D01*
X119683673Y-75800609D01*
X119608130Y-75687551D01*
X119582623Y-75649377D01*
X119544449Y-75623870D01*
X119081545Y-75160967D01*
X119181000Y-74920861D01*
X119181000Y-74431139D01*
X118993592Y-73978694D01*
X118647306Y-73632408D01*
X118194861Y-73445000D01*
X117705139Y-73445000D01*
X117252694Y-73632408D01*
X116906408Y-73978694D01*
X116719000Y-74431139D01*
X116719000Y-74920861D01*
X116906408Y-75373306D01*
X117252694Y-75719592D01*
X117705139Y-75907000D01*
X118194861Y-75907000D01*
X118434967Y-75807545D01*
X118795801Y-76168380D01*
X118795801Y-76313303D01*
X118654906Y-76172408D01*
X118202461Y-75985000D01*
X117712739Y-75985000D01*
X117260294Y-76172408D01*
X117170200Y-76262502D01*
X117170200Y-76024029D01*
X117179157Y-75978999D01*
X117143673Y-75800609D01*
X117068130Y-75687551D01*
X117042623Y-75649377D01*
X117004449Y-75623870D01*
X116541545Y-75160967D01*
X116641000Y-74920861D01*
X116641000Y-74431139D01*
X116453592Y-73978694D01*
X116107306Y-73632408D01*
X115654861Y-73445000D01*
X115165139Y-73445000D01*
X114712694Y-73632408D01*
X114366408Y-73978694D01*
X114179000Y-74431139D01*
X114179000Y-74920861D01*
X114366408Y-75373306D01*
X114712694Y-75719592D01*
X115165139Y-75907000D01*
X115654861Y-75907000D01*
X115894967Y-75807545D01*
X116255801Y-76168380D01*
X116255801Y-76313303D01*
X116114906Y-76172408D01*
X115662461Y-75985000D01*
X115172739Y-75985000D01*
X114720294Y-76172408D01*
X114374008Y-76518694D01*
X114186600Y-76971139D01*
X114186600Y-77460861D01*
X114374008Y-77913306D01*
X114720294Y-78259592D01*
X115172739Y-78447000D01*
X115662461Y-78447000D01*
X116114906Y-78259592D01*
X116255801Y-78118697D01*
X116255800Y-91123621D01*
X115761672Y-91617750D01*
X113636816Y-91617750D01*
X113591786Y-91608793D01*
X113546756Y-91617750D01*
X113413395Y-91644277D01*
X113262163Y-91745327D01*
X113236656Y-91783502D01*
X113072168Y-91947990D01*
X106344774Y-91947990D01*
X106299744Y-91939033D01*
X106254714Y-91947990D01*
X106121353Y-91974517D01*
X105970121Y-92075567D01*
X105944612Y-92113744D01*
X105551556Y-92506800D01*
X103677030Y-92506800D01*
X103632000Y-92497843D01*
X103462246Y-92531609D01*
X103453609Y-92533327D01*
X103302377Y-92634377D01*
X103276870Y-92672551D01*
X102426152Y-93523270D01*
X102387978Y-93548777D01*
X102362471Y-93586951D01*
X102362470Y-93586952D01*
X102286927Y-93700010D01*
X102251443Y-93878400D01*
X102260401Y-93923435D01*
X102260400Y-96392953D01*
X102020294Y-96492408D01*
X101674008Y-96838694D01*
X101486600Y-97291139D01*
X96977200Y-97291139D01*
X96977200Y-82595030D01*
X96986157Y-82550000D01*
X96950673Y-82371609D01*
X96875130Y-82258551D01*
X96849623Y-82220377D01*
X96811449Y-82194870D01*
X95859132Y-81242554D01*
X95833623Y-81204377D01*
X95682391Y-81103327D01*
X95549030Y-81076800D01*
X95504000Y-81067843D01*
X95458970Y-81076800D01*
X93534379Y-81076800D01*
X93014800Y-80557222D01*
X93014800Y-78359047D01*
X93254906Y-78259592D01*
X93601192Y-77913306D01*
X93788600Y-77460861D01*
X93788600Y-76971139D01*
X93866600Y-76971139D01*
X93866600Y-77460861D01*
X94054008Y-77913306D01*
X94400294Y-78259592D01*
X94852739Y-78447000D01*
X95342461Y-78447000D01*
X95794906Y-78259592D01*
X96141192Y-77913306D01*
X96328600Y-77460861D01*
X96328600Y-76971139D01*
X96406600Y-76971139D01*
X96406600Y-77460861D01*
X96594008Y-77913306D01*
X96940294Y-78259592D01*
X97392739Y-78447000D01*
X97882461Y-78447000D01*
X98334022Y-78259958D01*
X99313247Y-78259958D01*
X99393520Y-78511259D01*
X99948879Y-78712718D01*
X100539058Y-78686315D01*
X100961680Y-78511259D01*
X101041953Y-78259958D01*
X100177600Y-77395605D01*
X99313247Y-78259958D01*
X98334022Y-78259958D01*
X98334906Y-78259592D01*
X98681192Y-77913306D01*
X98763795Y-77713884D01*
X98882341Y-78000080D01*
X99133642Y-78080353D01*
X99997995Y-77216000D01*
X100357205Y-77216000D01*
X101221558Y-78080353D01*
X101472859Y-78000080D01*
X101583554Y-77694929D01*
X101674008Y-77913306D01*
X102020294Y-78259592D01*
X102472739Y-78447000D01*
X102962461Y-78447000D01*
X103414906Y-78259592D01*
X103761192Y-77913306D01*
X103948600Y-77460861D01*
X103948600Y-76971139D01*
X104026600Y-76971139D01*
X104026600Y-77460861D01*
X104214008Y-77913306D01*
X104560294Y-78259592D01*
X105012739Y-78447000D01*
X105502461Y-78447000D01*
X105954906Y-78259592D01*
X106301192Y-77913306D01*
X106488600Y-77460861D01*
X106488600Y-76971139D01*
X106566600Y-76971139D01*
X106566600Y-77460861D01*
X106754008Y-77913306D01*
X107100294Y-78259592D01*
X107552739Y-78447000D01*
X108042461Y-78447000D01*
X108494906Y-78259592D01*
X108841192Y-77913306D01*
X109028600Y-77460861D01*
X109028600Y-76971139D01*
X109106600Y-76971139D01*
X109106600Y-77460861D01*
X109294008Y-77913306D01*
X109640294Y-78259592D01*
X110092739Y-78447000D01*
X110582461Y-78447000D01*
X111034906Y-78259592D01*
X111381192Y-77913306D01*
X111568600Y-77460861D01*
X111568600Y-76971139D01*
X111646600Y-76971139D01*
X111646600Y-77460861D01*
X111834008Y-77913306D01*
X112180294Y-78259592D01*
X112632739Y-78447000D01*
X113122461Y-78447000D01*
X113574906Y-78259592D01*
X113921192Y-77913306D01*
X114108600Y-77460861D01*
X114108600Y-76971139D01*
X113921192Y-76518694D01*
X113574906Y-76172408D01*
X113122461Y-75985000D01*
X112632739Y-75985000D01*
X112180294Y-76172408D01*
X111834008Y-76518694D01*
X111646600Y-76971139D01*
X111568600Y-76971139D01*
X111381192Y-76518694D01*
X111034906Y-76172408D01*
X110582461Y-75985000D01*
X110092739Y-75985000D01*
X109640294Y-76172408D01*
X109294008Y-76518694D01*
X109106600Y-76971139D01*
X109028600Y-76971139D01*
X108841192Y-76518694D01*
X108494906Y-76172408D01*
X108042461Y-75985000D01*
X107552739Y-75985000D01*
X107100294Y-76172408D01*
X106754008Y-76518694D01*
X106566600Y-76971139D01*
X106488600Y-76971139D01*
X106301192Y-76518694D01*
X105954906Y-76172408D01*
X105502461Y-75985000D01*
X105012739Y-75985000D01*
X104560294Y-76172408D01*
X104214008Y-76518694D01*
X104026600Y-76971139D01*
X103948600Y-76971139D01*
X103761192Y-76518694D01*
X103414906Y-76172408D01*
X102962461Y-75985000D01*
X102472739Y-75985000D01*
X102020294Y-76172408D01*
X101674008Y-76518694D01*
X101591405Y-76718116D01*
X101472859Y-76431920D01*
X101221558Y-76351647D01*
X100357205Y-77216000D01*
X99997995Y-77216000D01*
X99133642Y-76351647D01*
X98882341Y-76431920D01*
X98771646Y-76737071D01*
X98681192Y-76518694D01*
X98334906Y-76172408D01*
X98334023Y-76172042D01*
X99313247Y-76172042D01*
X100177600Y-77036395D01*
X101041953Y-76172042D01*
X100961680Y-75920741D01*
X100406321Y-75719282D01*
X99816142Y-75745685D01*
X99393520Y-75920741D01*
X99313247Y-76172042D01*
X98334023Y-76172042D01*
X97882461Y-75985000D01*
X97392739Y-75985000D01*
X96940294Y-76172408D01*
X96594008Y-76518694D01*
X96406600Y-76971139D01*
X96328600Y-76971139D01*
X96141192Y-76518694D01*
X95794906Y-76172408D01*
X95342461Y-75985000D01*
X94852739Y-75985000D01*
X94400294Y-76172408D01*
X94054008Y-76518694D01*
X93866600Y-76971139D01*
X93788600Y-76971139D01*
X93601192Y-76518694D01*
X93254906Y-76172408D01*
X92802461Y-75985000D01*
X92312739Y-75985000D01*
X91860294Y-76172408D01*
X91514008Y-76518694D01*
X91326600Y-76971139D01*
X91326600Y-77460861D01*
X91514008Y-77913306D01*
X91860294Y-78259592D01*
X92100401Y-78359047D01*
X92100400Y-80701570D01*
X92091443Y-80746600D01*
X92100400Y-80791629D01*
X92126927Y-80924990D01*
X92227977Y-81076223D01*
X92266154Y-81101732D01*
X92989869Y-81825448D01*
X93015377Y-81863623D01*
X93053551Y-81889130D01*
X93166609Y-81964673D01*
X93345000Y-82000157D01*
X93390030Y-81991200D01*
X95314622Y-81991200D01*
X96062801Y-82739380D01*
X96062800Y-103078970D01*
X96053843Y-103124000D01*
X96062801Y-103169035D01*
X96062800Y-105029000D01*
X89916000Y-105029000D01*
X89867399Y-105038667D01*
X89826197Y-105066197D01*
X89798667Y-105107399D01*
X89789000Y-105156000D01*
X87764557Y-105156000D01*
X88293411Y-104627146D01*
X88595000Y-103899045D01*
X88595000Y-103110955D01*
X88293411Y-102382854D01*
X87736146Y-101825589D01*
X87008045Y-101524000D01*
X86219955Y-101524000D01*
X85491854Y-101825589D01*
X84934589Y-102382854D01*
X84633000Y-103110955D01*
X84328000Y-103110955D01*
X84328000Y-91746606D01*
X85560803Y-90513803D01*
X85588333Y-90472601D01*
X85598000Y-90424000D01*
X85598000Y-84074000D01*
X85588333Y-84025399D01*
X85560803Y-83984197D01*
X84328000Y-82751394D01*
X84328000Y-70852955D01*
X84633000Y-70852955D01*
X84633000Y-71641045D01*
X84934589Y-72369146D01*
X85491854Y-72926411D01*
X86219955Y-73228000D01*
X87008045Y-73228000D01*
X87736146Y-72926411D01*
X88293411Y-72369146D01*
X88595000Y-71641045D01*
X88595000Y-70852955D01*
X88293411Y-70124854D01*
X87736146Y-69567589D01*
X87008045Y-69266000D01*
X86219955Y-69266000D01*
X85491854Y-69567589D01*
X84934589Y-70124854D01*
X84633000Y-70852955D01*
X84328000Y-70852955D01*
X84328000Y-70283606D01*
X86576803Y-68034803D01*
X86604333Y-67993601D01*
X86614000Y-67945000D01*
X86614000Y-51993165D01*
X89703893Y-51993165D01*
X89703893Y-69977000D01*
X89713560Y-70025601D01*
X89741090Y-70066803D01*
X89782292Y-70094333D01*
X89830893Y-70104000D01*
X135804893Y-70104000D01*
X135853494Y-70094333D01*
X135894696Y-70066803D01*
X135922226Y-70025601D01*
X135931893Y-69977000D01*
X135931893Y-66153955D01*
X138227000Y-66153955D01*
X138227000Y-66942045D01*
X138528589Y-67670146D01*
X139085854Y-68227411D01*
X139813955Y-68529000D01*
X140602045Y-68529000D01*
X141330146Y-68227411D01*
X141887411Y-67670146D01*
X142189000Y-66942045D01*
X142189000Y-66153955D01*
X141887411Y-65425854D01*
X141330146Y-64868589D01*
X140602045Y-64567000D01*
X139813955Y-64567000D01*
X139085854Y-64868589D01*
X138528589Y-65425854D01*
X138227000Y-66153955D01*
X135931893Y-66153955D01*
X135931893Y-51993165D01*
X135922226Y-51944564D01*
X135894696Y-51903362D01*
X135853494Y-51875832D01*
X135804893Y-51866165D01*
X92443265Y-51866165D01*
X92416310Y-51855000D01*
X91725750Y-51855000D01*
X91714585Y-51866165D01*
X91165415Y-51866165D01*
X91154250Y-51855000D01*
X90463690Y-51855000D01*
X90436735Y-51866165D01*
X89830893Y-51866165D01*
X89782292Y-51875832D01*
X89741090Y-51903362D01*
X89713560Y-51944564D01*
X89703893Y-51993165D01*
X86614000Y-51993165D01*
X86614000Y-49818431D01*
X87228320Y-49818431D01*
X87528372Y-50590015D01*
X88100857Y-51188041D01*
X88858619Y-51521465D01*
X89686294Y-51539525D01*
X90457878Y-51239473D01*
X90904948Y-50811497D01*
X91828361Y-49492728D01*
X91929463Y-49262955D01*
X106223000Y-49262955D01*
X106223000Y-50051045D01*
X106524589Y-50779146D01*
X107081854Y-51336411D01*
X107809955Y-51638000D01*
X108598045Y-51638000D01*
X109326146Y-51336411D01*
X109883411Y-50779146D01*
X110185000Y-50051045D01*
X110185000Y-49262955D01*
X109883411Y-48534854D01*
X109326146Y-47977589D01*
X109209941Y-47929455D01*
X134353500Y-47929455D01*
X134353500Y-48717545D01*
X134655089Y-49445646D01*
X135212354Y-50002911D01*
X135940455Y-50304500D01*
X136728545Y-50304500D01*
X137456646Y-50002911D01*
X138013911Y-49445646D01*
X138089584Y-49262955D01*
X138481000Y-49262955D01*
X138481000Y-50051045D01*
X138782589Y-50779146D01*
X139339854Y-51336411D01*
X140067955Y-51638000D01*
X140856045Y-51638000D01*
X141584146Y-51336411D01*
X142141411Y-50779146D01*
X142443000Y-50051045D01*
X142443000Y-49262955D01*
X142141411Y-48534854D01*
X141584146Y-47977589D01*
X140856045Y-47676000D01*
X140067955Y-47676000D01*
X139339854Y-47977589D01*
X138782589Y-48534854D01*
X138481000Y-49262955D01*
X138089584Y-49262955D01*
X138315500Y-48717545D01*
X138315500Y-47929455D01*
X138013911Y-47201354D01*
X137456646Y-46644089D01*
X136728545Y-46342500D01*
X135940455Y-46342500D01*
X135212354Y-46644089D01*
X134655089Y-47201354D01*
X134353500Y-47929455D01*
X109209941Y-47929455D01*
X108598045Y-47676000D01*
X107809955Y-47676000D01*
X107081854Y-47977589D01*
X106524589Y-48534854D01*
X106223000Y-49262955D01*
X91929463Y-49262955D01*
X92077620Y-48926245D01*
X92095680Y-48098569D01*
X91795628Y-47326984D01*
X91223143Y-46728958D01*
X90465381Y-46395535D01*
X89637705Y-46377475D01*
X88866122Y-46677527D01*
X88419052Y-47105503D01*
X87495639Y-48424272D01*
X87246380Y-48990756D01*
X87228320Y-49818431D01*
X86614000Y-49818431D01*
X86614000Y-46534606D01*
X87809606Y-45339000D01*
X141298394Y-45339000D01*
X142494000Y-46534606D01*
M02*
