M48
;DRILL file {KiCad (5.0.0-rc2-dev-444-g2974a2c10)} date 11/20/19 23:18:04
;FORMAT={-:-/ absolute / inch / decimal}
FMAT,2
INCH,TZ
T1C0.0130
T2C0.0394
T3C0.1260
T4C0.1339
%
G90
G05
M72
T1
X3.4Y-3.26
X3.4Y-3.61
X3.46Y-2.1
X3.46Y-2.5
X3.46Y-4.4
X3.46Y-4.8
X4.Y-2.787
X4.0992Y-2.7906
X4.1Y-4.11
X4.5Y-3.425
X5.41Y-2.1
X5.41Y-2.5
X5.5Y-4.025
X5.5Y-4.8
X5.6Y-3.71
T2
X3.6Y-4.4
X3.7Y-4.4
X3.8Y-4.4
X3.9Y-4.4
X4.Y-4.4
X4.1Y-4.4
X4.2Y-4.4
X4.3Y-4.4
X4.4Y-4.4
X4.5Y-4.4
X4.6Y-4.4
X4.7Y-4.4
X4.8Y-4.4
X4.9Y-4.4
X5.Y-4.4
X5.1Y-4.4
X5.2Y-4.4
X5.3Y-4.4
X3.6Y-2.4
X3.7Y-2.4
X3.8Y-2.4
X3.9Y-2.4
X4.Y-2.4
X4.1Y-2.4
X4.2Y-2.4
X4.3Y-2.4
X4.4Y-2.4
X4.5Y-2.4
X4.6Y-2.4
X4.7Y-2.4
X4.8Y-2.4
X4.9Y-2.4
X5.Y-2.4
X5.1Y-2.4
X5.2Y-2.4
X5.3Y-2.4
X3.6Y-2.2
X3.7Y-2.2
X3.8Y-2.2
X3.9Y-2.2
X4.Y-2.2
X4.1Y-2.2
X4.2Y-2.2
X4.3Y-2.2
X3.6Y-4.8
X3.7Y-4.8
X3.8Y-4.8
X3.9Y-4.8
X4.Y-4.8
X4.1Y-4.8
X4.2Y-4.8
X4.3Y-4.8
X4.4Y-4.8
X4.5Y-4.8
X4.6Y-4.8
X4.7Y-4.8
X4.8Y-4.8
X4.9Y-4.8
X5.Y-4.8
X5.1Y-4.8
X5.2Y-4.8
X5.3Y-4.8
X3.6Y-4.2
X3.7Y-4.2
X3.8Y-4.2
X3.9Y-4.2
X4.Y-4.2
X4.1Y-4.2
X4.2Y-4.2
X4.3Y-4.2
X4.4Y-4.2
X4.5Y-4.2
X4.6Y-4.2
X4.7Y-4.2
X4.8Y-4.2
X4.9Y-4.2
X5.Y-4.2
X5.1Y-4.2
X5.2Y-4.2
X5.3Y-4.2
X4.1437Y-3.94
X4.2437Y-3.94
X4.3437Y-3.94
X4.4437Y-3.94
X4.5437Y-2.94
X4.5437Y-3.94
X4.6437Y-2.94
X4.6437Y-3.94
X4.7437Y-2.94
X4.7437Y-3.94
X4.8437Y-2.94
X4.8437Y-3.94
X4.9437Y-2.94
X4.9437Y-3.94
X5.0437Y-2.94
X5.0437Y-3.94
X5.1437Y-2.94
X5.1437Y-3.94
X5.2437Y-2.94
X5.2437Y-3.94
X5.3437Y-2.94
X5.3437Y-3.94
X5.4437Y-2.94
X5.4437Y-3.94
X5.5437Y-2.94
X5.5437Y-3.94
X5.6437Y-2.94
X5.6437Y-3.94
X3.6Y-2.7
X3.7Y-2.7
X3.8Y-2.7
X3.9Y-2.7
X4.Y-2.7
X4.1Y-2.7
X4.2Y-2.7
X4.3Y-2.7
X4.4Y-2.7
X4.5Y-2.7
X4.6Y-2.7
X4.7Y-2.7
X4.8Y-2.7
X4.9Y-2.7
X5.Y-2.7
X5.1Y-2.7
X5.2Y-2.7
X5.3Y-2.7
X3.6Y-4.5
X3.7Y-4.5
X3.8Y-4.5
X3.9Y-4.5
X4.Y-4.5
X4.1Y-4.5
X4.2Y-4.5
X4.3Y-4.5
X4.4Y-4.5
X4.5Y-4.5
X4.6Y-4.5
X4.7Y-4.5
X4.8Y-4.5
X4.9Y-4.5
X5.Y-4.5
X5.1Y-4.5
X5.2Y-4.5
X5.3Y-4.5
X3.6Y-2.3
X3.7Y-2.3
X3.8Y-2.3
X3.9Y-2.3
X4.Y-2.3
X4.1Y-2.3
X4.2Y-2.3
X4.3Y-2.3
X3.6Y-2.1
X3.7Y-2.1
X3.8Y-2.1
X3.9Y-2.1
X4.Y-2.1
X4.1Y-2.1
X4.2Y-2.1
X4.3Y-2.1
X3.644Y-3.04
X3.744Y-3.04
X3.844Y-3.04
X3.944Y-3.04
X4.044Y-3.04
X4.044Y-3.84
X4.144Y-3.04
X4.144Y-3.84
X4.244Y-3.04
X4.244Y-3.84
X4.344Y-3.04
X4.344Y-3.84
X4.444Y-3.04
X4.444Y-3.84
X4.544Y-3.04
X4.544Y-3.84
X4.644Y-3.04
X4.644Y-3.84
X4.744Y-3.04
X4.744Y-3.84
X4.844Y-3.04
X4.844Y-3.84
X4.944Y-3.04
X4.944Y-3.84
X5.044Y-3.04
X5.044Y-3.84
X5.144Y-3.04
X5.144Y-3.84
X3.6Y-4.6
X3.7Y-4.6
X3.8Y-4.6
X3.9Y-4.6
X4.Y-4.6
X4.1Y-4.6
X4.2Y-4.6
X4.3Y-4.6
X4.4Y-4.6
X4.5Y-4.6
X4.6Y-4.6
X4.7Y-4.6
X4.8Y-4.6
X4.9Y-4.6
X5.Y-4.6
X5.1Y-4.6
X5.2Y-4.6
X5.3Y-4.6
X3.6Y-2.5
X3.7Y-2.5
X3.8Y-2.5
X3.9Y-2.5
X4.Y-2.5
X4.1Y-2.5
X4.2Y-2.5
X4.3Y-2.5
X4.4Y-2.5
X4.5Y-2.5
X4.6Y-2.5
X4.7Y-2.5
X4.8Y-2.5
X4.9Y-2.5
X5.Y-2.5
X5.1Y-2.5
X5.2Y-2.5
X5.3Y-2.5
X3.6Y-4.7
X3.7Y-4.7
X3.8Y-4.7
X3.9Y-4.7
X4.Y-4.7
X4.1Y-4.7
X4.2Y-4.7
X4.3Y-4.7
X4.4Y-4.7
X4.5Y-4.7
X4.6Y-4.7
X4.7Y-4.7
X4.8Y-4.7
X4.9Y-4.7
X5.Y-4.7
X5.1Y-4.7
X5.2Y-4.7
X5.3Y-4.7
T3
X4.26Y-1.955
X5.3675Y-4.9775
X5.52Y-2.62
X5.53Y-1.955
X5.3675Y-1.9025
X5.53Y-4.925
X3.41Y-2.805
X3.41Y-4.075
X5.52Y-4.27
X4.26Y-4.925
T4
X3.5165Y-1.9469G85X3.5435Y-1.9081
G05
X3.5151Y-4.9373G85X3.5399Y-4.9727
G05
T0
M30
