  0
SECTION
  2
HEADER
  9
$ANGBASE
  50
0.0
  9
$ANGDIR
  70
  1
  9
$MEASUREMENT
  70
0
  0
ENDSEC
  0
SECTION
  2
TABLES
  0
TABLE
  2
LTYPE
  70
4
  0
LTYPE
  5
40F
  2
CONTINUOUS
  70
0
  3
Solid line
  72
65
  73
0
  40
0.0
  0
LTYPE
  5
410
  2
DASHDOT
 70
0
  3
Dash Dot ____ _ ____ _
 72
65
 73
4
 40
2.0
 49
1.25
 49
-0.25
 49
0.25
 49
-0.25
  0
LTYPE
  5
411
  2
DASHED
 70
0
  3
Dashed __ __ __ __ __
 72
65
 73
2
 40
0.75
 49
0.5
 49
-0.25
  0
LTYPE
  5
43B
  2
DOTTED
 70
0
  3
Dotted .  .  .  .
 72
65
 73
2
 40
0.2
 49
0.0
 49
-0.2
  0
ENDTAB
  0
TABLE
  2
STYLE
  70
4
  0
STYLE
  2
KICAD
  70
0
  40
0
  41
1
  42
1
  50
0
  71
0
  3
isocp.shx
  0
STYLE
  2
KICADB
  70
0
  40
0
  41
1
  42
1
  50
0
  71
0
  3
isocp.shx
  0
STYLE
  2
KICADI
  70
0
  40
0
  41
1
  42
1
  50
15
  71
0
  3
isocp.shx
  0
STYLE
  2
KICADBI
  70
0
  40
0
  41
1
  42
1
  50
15
  71
0
  3
isocp.shx
  0
ENDTAB
  0
TABLE
  2
LAYER
  70
30
  0
LAYER
  2
BLACK
  70
0
  62
7
  6
CONTINUOUS
  0
LAYER
  2
GRAY1
  70
0
  62
251
  6
CONTINUOUS
  0
LAYER
  2
GRAY2
  70
0
  62
8
  6
CONTINUOUS
  0
LAYER
  2
GRAY3
  70
0
  62
9
  6
CONTINUOUS
  0
LAYER
  2
WHITE
  70
0
  62
7
  6
CONTINUOUS
  0
LAYER
  2
LYELLOW
  70
0
  62
51
  6
CONTINUOUS
  0
LAYER
  2
BLUE1
  70
0
  62
178
  6
CONTINUOUS
  0
LAYER
  2
GREEN1
  70
0
  62
98
  6
CONTINUOUS
  0
LAYER
  2
CYAN1
  70
0
  62
138
  6
CONTINUOUS
  0
LAYER
  2
RED1
  70
0
  62
18
  6
CONTINUOUS
  0
LAYER
  2
MAGENTA1
  70
0
  62
228
  6
CONTINUOUS
  0
LAYER
  2
BROWN1
  70
0
  62
58
  6
CONTINUOUS
  0
LAYER
  2
BLUE2
  70
0
  62
5
  6
CONTINUOUS
  0
LAYER
  2
GREEN2
  70
0
  62
3
  6
CONTINUOUS
  0
LAYER
  2
CYAN2
  70
0
  62
4
  6
CONTINUOUS
  0
LAYER
  2
RED2
  70
0
  62
1
  6
CONTINUOUS
  0
LAYER
  2
MAGENTA2
  70
0
  62
6
  6
CONTINUOUS
  0
LAYER
  2
BROWN2
  70
0
  62
54
  6
CONTINUOUS
  0
LAYER
  2
BLUE3
  70
0
  62
171
  6
CONTINUOUS
  0
LAYER
  2
GREEN3
  70
0
  62
91
  6
CONTINUOUS
  0
LAYER
  2
CYAN3
  70
0
  62
131
  6
CONTINUOUS
  0
LAYER
  2
RED3
  70
0
  62
11
  6
CONTINUOUS
  0
LAYER
  2
MAGENTA3
  70
0
  62
221
  6
CONTINUOUS
  0
LAYER
  2
YELLOW3
  70
0
  62
2
  6
CONTINUOUS
  0
LAYER
  2
BLUE4
  70
0
  62
5
  6
CONTINUOUS
  0
LAYER
  2
GREEN4
  70
0
  62
3
  6
CONTINUOUS
  0
LAYER
  2
CYAN4
  70
0
  62
4
  6
CONTINUOUS
  0
LAYER
  2
RED4
  70
0
  62
1
  6
CONTINUOUS
  0
LAYER
  2
MAGENTA4
  70
0
  62
6
  6
CONTINUOUS
  0
LAYER
  2
YELLOW4
  70
0
  62
2
  6
CONTINUOUS
  0
ENDTAB
  0
ENDSEC
  0
SECTION
  2
ENTITIES
0
LINE
8
BLACK
6
CONTINUOUS
10
128.345
20
-133.928
11
128.895
21
-134.246
0
LINE
8
BLACK
6
CONTINUOUS
10
128.895
20
-134.246
11
129.303
21
-134.732
0
LINE
8
BLACK
6
CONTINUOUS
10
129.303
20
-134.732
11
129.52
21
-135.329
0
LINE
8
BLACK
6
CONTINUOUS
10
129.52
20
-135.329
11
129.52
21
-135.963
0
LINE
8
BLACK
6
CONTINUOUS
10
129.52
20
-135.963
11
129.303
21
-136.56
0
LINE
8
BLACK
6
CONTINUOUS
10
129.303
20
-136.56
11
128.895
21
-137.046
0
LINE
8
BLACK
6
CONTINUOUS
10
128.895
20
-137.046
11
128.345
21
-137.364
0
LINE
8
BLACK
6
CONTINUOUS
10
128.345
20
-137.364
11
127.72
21
-137.474
0
LINE
8
BLACK
6
CONTINUOUS
10
127.72
20
-137.474
11
127.095
21
-137.364
0
LINE
8
BLACK
6
CONTINUOUS
10
127.095
20
-137.364
11
126.545
21
-137.046
0
LINE
8
BLACK
6
CONTINUOUS
10
126.545
20
-137.046
11
126.137
21
-136.56
0
LINE
8
BLACK
6
CONTINUOUS
10
126.137
20
-136.56
11
125.92
21
-135.963
0
LINE
8
BLACK
6
CONTINUOUS
10
125.92
20
-135.963
11
125.92
21
-135.329
0
LINE
8
BLACK
6
CONTINUOUS
10
125.92
20
-135.329
11
126.137
21
-134.732
0
LINE
8
BLACK
6
CONTINUOUS
10
126.137
20
-134.732
11
126.545
21
-134.246
0
LINE
8
BLACK
6
CONTINUOUS
10
126.545
20
-134.246
11
127.095
21
-133.928
0
LINE
8
BLACK
6
CONTINUOUS
10
127.095
20
-133.928
11
127.72
21
-133.818
0
LINE
8
BLACK
6
CONTINUOUS
10
127.72
20
-133.818
11
128.345
21
-133.928
0
LINE
8
BLACK
6
CONTINUOUS
10
179.145
20
-116.783
11
179.695
21
-117.101
0
LINE
8
BLACK
6
CONTINUOUS
10
179.695
20
-117.101
11
180.103
21
-117.587
0
LINE
8
BLACK
6
CONTINUOUS
10
180.103
20
-117.587
11
180.32
21
-118.184
0
LINE
8
BLACK
6
CONTINUOUS
10
180.32
20
-118.184
11
180.32
21
-118.818
0
LINE
8
BLACK
6
CONTINUOUS
10
180.32
20
-118.818
11
180.103
21
-119.415
0
LINE
8
BLACK
6
CONTINUOUS
10
180.103
20
-119.415
11
179.695
21
-119.901
0
LINE
8
BLACK
6
CONTINUOUS
10
179.695
20
-119.901
11
179.145
21
-120.219
0
LINE
8
BLACK
6
CONTINUOUS
10
179.145
20
-120.219
11
178.52
21
-120.329
0
LINE
8
BLACK
6
CONTINUOUS
10
178.52
20
-120.329
11
177.895
21
-120.219
0
LINE
8
BLACK
6
CONTINUOUS
10
177.895
20
-120.219
11
177.345
21
-119.901
0
LINE
8
BLACK
6
CONTINUOUS
10
177.345
20
-119.901
11
176.937
21
-119.415
0
LINE
8
BLACK
6
CONTINUOUS
10
176.937
20
-119.415
11
176.72
21
-118.818
0
LINE
8
BLACK
6
CONTINUOUS
10
176.72
20
-118.818
11
176.72
21
-118.184
0
LINE
8
BLACK
6
CONTINUOUS
10
176.72
20
-118.184
11
176.937
21
-117.587
0
LINE
8
BLACK
6
CONTINUOUS
10
176.937
20
-117.587
11
177.345
21
-117.101
0
LINE
8
BLACK
6
CONTINUOUS
10
177.345
20
-117.101
11
177.895
21
-116.783
0
LINE
8
BLACK
6
CONTINUOUS
10
177.895
20
-116.783
11
178.52
21
-116.673
0
LINE
8
BLACK
6
CONTINUOUS
10
178.52
20
-116.673
11
179.145
21
-116.783
0
LINE
8
BLACK
6
CONTINUOUS
10
141.817
20
-112.659
11
140.293
21
-112.659
0
LINE
8
BLACK
6
CONTINUOUS
10
140.293
20
-112.659
11
140.293
21
-110.119
0
LINE
8
BLACK
6
CONTINUOUS
10
140.293
20
-110.119
11
141.817
21
-110.119
0
LINE
8
BLACK
6
CONTINUOUS
10
141.817
20
-110.119
11
141.817
21
-112.659
0
LINE
8
BLACK
6
CONTINUOUS
10
154.517
20
-112.659
11
152.993
21
-112.659
0
LINE
8
BLACK
6
CONTINUOUS
10
152.993
20
-112.659
11
152.993
21
-109.611
0
LINE
8
BLACK
6
CONTINUOUS
10
152.993
20
-109.611
11
154.517
21
-109.611
0
LINE
8
BLACK
6
CONTINUOUS
10
154.517
20
-109.611
11
154.517
21
-112.659
0
LINE
8
BLACK
6
CONTINUOUS
10
157.057
20
-112.659
11
155.533
21
-112.659
0
LINE
8
BLACK
6
CONTINUOUS
10
155.533
20
-112.659
11
155.533
21
-109.611
0
LINE
8
BLACK
6
CONTINUOUS
10
155.533
20
-109.611
11
157.057
21
-109.611
0
LINE
8
BLACK
6
CONTINUOUS
10
157.057
20
-109.611
11
157.057
21
-112.659
0
LINE
8
BLACK
6
CONTINUOUS
10
159.597
20
-112.659
11
158.073
21
-112.659
0
LINE
8
BLACK
6
CONTINUOUS
10
158.073
20
-112.659
11
158.073
21
-109.611
0
LINE
8
BLACK
6
CONTINUOUS
10
158.073
20
-109.611
11
159.597
21
-109.611
0
LINE
8
BLACK
6
CONTINUOUS
10
159.597
20
-109.611
11
159.597
21
-112.659
0
LINE
8
BLACK
6
CONTINUOUS
10
162.137
20
-112.659
11
160.613
21
-112.659
0
LINE
8
BLACK
6
CONTINUOUS
10
160.613
20
-112.659
11
160.613
21
-109.611
0
LINE
8
BLACK
6
CONTINUOUS
10
160.613
20
-109.611
11
162.137
21
-109.611
0
LINE
8
BLACK
6
CONTINUOUS
10
162.137
20
-109.611
11
162.137
21
-112.659
0
LINE
8
BLACK
6
CONTINUOUS
10
164.677
20
-112.659
11
163.153
21
-112.659
0
LINE
8
BLACK
6
CONTINUOUS
10
163.153
20
-112.659
11
163.153
21
-109.611
0
LINE
8
BLACK
6
CONTINUOUS
10
163.153
20
-109.611
11
164.677
21
-109.611
0
LINE
8
BLACK
6
CONTINUOUS
10
164.677
20
-109.611
11
164.677
21
-112.659
0
LINE
8
BLACK
6
CONTINUOUS
10
151.977
20
-112.659
11
150.453
21
-112.659
0
LINE
8
BLACK
6
CONTINUOUS
10
150.453
20
-112.659
11
150.453
21
-109.611
0
LINE
8
BLACK
6
CONTINUOUS
10
150.453
20
-109.611
11
151.977
21
-109.611
0
LINE
8
BLACK
6
CONTINUOUS
10
151.977
20
-109.611
11
151.977
21
-112.659
0
LINE
8
BLACK
6
CONTINUOUS
10
167.217
20
-112.659
11
165.693
21
-112.659
0
LINE
8
BLACK
6
CONTINUOUS
10
165.693
20
-112.659
11
165.693
21
-110.119
0
LINE
8
BLACK
6
CONTINUOUS
10
165.693
20
-110.119
11
167.217
21
-110.119
0
LINE
8
BLACK
6
CONTINUOUS
10
167.217
20
-110.119
11
167.217
21
-112.659
0
LINE
8
BLACK
6
CONTINUOUS
10
169.757
20
-112.659
11
168.233
21
-112.659
0
LINE
8
BLACK
6
CONTINUOUS
10
168.233
20
-112.659
11
168.233
21
-110.119
0
LINE
8
BLACK
6
CONTINUOUS
10
168.233
20
-110.119
11
169.757
21
-110.119
0
LINE
8
BLACK
6
CONTINUOUS
10
169.757
20
-110.119
11
169.757
21
-112.659
0
LINE
8
BLACK
6
CONTINUOUS
10
149.437
20
-112.659
11
147.913
21
-112.659
0
LINE
8
BLACK
6
CONTINUOUS
10
147.913
20
-112.659
11
147.913
21
-109.611
0
LINE
8
BLACK
6
CONTINUOUS
10
147.913
20
-109.611
11
149.437
21
-109.611
0
LINE
8
BLACK
6
CONTINUOUS
10
149.437
20
-109.611
11
149.437
21
-112.659
0
LINE
8
BLACK
6
CONTINUOUS
10
146.897
20
-112.659
11
145.373
21
-112.659
0
LINE
8
BLACK
6
CONTINUOUS
10
145.373
20
-112.659
11
145.373
21
-109.611
0
LINE
8
BLACK
6
CONTINUOUS
10
145.373
20
-109.611
11
146.897
21
-109.611
0
LINE
8
BLACK
6
CONTINUOUS
10
146.897
20
-109.611
11
146.897
21
-112.659
0
LINE
8
BLACK
6
CONTINUOUS
10
144.357
20
-112.659
11
142.833
21
-112.659
0
LINE
8
BLACK
6
CONTINUOUS
10
142.833
20
-112.659
11
142.833
21
-110.119
0
LINE
8
BLACK
6
CONTINUOUS
10
142.833
20
-110.119
11
144.357
21
-110.119
0
LINE
8
BLACK
6
CONTINUOUS
10
144.357
20
-110.119
11
144.357
21
-112.659
0
LINE
8
BLACK
6
CONTINUOUS
10
151.977
20
-108.341
11
150.453
21
-108.341
0
LINE
8
BLACK
6
CONTINUOUS
10
150.453
20
-108.341
11
150.453
21
-105.293
0
LINE
8
BLACK
6
CONTINUOUS
10
150.453
20
-105.293
11
151.977
21
-105.293
0
LINE
8
BLACK
6
CONTINUOUS
10
151.977
20
-105.293
11
151.977
21
-108.341
0
LINE
8
BLACK
6
CONTINUOUS
10
149.437
20
-108.341
11
147.913
21
-108.341
0
LINE
8
BLACK
6
CONTINUOUS
10
147.913
20
-108.341
11
147.913
21
-105.293
0
LINE
8
BLACK
6
CONTINUOUS
10
147.913
20
-105.293
11
149.437
21
-105.293
0
LINE
8
BLACK
6
CONTINUOUS
10
149.437
20
-105.293
11
149.437
21
-108.341
0
LINE
8
BLACK
6
CONTINUOUS
10
164.677
20
-108.341
11
163.153
21
-108.341
0
LINE
8
BLACK
6
CONTINUOUS
10
163.153
20
-108.341
11
163.153
21
-105.293
0
LINE
8
BLACK
6
CONTINUOUS
10
163.153
20
-105.293
11
164.677
21
-105.293
0
LINE
8
BLACK
6
CONTINUOUS
10
164.677
20
-105.293
11
164.677
21
-108.341
0
LINE
8
BLACK
6
CONTINUOUS
10
146.897
20
-108.341
11
145.373
21
-108.341
0
LINE
8
BLACK
6
CONTINUOUS
10
145.373
20
-108.341
11
145.373
21
-105.293
0
LINE
8
BLACK
6
CONTINUOUS
10
145.373
20
-105.293
11
146.897
21
-105.293
0
LINE
8
BLACK
6
CONTINUOUS
10
146.897
20
-105.293
11
146.897
21
-108.341
0
LINE
8
BLACK
6
CONTINUOUS
10
162.137
20
-108.341
11
160.613
21
-108.341
0
LINE
8
BLACK
6
CONTINUOUS
10
160.613
20
-108.341
11
160.613
21
-105.293
0
LINE
8
BLACK
6
CONTINUOUS
10
160.613
20
-105.293
11
162.137
21
-105.293
0
LINE
8
BLACK
6
CONTINUOUS
10
162.137
20
-105.293
11
162.137
21
-108.341
0
LINE
8
BLACK
6
CONTINUOUS
10
159.597
20
-108.341
11
158.073
21
-108.341
0
LINE
8
BLACK
6
CONTINUOUS
10
158.073
20
-108.341
11
158.073
21
-105.293
0
LINE
8
BLACK
6
CONTINUOUS
10
158.073
20
-105.293
11
159.597
21
-105.293
0
LINE
8
BLACK
6
CONTINUOUS
10
159.597
20
-105.293
11
159.597
21
-108.341
0
LINE
8
BLACK
6
CONTINUOUS
10
157.057
20
-108.341
11
155.533
21
-108.341
0
LINE
8
BLACK
6
CONTINUOUS
10
155.533
20
-108.341
11
155.533
21
-105.293
0
LINE
8
BLACK
6
CONTINUOUS
10
155.533
20
-105.293
11
157.057
21
-105.293
0
LINE
8
BLACK
6
CONTINUOUS
10
157.057
20
-105.293
11
157.057
21
-108.341
0
LINE
8
BLACK
6
CONTINUOUS
10
154.517
20
-108.341
11
152.993
21
-108.341
0
LINE
8
BLACK
6
CONTINUOUS
10
152.993
20
-108.341
11
152.993
21
-105.293
0
LINE
8
BLACK
6
CONTINUOUS
10
152.993
20
-105.293
11
154.517
21
-105.293
0
LINE
8
BLACK
6
CONTINUOUS
10
154.517
20
-105.293
11
154.517
21
-108.341
0
LINE
8
BLACK
6
CONTINUOUS
10
144.357
20
-107.833
11
142.833
21
-107.833
0
LINE
8
BLACK
6
CONTINUOUS
10
142.833
20
-107.833
11
142.833
21
-105.293
0
LINE
8
BLACK
6
CONTINUOUS
10
142.833
20
-105.293
11
144.357
21
-105.293
0
LINE
8
BLACK
6
CONTINUOUS
10
144.357
20
-105.293
11
144.357
21
-107.833
0
LINE
8
BLACK
6
CONTINUOUS
10
141.817
20
-107.833
11
140.293
21
-107.833
0
LINE
8
BLACK
6
CONTINUOUS
10
140.293
20
-107.833
11
140.293
21
-105.293
0
LINE
8
BLACK
6
CONTINUOUS
10
140.293
20
-105.293
11
141.817
21
-105.293
0
LINE
8
BLACK
6
CONTINUOUS
10
141.817
20
-105.293
11
141.817
21
-107.833
0
LINE
8
BLACK
6
CONTINUOUS
10
167.217
20
-107.833
11
165.693
21
-107.833
0
LINE
8
BLACK
6
CONTINUOUS
10
165.693
20
-107.833
11
165.693
21
-105.293
0
LINE
8
BLACK
6
CONTINUOUS
10
165.693
20
-105.293
11
167.217
21
-105.293
0
LINE
8
BLACK
6
CONTINUOUS
10
167.217
20
-105.293
11
167.217
21
-107.833
0
LINE
8
BLACK
6
CONTINUOUS
10
169.757
20
-107.833
11
168.233
21
-107.833
0
LINE
8
BLACK
6
CONTINUOUS
10
168.233
20
-107.833
11
168.233
21
-105.293
0
LINE
8
BLACK
6
CONTINUOUS
10
168.233
20
-105.293
11
169.757
21
-105.293
0
LINE
8
BLACK
6
CONTINUOUS
10
169.757
20
-105.293
11
169.757
21
-107.833
0
LINE
8
BLACK
6
CONTINUOUS
10
128.042
20
-102.353
11
125.629
21
-102.353
0
LINE
8
BLACK
6
CONTINUOUS
10
125.629
20
-102.353
11
125.629
21
-99.9395
0
LINE
8
BLACK
6
CONTINUOUS
10
125.629
20
-99.9395
11
128.042
21
-99.9395
0
LINE
8
BLACK
6
CONTINUOUS
10
128.042
20
-99.9395
11
128.042
21
-102.353
0
LINE
8
BLACK
6
CONTINUOUS
10
129.834
20
-100.301
11
130.009
21
-100.401
0
LINE
8
BLACK
6
CONTINUOUS
10
130.009
20
-100.401
11
130.139
21
-100.556
0
LINE
8
BLACK
6
CONTINUOUS
10
130.139
20
-100.556
11
130.207
21
-100.745
0
LINE
8
BLACK
6
CONTINUOUS
10
130.207
20
-100.745
11
130.207
21
-100.947
0
LINE
8
BLACK
6
CONTINUOUS
10
130.207
20
-100.947
11
130.139
21
-101.136
0
LINE
8
BLACK
6
CONTINUOUS
10
130.139
20
-101.136
11
130.009
21
-101.291
0
LINE
8
BLACK
6
CONTINUOUS
10
130.009
20
-101.291
11
129.834
21
-101.391
0
LINE
8
BLACK
6
CONTINUOUS
10
129.834
20
-101.391
11
129.636
21
-101.426
0
LINE
8
BLACK
6
CONTINUOUS
10
129.636
20
-101.426
11
129.437
21
-101.391
0
LINE
8
BLACK
6
CONTINUOUS
10
129.437
20
-101.391
11
129.263
21
-101.291
0
LINE
8
BLACK
6
CONTINUOUS
10
129.263
20
-101.291
11
129.133
21
-101.136
0
LINE
8
BLACK
6
CONTINUOUS
10
129.133
20
-101.136
11
129.064
21
-100.947
0
LINE
8
BLACK
6
CONTINUOUS
10
129.064
20
-100.947
11
129.064
21
-100.745
0
LINE
8
BLACK
6
CONTINUOUS
10
129.064
20
-100.745
11
129.133
21
-100.556
0
LINE
8
BLACK
6
CONTINUOUS
10
129.133
20
-100.556
11
129.263
21
-100.401
0
LINE
8
BLACK
6
CONTINUOUS
10
129.263
20
-100.401
11
129.437
21
-100.301
0
LINE
8
BLACK
6
CONTINUOUS
10
129.437
20
-100.301
11
129.636
21
-100.266
0
LINE
8
BLACK
6
CONTINUOUS
10
129.636
20
-100.266
11
129.834
21
-100.301
0
LINE
8
BLACK
6
CONTINUOUS
10
128.857
20
-99.1621
11
128.964
21
-99.2238
0
LINE
8
BLACK
6
CONTINUOUS
10
128.964
20
-99.2238
11
129.044
21
-99.3183
0
LINE
8
BLACK
6
CONTINUOUS
10
129.044
20
-99.3183
11
129.086
21
-99.4343
0
LINE
8
BLACK
6
CONTINUOUS
10
129.086
20
-99.4343
11
129.086
21
-99.5577
0
LINE
8
BLACK
6
CONTINUOUS
10
129.086
20
-99.5577
11
129.044
21
-99.6737
0
LINE
8
BLACK
6
CONTINUOUS
10
129.044
20
-99.6737
11
128.964
21
-99.7683
0
LINE
8
BLACK
6
CONTINUOUS
10
128.964
20
-99.7683
11
128.857
21
-99.83
0
LINE
8
BLACK
6
CONTINUOUS
10
128.857
20
-99.83
11
128.736
21
-99.8514
0
LINE
8
BLACK
6
CONTINUOUS
10
128.736
20
-99.8514
11
128.614
21
-99.83
0
LINE
8
BLACK
6
CONTINUOUS
10
128.614
20
-99.83
11
128.507
21
-99.7683
0
LINE
8
BLACK
6
CONTINUOUS
10
128.507
20
-99.7683
11
128.428
21
-99.6737
0
LINE
8
BLACK
6
CONTINUOUS
10
128.428
20
-99.6737
11
128.386
21
-99.5577
0
LINE
8
BLACK
6
CONTINUOUS
10
128.386
20
-99.5577
11
128.386
21
-99.4343
0
LINE
8
BLACK
6
CONTINUOUS
10
128.386
20
-99.4343
11
128.428
21
-99.3183
0
LINE
8
BLACK
6
CONTINUOUS
10
128.428
20
-99.3183
11
128.507
21
-99.2238
0
LINE
8
BLACK
6
CONTINUOUS
10
128.507
20
-99.2238
11
128.614
21
-99.1621
0
LINE
8
BLACK
6
CONTINUOUS
10
128.614
20
-99.1621
11
128.736
21
-99.1406
0
LINE
8
BLACK
6
CONTINUOUS
10
128.736
20
-99.1406
11
128.857
21
-99.1621
0
LINE
8
BLACK
6
CONTINUOUS
10
130.186
20
-99.046
11
128.836
21
-99.046
0
LINE
8
BLACK
6
CONTINUOUS
10
128.836
20
-99.046
11
128.836
21
-98.646
0
LINE
8
BLACK
6
CONTINUOUS
10
128.836
20
-98.646
11
130.186
21
-98.646
0
LINE
8
BLACK
6
CONTINUOUS
10
130.186
20
-98.646
11
130.186
21
-99.046
0
LINE
8
BLACK
6
CONTINUOUS
10
127.736
20
-98.796
11
125.736
21
-98.796
0
LINE
8
BLACK
6
CONTINUOUS
10
125.736
20
-98.796
11
125.736
21
-97.796
0
LINE
8
BLACK
6
CONTINUOUS
10
125.736
20
-97.796
11
127.736
21
-97.796
0
LINE
8
BLACK
6
CONTINUOUS
10
127.736
20
-97.796
11
127.736
21
-98.796
0
LINE
8
BLACK
6
CONTINUOUS
10
130.186
20
-98.396
11
128.836
21
-98.396
0
LINE
8
BLACK
6
CONTINUOUS
10
128.836
20
-98.396
11
128.836
21
-97.996
0
LINE
8
BLACK
6
CONTINUOUS
10
128.836
20
-97.996
11
130.186
21
-97.996
0
LINE
8
BLACK
6
CONTINUOUS
10
130.186
20
-97.996
11
130.186
21
-98.396
0
LINE
8
BLACK
6
CONTINUOUS
10
130.186
20
-97.746
11
128.836
21
-97.746
0
LINE
8
BLACK
6
CONTINUOUS
10
128.836
20
-97.746
11
128.836
21
-97.346
0
LINE
8
BLACK
6
CONTINUOUS
10
128.836
20
-97.346
11
130.186
21
-97.346
0
LINE
8
BLACK
6
CONTINUOUS
10
130.186
20
-97.346
11
130.186
21
-97.746
0
LINE
8
BLACK
6
CONTINUOUS
10
127.736
20
-97.296
11
125.736
21
-97.296
0
LINE
8
BLACK
6
CONTINUOUS
10
125.736
20
-97.296
11
125.736
21
-96.296
0
LINE
8
BLACK
6
CONTINUOUS
10
125.736
20
-96.296
11
127.736
21
-96.296
0
LINE
8
BLACK
6
CONTINUOUS
10
127.736
20
-96.296
11
127.736
21
-97.296
0
LINE
8
BLACK
6
CONTINUOUS
10
130.186
20
-97.096
11
128.836
21
-97.096
0
LINE
8
BLACK
6
CONTINUOUS
10
128.836
20
-97.096
11
128.836
21
-96.696
0
LINE
8
BLACK
6
CONTINUOUS
10
128.836
20
-96.696
11
130.186
21
-96.696
0
LINE
8
BLACK
6
CONTINUOUS
10
130.186
20
-96.696
11
130.186
21
-97.096
0
LINE
8
BLACK
6
CONTINUOUS
10
130.186
20
-96.446
11
128.836
21
-96.446
0
LINE
8
BLACK
6
CONTINUOUS
10
128.836
20
-96.446
11
128.836
21
-96.046
0
LINE
8
BLACK
6
CONTINUOUS
10
128.836
20
-96.046
11
130.186
21
-96.046
0
LINE
8
BLACK
6
CONTINUOUS
10
130.186
20
-96.046
11
130.186
21
-96.446
0
LINE
8
BLACK
6
CONTINUOUS
10
128.857
20
-95.2621
11
128.964
21
-95.3238
0
LINE
8
BLACK
6
CONTINUOUS
10
128.964
20
-95.3238
11
129.044
21
-95.4183
0
LINE
8
BLACK
6
CONTINUOUS
10
129.044
20
-95.4183
11
129.086
21
-95.5343
0
LINE
8
BLACK
6
CONTINUOUS
10
129.086
20
-95.5343
11
129.086
21
-95.6577
0
LINE
8
BLACK
6
CONTINUOUS
10
129.086
20
-95.6577
11
129.044
21
-95.7737
0
LINE
8
BLACK
6
CONTINUOUS
10
129.044
20
-95.7737
11
128.964
21
-95.8683
0
LINE
8
BLACK
6
CONTINUOUS
10
128.964
20
-95.8683
11
128.857
21
-95.93
0
LINE
8
BLACK
6
CONTINUOUS
10
128.857
20
-95.93
11
128.736
21
-95.9514
0
LINE
8
BLACK
6
CONTINUOUS
10
128.736
20
-95.9514
11
128.614
21
-95.93
0
LINE
8
BLACK
6
CONTINUOUS
10
128.614
20
-95.93
11
128.507
21
-95.8683
0
LINE
8
BLACK
6
CONTINUOUS
10
128.507
20
-95.8683
11
128.428
21
-95.7737
0
LINE
8
BLACK
6
CONTINUOUS
10
128.428
20
-95.7737
11
128.386
21
-95.6577
0
LINE
8
BLACK
6
CONTINUOUS
10
128.386
20
-95.6577
11
128.386
21
-95.5343
0
LINE
8
BLACK
6
CONTINUOUS
10
128.386
20
-95.5343
11
128.428
21
-95.4183
0
LINE
8
BLACK
6
CONTINUOUS
10
128.428
20
-95.4183
11
128.507
21
-95.3238
0
LINE
8
BLACK
6
CONTINUOUS
10
128.507
20
-95.3238
11
128.614
21
-95.2621
0
LINE
8
BLACK
6
CONTINUOUS
10
128.614
20
-95.2621
11
128.736
21
-95.2406
0
LINE
8
BLACK
6
CONTINUOUS
10
128.736
20
-95.2406
11
128.857
21
-95.2621
0
LINE
8
BLACK
6
CONTINUOUS
10
128.042
20
-95.1525
11
125.629
21
-95.1525
0
LINE
8
BLACK
6
CONTINUOUS
10
125.629
20
-95.1525
11
125.629
21
-92.7395
0
LINE
8
BLACK
6
CONTINUOUS
10
125.629
20
-92.7395
11
128.042
21
-92.7395
0
LINE
8
BLACK
6
CONTINUOUS
10
128.042
20
-92.7395
11
128.042
21
-95.1525
0
LINE
8
BLACK
6
CONTINUOUS
10
129.834
20
-93.7007
11
130.009
21
-93.8015
0
LINE
8
BLACK
6
CONTINUOUS
10
130.009
20
-93.8015
11
130.139
21
-93.9559
0
LINE
8
BLACK
6
CONTINUOUS
10
130.139
20
-93.9559
11
130.207
21
-94.1453
0
LINE
8
BLACK
6
CONTINUOUS
10
130.207
20
-94.1453
11
130.207
21
-94.3468
0
LINE
8
BLACK
6
CONTINUOUS
10
130.207
20
-94.3468
11
130.139
21
-94.5362
0
LINE
8
BLACK
6
CONTINUOUS
10
130.139
20
-94.5362
11
130.009
21
-94.6906
0
LINE
8
BLACK
6
CONTINUOUS
10
130.009
20
-94.6906
11
129.834
21
-94.7914
0
LINE
8
BLACK
6
CONTINUOUS
10
129.834
20
-94.7914
11
129.636
21
-94.8264
0
LINE
8
BLACK
6
CONTINUOUS
10
129.636
20
-94.8264
11
129.437
21
-94.7914
0
LINE
8
BLACK
6
CONTINUOUS
10
129.437
20
-94.7914
11
129.263
21
-94.6906
0
LINE
8
BLACK
6
CONTINUOUS
10
129.263
20
-94.6906
11
129.133
21
-94.5362
0
LINE
8
BLACK
6
CONTINUOUS
10
129.133
20
-94.5362
11
129.064
21
-94.3468
0
LINE
8
BLACK
6
CONTINUOUS
10
129.064
20
-94.3468
11
129.064
21
-94.1453
0
LINE
8
BLACK
6
CONTINUOUS
10
129.064
20
-94.1453
11
129.133
21
-93.9559
0
LINE
8
BLACK
6
CONTINUOUS
10
129.133
20
-93.9559
11
129.263
21
-93.8015
0
LINE
8
BLACK
6
CONTINUOUS
10
129.263
20
-93.8015
11
129.437
21
-93.7007
0
LINE
8
BLACK
6
CONTINUOUS
10
129.437
20
-93.7007
11
129.636
21
-93.6657
0
LINE
8
BLACK
6
CONTINUOUS
10
129.636
20
-93.6657
11
129.834
21
-93.7007
0
LINE
8
BLACK
6
CONTINUOUS
10
154.517
20
-89.799
11
152.993
21
-89.799
0
LINE
8
BLACK
6
CONTINUOUS
10
152.993
20
-89.799
11
152.993
21
-86.751
0
LINE
8
BLACK
6
CONTINUOUS
10
152.993
20
-86.751
11
154.517
21
-86.751
0
LINE
8
BLACK
6
CONTINUOUS
10
154.517
20
-86.751
11
154.517
21
-89.799
0
LINE
8
BLACK
6
CONTINUOUS
10
139.277
20
-89.799
11
137.753
21
-89.799
0
LINE
8
BLACK
6
CONTINUOUS
10
137.753
20
-89.799
11
137.753
21
-86.751
0
LINE
8
BLACK
6
CONTINUOUS
10
137.753
20
-86.751
11
139.277
21
-86.751
0
LINE
8
BLACK
6
CONTINUOUS
10
139.277
20
-86.751
11
139.277
21
-89.799
0
LINE
8
BLACK
6
CONTINUOUS
10
141.817
20
-89.799
11
140.293
21
-89.799
0
LINE
8
BLACK
6
CONTINUOUS
10
140.293
20
-89.799
11
140.293
21
-86.751
0
LINE
8
BLACK
6
CONTINUOUS
10
140.293
20
-86.751
11
141.817
21
-86.751
0
LINE
8
BLACK
6
CONTINUOUS
10
141.817
20
-86.751
11
141.817
21
-89.799
0
LINE
8
BLACK
6
CONTINUOUS
10
144.357
20
-89.799
11
142.833
21
-89.799
0
LINE
8
BLACK
6
CONTINUOUS
10
142.833
20
-89.799
11
142.833
21
-86.751
0
LINE
8
BLACK
6
CONTINUOUS
10
142.833
20
-86.751
11
144.357
21
-86.751
0
LINE
8
BLACK
6
CONTINUOUS
10
144.357
20
-86.751
11
144.357
21
-89.799
0
LINE
8
BLACK
6
CONTINUOUS
10
169.757
20
-89.799
11
168.233
21
-89.799
0
LINE
8
BLACK
6
CONTINUOUS
10
168.233
20
-89.799
11
168.233
21
-87.259
0
LINE
8
BLACK
6
CONTINUOUS
10
168.233
20
-87.259
11
169.757
21
-87.259
0
LINE
8
BLACK
6
CONTINUOUS
10
169.757
20
-87.259
11
169.757
21
-89.799
0
LINE
8
BLACK
6
CONTINUOUS
10
146.897
20
-89.799
11
145.373
21
-89.799
0
LINE
8
BLACK
6
CONTINUOUS
10
145.373
20
-89.799
11
145.373
21
-86.751
0
LINE
8
BLACK
6
CONTINUOUS
10
145.373
20
-86.751
11
146.897
21
-86.751
0
LINE
8
BLACK
6
CONTINUOUS
10
146.897
20
-86.751
11
146.897
21
-89.799
0
LINE
8
BLACK
6
CONTINUOUS
10
149.437
20
-89.799
11
147.913
21
-89.799
0
LINE
8
BLACK
6
CONTINUOUS
10
147.913
20
-89.799
11
147.913
21
-86.751
0
LINE
8
BLACK
6
CONTINUOUS
10
147.913
20
-86.751
11
149.437
21
-86.751
0
LINE
8
BLACK
6
CONTINUOUS
10
149.437
20
-86.751
11
149.437
21
-89.799
0
LINE
8
BLACK
6
CONTINUOUS
10
151.977
20
-89.799
11
150.453
21
-89.799
0
LINE
8
BLACK
6
CONTINUOUS
10
150.453
20
-89.799
11
150.453
21
-86.751
0
LINE
8
BLACK
6
CONTINUOUS
10
150.453
20
-86.751
11
151.977
21
-86.751
0
LINE
8
BLACK
6
CONTINUOUS
10
151.977
20
-86.751
11
151.977
21
-89.799
0
LINE
8
BLACK
6
CONTINUOUS
10
136.737
20
-89.799
11
135.213
21
-89.799
0
LINE
8
BLACK
6
CONTINUOUS
10
135.213
20
-89.799
11
135.213
21
-86.751
0
LINE
8
BLACK
6
CONTINUOUS
10
135.213
20
-86.751
11
136.737
21
-86.751
0
LINE
8
BLACK
6
CONTINUOUS
10
136.737
20
-86.751
11
136.737
21
-89.799
0
LINE
8
BLACK
6
CONTINUOUS
10
157.057
20
-89.799
11
155.533
21
-89.799
0
LINE
8
BLACK
6
CONTINUOUS
10
155.533
20
-89.799
11
155.533
21
-86.751
0
LINE
8
BLACK
6
CONTINUOUS
10
155.533
20
-86.751
11
157.057
21
-86.751
0
LINE
8
BLACK
6
CONTINUOUS
10
157.057
20
-86.751
11
157.057
21
-89.799
0
LINE
8
BLACK
6
CONTINUOUS
10
159.597
20
-89.799
11
158.073
21
-89.799
0
LINE
8
BLACK
6
CONTINUOUS
10
158.073
20
-89.799
11
158.073
21
-86.751
0
LINE
8
BLACK
6
CONTINUOUS
10
158.073
20
-86.751
11
159.597
21
-86.751
0
LINE
8
BLACK
6
CONTINUOUS
10
159.597
20
-86.751
11
159.597
21
-89.799
0
LINE
8
BLACK
6
CONTINUOUS
10
134.197
20
-89.799
11
132.673
21
-89.799
0
LINE
8
BLACK
6
CONTINUOUS
10
132.673
20
-89.799
11
132.673
21
-87.259
0
LINE
8
BLACK
6
CONTINUOUS
10
132.673
20
-87.259
11
134.197
21
-87.259
0
LINE
8
BLACK
6
CONTINUOUS
10
134.197
20
-87.259
11
134.197
21
-89.799
0
LINE
8
BLACK
6
CONTINUOUS
10
162.137
20
-89.799
11
160.613
21
-89.799
0
LINE
8
BLACK
6
CONTINUOUS
10
160.613
20
-89.799
11
160.613
21
-86.751
0
LINE
8
BLACK
6
CONTINUOUS
10
160.613
20
-86.751
11
162.137
21
-86.751
0
LINE
8
BLACK
6
CONTINUOUS
10
162.137
20
-86.751
11
162.137
21
-89.799
0
LINE
8
BLACK
6
CONTINUOUS
10
164.677
20
-89.799
11
163.153
21
-89.799
0
LINE
8
BLACK
6
CONTINUOUS
10
163.153
20
-89.799
11
163.153
21
-86.751
0
LINE
8
BLACK
6
CONTINUOUS
10
163.153
20
-86.751
11
164.677
21
-86.751
0
LINE
8
BLACK
6
CONTINUOUS
10
164.677
20
-86.751
11
164.677
21
-89.799
0
LINE
8
BLACK
6
CONTINUOUS
10
167.217
20
-89.799
11
165.693
21
-89.799
0
LINE
8
BLACK
6
CONTINUOUS
10
165.693
20
-89.799
11
165.693
21
-87.259
0
LINE
8
BLACK
6
CONTINUOUS
10
165.693
20
-87.259
11
167.217
21
-87.259
0
LINE
8
BLACK
6
CONTINUOUS
10
167.217
20
-87.259
11
167.217
21
-89.799
0
LINE
8
BLACK
6
CONTINUOUS
10
131.657
20
-89.799
11
130.133
21
-89.799
0
LINE
8
BLACK
6
CONTINUOUS
10
130.133
20
-89.799
11
130.133
21
-87.259
0
LINE
8
BLACK
6
CONTINUOUS
10
130.133
20
-87.259
11
131.657
21
-87.259
0
LINE
8
BLACK
6
CONTINUOUS
10
131.657
20
-87.259
11
131.657
21
-89.799
0
LINE
8
BLACK
6
CONTINUOUS
10
146.897
20
-85.481
11
145.373
21
-85.481
0
LINE
8
BLACK
6
CONTINUOUS
10
145.373
20
-85.481
11
145.373
21
-82.433
0
LINE
8
BLACK
6
CONTINUOUS
10
145.373
20
-82.433
11
146.897
21
-82.433
0
LINE
8
BLACK
6
CONTINUOUS
10
146.897
20
-82.433
11
146.897
21
-85.481
0
LINE
8
BLACK
6
CONTINUOUS
10
139.277
20
-85.481
11
137.753
21
-85.481
0
LINE
8
BLACK
6
CONTINUOUS
10
137.753
20
-85.481
11
137.753
21
-82.433
0
LINE
8
BLACK
6
CONTINUOUS
10
137.753
20
-82.433
11
139.277
21
-82.433
0
LINE
8
BLACK
6
CONTINUOUS
10
139.277
20
-82.433
11
139.277
21
-85.481
0
LINE
8
BLACK
6
CONTINUOUS
10
136.737
20
-85.481
11
135.213
21
-85.481
0
LINE
8
BLACK
6
CONTINUOUS
10
135.213
20
-85.481
11
135.213
21
-82.433
0
LINE
8
BLACK
6
CONTINUOUS
10
135.213
20
-82.433
11
136.737
21
-82.433
0
LINE
8
BLACK
6
CONTINUOUS
10
136.737
20
-82.433
11
136.737
21
-85.481
0
LINE
8
BLACK
6
CONTINUOUS
10
141.817
20
-85.481
11
140.293
21
-85.481
0
LINE
8
BLACK
6
CONTINUOUS
10
140.293
20
-85.481
11
140.293
21
-82.433
0
LINE
8
BLACK
6
CONTINUOUS
10
140.293
20
-82.433
11
141.817
21
-82.433
0
LINE
8
BLACK
6
CONTINUOUS
10
141.817
20
-82.433
11
141.817
21
-85.481
0
LINE
8
BLACK
6
CONTINUOUS
10
144.357
20
-85.481
11
142.833
21
-85.481
0
LINE
8
BLACK
6
CONTINUOUS
10
142.833
20
-85.481
11
142.833
21
-82.433
0
LINE
8
BLACK
6
CONTINUOUS
10
142.833
20
-82.433
11
144.357
21
-82.433
0
LINE
8
BLACK
6
CONTINUOUS
10
144.357
20
-82.433
11
144.357
21
-85.481
0
LINE
8
BLACK
6
CONTINUOUS
10
149.437
20
-85.481
11
147.913
21
-85.481
0
LINE
8
BLACK
6
CONTINUOUS
10
147.913
20
-85.481
11
147.913
21
-82.433
0
LINE
8
BLACK
6
CONTINUOUS
10
147.913
20
-82.433
11
149.437
21
-82.433
0
LINE
8
BLACK
6
CONTINUOUS
10
149.437
20
-82.433
11
149.437
21
-85.481
0
LINE
8
BLACK
6
CONTINUOUS
10
151.977
20
-85.481
11
150.453
21
-85.481
0
LINE
8
BLACK
6
CONTINUOUS
10
150.453
20
-85.481
11
150.453
21
-82.433
0
LINE
8
BLACK
6
CONTINUOUS
10
150.453
20
-82.433
11
151.977
21
-82.433
0
LINE
8
BLACK
6
CONTINUOUS
10
151.977
20
-82.433
11
151.977
21
-85.481
0
LINE
8
BLACK
6
CONTINUOUS
10
154.517
20
-85.481
11
152.993
21
-85.481
0
LINE
8
BLACK
6
CONTINUOUS
10
152.993
20
-85.481
11
152.993
21
-82.433
0
LINE
8
BLACK
6
CONTINUOUS
10
152.993
20
-82.433
11
154.517
21
-82.433
0
LINE
8
BLACK
6
CONTINUOUS
10
154.517
20
-82.433
11
154.517
21
-85.481
0
LINE
8
BLACK
6
CONTINUOUS
10
157.057
20
-85.481
11
155.533
21
-85.481
0
LINE
8
BLACK
6
CONTINUOUS
10
155.533
20
-85.481
11
155.533
21
-82.433
0
LINE
8
BLACK
6
CONTINUOUS
10
155.533
20
-82.433
11
157.057
21
-82.433
0
LINE
8
BLACK
6
CONTINUOUS
10
157.057
20
-82.433
11
157.057
21
-85.481
0
LINE
8
BLACK
6
CONTINUOUS
10
159.597
20
-85.481
11
158.073
21
-85.481
0
LINE
8
BLACK
6
CONTINUOUS
10
158.073
20
-85.481
11
158.073
21
-82.433
0
LINE
8
BLACK
6
CONTINUOUS
10
158.073
20
-82.433
11
159.597
21
-82.433
0
LINE
8
BLACK
6
CONTINUOUS
10
159.597
20
-82.433
11
159.597
21
-85.481
0
LINE
8
BLACK
6
CONTINUOUS
10
162.137
20
-85.481
11
160.613
21
-85.481
0
LINE
8
BLACK
6
CONTINUOUS
10
160.613
20
-85.481
11
160.613
21
-82.433
0
LINE
8
BLACK
6
CONTINUOUS
10
160.613
20
-82.433
11
162.137
21
-82.433
0
LINE
8
BLACK
6
CONTINUOUS
10
162.137
20
-82.433
11
162.137
21
-85.481
0
LINE
8
BLACK
6
CONTINUOUS
10
164.677
20
-85.481
11
163.153
21
-85.481
0
LINE
8
BLACK
6
CONTINUOUS
10
163.153
20
-85.481
11
163.153
21
-82.433
0
LINE
8
BLACK
6
CONTINUOUS
10
163.153
20
-82.433
11
164.677
21
-82.433
0
LINE
8
BLACK
6
CONTINUOUS
10
164.677
20
-82.433
11
164.677
21
-85.481
0
LINE
8
BLACK
6
CONTINUOUS
10
134.197
20
-84.973
11
132.673
21
-84.973
0
LINE
8
BLACK
6
CONTINUOUS
10
132.673
20
-84.973
11
132.673
21
-82.433
0
LINE
8
BLACK
6
CONTINUOUS
10
132.673
20
-82.433
11
134.197
21
-82.433
0
LINE
8
BLACK
6
CONTINUOUS
10
134.197
20
-82.433
11
134.197
21
-84.973
0
LINE
8
BLACK
6
CONTINUOUS
10
167.217
20
-84.973
11
165.693
21
-84.973
0
LINE
8
BLACK
6
CONTINUOUS
10
165.693
20
-84.973
11
165.693
21
-82.433
0
LINE
8
BLACK
6
CONTINUOUS
10
165.693
20
-82.433
11
167.217
21
-82.433
0
LINE
8
BLACK
6
CONTINUOUS
10
167.217
20
-82.433
11
167.217
21
-84.973
0
LINE
8
BLACK
6
CONTINUOUS
10
131.657
20
-84.973
11
130.133
21
-84.973
0
LINE
8
BLACK
6
CONTINUOUS
10
130.133
20
-84.973
11
130.133
21
-82.433
0
LINE
8
BLACK
6
CONTINUOUS
10
130.133
20
-82.433
11
131.657
21
-82.433
0
LINE
8
BLACK
6
CONTINUOUS
10
131.657
20
-82.433
11
131.657
21
-84.973
0
LINE
8
BLACK
6
CONTINUOUS
10
169.757
20
-84.973
11
168.233
21
-84.973
0
LINE
8
BLACK
6
CONTINUOUS
10
168.233
20
-84.973
11
168.233
21
-82.433
0
LINE
8
BLACK
6
CONTINUOUS
10
168.233
20
-82.433
11
169.757
21
-82.433
0
LINE
8
BLACK
6
CONTINUOUS
10
169.757
20
-82.433
11
169.757
21
-84.973
0
LINE
8
BLACK
6
CONTINUOUS
10
179.145
20
-74.8735
11
179.695
21
-75.1909
0
LINE
8
BLACK
6
CONTINUOUS
10
179.695
20
-75.1909
11
180.103
21
-75.6772
0
LINE
8
BLACK
6
CONTINUOUS
10
180.103
20
-75.6772
11
180.32
21
-76.2736
0
LINE
8
BLACK
6
CONTINUOUS
10
180.32
20
-76.2736
11
180.32
21
-76.9084
0
LINE
8
BLACK
6
CONTINUOUS
10
180.32
20
-76.9084
11
180.103
21
-77.5049
0
LINE
8
BLACK
6
CONTINUOUS
10
180.103
20
-77.5049
11
179.695
21
-77.9912
0
LINE
8
BLACK
6
CONTINUOUS
10
179.695
20
-77.9912
11
179.145
21
-78.3086
0
LINE
8
BLACK
6
CONTINUOUS
10
179.145
20
-78.3086
11
178.52
21
-78.4188
0
LINE
8
BLACK
6
CONTINUOUS
10
178.52
20
-78.4188
11
177.895
21
-78.3086
0
LINE
8
BLACK
6
CONTINUOUS
10
177.895
20
-78.3086
11
177.345
21
-77.9912
0
LINE
8
BLACK
6
CONTINUOUS
10
177.345
20
-77.9912
11
176.937
21
-77.5049
0
LINE
8
BLACK
6
CONTINUOUS
10
176.937
20
-77.5049
11
176.72
21
-76.9084
0
LINE
8
BLACK
6
CONTINUOUS
10
176.72
20
-76.9084
11
176.72
21
-76.2736
0
LINE
8
BLACK
6
CONTINUOUS
10
176.72
20
-76.2736
11
176.937
21
-75.6772
0
LINE
8
BLACK
6
CONTINUOUS
10
176.937
20
-75.6772
11
177.345
21
-75.1909
0
LINE
8
BLACK
6
CONTINUOUS
10
177.345
20
-75.1909
11
177.895
21
-74.8735
0
LINE
8
BLACK
6
CONTINUOUS
10
177.895
20
-74.8735
11
178.52
21
-74.7633
0
LINE
8
BLACK
6
CONTINUOUS
10
178.52
20
-74.7633
11
179.145
21
-74.8735
0
LINE
8
BLACK
6
CONTINUOUS
10
128.345
20
-57.7285
11
128.895
21
-58.0459
0
LINE
8
BLACK
6
CONTINUOUS
10
128.895
20
-58.0459
11
129.303
21
-58.5322
0
LINE
8
BLACK
6
CONTINUOUS
10
129.303
20
-58.5322
11
129.52
21
-59.1286
0
LINE
8
BLACK
6
CONTINUOUS
10
129.52
20
-59.1286
11
129.52
21
-59.7634
0
LINE
8
BLACK
6
CONTINUOUS
10
129.52
20
-59.7634
11
129.303
21
-60.3599
0
LINE
8
BLACK
6
CONTINUOUS
10
129.303
20
-60.3599
11
128.895
21
-60.8462
0
LINE
8
BLACK
6
CONTINUOUS
10
128.895
20
-60.8462
11
128.345
21
-61.1636
0
LINE
8
BLACK
6
CONTINUOUS
10
128.345
20
-61.1636
11
127.72
21
-61.2738
0
LINE
8
BLACK
6
CONTINUOUS
10
127.72
20
-61.2738
11
127.095
21
-61.1636
0
LINE
8
BLACK
6
CONTINUOUS
10
127.095
20
-61.1636
11
126.545
21
-60.8462
0
LINE
8
BLACK
6
CONTINUOUS
10
126.545
20
-60.8462
11
126.137
21
-60.3599
0
LINE
8
BLACK
6
CONTINUOUS
10
126.137
20
-60.3599
11
125.92
21
-59.7634
0
LINE
8
BLACK
6
CONTINUOUS
10
125.92
20
-59.7634
11
125.92
21
-59.1286
0
LINE
8
BLACK
6
CONTINUOUS
10
125.92
20
-59.1286
11
126.137
21
-58.5322
0
LINE
8
BLACK
6
CONTINUOUS
10
126.137
20
-58.5322
11
126.545
21
-58.0459
0
LINE
8
BLACK
6
CONTINUOUS
10
126.545
20
-58.0459
11
127.095
21
-57.7285
0
LINE
8
BLACK
6
CONTINUOUS
10
127.095
20
-57.7285
11
127.72
21
-57.6183
0
LINE
8
BLACK
6
CONTINUOUS
10
127.72
20
-57.6183
11
128.345
21
-57.7285
  0
ENDSEC
  0
EOF
