  0
SECTION
  2
HEADER
  9
$ANGBASE
  50
0.0
  9
$ANGDIR
  70
  1
  9
$MEASUREMENT
  70
0
  0
ENDSEC
  0
SECTION
  2
TABLES
  0
TABLE
  2
LTYPE
  70
4
  0
LTYPE
  5
40F
  2
CONTINUOUS
  70
0
  3
Solid line
  72
65
  73
0
  40
0.0
  0
LTYPE
  5
410
  2
DASHDOT
 70
0
  3
Dash Dot ____ _ ____ _
 72
65
 73
4
 40
2.0
 49
1.25
 49
-0.25
 49
0.25
 49
-0.25
  0
LTYPE
  5
411
  2
DASHED
 70
0
  3
Dashed __ __ __ __ __
 72
65
 73
2
 40
0.75
 49
0.5
 49
-0.25
  0
LTYPE
  5
43B
  2
DOTTED
 70
0
  3
Dotted .  .  .  .
 72
65
 73
2
 40
0.2
 49
0.0
 49
-0.2
  0
ENDTAB
  0
TABLE
  2
STYLE
  70
4
  0
STYLE
  2
KICAD
  70
0
  40
0
  41
1
  42
1
  50
0
  71
0
  3
isocp.shx
  0
STYLE
  2
KICADB
  70
0
  40
0
  41
1
  42
1
  50
0
  71
0
  3
isocp.shx
  0
STYLE
  2
KICADI
  70
0
  40
0
  41
1
  42
1
  50
15
  71
0
  3
isocp.shx
  0
STYLE
  2
KICADBI
  70
0
  40
0
  41
1
  42
1
  50
15
  71
0
  3
isocp.shx
  0
ENDTAB
  0
TABLE
  2
LAYER
  70
30
  0
LAYER
  2
BLACK
  70
0
  62
7
  6
CONTINUOUS
  0
LAYER
  2
GRAY1
  70
0
  62
251
  6
CONTINUOUS
  0
LAYER
  2
GRAY2
  70
0
  62
8
  6
CONTINUOUS
  0
LAYER
  2
GRAY3
  70
0
  62
9
  6
CONTINUOUS
  0
LAYER
  2
WHITE
  70
0
  62
7
  6
CONTINUOUS
  0
LAYER
  2
LYELLOW
  70
0
  62
51
  6
CONTINUOUS
  0
LAYER
  2
BLUE1
  70
0
  62
178
  6
CONTINUOUS
  0
LAYER
  2
GREEN1
  70
0
  62
98
  6
CONTINUOUS
  0
LAYER
  2
CYAN1
  70
0
  62
138
  6
CONTINUOUS
  0
LAYER
  2
RED1
  70
0
  62
18
  6
CONTINUOUS
  0
LAYER
  2
MAGENTA1
  70
0
  62
228
  6
CONTINUOUS
  0
LAYER
  2
BROWN1
  70
0
  62
58
  6
CONTINUOUS
  0
LAYER
  2
BLUE2
  70
0
  62
5
  6
CONTINUOUS
  0
LAYER
  2
GREEN2
  70
0
  62
3
  6
CONTINUOUS
  0
LAYER
  2
CYAN2
  70
0
  62
4
  6
CONTINUOUS
  0
LAYER
  2
RED2
  70
0
  62
1
  6
CONTINUOUS
  0
LAYER
  2
MAGENTA2
  70
0
  62
6
  6
CONTINUOUS
  0
LAYER
  2
BROWN2
  70
0
  62
54
  6
CONTINUOUS
  0
LAYER
  2
BLUE3
  70
0
  62
171
  6
CONTINUOUS
  0
LAYER
  2
GREEN3
  70
0
  62
91
  6
CONTINUOUS
  0
LAYER
  2
CYAN3
  70
0
  62
131
  6
CONTINUOUS
  0
LAYER
  2
RED3
  70
0
  62
11
  6
CONTINUOUS
  0
LAYER
  2
MAGENTA3
  70
0
  62
221
  6
CONTINUOUS
  0
LAYER
  2
YELLOW3
  70
0
  62
2
  6
CONTINUOUS
  0
LAYER
  2
BLUE4
  70
0
  62
5
  6
CONTINUOUS
  0
LAYER
  2
GREEN4
  70
0
  62
3
  6
CONTINUOUS
  0
LAYER
  2
CYAN4
  70
0
  62
4
  6
CONTINUOUS
  0
LAYER
  2
RED4
  70
0
  62
1
  6
CONTINUOUS
  0
LAYER
  2
MAGENTA4
  70
0
  62
6
  6
CONTINUOUS
  0
LAYER
  2
YELLOW4
  70
0
  62
2
  6
CONTINUOUS
  0
ENDTAB
  0
ENDSEC
  0
SECTION
  2
ENTITIES
0
LINE
8
BLACK
6
CONTINUOUS
10
181.461
20
-63.5277
11
181.692
21
-65.2852
0
LINE
8
BLACK
6
CONTINUOUS
10
181.692
20
-65.2852
11
181.692
21
-65.2852
0
LINE
8
BLACK
6
CONTINUOUS
10
181.692
20
-65.2852
11
181.693
21
-65.2918
0
LINE
8
BLACK
6
CONTINUOUS
10
181.693
20
-65.2918
11
181.77
21
-67.0579
0
LINE
8
BLACK
6
CONTINUOUS
10
181.77
20
-67.0579
11
181.77
21
-67.0595
0
LINE
8
BLACK
6
CONTINUOUS
10
181.77
20
-67.0595
11
181.77
21
-128.033
0
LINE
8
BLACK
6
CONTINUOUS
10
181.77
20
-128.033
11
181.77
21
-128.034
0
LINE
8
BLACK
6
CONTINUOUS
10
181.77
20
-128.034
11
181.693
21
-129.8
0
LINE
8
BLACK
6
CONTINUOUS
10
181.693
20
-129.8
11
181.692
21
-129.807
0
LINE
8
BLACK
6
CONTINUOUS
10
181.692
20
-129.807
11
181.692
21
-129.807
0
LINE
8
BLACK
6
CONTINUOUS
10
181.692
20
-129.807
11
181.461
21
-131.564
0
LINE
8
BLACK
6
CONTINUOUS
10
181.461
20
-131.564
11
181.461
21
-131.564
0
LINE
8
BLACK
6
CONTINUOUS
10
181.461
20
-131.564
11
181.459
21
-131.571
0
LINE
8
BLACK
6
CONTINUOUS
10
181.459
20
-131.571
11
181.459
21
-131.571
0
LINE
8
BLACK
6
CONTINUOUS
10
181.459
20
-131.571
11
181.076
21
-133.301
0
LINE
8
BLACK
6
CONTINUOUS
10
181.076
20
-133.301
11
181.076
21
-133.301
0
LINE
8
BLACK
6
CONTINUOUS
10
181.076
20
-133.301
11
181.074
21
-133.308
0
LINE
8
BLACK
6
CONTINUOUS
10
181.074
20
-133.308
11
180.541
21
-134.998
0
LINE
8
BLACK
6
CONTINUOUS
10
180.541
20
-134.998
11
180.539
21
-135.005
0
LINE
8
BLACK
6
CONTINUOUS
10
180.539
20
-135.005
11
179.86
21
-136.642
0
LINE
8
BLACK
6
CONTINUOUS
10
179.86
20
-136.642
11
179.858
21
-136.648
0
LINE
8
BLACK
6
CONTINUOUS
10
179.858
20
-136.648
11
179.858
21
-136.648
0
LINE
8
BLACK
6
CONTINUOUS
10
179.858
20
-136.648
11
179.039
21
-138.221
0
LINE
8
BLACK
6
CONTINUOUS
10
179.039
20
-138.221
11
179.036
21
-138.226
0
LINE
8
BLACK
6
CONTINUOUS
10
179.036
20
-138.226
11
179.036
21
-138.226
0
LINE
8
BLACK
6
CONTINUOUS
10
179.036
20
-138.226
11
178.083
21
-139.721
0
LINE
8
BLACK
6
CONTINUOUS
10
178.083
20
-139.721
11
178.083
21
-139.721
0
LINE
8
BLACK
6
CONTINUOUS
10
178.083
20
-139.721
11
178.081
21
-139.725
0
LINE
8
BLACK
6
CONTINUOUS
10
178.081
20
-139.725
11
178.08
21
-139.727
0
LINE
8
BLACK
6
CONTINUOUS
10
178.08
20
-139.727
11
178.08
21
-139.727
0
LINE
8
BLACK
6
CONTINUOUS
10
178.08
20
-139.727
11
177
21
-141.133
0
LINE
8
BLACK
6
CONTINUOUS
10
177
20
-141.133
11
176.996
21
-141.138
0
LINE
8
BLACK
6
CONTINUOUS
10
176.996
20
-141.138
11
176.996
21
-141.138
0
LINE
8
BLACK
6
CONTINUOUS
10
176.996
20
-141.138
11
175.799
21
-142.445
0
LINE
8
BLACK
6
CONTINUOUS
10
175.799
20
-142.445
11
175.794
21
-142.45
0
LINE
8
BLACK
6
CONTINUOUS
10
175.794
20
-142.45
11
174.487
21
-143.647
0
LINE
8
BLACK
6
CONTINUOUS
10
174.487
20
-143.647
11
174.487
21
-143.647
0
LINE
8
BLACK
6
CONTINUOUS
10
174.487
20
-143.647
11
174.482
21
-143.652
0
LINE
8
BLACK
6
CONTINUOUS
10
174.482
20
-143.652
11
173.076
21
-144.731
0
LINE
8
BLACK
6
CONTINUOUS
10
173.076
20
-144.731
11
173.076
21
-144.731
0
LINE
8
BLACK
6
CONTINUOUS
10
173.076
20
-144.731
11
173.072
21
-144.734
0
LINE
8
BLACK
6
CONTINUOUS
10
173.072
20
-144.734
11
173.07
21
-144.734
0
LINE
8
BLACK
6
CONTINUOUS
10
173.07
20
-144.734
11
173.07
21
-144.734
0
LINE
8
BLACK
6
CONTINUOUS
10
173.07
20
-144.734
11
171.575
21
-145.687
0
LINE
8
BLACK
6
CONTINUOUS
10
171.575
20
-145.687
11
171.575
21
-145.687
0
LINE
8
BLACK
6
CONTINUOUS
10
171.575
20
-145.687
11
171.57
21
-145.69
0
LINE
8
BLACK
6
CONTINUOUS
10
171.57
20
-145.69
11
169.997
21
-146.509
0
LINE
8
BLACK
6
CONTINUOUS
10
169.997
20
-146.509
11
169.997
21
-146.509
0
LINE
8
BLACK
6
CONTINUOUS
10
169.997
20
-146.509
11
169.991
21
-146.511
0
LINE
8
BLACK
6
CONTINUOUS
10
169.991
20
-146.511
11
168.353
21
-147.19
0
LINE
8
BLACK
6
CONTINUOUS
10
168.353
20
-147.19
11
168.353
21
-147.19
0
LINE
8
BLACK
6
CONTINUOUS
10
168.353
20
-147.19
11
168.347
21
-147.192
0
LINE
8
BLACK
6
CONTINUOUS
10
168.347
20
-147.192
11
166.657
21
-147.725
0
LINE
8
BLACK
6
CONTINUOUS
10
166.657
20
-147.725
11
166.657
21
-147.725
0
LINE
8
BLACK
6
CONTINUOUS
10
166.657
20
-147.725
11
166.655
21
-147.726
0
LINE
8
BLACK
6
CONTINUOUS
10
166.655
20
-147.726
11
166.65
21
-147.727
0
LINE
8
BLACK
6
CONTINUOUS
10
166.65
20
-147.727
11
166.65
21
-147.727
0
LINE
8
BLACK
6
CONTINUOUS
10
166.65
20
-147.727
11
164.92
21
-148.111
0
LINE
8
BLACK
6
CONTINUOUS
10
164.92
20
-148.111
11
164.92
21
-148.111
0
LINE
8
BLACK
6
CONTINUOUS
10
164.92
20
-148.111
11
164.916
21
-148.111
0
LINE
8
BLACK
6
CONTINUOUS
10
164.916
20
-148.111
11
164.913
21
-148.112
0
LINE
8
BLACK
6
CONTINUOUS
10
164.913
20
-148.112
11
164.913
21
-148.112
0
LINE
8
BLACK
6
CONTINUOUS
10
164.913
20
-148.112
11
163.156
21
-148.343
0
LINE
8
BLACK
6
CONTINUOUS
10
163.156
20
-148.343
11
163.156
21
-148.343
0
LINE
8
BLACK
6
CONTINUOUS
10
163.156
20
-148.343
11
163.149
21
-148.344
0
LINE
8
BLACK
6
CONTINUOUS
10
163.149
20
-148.344
11
161.383
21
-148.421
0
LINE
8
BLACK
6
CONTINUOUS
10
161.383
20
-148.421
11
161.381
21
-148.421
0
LINE
8
BLACK
6
CONTINUOUS
10
161.381
20
-148.421
11
134.698
21
-148.421
0
LINE
8
BLACK
6
CONTINUOUS
10
134.698
20
-148.421
11
134.696
21
-148.421
0
LINE
8
BLACK
6
CONTINUOUS
10
134.696
20
-148.421
11
133.427
21
-148.341
0
LINE
8
BLACK
6
CONTINUOUS
10
133.427
20
-148.341
11
133.417
21
-148.34
0
LINE
8
BLACK
6
CONTINUOUS
10
133.417
20
-148.34
11
133.417
21
-148.34
0
LINE
8
BLACK
6
CONTINUOUS
10
133.417
20
-148.34
11
132.164
21
-148.101
0
LINE
8
BLACK
6
CONTINUOUS
10
132.164
20
-148.101
11
132.155
21
-148.098
0
LINE
8
BLACK
6
CONTINUOUS
10
132.155
20
-148.098
11
132.155
21
-148.098
0
LINE
8
BLACK
6
CONTINUOUS
10
132.155
20
-148.098
11
130.942
21
-147.704
0
LINE
8
BLACK
6
CONTINUOUS
10
130.942
20
-147.704
11
130.942
21
-147.704
0
LINE
8
BLACK
6
CONTINUOUS
10
130.942
20
-147.704
11
130.933
21
-147.7
0
LINE
8
BLACK
6
CONTINUOUS
10
130.933
20
-147.7
11
129.778
21
-147.157
0
LINE
8
BLACK
6
CONTINUOUS
10
129.778
20
-147.157
11
129.778
21
-147.157
0
LINE
8
BLACK
6
CONTINUOUS
10
129.778
20
-147.157
11
129.775
21
-147.155
0
LINE
8
BLACK
6
CONTINUOUS
10
129.775
20
-147.155
11
129.77
21
-147.153
0
LINE
8
BLACK
6
CONTINUOUS
10
129.77
20
-147.153
11
129.77
21
-147.153
0
LINE
8
BLACK
6
CONTINUOUS
10
129.77
20
-147.153
11
128.693
21
-146.469
0
LINE
8
BLACK
6
CONTINUOUS
10
128.693
20
-146.469
11
128.685
21
-146.463
0
LINE
8
BLACK
6
CONTINUOUS
10
128.685
20
-146.463
11
128.685
21
-146.463
0
LINE
8
BLACK
6
CONTINUOUS
10
128.685
20
-146.463
11
127.702
21
-145.65
0
LINE
8
BLACK
6
CONTINUOUS
10
127.702
20
-145.65
11
127.702
21
-145.65
0
LINE
8
BLACK
6
CONTINUOUS
10
127.702
20
-145.65
11
127.695
21
-145.644
0
LINE
8
BLACK
6
CONTINUOUS
10
127.695
20
-145.644
11
126.822
21
-144.714
0
LINE
8
BLACK
6
CONTINUOUS
10
126.822
20
-144.714
11
126.822
21
-144.714
0
LINE
8
BLACK
6
CONTINUOUS
10
126.822
20
-144.714
11
126.819
21
-144.71
0
LINE
8
BLACK
6
CONTINUOUS
10
126.819
20
-144.71
11
126.816
21
-144.706
0
LINE
8
BLACK
6
CONTINUOUS
10
126.816
20
-144.706
11
126.816
21
-144.706
0
LINE
8
BLACK
6
CONTINUOUS
10
126.816
20
-144.706
11
126.066
21
-143.674
0
LINE
8
BLACK
6
CONTINUOUS
10
126.066
20
-143.674
11
126.061
21
-143.666
0
LINE
8
BLACK
6
CONTINUOUS
10
126.061
20
-143.666
11
125.446
21
-142.548
0
LINE
8
BLACK
6
CONTINUOUS
10
125.446
20
-142.548
11
125.442
21
-142.54
0
LINE
8
BLACK
6
CONTINUOUS
10
125.442
20
-142.54
11
125.442
21
-142.54
0
LINE
8
BLACK
6
CONTINUOUS
10
125.442
20
-142.54
11
124.972
21
-141.353
0
LINE
8
BLACK
6
CONTINUOUS
10
124.972
20
-141.353
11
124.972
21
-141.353
0
LINE
8
BLACK
6
CONTINUOUS
10
124.972
20
-141.353
11
124.97
21
-141.344
0
LINE
8
BLACK
6
CONTINUOUS
10
124.97
20
-141.344
11
124.652
21
-140.108
0
LINE
8
BLACK
6
CONTINUOUS
10
124.652
20
-140.108
11
124.65
21
-140.099
0
LINE
8
BLACK
6
CONTINUOUS
10
124.65
20
-140.099
11
124.491
21
-138.833
0
LINE
8
BLACK
6
CONTINUOUS
10
124.491
20
-138.833
11
124.49
21
-138.83
0
LINE
8
BLACK
6
CONTINUOUS
10
124.49
20
-138.83
11
124.49
21
-138.826
0
LINE
8
BLACK
6
CONTINUOUS
10
124.49
20
-138.826
11
124.47
21
-138.194
0
LINE
8
BLACK
6
CONTINUOUS
10
124.47
20
-138.194
11
124.47
21
-138.193
0
LINE
8
BLACK
6
CONTINUOUS
10
124.47
20
-138.193
11
124.47
21
-113.234
0
LINE
8
BLACK
6
CONTINUOUS
10
124.47
20
-113.234
11
124.469
21
-113.224
0
LINE
8
BLACK
6
CONTINUOUS
10
124.469
20
-113.224
11
124.472
21
-113.214
0
LINE
8
BLACK
6
CONTINUOUS
10
124.472
20
-113.214
11
124.473
21
-113.204
0
LINE
8
BLACK
6
CONTINUOUS
10
124.473
20
-113.204
11
124.475
21
-113.202
0
LINE
8
BLACK
6
CONTINUOUS
10
124.475
20
-113.202
11
124.476
21
-113.198
0
LINE
8
BLACK
6
CONTINUOUS
10
124.476
20
-113.198
11
124.482
21
-113.19
0
LINE
8
BLACK
6
CONTINUOUS
10
124.482
20
-113.19
11
124.487
21
-113.182
0
LINE
8
BLACK
6
CONTINUOUS
10
124.487
20
-113.182
11
124.494
21
-113.175
0
LINE
8
BLACK
6
CONTINUOUS
10
124.494
20
-113.175
11
125.867
21
-111.802
0
LINE
8
BLACK
6
CONTINUOUS
10
125.867
20
-111.802
11
125.867
21
-108.563
0
LINE
8
BLACK
6
CONTINUOUS
10
125.867
20
-108.563
11
124.494
21
-107.19
0
LINE
8
BLACK
6
CONTINUOUS
10
124.494
20
-107.19
11
124.487
21
-107.183
0
LINE
8
BLACK
6
CONTINUOUS
10
124.487
20
-107.183
11
124.482
21
-107.175
0
LINE
8
BLACK
6
CONTINUOUS
10
124.482
20
-107.175
11
124.476
21
-107.167
0
LINE
8
BLACK
6
CONTINUOUS
10
124.476
20
-107.167
11
124.475
21
-107.163
0
LINE
8
BLACK
6
CONTINUOUS
10
124.475
20
-107.163
11
124.473
21
-107.161
0
LINE
8
BLACK
6
CONTINUOUS
10
124.473
20
-107.161
11
124.472
21
-107.151
0
LINE
8
BLACK
6
CONTINUOUS
10
124.472
20
-107.151
11
124.469
21
-107.141
0
LINE
8
BLACK
6
CONTINUOUS
10
124.469
20
-107.141
11
124.47
21
-107.131
0
LINE
8
BLACK
6
CONTINUOUS
10
124.47
20
-107.131
11
124.47
21
-56.8995
0
LINE
8
BLACK
6
CONTINUOUS
10
124.47
20
-56.8995
11
124.47
21
-56.8972
0
LINE
8
BLACK
6
CONTINUOUS
10
124.47
20
-56.8972
11
124.55
21
-55.6279
0
LINE
8
BLACK
6
CONTINUOUS
10
124.55
20
-55.6279
11
124.551
21
-55.6186
0
LINE
8
BLACK
6
CONTINUOUS
10
124.551
20
-55.6186
11
124.79
21
-54.3653
0
LINE
8
BLACK
6
CONTINUOUS
10
124.79
20
-54.3653
11
124.79
21
-54.3653
0
LINE
8
BLACK
6
CONTINUOUS
10
124.79
20
-54.3653
11
124.791
21
-54.3612
0
LINE
8
BLACK
6
CONTINUOUS
10
124.791
20
-54.3612
11
124.793
21
-54.3562
0
LINE
8
BLACK
6
CONTINUOUS
10
124.793
20
-54.3562
11
124.793
21
-54.3561
0
LINE
8
BLACK
6
CONTINUOUS
10
124.793
20
-54.3561
11
125.187
21
-53.1427
0
LINE
8
BLACK
6
CONTINUOUS
10
125.187
20
-53.1427
11
125.187
21
-53.1427
0
LINE
8
BLACK
6
CONTINUOUS
10
125.187
20
-53.1427
11
125.191
21
-53.134
0
LINE
8
BLACK
6
CONTINUOUS
10
125.191
20
-53.134
11
125.734
21
-51.9795
0
LINE
8
BLACK
6
CONTINUOUS
10
125.734
20
-51.9795
11
125.734
21
-51.9795
0
LINE
8
BLACK
6
CONTINUOUS
10
125.734
20
-51.9795
11
125.738
21
-51.9712
0
LINE
8
BLACK
6
CONTINUOUS
10
125.738
20
-51.9712
11
126.422
21
-50.8939
0
LINE
8
BLACK
6
CONTINUOUS
10
126.422
20
-50.8939
11
126.428
21
-50.8863
0
LINE
8
BLACK
6
CONTINUOUS
10
126.428
20
-50.8863
11
126.428
21
-50.8863
0
LINE
8
BLACK
6
CONTINUOUS
10
126.428
20
-50.8863
11
127.241
21
-49.9032
0
LINE
8
BLACK
6
CONTINUOUS
10
127.241
20
-49.9032
11
127.247
21
-49.8964
0
LINE
8
BLACK
6
CONTINUOUS
10
127.247
20
-49.8964
11
128.177
21
-49.0229
0
LINE
8
BLACK
6
CONTINUOUS
10
128.177
20
-49.0229
11
128.185
21
-49.0169
0
LINE
8
BLACK
6
CONTINUOUS
10
128.185
20
-49.0169
11
128.185
21
-49.0169
0
LINE
8
BLACK
6
CONTINUOUS
10
128.185
20
-49.0169
11
129.217
21
-48.267
0
LINE
8
BLACK
6
CONTINUOUS
10
129.217
20
-48.267
11
129.217
21
-48.267
0
LINE
8
BLACK
6
CONTINUOUS
10
129.217
20
-48.267
11
129.223
21
-48.2633
0
LINE
8
BLACK
6
CONTINUOUS
10
129.223
20
-48.2633
11
129.225
21
-48.2619
0
LINE
8
BLACK
6
CONTINUOUS
10
129.225
20
-48.2619
11
129.225
21
-48.2619
0
LINE
8
BLACK
6
CONTINUOUS
10
129.225
20
-48.2619
11
130.343
21
-47.6473
0
LINE
8
BLACK
6
CONTINUOUS
10
130.343
20
-47.6473
11
130.343
21
-47.6473
0
LINE
8
BLACK
6
CONTINUOUS
10
130.343
20
-47.6473
11
130.346
21
-47.646
0
LINE
8
BLACK
6
CONTINUOUS
10
130.346
20
-47.646
11
130.351
21
-47.6433
0
LINE
8
BLACK
6
CONTINUOUS
10
130.351
20
-47.6433
11
130.351
21
-47.6433
0
LINE
8
BLACK
6
CONTINUOUS
10
130.351
20
-47.6433
11
131.538
21
-47.1736
0
LINE
8
BLACK
6
CONTINUOUS
10
131.538
20
-47.1736
11
131.538
21
-47.1736
0
LINE
8
BLACK
6
CONTINUOUS
10
131.538
20
-47.1736
11
131.547
21
-47.1707
0
LINE
8
BLACK
6
CONTINUOUS
10
131.547
20
-47.1707
11
132.782
21
-46.8534
0
LINE
8
BLACK
6
CONTINUOUS
10
132.782
20
-46.8534
11
132.782
21
-46.8534
0
LINE
8
BLACK
6
CONTINUOUS
10
132.782
20
-46.8534
11
132.792
21
-46.8516
0
LINE
8
BLACK
6
CONTINUOUS
10
132.792
20
-46.8516
11
134.058
21
-46.6917
0
LINE
8
BLACK
6
CONTINUOUS
10
134.058
20
-46.6917
11
134.061
21
-46.6915
0
LINE
8
BLACK
6
CONTINUOUS
10
134.061
20
-46.6915
11
134.065
21
-46.6911
0
LINE
8
BLACK
6
CONTINUOUS
10
134.065
20
-46.6911
11
134.697
21
-46.6712
0
LINE
8
BLACK
6
CONTINUOUS
10
134.697
20
-46.6712
11
134.698
21
-46.671
0
LINE
8
BLACK
6
CONTINUOUS
10
134.698
20
-46.671
11
161.381
21
-46.671
0
LINE
8
BLACK
6
CONTINUOUS
10
161.381
20
-46.671
11
161.383
21
-46.6713
0
LINE
8
BLACK
6
CONTINUOUS
10
161.383
20
-46.6713
11
163.149
21
-46.7484
0
LINE
8
BLACK
6
CONTINUOUS
10
163.149
20
-46.7484
11
163.156
21
-46.749
0
LINE
8
BLACK
6
CONTINUOUS
10
163.156
20
-46.749
11
163.156
21
-46.749
0
LINE
8
BLACK
6
CONTINUOUS
10
163.156
20
-46.749
11
164.913
21
-46.9804
0
LINE
8
BLACK
6
CONTINUOUS
10
164.913
20
-46.9804
11
164.913
21
-46.9804
0
LINE
8
BLACK
6
CONTINUOUS
10
164.913
20
-46.9804
11
164.919
21
-46.9813
0
LINE
8
BLACK
6
CONTINUOUS
10
164.919
20
-46.9813
11
164.92
21
-46.9815
0
LINE
8
BLACK
6
CONTINUOUS
10
164.92
20
-46.9815
11
164.92
21
-46.9815
0
LINE
8
BLACK
6
CONTINUOUS
10
164.92
20
-46.9815
11
166.65
21
-47.3652
0
LINE
8
BLACK
6
CONTINUOUS
10
166.65
20
-47.3652
11
166.65
21
-47.3652
0
LINE
8
BLACK
6
CONTINUOUS
10
166.65
20
-47.3652
11
166.657
21
-47.3669
0
LINE
8
BLACK
6
CONTINUOUS
10
166.657
20
-47.3669
11
168.347
21
-47.9
0
LINE
8
BLACK
6
CONTINUOUS
10
168.347
20
-47.9
11
168.353
21
-47.9022
0
LINE
8
BLACK
6
CONTINUOUS
10
168.353
20
-47.9022
11
168.353
21
-47.9022
0
LINE
8
BLACK
6
CONTINUOUS
10
168.353
20
-47.9022
11
169.991
21
-48.5806
0
LINE
8
BLACK
6
CONTINUOUS
10
169.991
20
-48.5806
11
169.997
21
-48.5833
0
LINE
8
BLACK
6
CONTINUOUS
10
169.997
20
-48.5833
11
171.57
21
-49.4019
0
LINE
8
BLACK
6
CONTINUOUS
10
171.57
20
-49.4019
11
171.575
21
-49.4051
0
LINE
8
BLACK
6
CONTINUOUS
10
171.575
20
-49.4051
11
171.575
21
-49.4052
0
LINE
8
BLACK
6
CONTINUOUS
10
171.575
20
-49.4052
11
173.07
21
-50.3576
0
LINE
8
BLACK
6
CONTINUOUS
10
173.07
20
-50.3576
11
173.07
21
-50.3576
0
LINE
8
BLACK
6
CONTINUOUS
10
173.07
20
-50.3576
11
173.07
21
-50.3576
0
LINE
8
BLACK
6
CONTINUOUS
10
173.07
20
-50.3576
11
173.076
21
-50.3614
0
LINE
8
BLACK
6
CONTINUOUS
10
173.076
20
-50.3614
11
173.076
21
-50.3614
0
LINE
8
BLACK
6
CONTINUOUS
10
173.076
20
-50.3614
11
174.482
21
-51.4405
0
LINE
8
BLACK
6
CONTINUOUS
10
174.482
20
-51.4405
11
174.482
21
-51.4405
0
LINE
8
BLACK
6
CONTINUOUS
10
174.482
20
-51.4405
11
174.485
21
-51.4428
0
LINE
8
BLACK
6
CONTINUOUS
10
174.485
20
-51.4428
11
174.487
21
-51.4447
0
LINE
8
BLACK
6
CONTINUOUS
10
174.487
20
-51.4447
11
174.487
21
-51.4447
0
LINE
8
BLACK
6
CONTINUOUS
10
174.487
20
-51.4447
11
175.794
21
-52.6423
0
LINE
8
BLACK
6
CONTINUOUS
10
175.794
20
-52.6423
11
175.799
21
-52.647
0
LINE
8
BLACK
6
CONTINUOUS
10
175.799
20
-52.647
11
176.996
21
-53.9539
0
LINE
8
BLACK
6
CONTINUOUS
10
176.996
20
-53.9539
11
176.996
21
-53.9539
0
LINE
8
BLACK
6
CONTINUOUS
10
176.996
20
-53.9539
11
177
21
-53.9589
0
LINE
8
BLACK
6
CONTINUOUS
10
177
20
-53.9589
11
178.08
21
-55.3653
0
LINE
8
BLACK
6
CONTINUOUS
10
178.08
20
-55.3653
11
178.08
21
-55.3653
0
LINE
8
BLACK
6
CONTINUOUS
10
178.08
20
-55.3653
11
178.081
21
-55.3675
0
LINE
8
BLACK
6
CONTINUOUS
10
178.081
20
-55.3675
11
178.083
21
-55.3707
0
LINE
8
BLACK
6
CONTINUOUS
10
178.083
20
-55.3707
11
178.083
21
-55.3707
0
LINE
8
BLACK
6
CONTINUOUS
10
178.083
20
-55.3707
11
179.036
21
-56.8657
0
LINE
8
BLACK
6
CONTINUOUS
10
179.036
20
-56.8657
11
179.036
21
-56.8657
0
LINE
8
BLACK
6
CONTINUOUS
10
179.036
20
-56.8657
11
179.039
21
-56.8714
0
LINE
8
BLACK
6
CONTINUOUS
10
179.039
20
-56.8714
11
179.858
21
-58.4438
0
LINE
8
BLACK
6
CONTINUOUS
10
179.858
20
-58.4438
11
179.858
21
-58.4438
0
LINE
8
BLACK
6
CONTINUOUS
10
179.858
20
-58.4438
11
179.86
21
-58.4497
0
LINE
8
BLACK
6
CONTINUOUS
10
179.86
20
-58.4497
11
180.539
21
-60.0875
0
LINE
8
BLACK
6
CONTINUOUS
10
180.539
20
-60.0875
11
180.539
21
-60.0875
0
LINE
8
BLACK
6
CONTINUOUS
10
180.539
20
-60.0875
11
180.541
21
-60.0936
0
LINE
8
BLACK
6
CONTINUOUS
10
180.541
20
-60.0936
11
181.074
21
-61.7843
0
LINE
8
BLACK
6
CONTINUOUS
10
181.074
20
-61.7843
11
181.076
21
-61.7906
0
LINE
8
BLACK
6
CONTINUOUS
10
181.076
20
-61.7906
11
181.076
21
-61.7906
0
LINE
8
BLACK
6
CONTINUOUS
10
181.076
20
-61.7906
11
181.459
21
-63.5212
0
LINE
8
BLACK
6
CONTINUOUS
10
181.459
20
-63.5212
11
181.459
21
-63.5213
0
LINE
8
BLACK
6
CONTINUOUS
10
181.459
20
-63.5213
11
181.461
21
-63.5277
0
LINE
8
BLACK
6
CONTINUOUS
10
181.461
20
-63.5277
11
181.461
21
-63.5277
0
LINE
8
BLACK
6
CONTINUOUS
10
134.706
20
-46.821
11
134.073
21
-46.8409
0
LINE
8
BLACK
6
CONTINUOUS
10
134.073
20
-46.8409
11
132.815
21
-46.9998
0
LINE
8
BLACK
6
CONTINUOUS
10
132.815
20
-46.9998
11
131.589
21
-47.3148
0
LINE
8
BLACK
6
CONTINUOUS
10
131.589
20
-47.3148
11
130.411
21
-47.781
0
LINE
8
BLACK
6
CONTINUOUS
10
130.411
20
-47.781
11
129.301
21
-48.3911
0
LINE
8
BLACK
6
CONTINUOUS
10
129.301
20
-48.3911
11
128.277
21
-49.1355
0
LINE
8
BLACK
6
CONTINUOUS
10
128.277
20
-49.1355
11
127.353
21
-50.0025
0
LINE
8
BLACK
6
CONTINUOUS
10
127.353
20
-50.0025
11
126.546
21
-50.9783
0
LINE
8
BLACK
6
CONTINUOUS
10
126.546
20
-50.9783
11
125.868
21
-52.0476
0
LINE
8
BLACK
6
CONTINUOUS
10
125.868
20
-52.0476
11
125.328
21
-53.1936
0
LINE
8
BLACK
6
CONTINUOUS
10
125.328
20
-53.1936
11
124.937
21
-54.398
0
LINE
8
BLACK
6
CONTINUOUS
10
124.937
20
-54.398
11
124.7
21
-55.6421
0
LINE
8
BLACK
6
CONTINUOUS
10
124.7
20
-55.6421
11
124.62
21
-56.9084
0
LINE
8
BLACK
6
CONTINUOUS
10
124.62
20
-56.9084
11
124.62
21
-107.103
0
LINE
8
BLACK
6
CONTINUOUS
10
124.62
20
-107.103
11
125.993
21
-108.476
0
LINE
8
BLACK
6
CONTINUOUS
10
125.993
20
-108.476
11
126
21
-108.483
0
LINE
8
BLACK
6
CONTINUOUS
10
126
20
-108.483
11
126.005
21
-108.491
0
LINE
8
BLACK
6
CONTINUOUS
10
126.005
20
-108.491
11
126.011
21
-108.499
0
LINE
8
BLACK
6
CONTINUOUS
10
126.011
20
-108.499
11
126.012
21
-108.503
0
LINE
8
BLACK
6
CONTINUOUS
10
126.012
20
-108.503
11
126.014
21
-108.505
0
LINE
8
BLACK
6
CONTINUOUS
10
126.014
20
-108.505
11
126.015
21
-108.515
0
LINE
8
BLACK
6
CONTINUOUS
10
126.015
20
-108.515
11
126.018
21
-108.525
0
LINE
8
BLACK
6
CONTINUOUS
10
126.018
20
-108.525
11
126.017
21
-108.535
0
LINE
8
BLACK
6
CONTINUOUS
10
126.017
20
-108.535
11
126.017
21
-111.83
0
LINE
8
BLACK
6
CONTINUOUS
10
126.017
20
-111.83
11
126.018
21
-111.84
0
LINE
8
BLACK
6
CONTINUOUS
10
126.018
20
-111.84
11
126.015
21
-111.85
0
LINE
8
BLACK
6
CONTINUOUS
10
126.015
20
-111.85
11
126.014
21
-111.86
0
LINE
8
BLACK
6
CONTINUOUS
10
126.014
20
-111.86
11
126.012
21
-111.862
0
LINE
8
BLACK
6
CONTINUOUS
10
126.012
20
-111.862
11
126.011
21
-111.866
0
LINE
8
BLACK
6
CONTINUOUS
10
126.011
20
-111.866
11
126.005
21
-111.874
0
LINE
8
BLACK
6
CONTINUOUS
10
126.005
20
-111.874
11
126
21
-111.882
0
LINE
8
BLACK
6
CONTINUOUS
10
126
20
-111.882
11
125.993
21
-111.889
0
LINE
8
BLACK
6
CONTINUOUS
10
125.993
20
-111.889
11
124.62
21
-113.262
0
LINE
8
BLACK
6
CONTINUOUS
10
124.62
20
-113.262
11
124.62
21
-138.185
0
LINE
8
BLACK
6
CONTINUOUS
10
124.62
20
-138.185
11
124.64
21
-138.818
0
LINE
8
BLACK
6
CONTINUOUS
10
124.64
20
-138.818
11
124.799
21
-140.076
0
LINE
8
BLACK
6
CONTINUOUS
10
124.799
20
-140.076
11
125.114
21
-141.302
0
LINE
8
BLACK
6
CONTINUOUS
10
125.114
20
-141.302
11
125.58
21
-142.48
0
LINE
8
BLACK
6
CONTINUOUS
10
125.58
20
-142.48
11
126.19
21
-143.59
0
LINE
8
BLACK
6
CONTINUOUS
10
126.19
20
-143.59
11
126.934
21
-144.614
0
LINE
8
BLACK
6
CONTINUOUS
10
126.934
20
-144.614
11
127.801
21
-145.538
0
LINE
8
BLACK
6
CONTINUOUS
10
127.801
20
-145.538
11
128.777
21
-146.345
0
LINE
8
BLACK
6
CONTINUOUS
10
128.777
20
-146.345
11
129.847
21
-147.023
0
LINE
8
BLACK
6
CONTINUOUS
10
129.847
20
-147.023
11
130.992
21
-147.563
0
LINE
8
BLACK
6
CONTINUOUS
10
130.992
20
-147.563
11
132.197
21
-147.954
0
LINE
8
BLACK
6
CONTINUOUS
10
132.197
20
-147.954
11
133.441
21
-148.191
0
LINE
8
BLACK
6
CONTINUOUS
10
133.441
20
-148.191
11
134.707
21
-148.271
0
LINE
8
BLACK
6
CONTINUOUS
10
134.707
20
-148.271
11
161.373
21
-148.271
0
LINE
8
BLACK
6
CONTINUOUS
10
161.373
20
-148.271
11
163.139
21
-148.194
0
LINE
8
BLACK
6
CONTINUOUS
10
163.139
20
-148.194
11
164.89
21
-147.963
0
LINE
8
BLACK
6
CONTINUOUS
10
164.89
20
-147.963
11
166.615
21
-147.581
0
LINE
8
BLACK
6
CONTINUOUS
10
166.615
20
-147.581
11
168.299
21
-147.05
0
LINE
8
BLACK
6
CONTINUOUS
10
168.299
20
-147.05
11
169.931
21
-146.374
0
LINE
8
BLACK
6
CONTINUOUS
10
169.931
20
-146.374
11
171.497
21
-145.559
0
LINE
8
BLACK
6
CONTINUOUS
10
171.497
20
-145.559
11
172.987
21
-144.61
0
LINE
8
BLACK
6
CONTINUOUS
10
172.987
20
-144.61
11
174.388
21
-143.535
0
LINE
8
BLACK
6
CONTINUOUS
10
174.388
20
-143.535
11
175.69
21
-142.341
0
LINE
8
BLACK
6
CONTINUOUS
10
175.69
20
-142.341
11
176.883
21
-141.039
0
LINE
8
BLACK
6
CONTINUOUS
10
176.883
20
-141.039
11
177.959
21
-139.638
0
LINE
8
BLACK
6
CONTINUOUS
10
177.959
20
-139.638
11
178.908
21
-138.148
0
LINE
8
BLACK
6
CONTINUOUS
10
178.908
20
-138.148
11
179.723
21
-136.582
0
LINE
8
BLACK
6
CONTINUOUS
10
179.723
20
-136.582
11
180.399
21
-134.95
0
LINE
8
BLACK
6
CONTINUOUS
10
180.399
20
-134.95
11
180.93
21
-133.266
0
LINE
8
BLACK
6
CONTINUOUS
10
180.93
20
-133.266
11
181.312
21
-131.542
0
LINE
8
BLACK
6
CONTINUOUS
10
181.312
20
-131.542
11
181.543
21
-129.791
0
LINE
8
BLACK
6
CONTINUOUS
10
181.543
20
-129.791
11
181.62
21
-128.024
0
LINE
8
BLACK
6
CONTINUOUS
10
181.62
20
-128.024
11
181.62
21
-67.0677
0
LINE
8
BLACK
6
CONTINUOUS
10
181.62
20
-67.0677
11
181.543
21
-65.3016
0
LINE
8
BLACK
6
CONTINUOUS
10
181.543
20
-65.3016
11
181.312
21
-63.5505
0
LINE
8
BLACK
6
CONTINUOUS
10
181.312
20
-63.5505
11
180.93
21
-61.8263
0
LINE
8
BLACK
6
CONTINUOUS
10
180.93
20
-61.8263
11
180.399
21
-60.1419
0
LINE
8
BLACK
6
CONTINUOUS
10
180.399
20
-60.1419
11
179.723
21
-58.5102
0
LINE
8
BLACK
6
CONTINUOUS
10
179.723
20
-58.5102
11
178.908
21
-56.9436
0
LINE
8
BLACK
6
CONTINUOUS
10
178.908
20
-56.9436
11
177.959
21
-55.454
0
LINE
8
BLACK
6
CONTINUOUS
10
177.959
20
-55.454
11
176.883
21
-54.0528
0
LINE
8
BLACK
6
CONTINUOUS
10
176.883
20
-54.0528
11
175.69
21
-52.7507
0
LINE
8
BLACK
6
CONTINUOUS
10
175.69
20
-52.7507
11
174.388
21
-51.5575
0
LINE
8
BLACK
6
CONTINUOUS
10
174.388
20
-51.5575
11
172.987
21
-50.4824
0
LINE
8
BLACK
6
CONTINUOUS
10
172.987
20
-50.4824
11
171.497
21
-49.5334
0
LINE
8
BLACK
6
CONTINUOUS
10
171.497
20
-49.5334
11
169.931
21
-48.7179
0
LINE
8
BLACK
6
CONTINUOUS
10
169.931
20
-48.7179
11
168.299
21
-48.042
0
LINE
8
BLACK
6
CONTINUOUS
10
168.299
20
-48.042
11
166.615
21
-47.5109
0
LINE
8
BLACK
6
CONTINUOUS
10
166.615
20
-47.5109
11
164.89
21
-47.1287
0
LINE
8
BLACK
6
CONTINUOUS
10
164.89
20
-47.1287
11
163.139
21
-46.8981
0
LINE
8
BLACK
6
CONTINUOUS
10
163.139
20
-46.8981
11
161.373
21
-46.821
0
LINE
8
BLACK
6
CONTINUOUS
10
161.373
20
-46.821
11
134.706
21
-46.821
  0
ENDSEC
  0
EOF
