  0
SECTION
  2
HEADER
  9
$ANGBASE
  50
0.0
  9
$ANGDIR
  70
  1
  9
$MEASUREMENT
  70
0
  0
ENDSEC
  0
SECTION
  2
TABLES
  0
TABLE
  2
LTYPE
  70
4
  0
LTYPE
  5
40F
  2
CONTINUOUS
  70
0
  3
Solid line
  72
65
  73
0
  40
0.0
  0
LTYPE
  5
410
  2
DASHDOT
 70
0
  3
Dash Dot ____ _ ____ _
 72
65
 73
4
 40
2.0
 49
1.25
 49
-0.25
 49
0.25
 49
-0.25
  0
LTYPE
  5
411
  2
DASHED
 70
0
  3
Dashed __ __ __ __ __
 72
65
 73
2
 40
0.75
 49
0.5
 49
-0.25
  0
LTYPE
  5
43B
  2
DOTTED
 70
0
  3
Dotted .  .  .  .
 72
65
 73
2
 40
0.2
 49
0.0
 49
-0.2
  0
ENDTAB
  0
TABLE
  2
STYLE
  70
4
  0
STYLE
  2
KICAD
  70
0
  40
0
  41
1
  42
1
  50
0
  71
0
  3
isocp.shx
  0
STYLE
  2
KICADB
  70
0
  40
0
  41
1
  42
1
  50
0
  71
0
  3
isocp.shx
  0
STYLE
  2
KICADI
  70
0
  40
0
  41
1
  42
1
  50
15
  71
0
  3
isocp.shx
  0
STYLE
  2
KICADBI
  70
0
  40
0
  41
1
  42
1
  50
15
  71
0
  3
isocp.shx
  0
ENDTAB
  0
TABLE
  2
LAYER
  70
30
  0
LAYER
  2
BLACK
  70
0
  62
7
  6
CONTINUOUS
  0
LAYER
  2
GRAY1
  70
0
  62
251
  6
CONTINUOUS
  0
LAYER
  2
GRAY2
  70
0
  62
8
  6
CONTINUOUS
  0
LAYER
  2
GRAY3
  70
0
  62
9
  6
CONTINUOUS
  0
LAYER
  2
WHITE
  70
0
  62
7
  6
CONTINUOUS
  0
LAYER
  2
LYELLOW
  70
0
  62
51
  6
CONTINUOUS
  0
LAYER
  2
BLUE1
  70
0
  62
178
  6
CONTINUOUS
  0
LAYER
  2
GREEN1
  70
0
  62
98
  6
CONTINUOUS
  0
LAYER
  2
CYAN1
  70
0
  62
138
  6
CONTINUOUS
  0
LAYER
  2
RED1
  70
0
  62
18
  6
CONTINUOUS
  0
LAYER
  2
MAGENTA1
  70
0
  62
228
  6
CONTINUOUS
  0
LAYER
  2
BROWN1
  70
0
  62
58
  6
CONTINUOUS
  0
LAYER
  2
BLUE2
  70
0
  62
5
  6
CONTINUOUS
  0
LAYER
  2
GREEN2
  70
0
  62
3
  6
CONTINUOUS
  0
LAYER
  2
CYAN2
  70
0
  62
4
  6
CONTINUOUS
  0
LAYER
  2
RED2
  70
0
  62
1
  6
CONTINUOUS
  0
LAYER
  2
MAGENTA2
  70
0
  62
6
  6
CONTINUOUS
  0
LAYER
  2
BROWN2
  70
0
  62
54
  6
CONTINUOUS
  0
LAYER
  2
BLUE3
  70
0
  62
171
  6
CONTINUOUS
  0
LAYER
  2
GREEN3
  70
0
  62
91
  6
CONTINUOUS
  0
LAYER
  2
CYAN3
  70
0
  62
131
  6
CONTINUOUS
  0
LAYER
  2
RED3
  70
0
  62
11
  6
CONTINUOUS
  0
LAYER
  2
MAGENTA3
  70
0
  62
221
  6
CONTINUOUS
  0
LAYER
  2
YELLOW3
  70
0
  62
2
  6
CONTINUOUS
  0
LAYER
  2
BLUE4
  70
0
  62
5
  6
CONTINUOUS
  0
LAYER
  2
GREEN4
  70
0
  62
3
  6
CONTINUOUS
  0
LAYER
  2
CYAN4
  70
0
  62
4
  6
CONTINUOUS
  0
LAYER
  2
RED4
  70
0
  62
1
  6
CONTINUOUS
  0
LAYER
  2
MAGENTA4
  70
0
  62
6
  6
CONTINUOUS
  0
LAYER
  2
YELLOW4
  70
0
  62
2
  6
CONTINUOUS
  0
ENDTAB
  0
ENDSEC
  0
SECTION
  2
ENTITIES
0
LINE
8
BLACK
6
CONTINUOUS
10
206.928
20
-88.036
11
207.614
21
-88.1272
0
LINE
8
BLACK
6
CONTINUOUS
10
207.614
20
-88.1272
11
207.615
21
-88.1273
0
LINE
8
BLACK
6
CONTINUOUS
10
207.615
20
-88.1273
11
207.623
21
-88.1293
0
LINE
8
BLACK
6
CONTINUOUS
10
207.623
20
-88.1293
11
207.63
21
-88.1312
0
LINE
8
BLACK
6
CONTINUOUS
10
207.63
20
-88.1312
11
208.281
21
-88.3727
0
LINE
8
BLACK
6
CONTINUOUS
10
208.281
20
-88.3727
11
208.282
21
-88.3731
0
LINE
8
BLACK
6
CONTINUOUS
10
208.282
20
-88.3731
11
208.289
21
-88.3767
0
LINE
8
BLACK
6
CONTINUOUS
10
208.289
20
-88.3767
11
208.296
21
-88.3802
0
LINE
8
BLACK
6
CONTINUOUS
10
208.296
20
-88.3802
11
208.876
21
-88.7598
0
LINE
8
BLACK
6
CONTINUOUS
10
208.876
20
-88.7598
11
208.877
21
-88.7604
0
LINE
8
BLACK
6
CONTINUOUS
10
208.877
20
-88.7604
11
208.883
21
-88.7655
0
LINE
8
BLACK
6
CONTINUOUS
10
208.883
20
-88.7655
11
208.889
21
-88.7705
0
LINE
8
BLACK
6
CONTINUOUS
10
208.889
20
-88.7705
11
209.372
21
-89.2693
0
LINE
8
BLACK
6
CONTINUOUS
10
209.372
20
-89.2693
11
209.372
21
-89.2701
0
LINE
8
BLACK
6
CONTINUOUS
10
209.372
20
-89.2701
11
209.377
21
-89.2764
0
LINE
8
BLACK
6
CONTINUOUS
10
209.377
20
-89.2764
11
209.382
21
-89.2826
0
LINE
8
BLACK
6
CONTINUOUS
10
209.382
20
-89.2826
11
209.741
21
-89.8758
0
LINE
8
BLACK
6
CONTINUOUS
10
209.741
20
-89.8758
11
209.742
21
-89.8767
0
LINE
8
BLACK
6
CONTINUOUS
10
209.742
20
-89.8767
11
209.745
21
-89.8839
0
LINE
8
BLACK
6
CONTINUOUS
10
209.745
20
-89.8839
11
209.748
21
-89.891
0
LINE
8
BLACK
6
CONTINUOUS
10
209.748
20
-89.891
11
209.968
21
-90.5492
0
LINE
8
BLACK
6
CONTINUOUS
10
209.968
20
-90.5492
11
209.968
21
-90.5502
0
LINE
8
BLACK
6
CONTINUOUS
10
209.968
20
-90.5502
11
209.97
21
-90.5579
0
LINE
8
BLACK
6
CONTINUOUS
10
209.97
20
-90.5579
11
209.971
21
-90.5656
0
LINE
8
BLACK
6
CONTINUOUS
10
209.971
20
-90.5656
11
210.039
21
-91.2561
0
LINE
8
BLACK
6
CONTINUOUS
10
210.039
20
-91.2561
11
210.04
21
-91.2571
0
LINE
8
BLACK
6
CONTINUOUS
10
210.04
20
-91.2571
11
210.039
21
-91.2609
0
LINE
8
BLACK
6
CONTINUOUS
10
210.039
20
-91.2609
11
210.04
21
-91.2647
0
LINE
8
BLACK
6
CONTINUOUS
10
210.04
20
-91.2647
11
210.039
21
-91.2858
0
LINE
8
BLACK
6
CONTINUOUS
10
210.039
20
-91.2858
11
210.039
21
-139.171
0
LINE
8
BLACK
6
CONTINUOUS
10
210.039
20
-139.171
11
210.039
21
-139.175
0
LINE
8
BLACK
6
CONTINUOUS
10
210.039
20
-139.175
11
209.957
21
-139.874
0
LINE
8
BLACK
6
CONTINUOUS
10
209.957
20
-139.874
11
209.956
21
-139.883
0
LINE
8
BLACK
6
CONTINUOUS
10
209.956
20
-139.883
11
209.954
21
-139.887
0
LINE
8
BLACK
6
CONTINUOUS
10
209.954
20
-139.887
11
209.953
21
-139.891
0
LINE
8
BLACK
6
CONTINUOUS
10
209.953
20
-139.891
11
209.712
21
-140.554
0
LINE
8
BLACK
6
CONTINUOUS
10
209.712
20
-140.554
11
209.709
21
-140.563
0
LINE
8
BLACK
6
CONTINUOUS
10
209.709
20
-140.563
11
209.706
21
-140.566
0
LINE
8
BLACK
6
CONTINUOUS
10
209.706
20
-140.566
11
209.705
21
-140.57
0
LINE
8
BLACK
6
CONTINUOUS
10
209.705
20
-140.57
11
209.317
21
-141.16
0
LINE
8
BLACK
6
CONTINUOUS
10
209.317
20
-141.16
11
209.312
21
-141.168
0
LINE
8
BLACK
6
CONTINUOUS
10
209.312
20
-141.168
11
209.309
21
-141.171
0
LINE
8
BLACK
6
CONTINUOUS
10
209.309
20
-141.171
11
209.306
21
-141.174
0
LINE
8
BLACK
6
CONTINUOUS
10
209.306
20
-141.174
11
208.794
21
-141.659
0
LINE
8
BLACK
6
CONTINUOUS
10
208.794
20
-141.659
11
208.787
21
-141.665
0
LINE
8
BLACK
6
CONTINUOUS
10
208.787
20
-141.665
11
208.783
21
-141.667
0
LINE
8
BLACK
6
CONTINUOUS
10
208.783
20
-141.667
11
208.78
21
-141.67
0
LINE
8
BLACK
6
CONTINUOUS
10
208.78
20
-141.67
11
208.169
21
-142.024
0
LINE
8
BLACK
6
CONTINUOUS
10
208.169
20
-142.024
11
208.161
21
-142.028
0
LINE
8
BLACK
6
CONTINUOUS
10
208.161
20
-142.028
11
208.157
21
-142.029
0
LINE
8
BLACK
6
CONTINUOUS
10
208.157
20
-142.029
11
208.154
21
-142.031
0
LINE
8
BLACK
6
CONTINUOUS
10
208.154
20
-142.031
11
207.478
21
-142.236
0
LINE
8
BLACK
6
CONTINUOUS
10
207.478
20
-142.236
11
207.469
21
-142.238
0
LINE
8
BLACK
6
CONTINUOUS
10
207.469
20
-142.238
11
207.466
21
-142.238
0
LINE
8
BLACK
6
CONTINUOUS
10
207.466
20
-142.238
11
207.463
21
-142.239
0
LINE
8
BLACK
6
CONTINUOUS
10
207.463
20
-142.239
11
206.926
21
-142.287
0
LINE
8
BLACK
6
CONTINUOUS
10
206.926
20
-142.287
11
206.923
21
-142.287
0
LINE
8
BLACK
6
CONTINUOUS
10
206.923
20
-142.287
11
185.012
21
-142.287
0
LINE
8
BLACK
6
CONTINUOUS
10
185.012
20
-142.287
11
185.002
21
-142.288
0
LINE
8
BLACK
6
CONTINUOUS
10
185.002
20
-142.288
11
184.993
21
-142.285
0
LINE
8
BLACK
6
CONTINUOUS
10
184.993
20
-142.285
11
184.983
21
-142.284
0
LINE
8
BLACK
6
CONTINUOUS
10
184.983
20
-142.284
11
184.98
21
-142.282
0
LINE
8
BLACK
6
CONTINUOUS
10
184.98
20
-142.282
11
184.977
21
-142.281
0
LINE
8
BLACK
6
CONTINUOUS
10
184.977
20
-142.281
11
184.969
21
-142.275
0
LINE
8
BLACK
6
CONTINUOUS
10
184.969
20
-142.275
11
184.96
21
-142.27
0
LINE
8
BLACK
6
CONTINUOUS
10
184.96
20
-142.27
11
184.954
21
-142.263
0
LINE
8
BLACK
6
CONTINUOUS
10
184.954
20
-142.263
11
183.581
21
-140.89
0
LINE
8
BLACK
6
CONTINUOUS
10
183.581
20
-140.89
11
180.341
21
-140.89
0
LINE
8
BLACK
6
CONTINUOUS
10
180.341
20
-140.89
11
178.968
21
-142.263
0
LINE
8
BLACK
6
CONTINUOUS
10
178.968
20
-142.263
11
178.962
21
-142.27
0
LINE
8
BLACK
6
CONTINUOUS
10
178.962
20
-142.27
11
178.953
21
-142.275
0
LINE
8
BLACK
6
CONTINUOUS
10
178.953
20
-142.275
11
178.945
21
-142.281
0
LINE
8
BLACK
6
CONTINUOUS
10
178.945
20
-142.281
11
178.942
21
-142.282
0
LINE
8
BLACK
6
CONTINUOUS
10
178.942
20
-142.282
11
178.939
21
-142.284
0
LINE
8
BLACK
6
CONTINUOUS
10
178.939
20
-142.284
11
178.929
21
-142.285
0
LINE
8
BLACK
6
CONTINUOUS
10
178.929
20
-142.285
11
178.92
21
-142.288
0
LINE
8
BLACK
6
CONTINUOUS
10
178.92
20
-142.288
11
178.91
21
-142.287
0
LINE
8
BLACK
6
CONTINUOUS
10
178.91
20
-142.287
11
127.281
21
-142.287
0
LINE
8
BLACK
6
CONTINUOUS
10
127.281
20
-142.287
11
127.277
21
-142.286
0
LINE
8
BLACK
6
CONTINUOUS
10
127.277
20
-142.286
11
126.578
21
-142.205
0
LINE
8
BLACK
6
CONTINUOUS
10
126.578
20
-142.205
11
126.568
21
-142.203
0
LINE
8
BLACK
6
CONTINUOUS
10
126.568
20
-142.203
11
126.565
21
-142.202
0
LINE
8
BLACK
6
CONTINUOUS
10
126.565
20
-142.202
11
126.561
21
-142.201
0
LINE
8
BLACK
6
CONTINUOUS
10
126.561
20
-142.201
11
125.897
21
-141.96
0
LINE
8
BLACK
6
CONTINUOUS
10
125.897
20
-141.96
11
125.889
21
-141.956
0
LINE
8
BLACK
6
CONTINUOUS
10
125.889
20
-141.956
11
125.885
21
-141.954
0
LINE
8
BLACK
6
CONTINUOUS
10
125.885
20
-141.954
11
125.882
21
-141.952
0
LINE
8
BLACK
6
CONTINUOUS
10
125.882
20
-141.952
11
125.291
21
-141.565
0
LINE
8
BLACK
6
CONTINUOUS
10
125.291
20
-141.565
11
125.284
21
-141.56
0
LINE
8
BLACK
6
CONTINUOUS
10
125.284
20
-141.56
11
125.281
21
-141.557
0
LINE
8
BLACK
6
CONTINUOUS
10
125.281
20
-141.557
11
125.278
21
-141.554
0
LINE
8
BLACK
6
CONTINUOUS
10
125.278
20
-141.554
11
124.792
21
-141.042
0
LINE
8
BLACK
6
CONTINUOUS
10
124.792
20
-141.042
11
124.786
21
-141.034
0
LINE
8
BLACK
6
CONTINUOUS
10
124.786
20
-141.034
11
124.784
21
-141.031
0
LINE
8
BLACK
6
CONTINUOUS
10
124.784
20
-141.031
11
124.782
21
-141.028
0
LINE
8
BLACK
6
CONTINUOUS
10
124.782
20
-141.028
11
124.427
21
-140.417
0
LINE
8
BLACK
6
CONTINUOUS
10
124.427
20
-140.417
11
124.423
21
-140.409
0
LINE
8
BLACK
6
CONTINUOUS
10
124.423
20
-140.409
11
124.422
21
-140.405
0
LINE
8
BLACK
6
CONTINUOUS
10
124.422
20
-140.405
11
124.42
21
-140.401
0
LINE
8
BLACK
6
CONTINUOUS
10
124.42
20
-140.401
11
124.216
21
-139.726
0
LINE
8
BLACK
6
CONTINUOUS
10
124.216
20
-139.726
11
124.214
21
-139.717
0
LINE
8
BLACK
6
CONTINUOUS
10
124.214
20
-139.717
11
124.213
21
-139.714
0
LINE
8
BLACK
6
CONTINUOUS
10
124.213
20
-139.714
11
124.213
21
-139.711
0
LINE
8
BLACK
6
CONTINUOUS
10
124.213
20
-139.711
11
124.165
21
-139.174
0
LINE
8
BLACK
6
CONTINUOUS
10
124.165
20
-139.174
11
124.164
21
-139.171
0
LINE
8
BLACK
6
CONTINUOUS
10
124.164
20
-139.171
11
124.164
21
-91.2786
0
LINE
8
BLACK
6
CONTINUOUS
10
124.164
20
-91.2786
11
124.165
21
-91.2752
0
LINE
8
BLACK
6
CONTINUOUS
10
124.165
20
-91.2752
11
124.228
21
-90.5874
0
LINE
8
BLACK
6
CONTINUOUS
10
124.228
20
-90.5874
11
124.228
21
-90.5863
0
LINE
8
BLACK
6
CONTINUOUS
10
124.228
20
-90.5863
11
124.23
21
-90.5787
0
LINE
8
BLACK
6
CONTINUOUS
10
124.23
20
-90.5787
11
124.231
21
-90.571
0
LINE
8
BLACK
6
CONTINUOUS
10
124.231
20
-90.571
11
124.446
21
-89.9113
0
LINE
8
BLACK
6
CONTINUOUS
10
124.446
20
-89.9113
11
124.446
21
-89.9103
0
LINE
8
BLACK
6
CONTINUOUS
10
124.446
20
-89.9103
11
124.45
21
-89.9031
0
LINE
8
BLACK
6
CONTINUOUS
10
124.45
20
-89.9031
11
124.453
21
-89.896
0
LINE
8
BLACK
6
CONTINUOUS
10
124.453
20
-89.896
11
124.809
21
-89.3003
0
LINE
8
BLACK
6
CONTINUOUS
10
124.809
20
-89.3003
11
124.809
21
-89.2994
0
LINE
8
BLACK
6
CONTINUOUS
10
124.809
20
-89.2994
11
124.814
21
-89.2932
0
LINE
8
BLACK
6
CONTINUOUS
10
124.814
20
-89.2932
11
124.819
21
-89.2869
0
LINE
8
BLACK
6
CONTINUOUS
10
124.819
20
-89.2869
11
125.297
21
-88.7848
0
LINE
8
BLACK
6
CONTINUOUS
10
125.297
20
-88.7848
11
125.297
21
-88.7848
0
LINE
8
BLACK
6
CONTINUOUS
10
125.297
20
-88.7848
11
125.297
21
-88.7848
0
LINE
8
BLACK
6
CONTINUOUS
10
125.297
20
-88.7848
11
125.298
21
-88.784
0
LINE
8
BLACK
6
CONTINUOUS
10
125.298
20
-88.784
11
125.304
21
-88.7791
0
LINE
8
BLACK
6
CONTINUOUS
10
125.304
20
-88.7791
11
125.31
21
-88.774
0
LINE
8
BLACK
6
CONTINUOUS
10
125.31
20
-88.774
11
125.888
21
-88.3904
0
LINE
8
BLACK
6
CONTINUOUS
10
125.888
20
-88.3904
11
125.889
21
-88.3898
0
LINE
8
BLACK
6
CONTINUOUS
10
125.889
20
-88.3898
11
125.896
21
-88.3863
0
LINE
8
BLACK
6
CONTINUOUS
10
125.896
20
-88.3863
11
125.903
21
-88.3827
0
LINE
8
BLACK
6
CONTINUOUS
10
125.903
20
-88.3827
11
126.552
21
-88.1367
0
LINE
8
BLACK
6
CONTINUOUS
10
126.552
20
-88.1367
11
126.553
21
-88.1364
0
LINE
8
BLACK
6
CONTINUOUS
10
126.553
20
-88.1364
11
126.561
21
-88.1345
0
LINE
8
BLACK
6
CONTINUOUS
10
126.561
20
-88.1345
11
126.568
21
-88.1326
0
LINE
8
BLACK
6
CONTINUOUS
10
126.568
20
-88.1326
11
127.255
21
-88.0364
0
LINE
8
BLACK
6
CONTINUOUS
10
127.255
20
-88.0364
11
127.256
21
-88.0362
0
LINE
8
BLACK
6
CONTINUOUS
10
127.256
20
-88.0362
11
127.26
21
-88.0362
0
LINE
8
BLACK
6
CONTINUOUS
10
127.26
20
-88.0362
11
127.264
21
-88.0357
0
LINE
8
BLACK
6
CONTINUOUS
10
127.264
20
-88.0357
11
127.28
21
-88.0353
0
LINE
8
BLACK
6
CONTINUOUS
10
127.28
20
-88.0353
11
127.281
21
-88.0351
0
LINE
8
BLACK
6
CONTINUOUS
10
127.281
20
-88.0351
11
206.923
21
-88.0351
0
LINE
8
BLACK
6
CONTINUOUS
10
206.923
20
-88.0351
11
206.928
21
-88.036
0
LINE
8
BLACK
6
CONTINUOUS
10
127.288
20
-88.1851
11
127.272
21
-88.1855
0
LINE
8
BLACK
6
CONTINUOUS
10
127.272
20
-88.1855
11
126.597
21
-88.28
0
LINE
8
BLACK
6
CONTINUOUS
10
126.597
20
-88.28
11
125.964
21
-88.52
0
LINE
8
BLACK
6
CONTINUOUS
10
125.964
20
-88.52
11
125.4
21
-88.8944
0
LINE
8
BLACK
6
CONTINUOUS
10
125.4
20
-88.8944
11
124.933
21
-89.3844
0
LINE
8
BLACK
6
CONTINUOUS
10
124.933
20
-89.3844
11
124.586
21
-89.9657
0
LINE
8
BLACK
6
CONTINUOUS
10
124.586
20
-89.9657
11
124.377
21
-90.6094
0
LINE
8
BLACK
6
CONTINUOUS
10
124.377
20
-90.6094
11
124.314
21
-91.2886
0
LINE
8
BLACK
6
CONTINUOUS
10
124.314
20
-91.2886
11
124.314
21
-139.161
0
LINE
8
BLACK
6
CONTINUOUS
10
124.314
20
-139.161
11
124.362
21
-139.69
0
LINE
8
BLACK
6
CONTINUOUS
10
124.362
20
-139.69
11
124.561
21
-140.349
0
LINE
8
BLACK
6
CONTINUOUS
10
124.561
20
-140.349
11
124.907
21
-140.945
0
LINE
8
BLACK
6
CONTINUOUS
10
124.907
20
-140.945
11
125.381
21
-141.445
0
LINE
8
BLACK
6
CONTINUOUS
10
125.381
20
-141.445
11
125.956
21
-141.822
0
LINE
8
BLACK
6
CONTINUOUS
10
125.956
20
-141.822
11
126.604
21
-142.057
0
LINE
8
BLACK
6
CONTINUOUS
10
126.604
20
-142.057
11
127.292
21
-142.137
0
LINE
8
BLACK
6
CONTINUOUS
10
127.292
20
-142.137
11
178.882
21
-142.137
0
LINE
8
BLACK
6
CONTINUOUS
10
178.882
20
-142.137
11
180.255
21
-140.764
0
LINE
8
BLACK
6
CONTINUOUS
10
180.255
20
-140.764
11
180.261
21
-140.757
0
LINE
8
BLACK
6
CONTINUOUS
10
180.261
20
-140.757
11
180.27
21
-140.752
0
LINE
8
BLACK
6
CONTINUOUS
10
180.27
20
-140.752
11
180.278
21
-140.746
0
LINE
8
BLACK
6
CONTINUOUS
10
180.278
20
-140.746
11
180.281
21
-140.745
0
LINE
8
BLACK
6
CONTINUOUS
10
180.281
20
-140.745
11
180.284
21
-140.744
0
LINE
8
BLACK
6
CONTINUOUS
10
180.284
20
-140.744
11
180.294
21
-140.742
0
LINE
8
BLACK
6
CONTINUOUS
10
180.294
20
-140.742
11
180.303
21
-140.739
0
LINE
8
BLACK
6
CONTINUOUS
10
180.303
20
-140.739
11
180.313
21
-140.74
0
LINE
8
BLACK
6
CONTINUOUS
10
180.313
20
-140.74
11
183.609
21
-140.74
0
LINE
8
BLACK
6
CONTINUOUS
10
183.609
20
-140.74
11
183.619
21
-140.739
0
LINE
8
BLACK
6
CONTINUOUS
10
183.619
20
-140.739
11
183.628
21
-140.742
0
LINE
8
BLACK
6
CONTINUOUS
10
183.628
20
-140.742
11
183.638
21
-140.744
0
LINE
8
BLACK
6
CONTINUOUS
10
183.638
20
-140.744
11
183.641
21
-140.745
0
LINE
8
BLACK
6
CONTINUOUS
10
183.641
20
-140.745
11
183.644
21
-140.746
0
LINE
8
BLACK
6
CONTINUOUS
10
183.644
20
-140.746
11
183.652
21
-140.752
0
LINE
8
BLACK
6
CONTINUOUS
10
183.652
20
-140.752
11
183.661
21
-140.757
0
LINE
8
BLACK
6
CONTINUOUS
10
183.661
20
-140.757
11
183.667
21
-140.764
0
LINE
8
BLACK
6
CONTINUOUS
10
183.667
20
-140.764
11
185.04
21
-142.137
0
LINE
8
BLACK
6
CONTINUOUS
10
185.04
20
-142.137
11
206.913
21
-142.137
0
LINE
8
BLACK
6
CONTINUOUS
10
206.913
20
-142.137
11
207.442
21
-142.09
0
LINE
8
BLACK
6
CONTINUOUS
10
207.442
20
-142.09
11
208.102
21
-141.89
0
LINE
8
BLACK
6
CONTINUOUS
10
208.102
20
-141.89
11
208.697
21
-141.544
0
LINE
8
BLACK
6
CONTINUOUS
10
208.697
20
-141.544
11
209.197
21
-141.071
0
LINE
8
BLACK
6
CONTINUOUS
10
209.197
20
-141.071
11
209.574
21
-140.495
0
LINE
8
BLACK
6
CONTINUOUS
10
209.574
20
-140.495
11
209.809
21
-139.848
0
LINE
8
BLACK
6
CONTINUOUS
10
209.809
20
-139.848
11
209.889
21
-139.16
0
LINE
8
BLACK
6
CONTINUOUS
10
209.889
20
-139.16
11
209.889
21
-91.2786
0
LINE
8
BLACK
6
CONTINUOUS
10
209.889
20
-91.2786
11
209.89
21
-91.278
0
LINE
8
BLACK
6
CONTINUOUS
10
209.89
20
-91.278
11
209.89
21
-91.2665
0
LINE
8
BLACK
6
CONTINUOUS
10
209.89
20
-91.2665
11
209.823
21
-90.5887
0
LINE
8
BLACK
6
CONTINUOUS
10
209.823
20
-90.5887
11
209.609
21
-89.9464
0
LINE
8
BLACK
6
CONTINUOUS
10
209.609
20
-89.9464
11
209.258
21
-89.3675
0
LINE
8
BLACK
6
CONTINUOUS
10
209.258
20
-89.3675
11
208.787
21
-88.8808
0
LINE
8
BLACK
6
CONTINUOUS
10
208.787
20
-88.8808
11
208.221
21
-88.5104
0
LINE
8
BLACK
6
CONTINUOUS
10
208.221
20
-88.5104
11
207.586
21
-88.2748
0
LINE
8
BLACK
6
CONTINUOUS
10
207.586
20
-88.2748
11
206.911
21
-88.1851
0
LINE
8
BLACK
6
CONTINUOUS
10
206.911
20
-88.1851
11
127.288
21
-88.1851
  0
ENDSEC
  0
EOF
