  0
SECTION
  2
HEADER
  9
$ANGBASE
  50
0.0
  9
$ANGDIR
  70
  1
  9
$MEASUREMENT
  70
0
  0
ENDSEC
  0
SECTION
  2
TABLES
  0
TABLE
  2
LTYPE
  70
4
  0
LTYPE
  5
40F
  2
CONTINUOUS
  70
0
  3
Solid line
  72
65
  73
0
  40
0.0
  0
LTYPE
  5
410
  2
DASHDOT
 70
0
  3
Dash Dot ____ _ ____ _
 72
65
 73
4
 40
2.0
 49
1.25
 49
-0.25
 49
0.25
 49
-0.25
  0
LTYPE
  5
411
  2
DASHED
 70
0
  3
Dashed __ __ __ __ __
 72
65
 73
2
 40
0.75
 49
0.5
 49
-0.25
  0
LTYPE
  5
43B
  2
DOTTED
 70
0
  3
Dotted .  .  .  .
 72
65
 73
2
 40
0.2
 49
0.0
 49
-0.2
  0
ENDTAB
  0
TABLE
  2
STYLE
  70
4
  0
STYLE
  2
KICAD
  70
0
  40
0
  41
1
  42
1
  50
0
  71
0
  3
isocp.shx
  0
STYLE
  2
KICADB
  70
0
  40
0
  41
1
  42
1
  50
0
  71
0
  3
isocp.shx
  0
STYLE
  2
KICADI
  70
0
  40
0
  41
1
  42
1
  50
15
  71
0
  3
isocp.shx
  0
STYLE
  2
KICADBI
  70
0
  40
0
  41
1
  42
1
  50
15
  71
0
  3
isocp.shx
  0
ENDTAB
  0
TABLE
  2
LAYER
  70
30
  0
LAYER
  2
BLACK
  70
0
  62
7
  6
CONTINUOUS
  0
LAYER
  2
GRAY1
  70
0
  62
251
  6
CONTINUOUS
  0
LAYER
  2
GRAY2
  70
0
  62
8
  6
CONTINUOUS
  0
LAYER
  2
GRAY3
  70
0
  62
9
  6
CONTINUOUS
  0
LAYER
  2
WHITE
  70
0
  62
7
  6
CONTINUOUS
  0
LAYER
  2
LYELLOW
  70
0
  62
51
  6
CONTINUOUS
  0
LAYER
  2
BLUE1
  70
0
  62
178
  6
CONTINUOUS
  0
LAYER
  2
GREEN1
  70
0
  62
98
  6
CONTINUOUS
  0
LAYER
  2
CYAN1
  70
0
  62
138
  6
CONTINUOUS
  0
LAYER
  2
RED1
  70
0
  62
18
  6
CONTINUOUS
  0
LAYER
  2
MAGENTA1
  70
0
  62
228
  6
CONTINUOUS
  0
LAYER
  2
BROWN1
  70
0
  62
58
  6
CONTINUOUS
  0
LAYER
  2
BLUE2
  70
0
  62
5
  6
CONTINUOUS
  0
LAYER
  2
GREEN2
  70
0
  62
3
  6
CONTINUOUS
  0
LAYER
  2
CYAN2
  70
0
  62
4
  6
CONTINUOUS
  0
LAYER
  2
RED2
  70
0
  62
1
  6
CONTINUOUS
  0
LAYER
  2
MAGENTA2
  70
0
  62
6
  6
CONTINUOUS
  0
LAYER
  2
BROWN2
  70
0
  62
54
  6
CONTINUOUS
  0
LAYER
  2
BLUE3
  70
0
  62
171
  6
CONTINUOUS
  0
LAYER
  2
GREEN3
  70
0
  62
91
  6
CONTINUOUS
  0
LAYER
  2
CYAN3
  70
0
  62
131
  6
CONTINUOUS
  0
LAYER
  2
RED3
  70
0
  62
11
  6
CONTINUOUS
  0
LAYER
  2
MAGENTA3
  70
0
  62
221
  6
CONTINUOUS
  0
LAYER
  2
YELLOW3
  70
0
  62
2
  6
CONTINUOUS
  0
LAYER
  2
BLUE4
  70
0
  62
5
  6
CONTINUOUS
  0
LAYER
  2
GREEN4
  70
0
  62
3
  6
CONTINUOUS
  0
LAYER
  2
CYAN4
  70
0
  62
4
  6
CONTINUOUS
  0
LAYER
  2
RED4
  70
0
  62
1
  6
CONTINUOUS
  0
LAYER
  2
MAGENTA4
  70
0
  62
6
  6
CONTINUOUS
  0
LAYER
  2
YELLOW4
  70
0
  62
2
  6
CONTINUOUS
  0
ENDTAB
  0
ENDSEC
  0
SECTION
  2
ENTITIES
0
LINE
8
BLACK
6
CONTINUOUS
10
164.708
20
-141.128
11
162.295
21
-141.128
0
LINE
8
BLACK
6
CONTINUOUS
10
162.295
20
-141.128
11
162.295
21
-138.715
0
LINE
8
BLACK
6
CONTINUOUS
10
162.295
20
-138.715
11
164.708
21
-138.715
0
LINE
8
BLACK
6
CONTINUOUS
10
164.708
20
-138.715
11
164.708
21
-141.128
0
LINE
8
BLACK
6
CONTINUOUS
10
171.908
20
-141.128
11
169.495
21
-141.128
0
LINE
8
BLACK
6
CONTINUOUS
10
169.495
20
-141.128
11
169.495
21
-138.715
0
LINE
8
BLACK
6
CONTINUOUS
10
169.495
20
-138.715
11
171.908
21
-138.715
0
LINE
8
BLACK
6
CONTINUOUS
10
171.908
20
-138.715
11
171.908
21
-141.128
0
LINE
8
BLACK
6
CONTINUOUS
10
166.852
20
-141.021
11
165.852
21
-141.021
0
LINE
8
BLACK
6
CONTINUOUS
10
165.852
20
-141.021
11
165.852
21
-139.021
0
LINE
8
BLACK
6
CONTINUOUS
10
165.852
20
-139.021
11
166.852
21
-139.021
0
LINE
8
BLACK
6
CONTINUOUS
10
166.852
20
-139.021
11
166.852
21
-141.021
0
LINE
8
BLACK
6
CONTINUOUS
10
168.352
20
-141.021
11
167.352
21
-141.021
0
LINE
8
BLACK
6
CONTINUOUS
10
167.352
20
-141.021
11
167.352
21
-139.021
0
LINE
8
BLACK
6
CONTINUOUS
10
167.352
20
-139.021
11
168.352
21
-139.021
0
LINE
8
BLACK
6
CONTINUOUS
10
168.352
20
-139.021
11
168.352
21
-141.021
0
LINE
8
BLACK
6
CONTINUOUS
10
128.675
20
-136.685
11
129.224
21
-137.002
0
LINE
8
BLACK
6
CONTINUOUS
10
129.224
20
-137.002
11
129.632
21
-137.488
0
LINE
8
BLACK
6
CONTINUOUS
10
129.632
20
-137.488
11
129.849
21
-138.085
0
LINE
8
BLACK
6
CONTINUOUS
10
129.849
20
-138.085
11
129.849
21
-138.72
0
LINE
8
BLACK
6
CONTINUOUS
10
129.849
20
-138.72
11
129.632
21
-139.316
0
LINE
8
BLACK
6
CONTINUOUS
10
129.632
20
-139.316
11
129.224
21
-139.802
0
LINE
8
BLACK
6
CONTINUOUS
10
129.224
20
-139.802
11
128.675
21
-140.12
0
LINE
8
BLACK
6
CONTINUOUS
10
128.675
20
-140.12
11
128.049
21
-140.23
0
LINE
8
BLACK
6
CONTINUOUS
10
128.049
20
-140.23
11
127.424
21
-140.12
0
LINE
8
BLACK
6
CONTINUOUS
10
127.424
20
-140.12
11
126.875
21
-139.802
0
LINE
8
BLACK
6
CONTINUOUS
10
126.875
20
-139.802
11
126.467
21
-139.316
0
LINE
8
BLACK
6
CONTINUOUS
10
126.467
20
-139.316
11
126.249
21
-138.72
0
LINE
8
BLACK
6
CONTINUOUS
10
126.249
20
-138.72
11
126.249
21
-138.085
0
LINE
8
BLACK
6
CONTINUOUS
10
126.249
20
-138.085
11
126.467
21
-137.488
0
LINE
8
BLACK
6
CONTINUOUS
10
126.467
20
-137.488
11
126.875
21
-137.002
0
LINE
8
BLACK
6
CONTINUOUS
10
126.875
20
-137.002
11
127.424
21
-136.685
0
LINE
8
BLACK
6
CONTINUOUS
10
127.424
20
-136.685
11
128.049
21
-136.574
0
LINE
8
BLACK
6
CONTINUOUS
10
128.049
20
-136.574
11
128.675
21
-136.685
0
LINE
8
BLACK
6
CONTINUOUS
10
206.78
20
-136.685
11
207.329
21
-137.002
0
LINE
8
BLACK
6
CONTINUOUS
10
207.329
20
-137.002
11
207.737
21
-137.488
0
LINE
8
BLACK
6
CONTINUOUS
10
207.737
20
-137.488
11
207.954
21
-138.085
0
LINE
8
BLACK
6
CONTINUOUS
10
207.954
20
-138.085
11
207.954
21
-138.72
0
LINE
8
BLACK
6
CONTINUOUS
10
207.954
20
-138.72
11
207.737
21
-139.316
0
LINE
8
BLACK
6
CONTINUOUS
10
207.737
20
-139.316
11
207.329
21
-139.802
0
LINE
8
BLACK
6
CONTINUOUS
10
207.329
20
-139.802
11
206.78
21
-140.12
0
LINE
8
BLACK
6
CONTINUOUS
10
206.78
20
-140.12
11
206.154
21
-140.23
0
LINE
8
BLACK
6
CONTINUOUS
10
206.154
20
-140.23
11
205.529
21
-140.12
0
LINE
8
BLACK
6
CONTINUOUS
10
205.529
20
-140.12
11
204.98
21
-139.802
0
LINE
8
BLACK
6
CONTINUOUS
10
204.98
20
-139.802
11
204.572
21
-139.316
0
LINE
8
BLACK
6
CONTINUOUS
10
204.572
20
-139.316
11
204.354
21
-138.72
0
LINE
8
BLACK
6
CONTINUOUS
10
204.354
20
-138.72
11
204.354
21
-138.085
0
LINE
8
BLACK
6
CONTINUOUS
10
204.354
20
-138.085
11
204.572
21
-137.488
0
LINE
8
BLACK
6
CONTINUOUS
10
204.572
20
-137.488
11
204.98
21
-137.002
0
LINE
8
BLACK
6
CONTINUOUS
10
204.98
20
-137.002
11
205.529
21
-136.685
0
LINE
8
BLACK
6
CONTINUOUS
10
205.529
20
-136.685
11
206.154
21
-136.574
0
LINE
8
BLACK
6
CONTINUOUS
10
206.154
20
-136.574
11
206.78
21
-136.685
0
LINE
8
BLACK
6
CONTINUOUS
10
165.273
20
-137.687
11
165.38
21
-137.749
0
LINE
8
BLACK
6
CONTINUOUS
10
165.38
20
-137.749
11
165.46
21
-137.843
0
LINE
8
BLACK
6
CONTINUOUS
10
165.46
20
-137.843
11
165.502
21
-137.959
0
LINE
8
BLACK
6
CONTINUOUS
10
165.502
20
-137.959
11
165.502
21
-138.083
0
LINE
8
BLACK
6
CONTINUOUS
10
165.502
20
-138.083
11
165.46
21
-138.199
0
LINE
8
BLACK
6
CONTINUOUS
10
165.46
20
-138.199
11
165.38
21
-138.293
0
LINE
8
BLACK
6
CONTINUOUS
10
165.38
20
-138.293
11
165.273
21
-138.355
0
LINE
8
BLACK
6
CONTINUOUS
10
165.273
20
-138.355
11
165.152
21
-138.377
0
LINE
8
BLACK
6
CONTINUOUS
10
165.152
20
-138.377
11
165.03
21
-138.355
0
LINE
8
BLACK
6
CONTINUOUS
10
165.03
20
-138.355
11
164.923
21
-138.293
0
LINE
8
BLACK
6
CONTINUOUS
10
164.923
20
-138.293
11
164.844
21
-138.199
0
LINE
8
BLACK
6
CONTINUOUS
10
164.844
20
-138.199
11
164.802
21
-138.083
0
LINE
8
BLACK
6
CONTINUOUS
10
164.802
20
-138.083
11
164.802
21
-137.959
0
LINE
8
BLACK
6
CONTINUOUS
10
164.802
20
-137.959
11
164.844
21
-137.843
0
LINE
8
BLACK
6
CONTINUOUS
10
164.844
20
-137.843
11
164.923
21
-137.749
0
LINE
8
BLACK
6
CONTINUOUS
10
164.923
20
-137.749
11
165.03
21
-137.687
0
LINE
8
BLACK
6
CONTINUOUS
10
165.03
20
-137.687
11
165.152
21
-137.666
0
LINE
8
BLACK
6
CONTINUOUS
10
165.152
20
-137.666
11
165.273
21
-137.687
0
LINE
8
BLACK
6
CONTINUOUS
10
169.173
20
-137.687
11
169.28
21
-137.749
0
LINE
8
BLACK
6
CONTINUOUS
10
169.28
20
-137.749
11
169.36
21
-137.843
0
LINE
8
BLACK
6
CONTINUOUS
10
169.36
20
-137.843
11
169.402
21
-137.959
0
LINE
8
BLACK
6
CONTINUOUS
10
169.402
20
-137.959
11
169.402
21
-138.083
0
LINE
8
BLACK
6
CONTINUOUS
10
169.402
20
-138.083
11
169.36
21
-138.199
0
LINE
8
BLACK
6
CONTINUOUS
10
169.36
20
-138.199
11
169.28
21
-138.293
0
LINE
8
BLACK
6
CONTINUOUS
10
169.28
20
-138.293
11
169.173
21
-138.355
0
LINE
8
BLACK
6
CONTINUOUS
10
169.173
20
-138.355
11
169.052
21
-138.377
0
LINE
8
BLACK
6
CONTINUOUS
10
169.052
20
-138.377
11
168.93
21
-138.355
0
LINE
8
BLACK
6
CONTINUOUS
10
168.93
20
-138.355
11
168.823
21
-138.293
0
LINE
8
BLACK
6
CONTINUOUS
10
168.823
20
-138.293
11
168.744
21
-138.199
0
LINE
8
BLACK
6
CONTINUOUS
10
168.744
20
-138.199
11
168.702
21
-138.083
0
LINE
8
BLACK
6
CONTINUOUS
10
168.702
20
-138.083
11
168.702
21
-137.959
0
LINE
8
BLACK
6
CONTINUOUS
10
168.702
20
-137.959
11
168.744
21
-137.843
0
LINE
8
BLACK
6
CONTINUOUS
10
168.744
20
-137.843
11
168.823
21
-137.749
0
LINE
8
BLACK
6
CONTINUOUS
10
168.823
20
-137.749
11
168.93
21
-137.687
0
LINE
8
BLACK
6
CONTINUOUS
10
168.93
20
-137.687
11
169.052
21
-137.666
0
LINE
8
BLACK
6
CONTINUOUS
10
169.052
20
-137.666
11
169.173
21
-137.687
0
LINE
8
BLACK
6
CONTINUOUS
10
166.652
20
-137.921
11
166.252
21
-137.921
0
LINE
8
BLACK
6
CONTINUOUS
10
166.252
20
-137.921
11
166.252
21
-136.571
0
LINE
8
BLACK
6
CONTINUOUS
10
166.252
20
-136.571
11
166.652
21
-136.571
0
LINE
8
BLACK
6
CONTINUOUS
10
166.652
20
-136.571
11
166.652
21
-137.921
0
LINE
8
BLACK
6
CONTINUOUS
10
166.002
20
-137.921
11
165.602
21
-137.921
0
LINE
8
BLACK
6
CONTINUOUS
10
165.602
20
-137.921
11
165.602
21
-136.571
0
LINE
8
BLACK
6
CONTINUOUS
10
165.602
20
-136.571
11
166.002
21
-136.571
0
LINE
8
BLACK
6
CONTINUOUS
10
166.002
20
-136.571
11
166.002
21
-137.921
0
LINE
8
BLACK
6
CONTINUOUS
10
167.952
20
-137.921
11
167.552
21
-137.921
0
LINE
8
BLACK
6
CONTINUOUS
10
167.552
20
-137.921
11
167.552
21
-136.571
0
LINE
8
BLACK
6
CONTINUOUS
10
167.552
20
-136.571
11
167.952
21
-136.571
0
LINE
8
BLACK
6
CONTINUOUS
10
167.952
20
-136.571
11
167.952
21
-137.921
0
LINE
8
BLACK
6
CONTINUOUS
10
168.602
20
-137.921
11
168.202
21
-137.921
0
LINE
8
BLACK
6
CONTINUOUS
10
168.202
20
-137.921
11
168.202
21
-136.571
0
LINE
8
BLACK
6
CONTINUOUS
10
168.202
20
-136.571
11
168.602
21
-136.571
0
LINE
8
BLACK
6
CONTINUOUS
10
168.602
20
-136.571
11
168.602
21
-137.921
0
LINE
8
BLACK
6
CONTINUOUS
10
167.302
20
-137.921
11
166.902
21
-137.921
0
LINE
8
BLACK
6
CONTINUOUS
10
166.902
20
-137.921
11
166.902
21
-136.571
0
LINE
8
BLACK
6
CONTINUOUS
10
166.902
20
-136.571
11
167.302
21
-136.571
0
LINE
8
BLACK
6
CONTINUOUS
10
167.302
20
-136.571
11
167.302
21
-137.921
0
LINE
8
BLACK
6
CONTINUOUS
10
164
20
-136.576
11
164.175
21
-136.677
0
LINE
8
BLACK
6
CONTINUOUS
10
164.175
20
-136.677
11
164.304
21
-136.831
0
LINE
8
BLACK
6
CONTINUOUS
10
164.304
20
-136.831
11
164.373
21
-137.02
0
LINE
8
BLACK
6
CONTINUOUS
10
164.373
20
-137.02
11
164.373
21
-137.222
0
LINE
8
BLACK
6
CONTINUOUS
10
164.373
20
-137.222
11
164.304
21
-137.411
0
LINE
8
BLACK
6
CONTINUOUS
10
164.304
20
-137.411
11
164.175
21
-137.566
0
LINE
8
BLACK
6
CONTINUOUS
10
164.175
20
-137.566
11
164
21
-137.666
0
LINE
8
BLACK
6
CONTINUOUS
10
164
20
-137.666
11
163.802
21
-137.701
0
LINE
8
BLACK
6
CONTINUOUS
10
163.802
20
-137.701
11
163.603
21
-137.666
0
LINE
8
BLACK
6
CONTINUOUS
10
163.603
20
-137.666
11
163.429
21
-137.566
0
LINE
8
BLACK
6
CONTINUOUS
10
163.429
20
-137.566
11
163.299
21
-137.411
0
LINE
8
BLACK
6
CONTINUOUS
10
163.299
20
-137.411
11
163.23
21
-137.222
0
LINE
8
BLACK
6
CONTINUOUS
10
163.23
20
-137.222
11
163.23
21
-137.02
0
LINE
8
BLACK
6
CONTINUOUS
10
163.23
20
-137.02
11
163.299
21
-136.831
0
LINE
8
BLACK
6
CONTINUOUS
10
163.299
20
-136.831
11
163.429
21
-136.677
0
LINE
8
BLACK
6
CONTINUOUS
10
163.429
20
-136.677
11
163.603
21
-136.576
0
LINE
8
BLACK
6
CONTINUOUS
10
163.603
20
-136.576
11
163.802
21
-136.541
0
LINE
8
BLACK
6
CONTINUOUS
10
163.802
20
-136.541
11
164
21
-136.576
0
LINE
8
BLACK
6
CONTINUOUS
10
170.6
20
-136.576
11
170.775
21
-136.677
0
LINE
8
BLACK
6
CONTINUOUS
10
170.775
20
-136.677
11
170.904
21
-136.831
0
LINE
8
BLACK
6
CONTINUOUS
10
170.904
20
-136.831
11
170.973
21
-137.02
0
LINE
8
BLACK
6
CONTINUOUS
10
170.973
20
-137.02
11
170.973
21
-137.222
0
LINE
8
BLACK
6
CONTINUOUS
10
170.973
20
-137.222
11
170.904
21
-137.411
0
LINE
8
BLACK
6
CONTINUOUS
10
170.904
20
-137.411
11
170.775
21
-137.566
0
LINE
8
BLACK
6
CONTINUOUS
10
170.775
20
-137.566
11
170.6
21
-137.666
0
LINE
8
BLACK
6
CONTINUOUS
10
170.6
20
-137.666
11
170.402
21
-137.701
0
LINE
8
BLACK
6
CONTINUOUS
10
170.402
20
-137.701
11
170.203
21
-137.666
0
LINE
8
BLACK
6
CONTINUOUS
10
170.203
20
-137.666
11
170.029
21
-137.566
0
LINE
8
BLACK
6
CONTINUOUS
10
170.029
20
-137.566
11
169.899
21
-137.411
0
LINE
8
BLACK
6
CONTINUOUS
10
169.899
20
-137.411
11
169.83
21
-137.222
0
LINE
8
BLACK
6
CONTINUOUS
10
169.83
20
-137.222
11
169.83
21
-137.02
0
LINE
8
BLACK
6
CONTINUOUS
10
169.83
20
-137.02
11
169.899
21
-136.831
0
LINE
8
BLACK
6
CONTINUOUS
10
169.899
20
-136.831
11
170.029
21
-136.677
0
LINE
8
BLACK
6
CONTINUOUS
10
170.029
20
-136.677
11
170.203
21
-136.576
0
LINE
8
BLACK
6
CONTINUOUS
10
170.203
20
-136.576
11
170.402
21
-136.541
0
LINE
8
BLACK
6
CONTINUOUS
10
170.402
20
-136.541
11
170.6
21
-136.576
0
LINE
8
BLACK
6
CONTINUOUS
10
159.355
20
-136.624
11
156.815
21
-136.624
0
LINE
8
BLACK
6
CONTINUOUS
10
156.815
20
-136.624
11
156.815
21
-135.1
0
LINE
8
BLACK
6
CONTINUOUS
10
156.815
20
-135.1
11
159.355
21
-135.1
0
LINE
8
BLACK
6
CONTINUOUS
10
159.355
20
-135.1
11
159.355
21
-136.624
0
LINE
8
BLACK
6
CONTINUOUS
10
154.529
20
-136.624
11
151.989
21
-136.624
0
LINE
8
BLACK
6
CONTINUOUS
10
151.989
20
-136.624
11
151.989
21
-135.1
0
LINE
8
BLACK
6
CONTINUOUS
10
151.989
20
-135.1
11
154.529
21
-135.1
0
LINE
8
BLACK
6
CONTINUOUS
10
154.529
20
-135.1
11
154.529
21
-136.624
0
LINE
8
BLACK
6
CONTINUOUS
10
159.355
20
-134.084
11
156.815
21
-134.084
0
LINE
8
BLACK
6
CONTINUOUS
10
156.815
20
-134.084
11
156.815
21
-132.56
0
LINE
8
BLACK
6
CONTINUOUS
10
156.815
20
-132.56
11
159.355
21
-132.56
0
LINE
8
BLACK
6
CONTINUOUS
10
159.355
20
-132.56
11
159.355
21
-134.084
0
LINE
8
BLACK
6
CONTINUOUS
10
154.529
20
-134.084
11
151.989
21
-134.084
0
LINE
8
BLACK
6
CONTINUOUS
10
151.989
20
-134.084
11
151.989
21
-132.56
0
LINE
8
BLACK
6
CONTINUOUS
10
151.989
20
-132.56
11
154.529
21
-132.56
0
LINE
8
BLACK
6
CONTINUOUS
10
154.529
20
-132.56
11
154.529
21
-134.084
0
LINE
8
BLACK
6
CONTINUOUS
10
155.037
20
-131.544
11
151.989
21
-131.544
0
LINE
8
BLACK
6
CONTINUOUS
10
151.989
20
-131.544
11
151.989
21
-130.02
0
LINE
8
BLACK
6
CONTINUOUS
10
151.989
20
-130.02
11
155.037
21
-130.02
0
LINE
8
BLACK
6
CONTINUOUS
10
155.037
20
-130.02
11
155.037
21
-131.544
0
LINE
8
BLACK
6
CONTINUOUS
10
159.355
20
-131.544
11
156.307
21
-131.544
0
LINE
8
BLACK
6
CONTINUOUS
10
156.307
20
-131.544
11
156.307
21
-130.02
0
LINE
8
BLACK
6
CONTINUOUS
10
156.307
20
-130.02
11
159.355
21
-130.02
0
LINE
8
BLACK
6
CONTINUOUS
10
159.355
20
-130.02
11
159.355
21
-131.544
0
LINE
8
BLACK
6
CONTINUOUS
10
155.037
20
-129.004
11
151.989
21
-129.004
0
LINE
8
BLACK
6
CONTINUOUS
10
151.989
20
-129.004
11
151.989
21
-127.48
0
LINE
8
BLACK
6
CONTINUOUS
10
151.989
20
-127.48
11
155.037
21
-127.48
0
LINE
8
BLACK
6
CONTINUOUS
10
155.037
20
-127.48
11
155.037
21
-129.004
0
LINE
8
BLACK
6
CONTINUOUS
10
159.355
20
-129.004
11
156.307
21
-129.004
0
LINE
8
BLACK
6
CONTINUOUS
10
156.307
20
-129.004
11
156.307
21
-127.48
0
LINE
8
BLACK
6
CONTINUOUS
10
156.307
20
-127.48
11
159.355
21
-127.48
0
LINE
8
BLACK
6
CONTINUOUS
10
159.355
20
-127.48
11
159.355
21
-129.004
0
LINE
8
BLACK
6
CONTINUOUS
10
159.355
20
-126.464
11
156.307
21
-126.464
0
LINE
8
BLACK
6
CONTINUOUS
10
156.307
20
-126.464
11
156.307
21
-124.94
0
LINE
8
BLACK
6
CONTINUOUS
10
156.307
20
-124.94
11
159.355
21
-124.94
0
LINE
8
BLACK
6
CONTINUOUS
10
159.355
20
-124.94
11
159.355
21
-126.464
0
LINE
8
BLACK
6
CONTINUOUS
10
155.037
20
-126.464
11
151.989
21
-126.464
0
LINE
8
BLACK
6
CONTINUOUS
10
151.989
20
-126.464
11
151.989
21
-124.94
0
LINE
8
BLACK
6
CONTINUOUS
10
151.989
20
-124.94
11
155.037
21
-124.94
0
LINE
8
BLACK
6
CONTINUOUS
10
155.037
20
-124.94
11
155.037
21
-126.464
0
LINE
8
BLACK
6
CONTINUOUS
10
182.215
20
-126.464
11
179.675
21
-126.464
0
LINE
8
BLACK
6
CONTINUOUS
10
179.675
20
-126.464
11
179.675
21
-124.94
0
LINE
8
BLACK
6
CONTINUOUS
10
179.675
20
-124.94
11
182.215
21
-124.94
0
LINE
8
BLACK
6
CONTINUOUS
10
182.215
20
-124.94
11
182.215
21
-126.464
0
LINE
8
BLACK
6
CONTINUOUS
10
177.389
20
-126.464
11
174.849
21
-126.464
0
LINE
8
BLACK
6
CONTINUOUS
10
174.849
20
-126.464
11
174.849
21
-124.94
0
LINE
8
BLACK
6
CONTINUOUS
10
174.849
20
-124.94
11
177.389
21
-124.94
0
LINE
8
BLACK
6
CONTINUOUS
10
177.389
20
-124.94
11
177.389
21
-126.464
0
LINE
8
BLACK
6
CONTINUOUS
10
155.037
20
-123.924
11
151.989
21
-123.924
0
LINE
8
BLACK
6
CONTINUOUS
10
151.989
20
-123.924
11
151.989
21
-122.4
0
LINE
8
BLACK
6
CONTINUOUS
10
151.989
20
-122.4
11
155.037
21
-122.4
0
LINE
8
BLACK
6
CONTINUOUS
10
155.037
20
-122.4
11
155.037
21
-123.924
0
LINE
8
BLACK
6
CONTINUOUS
10
182.215
20
-123.924
11
179.675
21
-123.924
0
LINE
8
BLACK
6
CONTINUOUS
10
179.675
20
-123.924
11
179.675
21
-122.4
0
LINE
8
BLACK
6
CONTINUOUS
10
179.675
20
-122.4
11
182.215
21
-122.4
0
LINE
8
BLACK
6
CONTINUOUS
10
182.215
20
-122.4
11
182.215
21
-123.924
0
LINE
8
BLACK
6
CONTINUOUS
10
177.389
20
-123.924
11
174.849
21
-123.924
0
LINE
8
BLACK
6
CONTINUOUS
10
174.849
20
-123.924
11
174.849
21
-122.4
0
LINE
8
BLACK
6
CONTINUOUS
10
174.849
20
-122.4
11
177.389
21
-122.4
0
LINE
8
BLACK
6
CONTINUOUS
10
177.389
20
-122.4
11
177.389
21
-123.924
0
LINE
8
BLACK
6
CONTINUOUS
10
159.355
20
-123.924
11
156.307
21
-123.924
0
LINE
8
BLACK
6
CONTINUOUS
10
156.307
20
-123.924
11
156.307
21
-122.4
0
LINE
8
BLACK
6
CONTINUOUS
10
156.307
20
-122.4
11
159.355
21
-122.4
0
LINE
8
BLACK
6
CONTINUOUS
10
159.355
20
-122.4
11
159.355
21
-123.924
0
LINE
8
BLACK
6
CONTINUOUS
10
177.897
20
-121.384
11
174.849
21
-121.384
0
LINE
8
BLACK
6
CONTINUOUS
10
174.849
20
-121.384
11
174.849
21
-119.86
0
LINE
8
BLACK
6
CONTINUOUS
10
174.849
20
-119.86
11
177.897
21
-119.86
0
LINE
8
BLACK
6
CONTINUOUS
10
177.897
20
-119.86
11
177.897
21
-121.384
0
LINE
8
BLACK
6
CONTINUOUS
10
182.215
20
-121.384
11
179.167
21
-121.384
0
LINE
8
BLACK
6
CONTINUOUS
10
179.167
20
-121.384
11
179.167
21
-119.86
0
LINE
8
BLACK
6
CONTINUOUS
10
179.167
20
-119.86
11
182.215
21
-119.86
0
LINE
8
BLACK
6
CONTINUOUS
10
182.215
20
-119.86
11
182.215
21
-121.384
0
LINE
8
BLACK
6
CONTINUOUS
10
159.355
20
-121.384
11
156.307
21
-121.384
0
LINE
8
BLACK
6
CONTINUOUS
10
156.307
20
-121.384
11
156.307
21
-119.86
0
LINE
8
BLACK
6
CONTINUOUS
10
156.307
20
-119.86
11
159.355
21
-119.86
0
LINE
8
BLACK
6
CONTINUOUS
10
159.355
20
-119.86
11
159.355
21
-121.384
0
LINE
8
BLACK
6
CONTINUOUS
10
155.037
20
-121.384
11
151.989
21
-121.384
0
LINE
8
BLACK
6
CONTINUOUS
10
151.989
20
-121.384
11
151.989
21
-119.86
0
LINE
8
BLACK
6
CONTINUOUS
10
151.989
20
-119.86
11
155.037
21
-119.86
0
LINE
8
BLACK
6
CONTINUOUS
10
155.037
20
-119.86
11
155.037
21
-121.384
0
LINE
8
BLACK
6
CONTINUOUS
10
177.897
20
-118.844
11
174.849
21
-118.844
0
LINE
8
BLACK
6
CONTINUOUS
10
174.849
20
-118.844
11
174.849
21
-117.32
0
LINE
8
BLACK
6
CONTINUOUS
10
174.849
20
-117.32
11
177.897
21
-117.32
0
LINE
8
BLACK
6
CONTINUOUS
10
177.897
20
-117.32
11
177.897
21
-118.844
0
LINE
8
BLACK
6
CONTINUOUS
10
182.215
20
-118.844
11
179.167
21
-118.844
0
LINE
8
BLACK
6
CONTINUOUS
10
179.167
20
-118.844
11
179.167
21
-117.32
0
LINE
8
BLACK
6
CONTINUOUS
10
179.167
20
-117.32
11
182.215
21
-117.32
0
LINE
8
BLACK
6
CONTINUOUS
10
182.215
20
-117.32
11
182.215
21
-118.844
0
LINE
8
BLACK
6
CONTINUOUS
10
155.037
20
-118.844
11
151.989
21
-118.844
0
LINE
8
BLACK
6
CONTINUOUS
10
151.989
20
-118.844
11
151.989
21
-117.32
0
LINE
8
BLACK
6
CONTINUOUS
10
151.989
20
-117.32
11
155.037
21
-117.32
0
LINE
8
BLACK
6
CONTINUOUS
10
155.037
20
-117.32
11
155.037
21
-118.844
0
LINE
8
BLACK
6
CONTINUOUS
10
159.355
20
-118.844
11
156.307
21
-118.844
0
LINE
8
BLACK
6
CONTINUOUS
10
156.307
20
-118.844
11
156.307
21
-117.32
0
LINE
8
BLACK
6
CONTINUOUS
10
156.307
20
-117.32
11
159.355
21
-117.32
0
LINE
8
BLACK
6
CONTINUOUS
10
159.355
20
-117.32
11
159.355
21
-118.844
0
LINE
8
BLACK
6
CONTINUOUS
10
182.215
20
-116.304
11
179.167
21
-116.304
0
LINE
8
BLACK
6
CONTINUOUS
10
179.167
20
-116.304
11
179.167
21
-114.78
0
LINE
8
BLACK
6
CONTINUOUS
10
179.167
20
-114.78
11
182.215
21
-114.78
0
LINE
8
BLACK
6
CONTINUOUS
10
182.215
20
-114.78
11
182.215
21
-116.304
0
LINE
8
BLACK
6
CONTINUOUS
10
159.355
20
-116.304
11
156.307
21
-116.304
0
LINE
8
BLACK
6
CONTINUOUS
10
156.307
20
-116.304
11
156.307
21
-114.78
0
LINE
8
BLACK
6
CONTINUOUS
10
156.307
20
-114.78
11
159.355
21
-114.78
0
LINE
8
BLACK
6
CONTINUOUS
10
159.355
20
-114.78
11
159.355
21
-116.304
0
LINE
8
BLACK
6
CONTINUOUS
10
155.037
20
-116.304
11
151.989
21
-116.304
0
LINE
8
BLACK
6
CONTINUOUS
10
151.989
20
-116.304
11
151.989
21
-114.78
0
LINE
8
BLACK
6
CONTINUOUS
10
151.989
20
-114.78
11
155.037
21
-114.78
0
LINE
8
BLACK
6
CONTINUOUS
10
155.037
20
-114.78
11
155.037
21
-116.304
0
LINE
8
BLACK
6
CONTINUOUS
10
177.897
20
-116.304
11
174.849
21
-116.304
0
LINE
8
BLACK
6
CONTINUOUS
10
174.849
20
-116.304
11
174.849
21
-114.78
0
LINE
8
BLACK
6
CONTINUOUS
10
174.849
20
-114.78
11
177.897
21
-114.78
0
LINE
8
BLACK
6
CONTINUOUS
10
177.897
20
-114.78
11
177.897
21
-116.304
0
LINE
8
BLACK
6
CONTINUOUS
10
182.215
20
-113.764
11
179.167
21
-113.764
0
LINE
8
BLACK
6
CONTINUOUS
10
179.167
20
-113.764
11
179.167
21
-112.24
0
LINE
8
BLACK
6
CONTINUOUS
10
179.167
20
-112.24
11
182.215
21
-112.24
0
LINE
8
BLACK
6
CONTINUOUS
10
182.215
20
-112.24
11
182.215
21
-113.764
0
LINE
8
BLACK
6
CONTINUOUS
10
177.897
20
-113.764
11
174.849
21
-113.764
0
LINE
8
BLACK
6
CONTINUOUS
10
174.849
20
-113.764
11
174.849
21
-112.24
0
LINE
8
BLACK
6
CONTINUOUS
10
174.849
20
-112.24
11
177.897
21
-112.24
0
LINE
8
BLACK
6
CONTINUOUS
10
177.897
20
-112.24
11
177.897
21
-113.764
0
LINE
8
BLACK
6
CONTINUOUS
10
159.355
20
-113.764
11
156.307
21
-113.764
0
LINE
8
BLACK
6
CONTINUOUS
10
156.307
20
-113.764
11
156.307
21
-112.24
0
LINE
8
BLACK
6
CONTINUOUS
10
156.307
20
-112.24
11
159.355
21
-112.24
0
LINE
8
BLACK
6
CONTINUOUS
10
159.355
20
-112.24
11
159.355
21
-113.764
0
LINE
8
BLACK
6
CONTINUOUS
10
155.037
20
-113.764
11
151.989
21
-113.764
0
LINE
8
BLACK
6
CONTINUOUS
10
151.989
20
-113.764
11
151.989
21
-112.24
0
LINE
8
BLACK
6
CONTINUOUS
10
151.989
20
-112.24
11
155.037
21
-112.24
0
LINE
8
BLACK
6
CONTINUOUS
10
155.037
20
-112.24
11
155.037
21
-113.764
0
LINE
8
BLACK
6
CONTINUOUS
10
182.215
20
-111.224
11
179.167
21
-111.224
0
LINE
8
BLACK
6
CONTINUOUS
10
179.167
20
-111.224
11
179.167
21
-109.7
0
LINE
8
BLACK
6
CONTINUOUS
10
179.167
20
-109.7
11
182.215
21
-109.7
0
LINE
8
BLACK
6
CONTINUOUS
10
182.215
20
-109.7
11
182.215
21
-111.224
0
LINE
8
BLACK
6
CONTINUOUS
10
177.897
20
-111.224
11
174.849
21
-111.224
0
LINE
8
BLACK
6
CONTINUOUS
10
174.849
20
-111.224
11
174.849
21
-109.7
0
LINE
8
BLACK
6
CONTINUOUS
10
174.849
20
-109.7
11
177.897
21
-109.7
0
LINE
8
BLACK
6
CONTINUOUS
10
177.897
20
-109.7
11
177.897
21
-111.224
0
LINE
8
BLACK
6
CONTINUOUS
10
159.355
20
-111.224
11
156.307
21
-111.224
0
LINE
8
BLACK
6
CONTINUOUS
10
156.307
20
-111.224
11
156.307
21
-109.7
0
LINE
8
BLACK
6
CONTINUOUS
10
156.307
20
-109.7
11
159.355
21
-109.7
0
LINE
8
BLACK
6
CONTINUOUS
10
159.355
20
-109.7
11
159.355
21
-111.224
0
LINE
8
BLACK
6
CONTINUOUS
10
155.037
20
-111.224
11
151.989
21
-111.224
0
LINE
8
BLACK
6
CONTINUOUS
10
151.989
20
-111.224
11
151.989
21
-109.7
0
LINE
8
BLACK
6
CONTINUOUS
10
151.989
20
-109.7
11
155.037
21
-109.7
0
LINE
8
BLACK
6
CONTINUOUS
10
155.037
20
-109.7
11
155.037
21
-111.224
0
LINE
8
BLACK
6
CONTINUOUS
10
182.215
20
-108.684
11
179.167
21
-108.684
0
LINE
8
BLACK
6
CONTINUOUS
10
179.167
20
-108.684
11
179.167
21
-107.16
0
LINE
8
BLACK
6
CONTINUOUS
10
179.167
20
-107.16
11
182.215
21
-107.16
0
LINE
8
BLACK
6
CONTINUOUS
10
182.215
20
-107.16
11
182.215
21
-108.684
0
LINE
8
BLACK
6
CONTINUOUS
10
177.897
20
-108.684
11
174.849
21
-108.684
0
LINE
8
BLACK
6
CONTINUOUS
10
174.849
20
-108.684
11
174.849
21
-107.16
0
LINE
8
BLACK
6
CONTINUOUS
10
174.849
20
-107.16
11
177.897
21
-107.16
0
LINE
8
BLACK
6
CONTINUOUS
10
177.897
20
-107.16
11
177.897
21
-108.684
0
LINE
8
BLACK
6
CONTINUOUS
10
159.355
20
-108.684
11
156.307
21
-108.684
0
LINE
8
BLACK
6
CONTINUOUS
10
156.307
20
-108.684
11
156.307
21
-107.16
0
LINE
8
BLACK
6
CONTINUOUS
10
156.307
20
-107.16
11
159.355
21
-107.16
0
LINE
8
BLACK
6
CONTINUOUS
10
159.355
20
-107.16
11
159.355
21
-108.684
0
LINE
8
BLACK
6
CONTINUOUS
10
155.037
20
-108.684
11
151.989
21
-108.684
0
LINE
8
BLACK
6
CONTINUOUS
10
151.989
20
-108.684
11
151.989
21
-107.16
0
LINE
8
BLACK
6
CONTINUOUS
10
151.989
20
-107.16
11
155.037
21
-107.16
0
LINE
8
BLACK
6
CONTINUOUS
10
155.037
20
-107.16
11
155.037
21
-108.684
0
LINE
8
BLACK
6
CONTINUOUS
10
159.355
20
-106.144
11
156.307
21
-106.144
0
LINE
8
BLACK
6
CONTINUOUS
10
156.307
20
-106.144
11
156.307
21
-104.62
0
LINE
8
BLACK
6
CONTINUOUS
10
156.307
20
-104.62
11
159.355
21
-104.62
0
LINE
8
BLACK
6
CONTINUOUS
10
159.355
20
-104.62
11
159.355
21
-106.144
0
LINE
8
BLACK
6
CONTINUOUS
10
177.897
20
-106.144
11
174.849
21
-106.144
0
LINE
8
BLACK
6
CONTINUOUS
10
174.849
20
-106.144
11
174.849
21
-104.62
0
LINE
8
BLACK
6
CONTINUOUS
10
174.849
20
-104.62
11
177.897
21
-104.62
0
LINE
8
BLACK
6
CONTINUOUS
10
177.897
20
-104.62
11
177.897
21
-106.144
0
LINE
8
BLACK
6
CONTINUOUS
10
182.215
20
-106.144
11
179.167
21
-106.144
0
LINE
8
BLACK
6
CONTINUOUS
10
179.167
20
-106.144
11
179.167
21
-104.62
0
LINE
8
BLACK
6
CONTINUOUS
10
179.167
20
-104.62
11
182.215
21
-104.62
0
LINE
8
BLACK
6
CONTINUOUS
10
182.215
20
-104.62
11
182.215
21
-106.144
0
LINE
8
BLACK
6
CONTINUOUS
10
155.037
20
-106.144
11
151.989
21
-106.144
0
LINE
8
BLACK
6
CONTINUOUS
10
151.989
20
-106.144
11
151.989
21
-104.62
0
LINE
8
BLACK
6
CONTINUOUS
10
151.989
20
-104.62
11
155.037
21
-104.62
0
LINE
8
BLACK
6
CONTINUOUS
10
155.037
20
-104.62
11
155.037
21
-106.144
0
LINE
8
BLACK
6
CONTINUOUS
10
159.355
20
-103.604
11
156.307
21
-103.604
0
LINE
8
BLACK
6
CONTINUOUS
10
156.307
20
-103.604
11
156.307
21
-102.08
0
LINE
8
BLACK
6
CONTINUOUS
10
156.307
20
-102.08
11
159.355
21
-102.08
0
LINE
8
BLACK
6
CONTINUOUS
10
159.355
20
-102.08
11
159.355
21
-103.604
0
LINE
8
BLACK
6
CONTINUOUS
10
155.037
20
-103.604
11
151.989
21
-103.604
0
LINE
8
BLACK
6
CONTINUOUS
10
151.989
20
-103.604
11
151.989
21
-102.08
0
LINE
8
BLACK
6
CONTINUOUS
10
151.989
20
-102.08
11
155.037
21
-102.08
0
LINE
8
BLACK
6
CONTINUOUS
10
155.037
20
-102.08
11
155.037
21
-103.604
0
LINE
8
BLACK
6
CONTINUOUS
10
177.897
20
-103.604
11
174.849
21
-103.604
0
LINE
8
BLACK
6
CONTINUOUS
10
174.849
20
-103.604
11
174.849
21
-102.08
0
LINE
8
BLACK
6
CONTINUOUS
10
174.849
20
-102.08
11
177.897
21
-102.08
0
LINE
8
BLACK
6
CONTINUOUS
10
177.897
20
-102.08
11
177.897
21
-103.604
0
LINE
8
BLACK
6
CONTINUOUS
10
182.215
20
-103.604
11
179.167
21
-103.604
0
LINE
8
BLACK
6
CONTINUOUS
10
179.167
20
-103.604
11
179.167
21
-102.08
0
LINE
8
BLACK
6
CONTINUOUS
10
179.167
20
-102.08
11
182.215
21
-102.08
0
LINE
8
BLACK
6
CONTINUOUS
10
182.215
20
-102.08
11
182.215
21
-103.604
0
LINE
8
BLACK
6
CONTINUOUS
10
159.355
20
-101.064
11
156.815
21
-101.064
0
LINE
8
BLACK
6
CONTINUOUS
10
156.815
20
-101.064
11
156.815
21
-99.5401
0
LINE
8
BLACK
6
CONTINUOUS
10
156.815
20
-99.5401
11
159.355
21
-99.5401
0
LINE
8
BLACK
6
CONTINUOUS
10
159.355
20
-99.5401
11
159.355
21
-101.064
0
LINE
8
BLACK
6
CONTINUOUS
10
154.529
20
-101.064
11
151.989
21
-101.064
0
LINE
8
BLACK
6
CONTINUOUS
10
151.989
20
-101.064
11
151.989
21
-99.5401
0
LINE
8
BLACK
6
CONTINUOUS
10
151.989
20
-99.5401
11
154.529
21
-99.5401
0
LINE
8
BLACK
6
CONTINUOUS
10
154.529
20
-99.5401
11
154.529
21
-101.064
0
LINE
8
BLACK
6
CONTINUOUS
10
177.389
20
-101.064
11
174.849
21
-101.064
0
LINE
8
BLACK
6
CONTINUOUS
10
174.849
20
-101.064
11
174.849
21
-99.5401
0
LINE
8
BLACK
6
CONTINUOUS
10
174.849
20
-99.5401
11
177.389
21
-99.5401
0
LINE
8
BLACK
6
CONTINUOUS
10
177.389
20
-99.5401
11
177.389
21
-101.064
0
LINE
8
BLACK
6
CONTINUOUS
10
182.215
20
-101.064
11
179.675
21
-101.064
0
LINE
8
BLACK
6
CONTINUOUS
10
179.675
20
-101.064
11
179.675
21
-99.5401
0
LINE
8
BLACK
6
CONTINUOUS
10
179.675
20
-99.5401
11
182.215
21
-99.5401
0
LINE
8
BLACK
6
CONTINUOUS
10
182.215
20
-99.5401
11
182.215
21
-101.064
0
LINE
8
BLACK
6
CONTINUOUS
10
154.529
20
-98.5241
11
151.989
21
-98.5241
0
LINE
8
BLACK
6
CONTINUOUS
10
151.989
20
-98.5241
11
151.989
21
-97.0001
0
LINE
8
BLACK
6
CONTINUOUS
10
151.989
20
-97.0001
11
154.529
21
-97.0001
0
LINE
8
BLACK
6
CONTINUOUS
10
154.529
20
-97.0001
11
154.529
21
-98.5241
0
LINE
8
BLACK
6
CONTINUOUS
10
182.215
20
-98.5241
11
179.675
21
-98.5241
0
LINE
8
BLACK
6
CONTINUOUS
10
179.675
20
-98.5241
11
179.675
21
-97.0001
0
LINE
8
BLACK
6
CONTINUOUS
10
179.675
20
-97.0001
11
182.215
21
-97.0001
0
LINE
8
BLACK
6
CONTINUOUS
10
182.215
20
-97.0001
11
182.215
21
-98.5241
0
LINE
8
BLACK
6
CONTINUOUS
10
177.389
20
-98.5241
11
174.849
21
-98.5241
0
LINE
8
BLACK
6
CONTINUOUS
10
174.849
20
-98.5241
11
174.849
21
-97.0001
0
LINE
8
BLACK
6
CONTINUOUS
10
174.849
20
-97.0001
11
177.389
21
-97.0001
0
LINE
8
BLACK
6
CONTINUOUS
10
177.389
20
-97.0001
11
177.389
21
-98.5241
0
LINE
8
BLACK
6
CONTINUOUS
10
159.355
20
-98.5241
11
156.815
21
-98.5241
0
LINE
8
BLACK
6
CONTINUOUS
10
156.815
20
-98.5241
11
156.815
21
-97.0001
0
LINE
8
BLACK
6
CONTINUOUS
10
156.815
20
-97.0001
11
159.355
21
-97.0001
0
LINE
8
BLACK
6
CONTINUOUS
10
159.355
20
-97.0001
11
159.355
21
-98.5241
0
LINE
8
BLACK
6
CONTINUOUS
10
128.675
20
-90.3296
11
129.224
21
-90.647
0
LINE
8
BLACK
6
CONTINUOUS
10
129.224
20
-90.647
11
129.632
21
-91.1333
0
LINE
8
BLACK
6
CONTINUOUS
10
129.632
20
-91.1333
11
129.849
21
-91.7297
0
LINE
8
BLACK
6
CONTINUOUS
10
129.849
20
-91.7297
11
129.849
21
-92.3645
0
LINE
8
BLACK
6
CONTINUOUS
10
129.849
20
-92.3645
11
129.632
21
-92.961
0
LINE
8
BLACK
6
CONTINUOUS
10
129.632
20
-92.961
11
129.224
21
-93.4473
0
LINE
8
BLACK
6
CONTINUOUS
10
129.224
20
-93.4473
11
128.675
21
-93.7647
0
LINE
8
BLACK
6
CONTINUOUS
10
128.675
20
-93.7647
11
128.049
21
-93.8749
0
LINE
8
BLACK
6
CONTINUOUS
10
128.049
20
-93.8749
11
127.424
21
-93.7647
0
LINE
8
BLACK
6
CONTINUOUS
10
127.424
20
-93.7647
11
126.875
21
-93.4473
0
LINE
8
BLACK
6
CONTINUOUS
10
126.875
20
-93.4473
11
126.467
21
-92.961
0
LINE
8
BLACK
6
CONTINUOUS
10
126.467
20
-92.961
11
126.249
21
-92.3645
0
LINE
8
BLACK
6
CONTINUOUS
10
126.249
20
-92.3645
11
126.249
21
-91.7297
0
LINE
8
BLACK
6
CONTINUOUS
10
126.249
20
-91.7297
11
126.467
21
-91.1333
0
LINE
8
BLACK
6
CONTINUOUS
10
126.467
20
-91.1333
11
126.875
21
-90.647
0
LINE
8
BLACK
6
CONTINUOUS
10
126.875
20
-90.647
11
127.424
21
-90.3296
0
LINE
8
BLACK
6
CONTINUOUS
10
127.424
20
-90.3296
11
128.049
21
-90.2194
0
LINE
8
BLACK
6
CONTINUOUS
10
128.049
20
-90.2194
11
128.675
21
-90.3296
0
LINE
8
BLACK
6
CONTINUOUS
10
206.78
20
-90.3296
11
207.329
21
-90.647
0
LINE
8
BLACK
6
CONTINUOUS
10
207.329
20
-90.647
11
207.737
21
-91.1333
0
LINE
8
BLACK
6
CONTINUOUS
10
207.737
20
-91.1333
11
207.954
21
-91.7297
0
LINE
8
BLACK
6
CONTINUOUS
10
207.954
20
-91.7297
11
207.954
21
-92.3645
0
LINE
8
BLACK
6
CONTINUOUS
10
207.954
20
-92.3645
11
207.737
21
-92.961
0
LINE
8
BLACK
6
CONTINUOUS
10
207.737
20
-92.961
11
207.329
21
-93.4473
0
LINE
8
BLACK
6
CONTINUOUS
10
207.329
20
-93.4473
11
206.78
21
-93.7647
0
LINE
8
BLACK
6
CONTINUOUS
10
206.78
20
-93.7647
11
206.154
21
-93.8749
0
LINE
8
BLACK
6
CONTINUOUS
10
206.154
20
-93.8749
11
205.529
21
-93.7647
0
LINE
8
BLACK
6
CONTINUOUS
10
205.529
20
-93.7647
11
204.98
21
-93.4473
0
LINE
8
BLACK
6
CONTINUOUS
10
204.98
20
-93.4473
11
204.572
21
-92.961
0
LINE
8
BLACK
6
CONTINUOUS
10
204.572
20
-92.961
11
204.354
21
-92.3645
0
LINE
8
BLACK
6
CONTINUOUS
10
204.354
20
-92.3645
11
204.354
21
-91.7297
0
LINE
8
BLACK
6
CONTINUOUS
10
204.354
20
-91.7297
11
204.572
21
-91.1333
0
LINE
8
BLACK
6
CONTINUOUS
10
204.572
20
-91.1333
11
204.98
21
-90.647
0
LINE
8
BLACK
6
CONTINUOUS
10
204.98
20
-90.647
11
205.529
21
-90.3296
0
LINE
8
BLACK
6
CONTINUOUS
10
205.529
20
-90.3296
11
206.154
21
-90.2194
0
LINE
8
BLACK
6
CONTINUOUS
10
206.154
20
-90.2194
11
206.78
21
-90.3296
  0
ENDSEC
  0
EOF
