  0
SECTION
  2
HEADER
  9
$ANGBASE
  50
0.0
  9
$ANGDIR
  70
  1
  9
$MEASUREMENT
  70
0
  0
ENDSEC
  0
SECTION
  2
TABLES
  0
TABLE
  2
LTYPE
  70
4
  0
LTYPE
  5
40F
  2
CONTINUOUS
  70
0
  3
Solid line
  72
65
  73
0
  40
0.0
  0
LTYPE
  5
410
  2
DASHDOT
 70
0
  3
Dash Dot ____ _ ____ _
 72
65
 73
4
 40
2.0
 49
1.25
 49
-0.25
 49
0.25
 49
-0.25
  0
LTYPE
  5
411
  2
DASHED
 70
0
  3
Dashed __ __ __ __ __
 72
65
 73
2
 40
0.75
 49
0.5
 49
-0.25
  0
LTYPE
  5
43B
  2
DOTTED
 70
0
  3
Dotted .  .  .  .
 72
65
 73
2
 40
0.2
 49
0.0
 49
-0.2
  0
ENDTAB
  0
TABLE
  2
STYLE
  70
4
  0
STYLE
  2
KICAD
  70
0
  40
0
  41
1
  42
1
  50
0
  71
0
  3
isocp.shx
  0
STYLE
  2
KICADB
  70
0
  40
0
  41
1
  42
1
  50
0
  71
0
  3
isocp.shx
  0
STYLE
  2
KICADI
  70
0
  40
0
  41
1
  42
1
  50
15
  71
0
  3
isocp.shx
  0
STYLE
  2
KICADBI
  70
0
  40
0
  41
1
  42
1
  50
15
  71
0
  3
isocp.shx
  0
ENDTAB
  0
TABLE
  2
LAYER
  70
30
  0
LAYER
  2
BLACK
  70
0
  62
7
  6
CONTINUOUS
  0
LAYER
  2
GRAY1
  70
0
  62
251
  6
CONTINUOUS
  0
LAYER
  2
GRAY2
  70
0
  62
8
  6
CONTINUOUS
  0
LAYER
  2
GRAY3
  70
0
  62
9
  6
CONTINUOUS
  0
LAYER
  2
WHITE
  70
0
  62
7
  6
CONTINUOUS
  0
LAYER
  2
LYELLOW
  70
0
  62
51
  6
CONTINUOUS
  0
LAYER
  2
BLUE1
  70
0
  62
178
  6
CONTINUOUS
  0
LAYER
  2
GREEN1
  70
0
  62
98
  6
CONTINUOUS
  0
LAYER
  2
CYAN1
  70
0
  62
138
  6
CONTINUOUS
  0
LAYER
  2
RED1
  70
0
  62
18
  6
CONTINUOUS
  0
LAYER
  2
MAGENTA1
  70
0
  62
228
  6
CONTINUOUS
  0
LAYER
  2
BROWN1
  70
0
  62
58
  6
CONTINUOUS
  0
LAYER
  2
BLUE2
  70
0
  62
5
  6
CONTINUOUS
  0
LAYER
  2
GREEN2
  70
0
  62
3
  6
CONTINUOUS
  0
LAYER
  2
CYAN2
  70
0
  62
4
  6
CONTINUOUS
  0
LAYER
  2
RED2
  70
0
  62
1
  6
CONTINUOUS
  0
LAYER
  2
MAGENTA2
  70
0
  62
6
  6
CONTINUOUS
  0
LAYER
  2
BROWN2
  70
0
  62
54
  6
CONTINUOUS
  0
LAYER
  2
BLUE3
  70
0
  62
171
  6
CONTINUOUS
  0
LAYER
  2
GREEN3
  70
0
  62
91
  6
CONTINUOUS
  0
LAYER
  2
CYAN3
  70
0
  62
131
  6
CONTINUOUS
  0
LAYER
  2
RED3
  70
0
  62
11
  6
CONTINUOUS
  0
LAYER
  2
MAGENTA3
  70
0
  62
221
  6
CONTINUOUS
  0
LAYER
  2
YELLOW3
  70
0
  62
2
  6
CONTINUOUS
  0
LAYER
  2
BLUE4
  70
0
  62
5
  6
CONTINUOUS
  0
LAYER
  2
GREEN4
  70
0
  62
3
  6
CONTINUOUS
  0
LAYER
  2
CYAN4
  70
0
  62
4
  6
CONTINUOUS
  0
LAYER
  2
RED4
  70
0
  62
1
  6
CONTINUOUS
  0
LAYER
  2
MAGENTA4
  70
0
  62
6
  6
CONTINUOUS
  0
LAYER
  2
YELLOW4
  70
0
  62
2
  6
CONTINUOUS
  0
ENDTAB
  0
ENDSEC
  0
SECTION
  2
ENTITIES
0
LINE
8
BLACK
6
CONTINUOUS
10
164.859
20
-64.2894
11
165.489
21
-64.369
0
LINE
8
BLACK
6
CONTINUOUS
10
165.489
20
-64.369
11
165.498
21
-64.3708
0
LINE
8
BLACK
6
CONTINUOUS
10
165.498
20
-64.3708
11
165.503
21
-64.3725
0
LINE
8
BLACK
6
CONTINUOUS
10
165.503
20
-64.3725
11
165.507
21
-64.3737
0
LINE
8
BLACK
6
CONTINUOUS
10
165.507
20
-64.3737
11
166.099
21
-64.608
0
LINE
8
BLACK
6
CONTINUOUS
10
166.099
20
-64.608
11
166.099
21
-64.608
0
LINE
8
BLACK
6
CONTINUOUS
10
166.099
20
-64.608
11
166.099
21
-64.6081
0
LINE
8
BLACK
6
CONTINUOUS
10
166.099
20
-64.6081
11
166.108
21
-64.6121
0
LINE
8
BLACK
6
CONTINUOUS
10
166.108
20
-64.6121
11
166.112
21
-64.6148
0
LINE
8
BLACK
6
CONTINUOUS
10
166.112
20
-64.6148
11
166.116
21
-64.6171
0
LINE
8
BLACK
6
CONTINUOUS
10
166.116
20
-64.6171
11
166.631
21
-64.9913
0
LINE
8
BLACK
6
CONTINUOUS
10
166.631
20
-64.9913
11
166.638
21
-64.9973
0
LINE
8
BLACK
6
CONTINUOUS
10
166.638
20
-64.9973
11
166.638
21
-64.9978
0
LINE
8
BLACK
6
CONTINUOUS
10
166.638
20
-64.9978
11
166.639
21
-64.9982
0
LINE
8
BLACK
6
CONTINUOUS
10
166.639
20
-64.9982
11
166.692
21
-65.0495
0
LINE
8
BLACK
6
CONTINUOUS
10
166.692
20
-65.0495
11
166.692
21
-65.0499
0
LINE
8
BLACK
6
CONTINUOUS
10
166.692
20
-65.0499
11
188.455
21
-86.8123
0
LINE
8
BLACK
6
CONTINUOUS
10
188.455
20
-86.8123
11
188.458
21
-86.8161
0
LINE
8
BLACK
6
CONTINUOUS
10
188.458
20
-86.8161
11
188.847
21
-87.3178
0
LINE
8
BLACK
6
CONTINUOUS
10
188.847
20
-87.3178
11
188.852
21
-87.3256
0
LINE
8
BLACK
6
CONTINUOUS
10
188.852
20
-87.3256
11
188.854
21
-87.3299
0
LINE
8
BLACK
6
CONTINUOUS
10
188.854
20
-87.3299
11
188.856
21
-87.334
0
LINE
8
BLACK
6
CONTINUOUS
10
188.856
20
-87.334
11
189.109
21
-87.9183
0
LINE
8
BLACK
6
CONTINUOUS
10
189.109
20
-87.9183
11
189.109
21
-87.9183
0
LINE
8
BLACK
6
CONTINUOUS
10
189.109
20
-87.9183
11
189.109
21
-87.9183
0
LINE
8
BLACK
6
CONTINUOUS
10
189.109
20
-87.9183
11
189.112
21
-87.9271
0
LINE
8
BLACK
6
CONTINUOUS
10
189.112
20
-87.9271
11
189.113
21
-87.9318
0
LINE
8
BLACK
6
CONTINUOUS
10
189.113
20
-87.9318
11
189.114
21
-87.9363
0
LINE
8
BLACK
6
CONTINUOUS
10
189.114
20
-87.9363
11
189.214
21
-88.5652
0
LINE
8
BLACK
6
CONTINUOUS
10
189.214
20
-88.5652
11
189.215
21
-88.5746
0
LINE
8
BLACK
6
CONTINUOUS
10
189.215
20
-88.5746
11
189.215
21
-88.5752
0
LINE
8
BLACK
6
CONTINUOUS
10
189.215
20
-88.5752
11
189.215
21
-88.5757
0
LINE
8
BLACK
6
CONTINUOUS
10
189.215
20
-88.5757
11
189.216
21
-88.6496
0
LINE
8
BLACK
6
CONTINUOUS
10
189.216
20
-88.6496
11
189.216
21
-88.6501
0
LINE
8
BLACK
6
CONTINUOUS
10
189.216
20
-88.6501
11
189.216
21
-121.357
0
LINE
8
BLACK
6
CONTINUOUS
10
189.216
20
-121.357
11
189.215
21
-121.362
0
LINE
8
BLACK
6
CONTINUOUS
10
189.215
20
-121.362
11
189.136
21
-121.992
0
LINE
8
BLACK
6
CONTINUOUS
10
189.136
20
-121.992
11
189.134
21
-122.001
0
LINE
8
BLACK
6
CONTINUOUS
10
189.134
20
-122.001
11
189.132
21
-122.005
0
LINE
8
BLACK
6
CONTINUOUS
10
189.132
20
-122.005
11
189.131
21
-122.01
0
LINE
8
BLACK
6
CONTINUOUS
10
189.131
20
-122.01
11
188.897
21
-122.602
0
LINE
8
BLACK
6
CONTINUOUS
10
188.897
20
-122.602
11
188.897
21
-122.602
0
LINE
8
BLACK
6
CONTINUOUS
10
188.897
20
-122.602
11
188.897
21
-122.602
0
LINE
8
BLACK
6
CONTINUOUS
10
188.897
20
-122.602
11
188.893
21
-122.61
0
LINE
8
BLACK
6
CONTINUOUS
10
188.893
20
-122.61
11
188.89
21
-122.614
0
LINE
8
BLACK
6
CONTINUOUS
10
188.89
20
-122.614
11
188.888
21
-122.618
0
LINE
8
BLACK
6
CONTINUOUS
10
188.888
20
-122.618
11
188.513
21
-123.133
0
LINE
8
BLACK
6
CONTINUOUS
10
188.513
20
-123.133
11
188.507
21
-123.141
0
LINE
8
BLACK
6
CONTINUOUS
10
188.507
20
-123.141
11
188.507
21
-123.141
0
LINE
8
BLACK
6
CONTINUOUS
10
188.507
20
-123.141
11
188.507
21
-123.141
0
LINE
8
BLACK
6
CONTINUOUS
10
188.507
20
-123.141
11
188.455
21
-123.194
0
LINE
8
BLACK
6
CONTINUOUS
10
188.455
20
-123.194
11
188.455
21
-123.195
0
LINE
8
BLACK
6
CONTINUOUS
10
188.455
20
-123.195
11
166.692
21
-144.957
0
LINE
8
BLACK
6
CONTINUOUS
10
166.692
20
-144.957
11
166.689
21
-144.96
0
LINE
8
BLACK
6
CONTINUOUS
10
166.689
20
-144.96
11
166.187
21
-145.349
0
LINE
8
BLACK
6
CONTINUOUS
10
166.187
20
-145.349
11
166.179
21
-145.354
0
LINE
8
BLACK
6
CONTINUOUS
10
166.179
20
-145.354
11
166.175
21
-145.356
0
LINE
8
BLACK
6
CONTINUOUS
10
166.175
20
-145.356
11
166.171
21
-145.359
0
LINE
8
BLACK
6
CONTINUOUS
10
166.171
20
-145.359
11
165.586
21
-145.612
0
LINE
8
BLACK
6
CONTINUOUS
10
165.586
20
-145.612
11
165.586
21
-145.612
0
LINE
8
BLACK
6
CONTINUOUS
10
165.586
20
-145.612
11
165.586
21
-145.612
0
LINE
8
BLACK
6
CONTINUOUS
10
165.586
20
-145.612
11
165.578
21
-145.615
0
LINE
8
BLACK
6
CONTINUOUS
10
165.578
20
-145.615
11
165.573
21
-145.616
0
LINE
8
BLACK
6
CONTINUOUS
10
165.573
20
-145.616
11
165.568
21
-145.617
0
LINE
8
BLACK
6
CONTINUOUS
10
165.568
20
-145.617
11
164.94
21
-145.716
0
LINE
8
BLACK
6
CONTINUOUS
10
164.94
20
-145.716
11
164.93
21
-145.717
0
LINE
8
BLACK
6
CONTINUOUS
10
164.93
20
-145.717
11
164.93
21
-145.717
0
LINE
8
BLACK
6
CONTINUOUS
10
164.93
20
-145.717
11
164.929
21
-145.717
0
LINE
8
BLACK
6
CONTINUOUS
10
164.929
20
-145.717
11
164.855
21
-145.718
0
LINE
8
BLACK
6
CONTINUOUS
10
164.855
20
-145.718
11
164.855
21
-145.719
0
LINE
8
BLACK
6
CONTINUOUS
10
164.855
20
-145.719
11
152.568
21
-145.719
0
LINE
8
BLACK
6
CONTINUOUS
10
152.568
20
-145.719
11
152.558
21
-145.719
0
LINE
8
BLACK
6
CONTINUOUS
10
152.558
20
-145.719
11
152.549
21
-145.717
0
LINE
8
BLACK
6
CONTINUOUS
10
152.549
20
-145.717
11
152.539
21
-145.715
0
LINE
8
BLACK
6
CONTINUOUS
10
152.539
20
-145.715
11
152.536
21
-145.713
0
LINE
8
BLACK
6
CONTINUOUS
10
152.536
20
-145.713
11
152.533
21
-145.713
0
LINE
8
BLACK
6
CONTINUOUS
10
152.533
20
-145.713
11
152.525
21
-145.707
0
LINE
8
BLACK
6
CONTINUOUS
10
152.525
20
-145.707
11
152.516
21
-145.702
0
LINE
8
BLACK
6
CONTINUOUS
10
152.516
20
-145.702
11
152.51
21
-145.694
0
LINE
8
BLACK
6
CONTINUOUS
10
152.51
20
-145.694
11
152.153
21
-145.338
0
LINE
8
BLACK
6
CONTINUOUS
10
152.153
20
-145.338
11
144.849
21
-145.338
0
LINE
8
BLACK
6
CONTINUOUS
10
144.849
20
-145.338
11
144.492
21
-145.694
0
LINE
8
BLACK
6
CONTINUOUS
10
144.492
20
-145.694
11
144.486
21
-145.702
0
LINE
8
BLACK
6
CONTINUOUS
10
144.486
20
-145.702
11
144.477
21
-145.707
0
LINE
8
BLACK
6
CONTINUOUS
10
144.477
20
-145.707
11
144.469
21
-145.713
0
LINE
8
BLACK
6
CONTINUOUS
10
144.469
20
-145.713
11
144.466
21
-145.713
0
LINE
8
BLACK
6
CONTINUOUS
10
144.466
20
-145.713
11
144.463
21
-145.715
0
LINE
8
BLACK
6
CONTINUOUS
10
144.463
20
-145.715
11
144.453
21
-145.717
0
LINE
8
BLACK
6
CONTINUOUS
10
144.453
20
-145.717
11
144.444
21
-145.719
0
LINE
8
BLACK
6
CONTINUOUS
10
144.444
20
-145.719
11
144.434
21
-145.719
0
LINE
8
BLACK
6
CONTINUOUS
10
144.434
20
-145.719
11
132.148
21
-145.719
0
LINE
8
BLACK
6
CONTINUOUS
10
132.148
20
-145.719
11
132.143
21
-145.718
0
LINE
8
BLACK
6
CONTINUOUS
10
132.143
20
-145.718
11
131.513
21
-145.638
0
LINE
8
BLACK
6
CONTINUOUS
10
131.513
20
-145.638
11
131.504
21
-145.636
0
LINE
8
BLACK
6
CONTINUOUS
10
131.504
20
-145.636
11
131.499
21
-145.635
0
LINE
8
BLACK
6
CONTINUOUS
10
131.499
20
-145.635
11
131.495
21
-145.634
0
LINE
8
BLACK
6
CONTINUOUS
10
131.495
20
-145.634
11
130.903
21
-145.399
0
LINE
8
BLACK
6
CONTINUOUS
10
130.903
20
-145.399
11
130.903
21
-145.399
0
LINE
8
BLACK
6
CONTINUOUS
10
130.903
20
-145.399
11
130.903
21
-145.399
0
LINE
8
BLACK
6
CONTINUOUS
10
130.903
20
-145.399
11
130.894
21
-145.395
0
LINE
8
BLACK
6
CONTINUOUS
10
130.894
20
-145.395
11
130.891
21
-145.392
0
LINE
8
BLACK
6
CONTINUOUS
10
130.891
20
-145.392
11
130.886
21
-145.39
0
LINE
8
BLACK
6
CONTINUOUS
10
130.886
20
-145.39
11
130.371
21
-145.016
0
LINE
8
BLACK
6
CONTINUOUS
10
130.371
20
-145.016
11
130.364
21
-145.01
0
LINE
8
BLACK
6
CONTINUOUS
10
130.364
20
-145.01
11
130.364
21
-145.009
0
LINE
8
BLACK
6
CONTINUOUS
10
130.364
20
-145.009
11
130.363
21
-145.009
0
LINE
8
BLACK
6
CONTINUOUS
10
130.363
20
-145.009
11
130.31
21
-144.958
0
LINE
8
BLACK
6
CONTINUOUS
10
130.31
20
-144.958
11
130.31
21
-144.957
0
LINE
8
BLACK
6
CONTINUOUS
10
130.31
20
-144.957
11
108.547
21
-123.195
0
LINE
8
BLACK
6
CONTINUOUS
10
108.547
20
-123.195
11
108.545
21
-123.191
0
LINE
8
BLACK
6
CONTINUOUS
10
108.545
20
-123.191
11
108.156
21
-122.689
0
LINE
8
BLACK
6
CONTINUOUS
10
108.156
20
-122.689
11
108.15
21
-122.682
0
LINE
8
BLACK
6
CONTINUOUS
10
108.15
20
-122.682
11
108.148
21
-122.677
0
LINE
8
BLACK
6
CONTINUOUS
10
108.148
20
-122.677
11
108.146
21
-122.673
0
LINE
8
BLACK
6
CONTINUOUS
10
108.146
20
-122.673
11
107.893
21
-122.089
0
LINE
8
BLACK
6
CONTINUOUS
10
107.893
20
-122.089
11
107.89
21
-122.08
0
LINE
8
BLACK
6
CONTINUOUS
10
107.89
20
-122.08
11
107.889
21
-122.075
0
LINE
8
BLACK
6
CONTINUOUS
10
107.889
20
-122.075
11
107.888
21
-122.071
0
LINE
8
BLACK
6
CONTINUOUS
10
107.888
20
-122.071
11
107.788
21
-121.442
0
LINE
8
BLACK
6
CONTINUOUS
10
107.788
20
-121.442
11
107.787
21
-121.433
0
LINE
8
BLACK
6
CONTINUOUS
10
107.787
20
-121.433
11
107.787
21
-121.432
0
LINE
8
BLACK
6
CONTINUOUS
10
107.787
20
-121.432
11
107.787
21
-121.431
0
LINE
8
BLACK
6
CONTINUOUS
10
107.787
20
-121.431
11
107.786
21
-121.358
0
LINE
8
BLACK
6
CONTINUOUS
10
107.786
20
-121.358
11
107.786
21
-121.357
0
LINE
8
BLACK
6
CONTINUOUS
10
107.786
20
-121.357
11
107.786
21
-88.6501
0
LINE
8
BLACK
6
CONTINUOUS
10
107.786
20
-88.6501
11
107.787
21
-88.6455
0
LINE
8
BLACK
6
CONTINUOUS
10
107.787
20
-88.6455
11
107.866
21
-88.0156
0
LINE
8
BLACK
6
CONTINUOUS
10
107.866
20
-88.0156
11
107.868
21
-88.0064
0
LINE
8
BLACK
6
CONTINUOUS
10
107.868
20
-88.0064
11
107.87
21
-88.002
0
LINE
8
BLACK
6
CONTINUOUS
10
107.87
20
-88.002
11
107.871
21
-87.9974
0
LINE
8
BLACK
6
CONTINUOUS
10
107.871
20
-87.9974
11
108.106
21
-87.4054
0
LINE
8
BLACK
6
CONTINUOUS
10
108.106
20
-87.4054
11
108.106
21
-87.4054
0
LINE
8
BLACK
6
CONTINUOUS
10
108.106
20
-87.4054
11
108.106
21
-87.4054
0
LINE
8
BLACK
6
CONTINUOUS
10
108.106
20
-87.4054
11
108.11
21
-87.3969
0
LINE
8
BLACK
6
CONTINUOUS
10
108.11
20
-87.3969
11
108.112
21
-87.3931
0
LINE
8
BLACK
6
CONTINUOUS
10
108.112
20
-87.3931
11
108.115
21
-87.389
0
LINE
8
BLACK
6
CONTINUOUS
10
108.115
20
-87.389
11
108.489
21
-86.8739
0
LINE
8
BLACK
6
CONTINUOUS
10
108.489
20
-86.8739
11
108.495
21
-86.8666
0
LINE
8
BLACK
6
CONTINUOUS
10
108.495
20
-86.8666
11
108.495
21
-86.8662
0
LINE
8
BLACK
6
CONTINUOUS
10
108.495
20
-86.8662
11
108.496
21
-86.8658
0
LINE
8
BLACK
6
CONTINUOUS
10
108.496
20
-86.8658
11
108.547
21
-86.8127
0
LINE
8
BLACK
6
CONTINUOUS
10
108.547
20
-86.8127
11
108.547
21
-86.8123
0
LINE
8
BLACK
6
CONTINUOUS
10
108.547
20
-86.8123
11
130.31
21
-65.0499
0
LINE
8
BLACK
6
CONTINUOUS
10
130.31
20
-65.0499
11
130.314
21
-65.0472
0
LINE
8
BLACK
6
CONTINUOUS
10
130.314
20
-65.0472
11
130.815
21
-64.6581
0
LINE
8
BLACK
6
CONTINUOUS
10
130.815
20
-64.6581
11
130.823
21
-64.6528
0
LINE
8
BLACK
6
CONTINUOUS
10
130.823
20
-64.6528
11
130.827
21
-64.6509
0
LINE
8
BLACK
6
CONTINUOUS
10
130.827
20
-64.6509
11
130.831
21
-64.6485
0
LINE
8
BLACK
6
CONTINUOUS
10
130.831
20
-64.6485
11
131.416
21
-64.3956
0
LINE
8
BLACK
6
CONTINUOUS
10
131.416
20
-64.3956
11
131.416
21
-64.3956
0
LINE
8
BLACK
6
CONTINUOUS
10
131.416
20
-64.3956
11
131.416
21
-64.3956
0
LINE
8
BLACK
6
CONTINUOUS
10
131.416
20
-64.3956
11
131.425
21
-64.3924
0
LINE
8
BLACK
6
CONTINUOUS
10
131.425
20
-64.3924
11
131.429
21
-64.3917
0
LINE
8
BLACK
6
CONTINUOUS
10
131.429
20
-64.3917
11
131.434
21
-64.3904
0
LINE
8
BLACK
6
CONTINUOUS
10
131.434
20
-64.3904
11
132.063
21
-64.2908
0
LINE
8
BLACK
6
CONTINUOUS
10
132.063
20
-64.2908
11
132.072
21
-64.2899
0
LINE
8
BLACK
6
CONTINUOUS
10
132.072
20
-64.2899
11
132.073
21
-64.2899
0
LINE
8
BLACK
6
CONTINUOUS
10
132.073
20
-64.2899
11
132.073
21
-64.2899
0
LINE
8
BLACK
6
CONTINUOUS
10
132.073
20
-64.2899
11
132.147
21
-64.2887
0
LINE
8
BLACK
6
CONTINUOUS
10
132.147
20
-64.2887
11
132.148
21
-64.2886
0
LINE
8
BLACK
6
CONTINUOUS
10
132.148
20
-64.2886
11
164.855
21
-64.2886
0
LINE
8
BLACK
6
CONTINUOUS
10
164.855
20
-64.2886
11
164.859
21
-64.2894
0
LINE
8
BLACK
6
CONTINUOUS
10
132.155
20
-64.4386
11
132.081
21
-64.4398
0
LINE
8
BLACK
6
CONTINUOUS
10
132.081
20
-64.4398
11
131.467
21
-64.537
0
LINE
8
BLACK
6
CONTINUOUS
10
131.467
20
-64.537
11
130.9
21
-64.7824
0
LINE
8
BLACK
6
CONTINUOUS
10
130.9
20
-64.7824
11
130.408
21
-65.1639
0
LINE
8
BLACK
6
CONTINUOUS
10
130.408
20
-65.1639
11
108.659
21
-86.9132
0
LINE
8
BLACK
6
CONTINUOUS
10
108.659
20
-86.9132
11
108.607
21
-86.9663
0
LINE
8
BLACK
6
CONTINUOUS
10
108.607
20
-86.9663
11
108.242
21
-87.4695
0
LINE
8
BLACK
6
CONTINUOUS
10
108.242
20
-87.4695
11
108.014
21
-88.0438
0
LINE
8
BLACK
6
CONTINUOUS
10
108.014
20
-88.0438
11
107.936
21
-88.6614
0
LINE
8
BLACK
6
CONTINUOUS
10
107.936
20
-88.6614
11
107.936
21
-121.35
0
LINE
8
BLACK
6
CONTINUOUS
10
107.936
20
-121.35
11
107.937
21
-121.424
0
LINE
8
BLACK
6
CONTINUOUS
10
107.937
20
-121.424
11
108.035
21
-122.038
0
LINE
8
BLACK
6
CONTINUOUS
10
108.035
20
-122.038
11
108.28
21
-122.605
0
LINE
8
BLACK
6
CONTINUOUS
10
108.28
20
-122.605
11
108.661
21
-123.097
0
LINE
8
BLACK
6
CONTINUOUS
10
108.661
20
-123.097
11
130.411
21
-144.846
0
LINE
8
BLACK
6
CONTINUOUS
10
130.411
20
-144.846
11
130.464
21
-144.898
0
LINE
8
BLACK
6
CONTINUOUS
10
130.464
20
-144.898
11
130.967
21
-145.263
0
LINE
8
BLACK
6
CONTINUOUS
10
130.967
20
-145.263
11
131.541
21
-145.491
0
LINE
8
BLACK
6
CONTINUOUS
10
131.541
20
-145.491
11
132.159
21
-145.569
0
LINE
8
BLACK
6
CONTINUOUS
10
132.159
20
-145.569
11
144.406
21
-145.569
0
LINE
8
BLACK
6
CONTINUOUS
10
144.406
20
-145.569
11
144.763
21
-145.212
0
LINE
8
BLACK
6
CONTINUOUS
10
144.763
20
-145.212
11
144.769
21
-145.204
0
LINE
8
BLACK
6
CONTINUOUS
10
144.769
20
-145.204
11
144.778
21
-145.199
0
LINE
8
BLACK
6
CONTINUOUS
10
144.778
20
-145.199
11
144.786
21
-145.194
0
LINE
8
BLACK
6
CONTINUOUS
10
144.786
20
-145.194
11
144.789
21
-145.193
0
LINE
8
BLACK
6
CONTINUOUS
10
144.789
20
-145.193
11
144.792
21
-145.191
0
LINE
8
BLACK
6
CONTINUOUS
10
144.792
20
-145.191
11
144.802
21
-145.189
0
LINE
8
BLACK
6
CONTINUOUS
10
144.802
20
-145.189
11
144.811
21
-145.187
0
LINE
8
BLACK
6
CONTINUOUS
10
144.811
20
-145.187
11
144.821
21
-145.188
0
LINE
8
BLACK
6
CONTINUOUS
10
144.821
20
-145.188
11
152.181
21
-145.188
0
LINE
8
BLACK
6
CONTINUOUS
10
152.181
20
-145.188
11
152.191
21
-145.187
0
LINE
8
BLACK
6
CONTINUOUS
10
152.191
20
-145.187
11
152.2
21
-145.189
0
LINE
8
BLACK
6
CONTINUOUS
10
152.2
20
-145.189
11
152.21
21
-145.191
0
LINE
8
BLACK
6
CONTINUOUS
10
152.21
20
-145.191
11
152.213
21
-145.193
0
LINE
8
BLACK
6
CONTINUOUS
10
152.213
20
-145.193
11
152.216
21
-145.194
0
LINE
8
BLACK
6
CONTINUOUS
10
152.216
20
-145.194
11
152.224
21
-145.199
0
LINE
8
BLACK
6
CONTINUOUS
10
152.224
20
-145.199
11
152.233
21
-145.204
0
LINE
8
BLACK
6
CONTINUOUS
10
152.233
20
-145.204
11
152.239
21
-145.212
0
LINE
8
BLACK
6
CONTINUOUS
10
152.239
20
-145.212
11
152.596
21
-145.569
0
LINE
8
BLACK
6
CONTINUOUS
10
152.596
20
-145.569
11
164.847
21
-145.569
0
LINE
8
BLACK
6
CONTINUOUS
10
164.847
20
-145.569
11
164.921
21
-145.567
0
LINE
8
BLACK
6
CONTINUOUS
10
164.921
20
-145.567
11
165.536
21
-145.47
0
LINE
8
BLACK
6
CONTINUOUS
10
165.536
20
-145.47
11
166.102
21
-145.225
0
LINE
8
BLACK
6
CONTINUOUS
10
166.102
20
-145.225
11
166.594
21
-144.843
0
LINE
8
BLACK
6
CONTINUOUS
10
166.594
20
-144.843
11
188.344
21
-123.094
0
LINE
8
BLACK
6
CONTINUOUS
10
188.344
20
-123.094
11
188.395
21
-123.041
0
LINE
8
BLACK
6
CONTINUOUS
10
188.395
20
-123.041
11
188.761
21
-122.538
0
LINE
8
BLACK
6
CONTINUOUS
10
188.761
20
-122.538
11
188.988
21
-121.963
0
LINE
8
BLACK
6
CONTINUOUS
10
188.988
20
-121.963
11
189.066
21
-121.346
0
LINE
8
BLACK
6
CONTINUOUS
10
189.066
20
-121.346
11
189.066
21
-88.6573
0
LINE
8
BLACK
6
CONTINUOUS
10
189.066
20
-88.6573
11
189.065
21
-88.5834
0
LINE
8
BLACK
6
CONTINUOUS
10
189.065
20
-88.5834
11
188.968
21
-87.9692
0
LINE
8
BLACK
6
CONTINUOUS
10
188.968
20
-87.9692
11
188.722
21
-87.4022
0
LINE
8
BLACK
6
CONTINUOUS
10
188.722
20
-87.4022
11
188.341
21
-86.9103
0
LINE
8
BLACK
6
CONTINUOUS
10
188.341
20
-86.9103
11
166.591
21
-65.161
0
LINE
8
BLACK
6
CONTINUOUS
10
166.591
20
-65.161
11
166.538
21
-65.1096
0
LINE
8
BLACK
6
CONTINUOUS
10
166.538
20
-65.1096
11
166.035
21
-64.744
0
LINE
8
BLACK
6
CONTINUOUS
10
166.035
20
-64.744
11
165.461
21
-64.5166
0
LINE
8
BLACK
6
CONTINUOUS
10
165.461
20
-64.5166
11
164.843
21
-64.4386
0
LINE
8
BLACK
6
CONTINUOUS
10
164.843
20
-64.4386
11
132.155
21
-64.4386
  0
ENDSEC
  0
EOF
